<svg version="1.1" xmlns="http://www.w3.org/2000/svg" xmlns:xlink="http://www.w3.org/1999/xlink" width="278.14825" height="275.73944" viewBox="0,0,278.14825,275.73944"><g transform="translate(-158.27631,-57.70563)"><g data-paper-data="{&quot;isPaintingLayer&quot;:true}" fill-rule="nonzero" stroke-linejoin="miter" stroke-miterlimit="10" stroke-dasharray="" stroke-dashoffset="0" style="mix-blend-mode: normal"><g stroke-linecap="butt"><path d="M351.184,274.18759c-1.04317,-0.02072 -32.85395,-13.75305 -62.65686,-26.68369c-25.67649,-11.14031 -49.95631,-21.55213 -50.68802,-23.65168c-0.80899,-2.32129 17.92361,-26.41797 20.46597,-26.40593c5.82349,0.02757 108.0051,45.02042 112.90833,49.13167c3.52523,2.95583 -15.53452,27.6989 -20.02943,27.60962z" fill="#c41414" stroke="none" stroke-width="0"/><path d="M355.07649,275.40874l-23.38085,-10.82184l17.25802,-27.97908l23.38086,10.82185z" fill="#ef99b4" stroke="none" stroke-width="NaN"/><path d="M332.93276,264.7508l-16.26298,-6.05027l17.13676,-27.50732l16.26298,6.05027z" fill="#d8d8d8" stroke="none" stroke-width="NaN"/><path d="M352.12143,274.84353c-1.04317,-0.02072 -32.85395,-13.75305 -62.65686,-26.68369c-25.67649,-11.14031 -49.95631,-21.55213 -50.68802,-23.65168c-0.80899,-2.32129 17.92361,-26.41797 20.46597,-26.40593c5.82349,0.02757 108.0051,45.02042 112.90833,49.13167c3.52523,2.95583 -15.53452,27.6989 -20.02943,27.60962z" fill="none" stroke="#000000" stroke-width="5"/></g><g data-paper-data="{&quot;index&quot;:null}"><path d="M383.56536,287.5687l-81.7997,-42.22924l10.90896,-14.43189l82.81339,42.73495z" fill="#773f00" stroke="#000000" stroke-width="5" stroke-linecap="round"/><path d="M306.87722,282.90626l51.48177,16.69335l20.5367,-10.57502l11.68759,-14.51661l8.40152,-20.88801l-36.96139,-35.47507l4.82006,-3.74687l42.68149,33.59683l-11.80803,29.59888l-11.68759,14.51661l-25.27213,17.20329l-57.25641,-21.46709z" fill="#763e00" stroke="#000000" stroke-width="5" stroke-linecap="round"/><path d="M382.27645,287.89442l-58.07433,-30.39272l11.05449,-14.35926l58.79691,30.7532z" fill="#24202a" stroke="#000000" stroke-width="5" stroke-linecap="round"/><path d="M308.32084,284.09971l21.10391,-34.42515l32.16977,-31.74362" fill="none" stroke="#676767" stroke-width="5" stroke-linecap="round"/><g stroke-linecap="butt"><path d="M391.31407,270.61379l12.43709,6.20484l-13.59022,16.87979l-12.43709,-6.20484z" fill="#ff3535" stroke="none" stroke-width="0"/><path d="M402.86032,276.39654l9.58843,4.78364l-13.59022,16.87979l-9.58842,-4.78364z" fill="#efefef" stroke="none" stroke-width="0"/><path d="M411.78748,280.85027l9.58843,4.78364l-13.59022,16.87978l-9.58843,-4.78364z" fill="#ff3535" stroke="none" stroke-width="0"/><path d="M420.68616,285.31218l9.58843,4.78364l-13.59022,16.87978l-9.58843,-4.78364z" fill="#efefef" stroke="none" stroke-width="0"/><path d="M429.87886,289.87601l2.68225,14.58772l-16.27247,2.29206z" fill="#ff3535" stroke="none" stroke-width="0"/><path d="M391.28193,270.01604l37.36703,18.64232l4.53409,15.92249l-18.51522,1.4428l-37.36703,-18.64231z" fill="none" stroke="#000000" stroke-width="5"/></g></g><g stroke-linecap="round"><path d="M219.403,286.79204c0,0 -9.21963,40.87087 -16.26662,44.15451c-5.40208,2.51717 -39.64416,0.55215 -42.62976,0.44154c-4.81143,-0.17824 14.54947,-18.18429 17.38846,-25.60961c2.83899,-7.42532 0,-19.86953 0,-19.86953z" fill="#c41414" stroke="none" stroke-width="0"/><path d="M211.69038,305.72967l-7.57239,20.97338l-3.08505,2.64927l-13.74249,0.88309l-25.80222,-1.10386c0,0 12.72748,-12.37963 15.88623,-16.82273c2.07244,-2.91508 3.18498,-7.24147 3.18498,-7.24147z" fill="#5b5a5a" stroke="#5b5a5a" stroke-width="0.5"/><path d="M218.84208,288.07878c0,0 -9.08962,39.11742 -16.03721,42.26017c-5.3259,2.40918 -39.08507,0.52847 -42.02856,0.42261c-4.74359,-0.17059 14.34429,-17.40414 17.14323,-24.5109c2.79895,-7.10675 0,-19.01708 0,-19.01708z" fill="none" stroke="#000000" stroke-width="5"/></g><path d="M177.14275,287.67512c-1.29978,-0.7287 -1.62986,-29.28767 -1.74387,-56.0755c-0.09823,-23.07888 -0.55869,-44.8431 4.78539,-46.36294c5.90845,-1.68035 102.66318,-0.43268 105.94632,1.32463c7.5203,4.02531 5.93353,96.18839 0,101.55536c-4.26598,3.85864 -103.38721,2.69833 -108.98783,-0.44154z" fill="#c41414" stroke="#000000" stroke-width="5" stroke-linecap="butt"/><g><g stroke-linecap="round"><path d="M269.32468,189.16177c0,0 -9.29693,25.47812 -9.53561,46.80377c-0.23868,21.32564 8.41377,53.42695 8.41377,53.42695l-65.06647,-1.76618c0,0 8.05902,-35.33094 7.85285,-53.42695c-0.20617,-18.096 -8.97468,-45.03759 -8.97468,-45.03759z" fill="#f7f6f6" stroke="none" stroke-width="0"/><path d="M205.94097,285.86014l10.09653,-47.24531l-8.41377,-46.80377h56.09179l-7.85285,44.59605l8.41377,49.89459z" fill="none" stroke="#c6c7c7" stroke-width="5"/><path d="M269.32468,190.04486c0,0 -9.29693,25.47812 -9.53561,46.80377c-0.23868,21.32564 8.41377,53.42695 8.41377,53.42695l-65.06647,-1.76618c0,0 8.05902,-35.33094 7.85285,-53.42695c-0.20617,-18.096 -8.97468,-45.03759 -8.97468,-45.03759z" fill="none" stroke="#000000" stroke-width="5"/></g><path d="M227.25585,217.19989c0,-3.53595 3.64141,-6.4024 8.13331,-6.4024c4.4919,0 8.13331,2.86645 8.13331,6.4024c0,3.53595 -3.64141,6.4024 -8.13331,6.4024c-4.4919,0 -8.13331,-2.86645 -8.13331,-6.4024z" fill="#ffd901" stroke="none" stroke-width="NaN" stroke-linecap="butt"/><path d="M227.25585,233.53705c0,-3.53595 3.6414,-6.4024 8.13331,-6.4024c4.49191,0 8.13331,2.86645 8.13331,6.4024c0,3.53595 -3.6414,6.4024 -8.13331,6.4024c-4.49191,0 -8.13331,-2.86645 -8.13331,-6.4024z" fill="#ffd901" stroke="none" stroke-width="NaN" stroke-linecap="butt"/><path d="M227.25585,249.43267c0,-3.53595 3.6414,-6.4024 8.13331,-6.4024c4.49191,0 8.13331,2.86645 8.13331,6.4024c0,3.53596 -3.6414,6.4024 -8.13331,6.4024c-4.49191,0 -8.13331,-2.86645 -8.13331,-6.4024z" fill="#ffd901" stroke="none" stroke-width="NaN" stroke-linecap="butt"/></g><g stroke-linecap="round"><path d="M285.59129,289.66208c0,0 17.84147,40.97626 11.77927,41.06222c-8.26752,0.11724 -30.46136,-0.63955 -37.02058,-0.50076c-8.96627,0.18971 10.92434,-8.35289 10.65744,-17.52657c-0.2669,-9.17367 -11.77927,-21.03187 -11.77927,-21.03187z" fill="#c41414" stroke="none" stroke-width="0"/><path d="M288.81657,304.40503c0,0 3.1113,6.37553 4.08024,9.99023c1.15005,4.29035 3.77261,15.39861 3.77261,15.39861l-35.05736,-1.10386l10.9379,-13.46712c0,0 -0.04412,-4.91858 -0.29778,-6.79553c-0.20182,-1.49337 -0.5436,-4.02233 -0.5436,-4.02233z" fill="#5a5b5a" stroke="#5a5b5a" stroke-width="0.5"/><path d="M285.59129,289.88285c0,0 17.84147,40.97626 11.77927,41.06222c-8.26752,0.11724 -30.46136,-0.63955 -37.02058,-0.50076c-8.96627,0.18971 10.92434,-8.35289 10.65744,-17.52657c-0.2669,-9.17367 -11.77927,-21.03187 -11.77927,-21.03187z" fill="none" stroke="#000000" stroke-width="5"/></g><g><g><path d="M167.99349,186.93808c-1.44721,-0.84424 1.71313,-29.29634 4.90888,-55.966c2.75329,-22.97707 4.91453,-44.67897 11.42621,-45.70203c7.19935,-1.13112 121.51719,8.97261 125.18304,11.02222c8.39697,4.69479 -4.93939,96.27003 -12.62679,101.06778c-5.52693,3.44939 -122.65551,-6.78417 -128.89136,-10.42194z" fill="#ffbbce" stroke="#000000" stroke-width="5" stroke-linecap="butt"/><path d="M174.7211,140.30974c-0.51999,-0.21548 0.20092,-7.00427 0.95866,-13.36565c0.65282,-5.48061 1.11512,-10.66105 3.38878,-10.84689c2.51379,-0.20546 42.81417,3.25663 44.13011,3.78114c3.01427,1.20141 -0.41778,23.02289 -3.05286,24.10249c-1.89451,0.77619 -43.18414,-2.74262 -45.4247,-3.67108z" fill="#ffffff" stroke="#000000" stroke-width="5" stroke-linecap="butt"/><path d="M197.20675,139.95191c-0.24032,-0.18752 0.77013,-6.0688 1.75819,-11.57966c0.85127,-4.74785 1.57827,-9.23592 2.73684,-9.39342c1.28093,-0.17414 21.17093,2.88823 21.78109,3.34475c1.39762,1.04569 -2.40966,19.94835 -3.83497,20.87973c-1.02475,0.66962 -21.40567,-2.44341 -22.44116,-3.25139z" fill="#ff0000" stroke="#000000" stroke-width="5" stroke-linecap="butt"/><path d="M259.37691,146.05671c-0.51454,-0.22345 0.37487,-6.99985 1.29052,-13.34835c0.78887,-5.4695 1.37976,-10.64184 3.65761,-10.79265c2.51843,-0.16673 42.72508,3.9151 44.02774,4.45976c2.98385,1.2476 -0.98967,23.01205 -3.65107,24.05089c-1.91345,0.74688 -43.10772,-3.40688 -45.3248,-4.36965z" fill="#ffffff" stroke="#000000" stroke-width="5" stroke-linecap="butt"/><path d="M281.86714,146.0451c-0.23562,-0.19118 0.92075,-6.05578 2.04553,-11.5504c0.96905,-4.73384 1.80741,-9.20985 2.96969,-9.34948c1.28503,-0.15438 21.09514,3.2136 21.69383,3.67941c1.37137,1.06699 -2.90477,19.90743 -4.35296,20.8167c-1.04118,0.65372 -21.34088,-2.77247 -22.35609,-3.59624z" fill="#ff0000" stroke="#000000" stroke-width="5" stroke-linecap="butt"/><g stroke="#000000" stroke-width="5"><path d="M201.01711,61.27251l-1.82091,10.06357l8.9316,0.69145l2.99225,-10.41656l21.82566,1.24598l0.86043,11.15849l32.43194,2.06708l1.20778,-9.66736l24.11347,0.97942l-0.42072,12.39034l8.37337,0.64823l3.15695,-11.73483l21.66097,2.56425l-3.57767,24.12516l-7.86082,4.27188l-134.58708,-9.97553l-5.86598,-2.6725l4.46529,-26.7185z" fill="#fee70a" stroke-linecap="round"/><path d="M202.24386,87.54431c-5.54939,-0.42961 -9.69165,-3.63057 -9.25202,-7.14954c0.43963,-3.51897 5.2947,-6.0234 10.84408,-5.59378c5.54939,0.42961 9.69165,3.63057 9.25202,7.14954c-0.43963,3.51897 -5.2947,6.0234 -10.84408,5.59378z" fill="#7e93ff" stroke-linecap="butt"/><path d="M249.02495,92.05328c-6.78258,-0.52509 -11.8631,-4.29528 -11.34766,-8.42097c0.51544,-4.12569 6.43166,-7.04456 13.21423,-6.51949c6.78258,0.52509 11.8631,4.29528 11.34766,8.42097c-0.51544,4.12569 -6.43166,7.04456 -13.21423,6.51949z" fill="#0026ff" stroke-linecap="butt"/><path d="M293.4038,95.48892c-6.93674,-0.53702 -12.17908,-4.02178 -11.70913,-7.78344c0.46996,-3.76166 6.47426,-6.37575 13.41099,-5.83874c6.93674,0.53702 12.17908,4.02178 11.70913,7.78344c-0.46996,3.76166 -6.47426,6.37575 -13.41099,5.83874z" fill="#b6ff00" stroke-linecap="butt"/></g><g stroke-linecap="butt"><path d="M209.53882,182.53625c-0.59989,-0.23631 0.16259,-7.61882 0.9716,-14.53621c0.69701,-5.95964 1.17787,-11.59346 3.78993,-11.78725c2.88791,-0.21428 49.25186,3.70015 50.76981,4.27556c3.477,1.31804 -0.25553,25.04375 -3.27433,26.20849c-2.17039,0.83741 -49.67217,-3.14234 -52.257,-4.16059z" fill="#fea3c1" stroke="none" stroke-width="0"/><path d="M213.73927,166.96475l1.15287,-9.22792l51.35669,3.97584l-1.15287,9.22792z" fill="#ffc7d9" stroke="none" stroke-width="0"/><path d="M216.40674,166.29688c0.45416,0.01313 0.77552,0.09013 0.77552,0.09013l4.25219,1.54173c0.04782,1.28484 0.31153,2.57594 0.14348,3.85449c-0.47759,3.63355 -4.42084,9.1498 -10.04291,4.40343c-1.91246,-1.61457 0.90832,-6.612 1.58936,-8.37357c0,0 0.77223,-1.99744 3.28235,-1.51622z" fill="#563741" stroke="none" stroke-width="0.5"/><path d="M263.59338,170.96827c0.67277,0.58304 1.0719,1.43722 1.19017,2.30794c1.7464,1.33091 3.2422,2.84281 1.37218,5.299c-2.00148,2.62885 -8.01275,3.07005 -10.46604,0.58609c-1.65105,-1.67171 -0.06428,-6.74212 3.05309,-8.48483c0.47579,-0.56173 1.42326,-1.23328 3.09747,-0.8322c0.98443,0.23584 1.49774,0.66947 1.75314,1.12399z" fill="#563741" stroke="none" stroke-width="0.5"/><path d="M209.92353,183.97268l0.60388,-4.83367l54.1478,4.19191l-0.60388,4.83367z" fill="#a06778" stroke="none" stroke-width="0"/><path d="M209.98725,183.45831c-0.59989,-0.23631 0.16259,-7.61882 0.9716,-14.53621c0.69701,-5.95964 1.17787,-11.59346 3.78993,-11.78725c2.88791,-0.21428 49.25186,3.70015 50.76981,4.27556c3.477,1.31804 -0.25553,25.04375 -3.27433,26.20849c-2.17039,0.83741 -49.67217,-3.14234 -52.257,-4.16059z" fill="none" stroke="#000000" stroke-width="5"/></g></g><path d="M174.52317,96.13662l57.54333,26.63854" fill="none" stroke="#000000" stroke-width="5" stroke-linecap="round"/><path d="M255.62175,123.71136l64.60734,-11.858" fill="none" stroke="#000000" stroke-width="5" stroke-linecap="round"/></g><g stroke-linecap="butt"><path d="M341.87118,275.3722c-1.04317,-0.02043 -32.8599,-13.74425 -62.66839,-26.66691c-25.68131,-11.13344 -49.96562,-21.53874 -50.69825,-23.63809c-0.81,-2.32108 17.91219,-26.42277 20.45456,-26.4114c5.82351,0.02602 108.02456,44.99148 112.92956,49.10142c3.52652,2.9549 -15.52254,27.70306 -20.01748,27.61498z" fill="#c41414" stroke="none" stroke-width="0"/><path d="M345.09686,275.99007l-23.48546,-9.9624l18.54951,-27.43024l23.48544,9.9624z" fill="#ef99b4" stroke="none" stroke-width="NaN"/><path d="M323.61586,265.94033l-16.26561,-6.04592l17.12486,-27.5119l16.26561,6.04592z" fill="#d8d8d8" stroke="none" stroke-width="NaN"/><path d="M342.80889,276.0279c-1.04317,-0.02043 -32.8599,-13.74425 -62.66839,-26.66691c-25.68131,-11.13344 -49.96562,-21.53874 -50.69825,-23.63809c-0.81,-2.32108 17.91219,-26.42277 20.45456,-26.4114c5.82351,0.02602 108.02456,44.99148 112.92956,49.10142c3.52652,2.9549 -15.52254,27.70306 -20.01748,27.61498z" fill="none" stroke="#000000" stroke-width="5"/></g></g></g></svg>