<svg version="1.1" xmlns="http://www.w3.org/2000/svg" xmlns:xlink="http://www.w3.org/1999/xlink" width="274.11939" height="288.6898" viewBox="0,0,274.11939,288.6898"><g transform="translate(-164.21833,-44.69421)"><g data-paper-data="{&quot;isPaintingLayer&quot;:true}" fill-rule="nonzero" stroke-linejoin="miter" stroke-miterlimit="10" stroke-dasharray="" stroke-dashoffset="0" style="mix-blend-mode: normal"><g stroke-linecap="butt"><path d="M356.8364,277.69999c-0.9847,-0.02171 -31.01237,-14.41054 -59.14472,-27.95935c-24.23723,-11.67289 -47.15608,-22.58246 -47.84677,-24.78239c-0.76364,-2.43226 16.91893,-27.68092 19.31878,-27.66831c5.49706,0.02889 101.95102,47.17269 106.57941,51.48049c3.32763,3.09714 -14.66375,29.02309 -18.90671,28.92954z" fill="#c41414" stroke="none" stroke-width="0"/><path d="M360.5107,278.97952l-22.07027,-11.3392l16.29065,-29.31666l22.07028,11.33921z" fill="#ef99b4" stroke="none" stroke-width="NaN"/><path d="M339.60821,267.81206l-15.35138,-6.33951l16.17618,-28.82235l15.35138,6.33951z" fill="#d8d8d8" stroke="none" stroke-width="NaN"/><path d="M357.72128,278.38729c-0.9847,-0.02171 -31.01237,-14.41054 -59.14472,-27.95935c-24.23723,-11.67289 -47.15608,-22.58246 -47.84677,-24.78239c-0.76364,-2.43226 16.91893,-27.68092 19.31878,-27.66831c5.49706,0.02889 101.95102,47.17269 106.57941,51.48049c3.32763,3.09714 -14.66375,29.02309 -18.90671,28.92954z" fill="none" stroke="#000000" stroke-width="5"/></g><g data-paper-data="{&quot;index&quot;:null}"><path d="M388.34661,286.48177l-77.21453,-44.24807l10.29747,-15.12183l78.1714,44.77796z" fill="#773f00" stroke="#000000" stroke-width="5" stroke-linecap="round"/><path d="M315.95712,281.59644l48.59603,17.4914l19.38554,-11.08057l11.03246,-15.2106l7.93058,-21.88659l-34.88957,-37.17101l4.54988,-3.92599l40.28904,35.20298l-11.14615,31.0139l-11.03246,15.2106l-23.85554,18.02572l-54.04698,-22.49336z" fill="#763e00" stroke="#000000" stroke-width="5" stroke-linecap="round"/><path d="M387.12995,286.82306l-54.81905,-31.84569l10.43485,-15.04573l55.50113,32.2234z" fill="#24202a" stroke="#000000" stroke-width="5" stroke-linecap="round"/><path d="M317.31982,282.84694l19.92096,-36.0709l30.36654,-33.26117" fill="none" stroke="#676767" stroke-width="5" stroke-linecap="round"/><g stroke-linecap="butt"><path d="M395.66098,268.7163l11.73995,6.50147l-12.82844,17.68675l-11.73995,-6.50147z" fill="#ff3535" stroke="none" stroke-width="0"/><path d="M406.56002,274.77551l9.05096,5.01233l-12.82844,17.68675l-9.05095,-5.01233z" fill="#efefef" stroke="none" stroke-width="0"/><path d="M414.98678,279.44216l9.05096,5.01233l-12.82844,17.68674l-9.05096,-5.01233z" fill="#ff3535" stroke="none" stroke-width="0"/><path d="M423.38666,284.11737l9.05096,5.01233l-12.82844,17.68674l-9.05096,-5.01233z" fill="#efefef" stroke="none" stroke-width="0"/><path d="M432.06407,288.89938l2.5319,15.28511l-15.36034,2.40164z" fill="#ff3535" stroke="none" stroke-width="0"/><path d="M395.63064,268.08998l35.27247,19.53354l4.27994,16.68369l-17.47737,1.51178l-35.27247,-19.53353z" fill="none" stroke="#000000" stroke-width="5"/></g></g><g stroke-linecap="round"><path d="M222.05879,284.62017c0,0 -8.70284,42.82477 -15.35482,46.26538c-5.09927,2.63751 -37.42196,0.57855 -40.24021,0.46265c-4.54173,-0.18676 13.73392,-19.05362 16.41377,-26.83392c2.67985,-7.7803 0,-20.81942 0,-20.81942z" fill="#c41414" stroke="none" stroke-width="0"/><path d="M214.77849,304.46315l-7.14793,21.97605l-2.91212,2.77592l-12.97217,0.92531l-24.35591,-1.15663c0,0 12.01406,-12.97146 14.99575,-17.62697c1.95627,-3.05444 3.00645,-7.58766 3.00645,-7.58766z" fill="#5b5a5a" stroke="#5b5a5a" stroke-width="0.5"/><path d="M221.52931,285.96843c0,0 -8.58011,40.98749 -15.13827,44.28048c-5.02736,2.52435 -36.89421,0.55373 -39.67271,0.44281c-4.47769,-0.17875 13.54024,-18.23617 16.18229,-25.68268c2.64206,-7.4465 0,-19.92622 0,-19.92622z" fill="none" stroke="#000000" stroke-width="5"/></g><path d="M182.16738,285.54547c-1.22692,-0.76354 -1.5385,-30.68781 -1.64612,-58.75628c-0.09272,-24.1822 -0.52737,-46.98689 4.51715,-48.57939c5.57726,-1.76068 96.90854,-0.45337 100.00764,1.38796c7.09876,4.21775 5.60093,100.78682 0,106.41037c-4.02686,4.04311 -97.59198,2.82733 -102.87867,-0.46265z" fill="#c41414" stroke="#000000" stroke-width="5" stroke-linecap="butt"/><g><g stroke-linecap="round"><path d="M269.18218,182.32254c0,0 -8.7758,26.69614 -9.0011,49.0413c-0.2253,22.34515 7.94215,55.98111 7.94215,55.98111l-61.41926,-1.85062c0,0 7.60728,-37.01999 7.41267,-55.98111c-0.19461,-18.96111 -8.47162,-47.19068 -8.47162,-47.19068z" fill="#f7f6f6" stroke="none" stroke-width="0"/><path d="M209.35136,283.64372l9.53058,-49.50395l-7.94215,-49.0413h52.94764l-7.41267,46.72803l7.94215,52.27988z" fill="none" stroke="#c6c7c7" stroke-width="5"/><path d="M269.18218,183.24785c0,0 -8.7758,26.69614 -9.0011,49.0413c-0.2253,22.34515 7.94215,55.98111 7.94215,55.98111l-61.41926,-1.85062c0,0 7.60728,-37.01999 7.41267,-55.98111c-0.19461,-18.96111 -8.47162,-47.19068 -8.47162,-47.19068z" fill="none" stroke="#000000" stroke-width="5"/></g><path d="M229.47146,211.70106c0,-3.70499 3.4373,-6.70848 7.67741,-6.70848c4.24011,0 7.67741,3.00349 7.67741,6.70848c0,3.70499 -3.4373,6.70848 -7.67741,6.70848c-4.24011,0 -7.67741,-3.00349 -7.67741,-6.70848z" fill="#ffd901" stroke="none" stroke-width="NaN" stroke-linecap="butt"/><path d="M229.47146,228.81925c0,-3.70499 3.43729,-6.70848 7.67741,-6.70848c4.24012,0 7.67741,3.00349 7.67741,6.70848c0,3.70499 -3.43729,6.70848 -7.67741,6.70848c-4.24012,0 -7.67741,-3.00349 -7.67741,-6.70848z" fill="#ffd901" stroke="none" stroke-width="NaN" stroke-linecap="butt"/><path d="M229.47146,245.47478c0,-3.70499 3.43729,-6.70848 7.67741,-6.70848c4.24012,0 7.67741,3.00349 7.67741,6.70848c0,3.705 -3.43729,6.70848 -7.67741,6.70848c-4.24012,0 -7.67741,-3.00348 -7.67741,-6.70848z" fill="#ffd901" stroke="none" stroke-width="NaN" stroke-linecap="butt"/></g><g stroke-linecap="round"><path d="M284.53699,287.62742c0,0 16.84139,42.93519 11.119,43.02526c-7.8041,0.12285 -28.75389,-0.67012 -34.94544,-0.5247c-8.46368,0.19878 10.31199,-8.75221 10.06005,-18.36445c-0.25194,-9.61223 -11.119,-22.03733 -11.119,-22.03733z" fill="#c41414" stroke="none" stroke-width="0"/><path d="M287.58148,303.07518c0,0 2.9369,6.68032 3.85153,10.46783c1.08559,4.49546 3.56114,16.13476 3.56114,16.13476l-33.09227,-1.15663l10.32479,-14.11094c0,0 -0.04165,-5.15372 -0.28109,-7.1204c-0.19051,-1.56476 -0.51313,-4.21462 -0.51313,-4.21462z" fill="#5a5b5a" stroke="#5a5b5a" stroke-width="0.5"/><path d="M284.53699,287.85874c0,0 16.84139,42.93519 11.119,43.02526c-7.8041,0.12285 -28.75389,-0.67012 -34.94544,-0.5247c-8.46368,0.19878 10.31199,-8.75221 10.06005,-18.36445c-0.25194,-9.61223 -11.119,-22.03733 -11.119,-22.03733z" fill="none" stroke="#000000" stroke-width="5"/></g><g><g><path d="M173.53097,179.99254c-1.36609,-0.8846 1.6171,-30.6969 4.63372,-58.64154c2.59896,-24.07552 4.63905,-46.81492 10.78573,-47.88689c6.7958,-1.18519 114.70571,9.40156 118.16608,11.54915c7.92629,4.91923 -4.66252,100.87237 -11.91901,105.89948c-5.21713,3.61429 -115.78022,-7.1085 -121.66653,-10.92018z" fill="#ffbbce" stroke="#000000" stroke-width="5" stroke-linecap="butt"/><path d="M179.88147,131.13506c-0.49084,-0.22578 0.18966,-7.33912 0.90492,-14.00462c0.61623,-5.74262 1.05261,-11.17072 3.19883,-11.36544c2.37288,-0.21528 40.41428,3.41232 41.65646,3.9619c2.84531,1.25885 -0.39436,24.12353 -2.88174,25.25475c-1.78832,0.8133 -40.76351,-2.87374 -42.87848,-3.84658z" fill="#ffffff" stroke="#000000" stroke-width="5" stroke-linecap="butt"/><path d="M201.10672,130.76012c-0.22685,-0.19648 0.72696,-6.35893 1.65964,-12.13324c0.80355,-4.97483 1.4898,-9.67746 2.58343,-9.84249c1.20913,-0.18246 19.98422,3.02631 20.56018,3.50465c1.31928,1.09568 -2.27459,20.90201 -3.62001,21.87792c-0.96731,0.70163 -20.2058,-2.56022 -21.18325,-3.40683z" fill="#ff0000" stroke="#000000" stroke-width="5" stroke-linecap="butt"/><path d="M259.79202,137.15677c-0.4857,-0.23413 0.35386,-7.33449 1.21818,-13.98649c0.74465,-5.73098 1.30242,-11.15059 3.45259,-11.30861c2.37726,-0.1747 40.33018,4.10227 41.55983,4.67297c2.81659,1.30724 -0.9342,24.11218 -3.44641,25.20068c-1.80619,0.78259 -40.69138,-3.56975 -42.78418,-4.57855z" fill="#ffffff" stroke="#000000" stroke-width="5" stroke-linecap="butt"/><path d="M281.02159,137.14461c-0.22241,-0.20032 0.86914,-6.34529 1.93087,-12.10258c0.91473,-4.96015 1.7061,-9.65014 2.80323,-9.79645c1.213,-0.16176 19.91268,3.36723 20.47781,3.85531c1.2945,1.118 -2.74195,20.85914 -4.10896,21.81187c-0.98282,0.68497 -20.14465,-2.90501 -21.10295,-3.76816z" fill="#ff0000" stroke="#000000" stroke-width="5" stroke-linecap="butt"/><g stroke="#000000" stroke-width="5"><path d="M204.7035,48.31933l-1.71884,10.54467l8.43095,0.72451l2.82452,-10.91454l20.60225,1.30555l0.8122,11.69194l30.61401,2.1659l1.14008,-10.12952l22.76182,1.02624l-0.39714,12.98268l7.90401,0.67922l2.97999,-12.29583l20.44679,2.68684l-3.37713,25.2785l-7.42019,4.4761l-127.04299,-10.45243l-5.53717,-2.80026l4.21499,-27.99582z" fill="#fee70a" stroke-linecap="round"/><path d="M205.86148,75.8471c-5.23833,-0.45015 -9.1484,-3.80414 -8.73341,-7.49134c0.41499,-3.6872 4.99791,-6.31136 10.23623,-5.8612c5.23833,0.45015 9.1484,3.80414 8.73341,7.49134c-0.41499,3.6872 -4.99791,6.31136 -10.23623,5.8612z" fill="#7e93ff" stroke-linecap="butt"/><path d="M250.02032,80.57163c-6.40239,-0.55019 -11.19813,-4.50062 -10.71158,-8.82355c0.48655,-4.32293 6.07114,-7.38134 12.47352,-6.83116c6.40239,0.55019 11.19813,4.50062 10.71158,8.82355c-0.48655,4.32293 -6.07114,7.38134 -12.47352,6.83116z" fill="#0026ff" stroke-linecap="butt"/><path d="M291.91158,84.17151c-6.54791,-0.56269 -11.4964,-4.21405 -11.05279,-8.15554c0.44362,-3.94149 6.11135,-6.68055 12.65926,-6.11787c6.54791,0.56269 11.4964,4.21405 11.05279,8.15554c-0.44362,3.94149 -6.11135,6.68055 -12.65926,6.11787z" fill="#b6ff00" stroke-linecap="butt"/></g><g stroke-linecap="butt"><path d="M212.74753,175.38028c-0.56626,-0.24761 0.15348,-7.98305 0.91714,-15.23114c0.65794,-6.24455 1.11185,-12.1477 3.57749,-12.35076c2.72603,-0.22452 46.49111,3.87704 47.92398,4.47996c3.2821,1.38105 -0.24121,26.241 -3.09079,27.46143c-2.04873,0.87744 -46.88786,-3.29256 -49.32781,-4.35949z" fill="#fea3c1" stroke="none" stroke-width="0"/><path d="M216.71253,159.06436l1.08825,-9.66908l48.47796,4.16591l-1.08825,9.66908z" fill="#ffc7d9" stroke="none" stroke-width="0"/><path d="M219.23048,158.36456c0.4287,0.01376 0.73205,0.09444 0.73205,0.09444l4.01384,1.61544c0.04514,1.34626 0.29407,2.69909 0.13544,4.03876c-0.45082,3.80726 -4.17304,9.58722 -9.47997,4.61394c-1.80526,-1.69176 0.85741,-6.9281 1.50027,-8.77388c0,0 0.72894,-2.09293 3.09836,-1.58871z" fill="#563741" stroke="none" stroke-width="0.5"/><path d="M263.77214,163.25927c0.63506,0.61091 1.01182,1.50593 1.12346,2.41827c1.64851,1.39454 3.06046,2.97871 1.29526,5.55233c-1.88929,2.75453 -7.56361,3.21682 -9.87938,0.61411c-1.5585,-1.75163 -0.06068,-7.06444 2.88195,-8.89046c0.44912,-0.58858 1.34348,-1.29224 2.92385,-0.87198c0.92925,0.24711 1.41379,0.70147 1.65487,1.17772z" fill="#563741" stroke="none" stroke-width="0.5"/><path d="M213.11068,176.88538l0.57003,-5.06475l51.11262,4.39231l-0.57003,5.06475z" fill="#a06778" stroke="none" stroke-width="0"/><path d="M213.17083,176.34642c-0.56626,-0.24761 0.15348,-7.98305 0.91714,-15.23114c0.65794,-6.24455 1.11185,-12.1477 3.57749,-12.35076c2.72603,-0.22452 46.49111,3.87704 47.92398,4.47996c3.2821,1.38105 -0.24121,26.241 -3.09079,27.46143c-2.04873,0.87744 -46.88786,-3.29256 -49.32781,-4.35949z" fill="none" stroke="#000000" stroke-width="5"/></g></g><path d="M234.01246,112.76222l-54.31782,-27.91204" fill="none" stroke="#000000" stroke-width="5" stroke-linecap="round"/><path d="M317.23321,101.31828l-60.98586,12.42489" fill="none" stroke="#000000" stroke-width="5" stroke-linecap="round"/></g><g stroke-linecap="butt"><path d="M348.98954,283.13246c-0.9847,-0.02141 -31.01798,-14.40131 -59.1556,-27.94176c-24.24178,-11.66569 -47.16487,-22.56843 -47.85643,-24.76815c-0.7646,-2.43204 16.90815,-27.68595 19.30801,-27.67404c5.49708,0.02726 101.96939,47.14237 106.59945,51.44879c3.32885,3.09616 -14.65245,29.02745 -18.89543,28.93516z" fill="#c41414" stroke="none" stroke-width="0"/><path d="M352.03441,283.77987l-22.16901,-10.43867l17.50974,-28.74158l22.169,10.43867z" fill="#ef99b4" stroke="none" stroke-width="NaN"/><path d="M331.7575,273.24968l-15.35386,-6.33495l16.16495,-28.82715l15.35386,6.33495z" fill="#d8d8d8" stroke="none" stroke-width="NaN"/><path d="M349.87469,283.8195c-0.9847,-0.02141 -31.01798,-14.40131 -59.1556,-27.94176c-24.24178,-11.66569 -47.16487,-22.56843 -47.85643,-24.76815c-0.7646,-2.43204 16.90815,-27.68595 19.30801,-27.67404c5.49708,0.02726 101.96939,47.14237 106.59945,51.44879c3.32885,3.09616 -14.65245,29.02745 -18.89543,28.93516z" fill="none" stroke="#000000" stroke-width="5"/></g></g></g></svg>