<svg version="1.1" xmlns="http://www.w3.org/2000/svg" xmlns:xlink="http://www.w3.org/1999/xlink" width="259.0764" height="311.59856" viewBox="0,0,259.0764,311.59856"><g transform="translate(-169.16397,-21.67741)"><g data-paper-data="{&quot;isPaintingLayer&quot;:true}" fill-rule="nonzero" stroke-linejoin="miter" stroke-miterlimit="10" stroke-dasharray="" stroke-dashoffset="0" style="mix-blend-mode: normal"><g stroke-linecap="butt"><path d="M351.19802,273.29884c-0.92988,-0.02346 -29.28589,-15.57378 -55.85208,-30.21628c-22.88792,-12.61515 -44.53086,-24.40536 -45.1831,-26.78287c-0.72113,-2.6286 15.97704,-29.91537 18.24329,-29.90174c5.19103,0.03122 96.27532,50.98055 100.64605,55.63609c3.14238,3.34715 -13.84741,31.36589 -17.85416,31.26478z" fill="#c41414" stroke="none" stroke-width="0"/><path d="M354.66777,274.68166l-20.8416,-12.25452l15.38374,-31.68315l20.84161,12.25453z" fill="#ef99b4" stroke="none" stroke-width="NaN"/><path d="M334.92894,262.61274l-14.49676,-6.85125l15.27564,-31.14894l14.49676,6.85125z" fill="#d8d8d8" stroke="none" stroke-width="NaN"/><path d="M352.03364,274.04162c-0.92988,-0.02346 -29.28589,-15.57378 -55.85208,-30.21628c-22.88792,-12.61515 -44.53086,-24.40536 -45.1831,-26.78287c-0.72113,-2.6286 15.97704,-29.91537 18.24329,-29.90174c5.19103,0.03122 96.27532,50.98055 100.64605,55.63609c3.14238,3.34715 -13.84741,31.36589 -17.85416,31.26478z" fill="none" stroke="#000000" stroke-width="5"/></g><g data-paper-data="{&quot;index&quot;:null}"><path d="M380.95403,282.7895l-72.91593,-47.81985l9.7242,-16.34249l73.81953,48.39252z" fill="#773f00" stroke="#000000" stroke-width="5" stroke-linecap="round"/><path d="M312.59452,277.50982l45.89065,18.90334l18.30633,-11.97501l10.41827,-16.43843l7.48908,-23.65332l-32.94724,-40.17152l4.29658,-4.2429l38.04612,38.04463l-10.52563,33.5174l-10.41827,16.43843l-22.52748,19.48079l-51.03814,-24.30906z" fill="#763e00" stroke="#000000" stroke-width="5" stroke-linecap="round"/><path d="M379.8051,283.15835l-51.76723,-34.41633l9.85393,-16.26025l52.41134,34.82453z" fill="#24202a" stroke="#000000" stroke-width="5" stroke-linecap="round"/><path d="M313.88136,278.86126l18.81194,-38.98261l28.67601,-35.94607" fill="none" stroke="#676767" stroke-width="5" stroke-linecap="round"/><g stroke-linecap="butt"><path d="M387.8612,263.58997l11.08638,7.02628l-12.11427,19.11446l-11.08638,-7.02628z" fill="#ff3535" stroke="none" stroke-width="0"/><path d="M398.15348,270.1383l8.54709,5.41693l-12.11427,19.11446l-8.54708,-5.41693z" fill="#efefef" stroke="none" stroke-width="0"/><path d="M406.11112,275.18165l8.54709,5.41693l-12.11427,19.11445l-8.54709,-5.41693z" fill="#ff3535" stroke="none" stroke-width="0"/><path d="M414.04337,280.23425l8.54709,5.41693l-12.11427,19.11445l-8.54709,-5.41693z" fill="#efefef" stroke="none" stroke-width="0"/><path d="M422.2377,285.40227l2.39095,16.51895l-14.50522,2.59551z" fill="#ff3535" stroke="none" stroke-width="0"/><path d="M387.83255,262.9131l33.30882,21.11032l4.04167,18.03043l-16.50439,1.63381l-33.30882,-21.11031z" fill="none" stroke="#000000" stroke-width="5"/></g></g><g stroke-linecap="round"><path d="M223.92359,280.77763c0,0 -8.21835,46.28166 -14.5,50c-4.81539,2.85041 -35.33865,0.62525 -38,0.5c-4.28889,-0.20184 12.96934,-20.59166 15.5,-29c2.53066,-8.40834 0,-22.5 0,-22.5z" fill="#c41414" stroke="none" stroke-width="0"/><path d="M217.04859,302.22237l-6.75,23.75l-2.75,3l-12.25,1l-23,-1.25c0,0 11.34523,-14.01854 14.16092,-19.04985c1.84736,-3.301 2.83908,-8.20015 2.83908,-8.20015z" fill="#5b5a5a" stroke="#5b5a5a" stroke-width="0.5"/><path d="M223.42359,282.23473c0,0 -8.10245,44.29607 -14.29551,47.85488c-4.74748,2.72812 -34.84028,0.59843 -37.4641,0.47855c-4.22841,-0.19318 12.78644,-19.70823 15.28141,-27.75583c2.49497,-8.0476 0,-21.5347 0,-21.5347z" fill="none" stroke="#000000" stroke-width="5"/></g><path d="M186.25297,281.77763c-1.15862,-0.82517 -1.45285,-33.16499 -1.55448,-63.49919c-0.08756,-26.13423 -0.49801,-50.77976 4.26568,-52.50081c5.26677,-1.90281 91.51356,-0.48997 94.44013,1.5c6.70357,4.55821 5.28912,108.92251 0,115c-3.80268,4.36948 -92.15895,3.05556 -97.15133,-0.5z" fill="#c41414" stroke="#000000" stroke-width="5" stroke-linecap="butt"/><g><g stroke-linecap="round"><path d="M268.42358,170.22236c0,0 -8.28724,28.8511 -8.5,53c-0.21276,24.14889 7.5,60.5 7.5,60.5l-58,-2c0,0 7.18378,-40.00831 7,-60.5c-0.18378,-20.49169 -8,-51 -8,-51z" fill="#f7f6f6" stroke="none" stroke-width="0"/><path d="M211.92359,279.72236l9,-53.5l-7.5,-53h50l-7,50.5l7.5,56.5z" fill="none" stroke="#c6c7c7" stroke-width="5"/><path d="M268.42358,171.22236c0,0 -8.28724,28.8511 -8.5,53c-0.21276,24.14889 7.5,60.5 7.5,60.5l-58,-2c0,0 7.18378,-40.00831 7,-60.5c-0.18378,-20.49169 -8,-51 -8,-51z" fill="none" stroke="#000000" stroke-width="5"/></g><path d="M230.92359,201.97236c0,-4.00406 3.24594,-7.25 7.25,-7.25c4.00406,0 7.25,3.24594 7.25,7.25c0,4.00406 -3.24594,7.25 -7.25,7.25c-4.00406,0 -7.25,-3.24594 -7.25,-7.25z" fill="#ffd901" stroke="none" stroke-width="NaN" stroke-linecap="butt"/><path d="M230.92359,220.47236c0,-4.00406 3.24593,-7.25 7.25,-7.25c4.00407,0 7.25,3.24594 7.25,7.25c0,4.00406 -3.24593,7.25 -7.25,7.25c-4.00407,0 -7.25,-3.24594 -7.25,-7.25z" fill="#ffd901" stroke="none" stroke-width="NaN" stroke-linecap="butt"/><path d="M230.92359,238.47236c0,-4.00406 3.24593,-7.25 7.25,-7.25c4.00407,0 7.25,3.24594 7.25,7.25c0,4.00407 -3.24593,7.25 -7.25,7.25c-4.00407,0 -7.25,-3.24593 -7.25,-7.25z" fill="#ffd901" stroke="none" stroke-width="NaN" stroke-linecap="butt"/></g><g stroke-linecap="round"><path d="M282.92358,284.02763c0,0 15.90382,46.40099 10.5,46.49834c-7.36964,0.13277 -27.15314,-0.72421 -33,-0.56705c-7.9925,0.21483 9.73791,-9.4587 9.5,-19.84686c-0.23791,-10.38815 -10.5,-23.81622 -10.5,-23.81622z" fill="#c41414" stroke="none" stroke-width="0"/><path d="M285.79858,300.72237c0,0 2.7734,7.21957 3.63711,11.31281c1.02515,4.85834 3.36289,17.43719 3.36289,17.43719l-31.25,-1.25l9.75,-15.25c0,0 -0.03933,-5.56974 -0.26544,-7.69517c-0.1799,-1.69107 -0.48456,-4.55483 -0.48456,-4.55483z" fill="#5a5b5a" stroke="#5a5b5a" stroke-width="0.5"/><path d="M282.92358,284.27763c0,0 15.90382,46.40099 10.5,46.49834c-7.36964,0.13277 -27.15314,-0.72421 -33,-0.56705c-7.9925,0.21483 9.73791,-9.4587 9.5,-19.84686c-0.23791,-10.38815 -10.5,-23.81622 -10.5,-23.81622z" fill="none" stroke="#000000" stroke-width="5"/></g><g><g><path d="M178.09735,167.70427c-1.29004,-0.95601 1.52707,-33.17481 4.37576,-63.37519c2.45427,-26.01894 4.38079,-50.5939 10.18528,-51.75241c6.41747,-1.28086 108.31995,10.16047 111.58768,12.48142c7.48503,5.31632 -4.40295,109.01497 -11.25547,114.44787c-4.92669,3.90604 -109.33464,-7.68231 -114.89325,-11.80168z" fill="#ffbbce" stroke="#000000" stroke-width="5" stroke-linecap="butt"/><path d="M184.09432,114.90293c-0.46351,-0.244 0.1791,-7.93155 0.85454,-15.1351c0.58192,-6.20617 0.99401,-12.07244 3.02075,-12.28288c2.24078,-0.23266 38.16438,3.68777 39.33741,4.28171c2.68691,1.36047 -0.37241,26.07082 -2.72131,27.29336c-1.68876,0.87895 -38.49417,-3.10571 -40.4914,-4.15708z" fill="#ffffff" stroke="#000000" stroke-width="5" stroke-linecap="butt"/><path d="M204.13794,114.49773c-0.21422,-0.21234 0.68649,-6.87223 1.56725,-13.11266c0.75882,-5.37641 1.40686,-10.45864 2.43961,-10.63699c1.14182,-0.19719 18.87168,3.2706 19.41558,3.78755c1.24583,1.18413 -2.14796,22.58926 -3.41848,23.64394c-0.91346,0.75827 -19.08093,-2.76689 -20.00396,-3.68184z" fill="#ff0000" stroke="#000000" stroke-width="5" stroke-linecap="butt"/><path d="M259.55618,121.41072c-0.45866,-0.25303 0.33416,-7.92654 1.15036,-15.1155c0.70319,-6.1936 1.22991,-12.05069 3.26038,-12.22146c2.24492,-0.1888 38.08497,4.43341 39.24616,5.05018c2.65979,1.41276 -0.88219,26.05856 -3.25455,27.23492c-1.70564,0.84576 -38.42606,-3.85791 -40.40235,-4.94814z" fill="#ffffff" stroke="#000000" stroke-width="5" stroke-linecap="butt"/><path d="M279.60388,121.39758c-0.21003,-0.21649 0.82075,-6.85749 1.82338,-13.07952c0.86381,-5.36054 1.61112,-10.42912 2.64717,-10.58724c1.14547,-0.17482 18.80412,3.63904 19.33779,4.16652c1.22243,1.20825 -2.5893,22.54293 -3.88021,23.57256c-0.92811,0.74026 -19.02318,-3.13951 -19.92813,-4.07233z" fill="#ff0000" stroke="#000000" stroke-width="5" stroke-linecap="butt"/><g stroke="#000000" stroke-width="5"><path d="M207.53448,25.40217l-1.62315,11.39585l7.96159,0.78299l2.66728,-11.79558l19.45531,1.41094l0.76698,12.63573l28.9097,2.34074l1.07661,-10.94719l21.49465,1.10908l-0.37503,14.03066l7.46399,0.73405l2.81409,-13.28837l19.3085,2.90373l-3.18912,27.31903l-7.0071,4.83742l-119.9704,-11.29617l-5.22891,-3.0263l3.98034,-30.25569z" fill="#fee70a" stroke-linecap="round"/><path d="M208.628,55.15203c-4.94671,-0.48649 -8.6391,-4.11122 -8.24721,-8.09605c0.39189,-3.98484 4.71967,-6.82082 9.66637,-6.33433c4.94671,0.48649 8.6391,4.11122 8.24721,8.09605c-0.39189,3.98484 -4.71967,6.82082 -9.66637,6.33433z" fill="#7e93ff" stroke-linecap="butt"/><path d="M250.32848,60.25793c-6.04596,-0.5946 -10.57472,-4.86392 -10.11526,-9.5358c0.45946,-4.67188 5.73315,-7.97718 11.77911,-7.38258c6.04596,0.5946 10.57472,4.86392 10.11526,9.5358c-0.45946,4.67188 -5.73315,7.97718 -11.77911,7.38258z" fill="#0026ff" stroke-linecap="butt"/><path d="M289.88762,64.1484c-6.18338,-0.60811 -10.85639,-4.55422 -10.43747,-8.81387c0.41892,-4.25965 5.77113,-7.21982 11.95451,-6.61171c6.18338,0.60811 10.85639,4.55422 10.43747,8.81387c-0.41892,4.25965 -5.77113,7.21982 -11.95451,6.61171z" fill="#b6ff00" stroke-linecap="butt"/></g><g stroke-linecap="butt"><path d="M215.1307,162.7197c-0.53474,-0.2676 0.14494,-8.62746 0.86608,-16.46062c0.62131,-6.74862 1.04995,-13.12828 3.37833,-13.34774c2.57427,-0.24264 43.90291,4.19 45.25601,4.84159c3.09938,1.49253 -0.22778,28.35922 -2.91872,29.67817c-1.93468,0.94827 -44.27757,-3.55834 -46.58169,-4.7114z" fill="#fea3c1" stroke="none" stroke-width="0"/><path d="M218.87496,145.08673l1.02767,-10.44959l45.77915,4.50219l-1.02767,10.44959z" fill="#ffc7d9" stroke="none" stroke-width="0"/><path d="M221.25273,144.33045c0.40483,0.01487 0.6913,0.10206 0.6913,0.10206l3.79039,1.74584c0.04263,1.45493 0.2777,2.91696 0.1279,4.36478c-0.42572,4.11459 -3.94072,10.36112 -8.95221,4.98639c-1.70476,-1.82832 0.80968,-7.48735 1.41675,-9.48212c0,0 0.68836,-2.26187 2.92587,-1.71695z" fill="#563741" stroke="none" stroke-width="0.5"/><path d="M263.31472,149.62026c0.59971,0.66022 0.95549,1.62749 1.06092,2.61348c1.55674,1.50711 2.89008,3.21916 1.22315,6.00052c-1.78411,2.97688 -7.14254,3.47649 -9.32939,0.66368c-1.47174,-1.89302 -0.0573,-7.63469 2.72151,-9.60811c0.42412,-0.63609 1.26869,-1.39655 2.76108,-0.94237c0.87752,0.26706 1.33508,0.75809 1.56274,1.27279z" fill="#563741" stroke="none" stroke-width="0.5"/><path d="M215.47363,164.3463l0.5383,-5.47359l48.26714,4.74687l-0.5383,5.47359z" fill="#a06778" stroke="none" stroke-width="0"/><path d="M215.53043,163.76383c-0.53474,-0.2676 0.14494,-8.62746 0.86608,-16.46062c0.62131,-6.74862 1.04995,-13.12828 3.37833,-13.34774c2.57427,-0.24264 43.90291,4.19 45.25601,4.84159c3.09938,1.49253 -0.22778,28.35922 -2.91872,29.67817c-1.93468,0.94827 -44.27757,-3.55834 -46.58169,-4.7114z" fill="none" stroke="#000000" stroke-width="5"/></g></g><path d="M235.21179,95.047l-51.2939,-30.16515" fill="none" stroke="#000000" stroke-width="5" stroke-linecap="round"/><path d="M313.79957,82.67929l-57.59073,13.42785" fill="none" stroke="#000000" stroke-width="5" stroke-linecap="round"/></g><g stroke-linecap="butt"><path d="M343.788,279.16983c-0.92988,-0.02314 -29.29118,-15.56381 -55.86236,-30.19727c-22.89222,-12.60736 -44.53916,-24.39019 -45.19222,-26.76748c-0.72203,-2.62836 15.96686,-29.92081 18.23312,-29.90794c5.19105,0.02946 96.29267,50.94779 100.66497,55.60183c3.14353,3.34609 -13.83674,31.3706 -17.84351,31.27086z" fill="#c41414" stroke="none" stroke-width="0"/><path d="M346.66336,279.8695l-20.93484,-11.2813l16.53496,-31.06165l20.93483,11.2813z" fill="#ef99b4" stroke="none" stroke-width="NaN"/><path d="M327.51528,268.4893l-14.4991,-6.84632l15.26503,-31.15413l14.4991,6.84632z" fill="#d8d8d8" stroke="none" stroke-width="NaN"/><path d="M344.62387,279.91233c-0.92988,-0.02314 -29.29118,-15.56381 -55.86236,-30.19727c-22.89222,-12.60736 -44.53916,-24.39019 -45.19222,-26.76748c-0.72203,-2.62836 15.96686,-29.92081 18.23312,-29.90794c5.19105,0.02946 96.29267,50.94779 100.66497,55.60183c3.14353,3.34609 -13.83674,31.3706 -17.84351,31.27086z" fill="none" stroke="#000000" stroke-width="5"/></g></g></g></svg>