<svg version="1.1" xmlns="http://www.w3.org/2000/svg" xmlns:xlink="http://www.w3.org/1999/xlink" width="320.25424" height="295.19479" viewBox="0,0,320.25424,295.19479"><g transform="translate(-108.03042,-38.1625)"><g data-paper-data="{&quot;isPaintingLayer&quot;:true}" fill-rule="nonzero" stroke-linejoin="miter" stroke-miterlimit="10" stroke-dasharray="" stroke-dashoffset="0" style="mix-blend-mode: normal"><g data-paper-data="{&quot;index&quot;:null}"><path d="M379.8391,273.62363l-74.29039,-48.95478l10.68185,-14.91187l75.2117,49.54264z" fill="#773f00" stroke="#000000" stroke-width="5" stroke-linecap="round"/><path d="M308.84299,265.05295l47.13716,20.24784l19.46874,-10.33982l11.40779,-14.96598l8.60381,-21.92839l-32.93558,-39.63908l4.61822,-3.77847l38.31703,37.89959l-12.10167,31.07766l-11.40779,14.96598l-24.11962,17.2014l-52.31249,-25.6194z" fill="#763e00" stroke="#000000" stroke-width="5" stroke-linecap="round"/><path d="M378.63026,273.91141l-52.72716,-35.19583l10.81412,-14.82746l53.38388,35.61486z" fill="#24202a" stroke="#000000" stroke-width="5" stroke-linecap="round"/><path d="M310.1368,266.39583l20.91566,-35.80019l31.08266,-32.41684" fill="none" stroke="#676767" stroke-width="5" stroke-linecap="round"/><g stroke-linecap="butt"><path d="M387.68524,255.86774l11.30369,7.2126l-13.26488,17.4023l-11.30369,-7.2126z" fill="#ff3535" stroke="none" stroke-width="0"/><path d="M398.1784,262.58761l8.71462,5.56057l-13.26488,17.4023l-8.71462,-5.56057z" fill="#efefef" stroke="none" stroke-width="0"/><path d="M406.29201,267.7647l8.71462,5.56057l-13.26488,17.4023l-8.71462,-5.56057z" fill="#ff3535" stroke="none" stroke-width="0"/><path d="M414.37889,272.94918l8.71462,5.56057l-13.26488,17.4023l-8.71462,-5.56057z" fill="#efefef" stroke="none" stroke-width="0"/><path d="M422.7347,278.25636l1.92645,15.71433l-15.19133,1.68796z" fill="#ff3535" stroke="none" stroke-width="0"/><path d="M387.67848,255.22748l33.96172,21.67011l3.59367,17.22737l-17.24009,0.67548l-33.96172,-21.67011z" fill="none" stroke="#000000" stroke-width="5"/></g></g><g stroke-linecap="butt"><path d="M112.01287,264.47072c0.18051,-0.86255 20.95584,-24.90796 40.49571,-47.42442c16.83445,-19.39891 32.61035,-37.76372 35.16736,-38.00947c2.82705,-0.2717 28.10699,19.43352 27.71185,21.5423c-0.90508,4.83033 -68.66734,81.91623 -74.19455,85.27884c-3.97387,2.4176 -29.95822,-17.67064 -29.18036,-21.38725z" fill="#c41414" stroke="none" stroke-width="0"/><path d="M110.80817,267.04208l15.13968,-17.77805l29.18553,20.13659l-15.13968,17.77804z" fill="#ef99b4" stroke="none" stroke-width="NaN"/><path d="M125.74858,250.94326l9.49024,-12.4602l29.49472,18.96791l-9.49024,12.4602z" fill="#d8d8d8" stroke="none" stroke-width="NaN"/><path d="M111.10776,265.13602c0.18051,-0.86255 20.95584,-24.90796 40.49571,-47.42442c16.83445,-19.39891 32.61035,-37.76372 35.16736,-38.00947c2.82705,-0.2717 28.10699,19.43352 27.71185,21.5423c-0.90508,4.83033 -68.66734,81.91623 -74.19455,85.27884c-3.97387,2.4176 -29.95822,-17.67064 -29.18036,-21.38725z" fill="none" stroke="#000000" stroke-width="5"/></g><g stroke-linecap="butt"><path d="M353.17573,266.50829c-0.96213,-0.12472 -28.87292,-17.85633 -55.0149,-34.53794c-22.52244,-14.37192 -43.83314,-27.83182 -44.28063,-30.13608c-0.49475,-2.54761 19.45069,-26.32278 21.79973,-26.0597c5.38065,0.6026 94.93862,58.49755 99.02322,63.35128c2.93666,3.48964 -17.38171,27.91985 -21.52741,27.38242z" fill="#c41414" stroke="none" stroke-width="0"/><path d="M356.64108,268.18981l-20.43492,-13.80735l19.00561,-28.04805l20.43493,13.80735z" fill="#ef99b4" stroke="none" stroke-width="NaN"/><path d="M337.33198,254.67851l-14.37495,-8.03356l18.84206,-27.55843l14.37495,8.03356z" fill="#d8d8d8" stroke="none" stroke-width="NaN"/><path d="M353.97083,267.29797c-0.96213,-0.12472 -28.87292,-17.85633 -55.0149,-34.53794c-22.52244,-14.37192 -43.83314,-27.83182 -44.28063,-30.13608c-0.49475,-2.54761 19.45069,-26.32278 21.79973,-26.0597c5.38065,0.6026 94.93862,58.49755 99.02322,63.35128c2.93666,3.48964 -17.38171,27.91985 -21.52741,27.38242z" fill="none" stroke="#000000" stroke-width="5"/></g><g stroke-linecap="round"><path d="M224.47643,283.67004c0,0 -8.5718,43.67954 -15.1236,47.18882c-5.02249,2.69015 -36.85846,0.5901 -39.63427,0.47189c-4.47334,-0.19049 13.52711,-19.43392 16.16661,-27.36951c2.6395,-7.93559 0,-21.23497 0,-21.23497z" fill="#c41414" stroke="none" stroke-width="0"/><path d="M217.30575,303.90908l-7.0403,22.41469l-2.86827,2.83133l-12.77684,0.94378l-23.98916,-1.17972c0,0 11.83315,-13.23037 14.76994,-17.9788c1.92681,-3.11541 2.96118,-7.73911 2.96118,-7.73911z" fill="#5b5a5a" stroke="#5b5a5a" stroke-width="0.5"/><path d="M223.95492,285.04522c0,0 -8.45091,41.80558 -14.91032,45.1643c-4.95165,2.57474 -36.33866,0.56478 -39.07532,0.45164c-4.41026,-0.18232 13.33635,-18.60016 15.93862,-26.1953c2.60227,-7.59513 0,-20.32394 0,-20.32394z" fill="none" stroke="#000000" stroke-width="5"/></g><path d="M185.18571,284.61382c-1.20845,-0.77878 -1.51533,-31.30033 -1.62133,-59.92903c-0.09133,-24.66487 -0.51943,-47.92474 4.44913,-49.54902c5.49328,-1.79583 95.44928,-0.46242 98.50172,1.41566c6.99187,4.30193 5.51659,102.79849 0,108.53428c-3.96622,4.12381 -96.12243,2.88377 -101.32952,-0.47189z" fill="#c41414" stroke="#000000" stroke-width="5" stroke-linecap="butt"/><g><g stroke-linecap="round"><path d="M270.89024,179.33059c0,0 -8.64365,27.22899 -8.86556,50.02015c-0.22191,22.79115 7.82255,57.09847 7.82255,57.09847l-60.49441,-1.88755c0,0 7.49273,-37.7589 7.30105,-57.09847c-0.19168,-19.33957 -8.34406,-48.13259 -8.34406,-48.13259z" fill="#f7f6f6" stroke="none" stroke-width="0"/><path d="M211.96034,282.6741l9.38706,-50.49203l-7.82255,-50.02015h52.15035l-7.30105,47.66071l7.82255,53.32336z" fill="none" stroke="#c6c7c7" stroke-width="5"/><path d="M270.89024,180.27437c0,0 -8.64365,27.22899 -8.86556,50.02015c-0.22191,22.79115 7.82255,57.09847 7.82255,57.09847l-60.49441,-1.88755c0,0 7.49273,-37.7589 7.30105,-57.09847c-0.19168,-19.33957 -8.34406,-48.13259 -8.34406,-48.13259z" fill="none" stroke="#000000" stroke-width="5"/></g><path d="M231.77748,209.29549c0,-3.77894 3.38554,-6.84238 7.5618,-6.84238c4.17626,0 7.5618,3.06344 7.5618,6.84238c0,3.77894 -3.38554,6.84238 -7.5618,6.84238c-4.17626,0 -7.5618,-3.06344 -7.5618,-6.84238z" fill="#ffd901" stroke="none" stroke-width="NaN" stroke-linecap="butt"/><path d="M231.77748,226.75535c0,-3.77894 3.38553,-6.84238 7.5618,-6.84238c4.17627,0 7.5618,3.06344 7.5618,6.84238c0,3.77894 -3.38553,6.84238 -7.5618,6.84238c-4.17627,0 -7.5618,-3.06344 -7.5618,-6.84238z" fill="#ffd901" stroke="none" stroke-width="NaN" stroke-linecap="butt"/><path d="M231.77748,243.74333c0,-3.77894 3.38553,-6.84238 7.5618,-6.84238c4.17627,0 7.5618,3.06344 7.5618,6.84238c0,3.77895 -3.38553,6.84238 -7.5618,6.84238c-4.17627,0 -7.5618,-3.06343 -7.5618,-6.84238z" fill="#ffd901" stroke="none" stroke-width="NaN" stroke-linecap="butt"/></g><g stroke-linecap="round"><path d="M286.01384,286.73731c0,0 16.5878,43.79216 10.95157,43.88403c-7.68659,0.12531 -28.32091,-0.68349 -34.41923,-0.53517c-8.33623,0.20275 10.15671,-8.9269 9.90857,-18.731c-0.24814,-9.80409 -10.95157,-22.47719 -10.95157,-22.47719z" fill="#c41414" stroke="none" stroke-width="0"/><path d="M289.01248,302.49341c0,0 2.89268,6.81366 3.79353,10.67676c1.06924,4.58519 3.50752,16.45681 3.50752,16.45681l-32.59397,-1.17972l10.16932,-14.39259c0,0 -0.04102,-5.25659 -0.27686,-7.26252c-0.18764,-1.59599 -0.5054,-4.29874 -0.5054,-4.29874z" fill="#5a5b5a" stroke="#5a5b5a" stroke-width="0.5"/><path d="M286.01384,286.97326c0,0 16.5878,43.79216 10.95157,43.88403c-7.68659,0.12531 -28.32091,-0.68349 -34.41923,-0.53517c-8.33623,0.20275 10.15671,-8.9269 9.90857,-18.731c-0.24814,-9.80409 -10.95157,-22.47719 -10.95157,-22.47719z" fill="none" stroke="#000000" stroke-width="5"/></g><g><path d="M178.42501,178.0811c-1.43665,-0.77877 -1.80148,-31.30033 -1.92749,-59.92903c-0.10856,-24.66487 -0.61751,-47.92474 5.28928,-49.54902c6.53058,-1.79583 113.47325,-0.46243 117.10208,1.41566c8.31216,4.30193 6.5583,102.79849 0,108.53428c-4.71516,4.12381 -114.27352,2.88376 -120.46387,-0.47189z" fill="#ffbbce" stroke="#000000" stroke-width="5" stroke-linecap="butt"/><path d="M179.25975,127.93375c-0.50604,-0.18636 -0.62377,-7.46621 -0.65802,-14.2945c-0.02951,-5.88287 -0.20061,-11.4308 1.88167,-11.81566c2.30218,-0.42551 39.99106,-0.06155 41.26929,0.38795c2.92789,1.02962 2.27482,24.52129 -0.03853,25.88652c-1.66321,0.98155 -40.27396,0.63872 -42.45441,-0.16429z" fill="#ffffff" stroke="#000000" stroke-width="5" stroke-linecap="butt"/><path d="M200.02362,125.70173c-0.24403,-0.17965 0.01104,-6.51812 0.28822,-12.46077c0.23882,-5.11986 0.39267,-9.95318 1.44646,-10.21609c1.16508,-0.29068 19.92266,1.3287 20.54,1.764c1.41405,0.99711 0.0764,21.41526 -1.13474,22.52322c-0.87076,0.79658 -20.08845,-0.83627 -21.13995,-1.61037z" fill="#ff0000" stroke="#000000" stroke-width="5" stroke-linecap="butt"/><path d="M258.25344,127.07569c-0.50192,-0.19529 -0.4623,-7.47583 -0.34896,-14.30342c0.09765,-5.88227 0.04648,-11.43216 2.13667,-11.78011c2.31095,-0.38469 39.98475,0.64612 41.25302,1.11816c2.90508,1.08124 1.74442,24.55686 -0.598,25.8809c-1.68411,0.95193 -40.28005,-0.07408 -42.44273,-0.91552z" fill="#ffffff" stroke="#000000" stroke-width="5" stroke-linecap="butt"/><path d="M279.06158,125.21152c-0.24011,-0.18393 0.1519,-6.51668 0.55748,-12.4533c0.34942,-5.11465 0.60771,-9.94432 1.66699,-10.18854c1.17115,-0.27 19.89014,1.681 20.49795,2.12714c1.39223,1.02193 -0.38644,21.41251 -1.6213,22.49883c-0.88781,0.78101 -20.06654,-1.19158 -21.10111,-1.98414z" fill="#ff0000" stroke="#000000" stroke-width="5" stroke-linecap="butt"/><g stroke="#000000" stroke-width="5"><path d="M194.4541,41.70541l-0.5215,10.85343h8.34406l1.56451,-11.32532l20.33864,-0.47189l2.08601,11.7972l30.2472,-0.47189v-10.38154l22.42465,-0.94378l1.04301,13.21287h7.82255l1.56451,-12.74098l20.33864,0.94378l-0.5215,25.95385l-6.77955,5.19077l-125.68234,0.47189l-5.73654,-2.35944l1.04301,-28.78518z" fill="#fee70a" stroke-linecap="round"/><path d="M198.62612,69.54682c-5.18434,0 -9.38706,-3.06344 -9.38706,-6.84238c0,-3.77894 4.20272,-6.84238 9.38706,-6.84238c5.18434,0 9.38706,3.06344 9.38706,6.84238c0,3.77894 -4.20272,6.84238 -9.38706,6.84238z" fill="#7e93ff" stroke-linecap="butt"/><path d="M242.43242,70.49059c-6.3364,0 -11.47308,-3.59162 -11.47308,-8.0221c0,-4.43048 5.13667,-8.0221 11.47308,-8.0221c6.3364,0 11.47308,3.59162 11.47308,8.0221c0,4.43048 -5.13667,8.0221 -11.47308,8.0221z" fill="#0026ff" stroke-linecap="butt"/><path d="M283.89195,70.49059c-6.48042,0 -11.73383,-3.27472 -11.73383,-7.31427c0,-4.03955 5.25341,-7.31427 11.73383,-7.31427c6.48042,0 11.73383,3.27472 11.73383,7.31427c0,4.03955 -5.25341,7.31427 -11.73383,7.31427z" fill="#b6ff00" stroke-linecap="butt"/></g><g stroke-linecap="butt"><path d="M216.35674,169.97856c-0.58237,-0.20195 -0.73027,-8.11668 -0.78136,-15.54056c-0.044,-6.396 -0.25032,-12.42766 2.14413,-12.84886c2.64732,-0.46569 45.99892,-0.11991 47.46995,0.36711c3.36952,1.11556 2.65855,26.6573 0,28.14468c-1.91139,1.06936 -46.32333,0.7478 -48.83272,-0.12237z" fill="#fea3c1" stroke="none" stroke-width="0"/><path d="M218.44326,153.07102v-9.90965h47.97832v9.90965z" fill="#ffc7d9" stroke="none" stroke-width="0"/><path d="M220.83417,152.14105c0.42173,-0.02342 0.72799,0.032 0.72799,0.032l4.11264,1.28965c0.19277,1.3626 0.58602,2.71409 0.57833,4.08779c-0.02187,3.90393 -3.03277,10.09564 -8.78336,5.51036c-1.95618,-1.55977 0.07612,-7.10725 0.50263,-9.0369c0,0 0.48362,-2.18803 2.86178,-1.8829z" fill="#563741" stroke="none" stroke-width="0.5"/><path d="M265.03449,153.22418c0.6899,0.56471 1.15794,1.44035 1.36803,2.3567c1.76974,1.27175 3.32852,2.75662 1.88218,5.52298c-1.54802,2.96082 -7.05906,3.92504 -9.61615,1.48512c-1.72091,-1.64207 -0.83885,-7.16556 1.8441,-9.27575c0.37531,-0.63662 1.17433,-1.4289 2.7698,-1.14016c0.93812,0.16978 1.4632,0.58871 1.75205,1.05111z" fill="#563741" stroke="none" stroke-width="0.5"/><path d="M216.87875,171.47466v-5.19077h50.58584v5.19077z" fill="#a06778" stroke="none" stroke-width="0"/><path d="M216.87825,170.92234c-0.58237,-0.20195 -0.73027,-8.11668 -0.78136,-15.54056c-0.044,-6.396 -0.25032,-12.42766 2.14413,-12.84886c2.64732,-0.46569 45.99892,-0.11991 47.46995,0.36711c3.36952,1.11556 2.65855,26.6573 0,28.14468c-1.91139,1.06936 -46.32333,0.7478 -48.83272,-0.12237z" fill="none" stroke="#000000" stroke-width="5"/></g></g><path d="M232.50001,105l-54,-25" fill="none" stroke="#000000" stroke-width="5" stroke-linecap="round"/><path d="M253.50001,104l56,-19" fill="none" stroke="#000000" stroke-width="5" stroke-linecap="round"/></g></g></svg>