<svg version="1.1" xmlns="http://www.w3.org/2000/svg" xmlns:xlink="http://www.w3.org/1999/xlink" width="337.14102" height="278.72499" viewBox="0,0,337.14102,278.72499"><g transform="translate(-100.09239,-56.36339)"><g data-paper-data="{&quot;isPaintingLayer&quot;:true}" fill-rule="nonzero" stroke-linejoin="miter" stroke-miterlimit="10" stroke-dasharray="" stroke-dashoffset="0" style="mix-blend-mode: normal"><g stroke-linecap="butt"><path d="M105.45606,269.96833c0.18916,-0.81361 21.96029,-23.49478 42.43674,-44.73374c17.64136,-18.29829 34.17343,-35.62115 36.853,-35.85296c2.96256,-0.25628 29.45421,18.33094 29.04012,20.32007c-0.94846,4.55627 -71.95868,77.26861 -77.75082,80.44044c-4.16434,2.28044 -31.39418,-16.66807 -30.57903,-20.17382z" fill="#c41414" stroke="none" stroke-width="0"/><path d="M104.19362,272.3938l15.86536,-16.76939l30.58445,18.99411l-15.86535,16.76938z" fill="#ef99b4" stroke="none" stroke-width="NaN"/><path d="M119.85015,257.20837l9.94512,-11.75326l30.90846,17.89175l-9.94512,11.75325z" fill="#d8d8d8" stroke="none" stroke-width="NaN"/><path d="M104.50757,270.59588c0.18916,-0.81361 21.9603,-23.49478 42.43675,-44.73374c17.64136,-18.29829 34.17342,-35.62115 36.85299,-35.85296c2.96256,-0.25628 29.45421,18.33094 29.04013,20.32007c-0.94846,4.55627 -71.95869,77.26861 -77.75083,80.44044c-4.16434,2.28044 -31.39417,-16.66807 -30.57903,-20.17382z" fill="none" stroke="#000000" stroke-width="5"/></g><g data-paper-data="{&quot;index&quot;:null}"><path d="M386.12771,277.48909l-78.78068,-43.33971l10.87123,-14.48055l79.75729,43.85902z" fill="#773f00" stroke="#000000" stroke-width="5" stroke-linecap="round"/><path d="M311.63468,272.12812l49.76148,17.29531l20.16391,-10.50388l11.62999,-14.55948l8.55022,-21.02134l-35.29908,-36.1376l4.75557,-3.74257l40.89595,34.28965l-12.02142,29.78862l-11.62998,14.55948l-24.88958,17.15686l-55.29038,-22.16503z" fill="#763e00" stroke="#000000" stroke-width="5" stroke-linecap="round"/><path d="M384.86834,277.80705l-55.92347,-31.18514l11.01145,-14.40599l56.61961,31.55532z" fill="#24202a" stroke="#000000" stroke-width="5" stroke-linecap="round"/><path d="M313.01688,273.34555l21.14927,-34.58309l31.86185,-31.78105" fill="none" stroke="#676767" stroke-width="5" stroke-linecap="round"/><g stroke-linecap="butt"><path d="M393.97156,260.4339l11.982,6.37156l-13.52325,16.92963l-11.982,-6.37156z" fill="#ff3535" stroke="none" stroke-width="0"/><path d="M405.09491,266.37166l9.23757,4.91217l-13.52325,16.92963l-9.23756,-4.91217z" fill="#efefef" stroke="none" stroke-width="0"/><path d="M413.6954,270.94506l9.23757,4.91217l-13.52325,16.92963l-9.23757,-4.91217z" fill="#ff3535" stroke="none" stroke-width="0"/><path d="M422.26807,275.52647l9.23757,4.91217l-13.52325,16.92963l-9.23757,-4.91217z" fill="#efefef" stroke="none" stroke-width="0"/><path d="M431.12478,280.21331l2.34313,14.7536l-15.86637,2.17602z" fill="#ff3535" stroke="none" stroke-width="0"/><path d="M393.95118,259.83002l35.99969,19.14322l4.11974,16.11724l-18.03196,1.29933l-35.9997,-19.14322z" fill="none" stroke="#000000" stroke-width="5"/></g></g><g stroke-linecap="butt"><path d="M358.1783,271.89029c-1.00824,-0.11764 -30.25685,-16.84323 -57.65186,-32.57839c-23.60198,-13.55651 -45.93414,-26.25274 -46.40308,-28.42627c-0.51846,-2.40307 20.383,-24.82933 22.84463,-24.58117c5.63855,0.56841 99.4892,55.17862 103.76958,59.75697c3.07742,3.29165 -18.21484,26.33578 -22.55925,25.82884z" fill="#c41414" stroke="none" stroke-width="0"/><path d="M361.80975,273.47641l-21.41441,-13.02397l19.91658,-26.45671l21.41442,13.02397z" fill="#ef99b4" stroke="none" stroke-width="NaN"/><path d="M341.57513,260.73169l-15.06397,-7.57777l19.7452,-25.99487l15.06397,7.57777z" fill="#d8d8d8" stroke="none" stroke-width="NaN"/><path d="M359.01151,272.63517c-1.00824,-0.11764 -30.25685,-16.84323 -57.65186,-32.57839c-23.60198,-13.55651 -45.93414,-26.25275 -46.40308,-28.42628c-0.51846,-2.40307 20.383,-24.82932 22.84463,-24.58117c5.63855,0.56841 99.4892,55.17862 103.76958,59.75697c3.07742,3.29165 -18.21485,26.33578 -22.55926,25.82884z" fill="none" stroke="#000000" stroke-width="5"/></g><g stroke-linecap="round"><path d="M223.3102,288.07835c0,0 -8.98266,41.20133 -15.8485,44.51151c-5.26323,2.53752 -38.62515,0.55662 -41.53401,0.44511c-4.68776,-0.17968 14.17549,-18.33131 16.9415,-25.81666c2.76602,-7.48536 0,-20.03018 0,-20.03018z" fill="#c41414" stroke="none" stroke-width="0"/><path d="M215.79582,307.16911l-7.37775,21.14297l-3.00575,2.67069l-13.38926,0.89024l-25.139,-1.11279c0,0 12.40034,-12.47973 15.47789,-16.95875c2.01916,-2.93865 3.10312,-7.30002 3.10312,-7.30002z" fill="#5b5a5a" stroke="#5b5a5a" stroke-width="0.5"/><path d="M222.7637,289.37551c0,0 -8.85598,39.43368 -15.625,42.60184c-5.18899,2.42866 -38.08043,0.53274 -40.94827,0.42602c-4.62165,-0.17197 13.97559,-17.54485 16.70259,-24.70907c2.727,-7.16421 0,-19.17084 0,-19.17084z" fill="none" stroke="#000000" stroke-width="5"/></g><path d="M182.13621,288.96859c-1.26638,-0.7346 -1.58796,-29.52447 -1.69904,-56.52888c-0.09571,-23.26548 -0.54432,-45.20567 4.66239,-46.7378c5.75659,-1.69394 100.02433,-0.43618 103.22309,1.33534c7.327,4.05785 5.78101,96.96609 0,102.37645c-4.15633,3.88984 -100.72976,2.72016 -106.18643,-0.44511z" fill="#c41414" stroke="#000000" stroke-width="5" stroke-linecap="butt"/><g><g stroke-linecap="round"><path d="M271.94871,189.65873c0,0 -9.05795,25.68412 -9.2905,47.1822c-0.23255,21.49807 8.1975,53.85892 8.1975,53.85892l-63.39401,-1.78046c0,0 7.85188,-35.6166 7.651,-53.85892c-0.20087,-18.24231 -8.74401,-45.40172 -8.74401,-45.40172z" fill="#f7f6f6" stroke="none" stroke-width="0"/><path d="M210.1942,287.13892l9.837,-47.6273l-8.1975,-47.1822h54.65001l-7.651,44.95662l8.1975,50.29799z" fill="none" stroke="#c6c7c7" stroke-width="5"/><path d="M271.94871,190.54897c0,0 -9.05795,25.68412 -9.2905,47.18219c-0.23255,21.49806 8.1975,53.85892 8.1975,53.85892l-63.39401,-1.78046c0,0 7.85188,-35.6166 7.651,-53.85891c-0.20087,-18.24231 -8.74401,-45.40173 -8.74401,-45.40173z" fill="none" stroke="#000000" stroke-width="5"/></g><path d="M230.96121,217.92354c0,-3.56454 3.54782,-6.45417 7.92425,-6.45417c4.37643,0 7.92425,2.88963 7.92425,6.45417c0,3.56454 -3.54782,6.45417 -7.92425,6.45417c-4.37643,0 -7.92425,-2.88963 -7.92425,-6.45417z" fill="#ffd901" stroke="none" stroke-width="NaN" stroke-linecap="butt"/><path d="M230.96121,234.39279c0,-3.56454 3.54781,-6.45417 7.92425,-6.45417c4.37644,0 7.92425,2.88963 7.92425,6.45417c0,3.56454 -3.54781,6.45417 -7.92425,6.45417c-4.37644,0 -7.92425,-2.88963 -7.92425,-6.45417z" fill="#ffd901" stroke="none" stroke-width="NaN" stroke-linecap="butt"/><path d="M230.96121,250.41694c0,-3.56454 3.54781,-6.45417 7.92425,-6.45417c4.37644,0 7.92425,2.88963 7.92425,6.45417c0,3.56455 -3.54781,6.45417 -7.92425,6.45417c-4.37644,0 -7.92425,-2.88962 -7.92425,-6.45417z" fill="#ffd901" stroke="none" stroke-width="NaN" stroke-linecap="butt"/></g><g stroke-linecap="round"><path d="M287.79721,290.97159c0,0 17.38288,41.30756 11.4765,41.39422c-8.05502,0.1182 -29.67838,-0.64471 -36.06901,-0.50481c-8.7358,0.19124 10.64354,-8.42043 10.38351,-17.66827c-0.26004,-9.24784 -11.4765,-21.20192 -11.4765,-21.20192z" fill="#c41414" stroke="none" stroke-width="0"/><path d="M290.93958,305.83376c0,0 3.03134,6.42708 3.97537,10.071c1.12049,4.32504 3.67564,15.52311 3.67564,15.52311l-34.15626,-1.11278l10.65675,-13.57601c0,0 -0.04298,-4.95835 -0.29013,-6.85047c-0.19664,-1.50544 -0.52963,-4.05484 -0.52963,-4.05484z" fill="#5a5b5a" stroke="#5a5b5a" stroke-width="0.5"/><path d="M287.79721,291.19416c0,0 17.38288,41.30755 11.4765,41.39421c-8.05502,0.1182 -29.67838,-0.64471 -36.06901,-0.50481c-8.7358,0.19124 10.64354,-8.42042 10.38351,-17.66827c-0.26004,-9.24784 -11.4765,-21.20192 -11.4765,-21.20192z" fill="none" stroke="#000000" stroke-width="5"/></g><g><path d="M175.05146,188.48013c-1.50551,-0.73459 -1.88783,-29.52447 -2.01988,-56.52888c-0.11377,-23.26548 -0.64711,-45.20567 5.5428,-46.73779c6.8436,-1.69394 118.91223,-0.43619 122.715,1.33534c8.71058,4.05786 6.87265,96.96609 0,102.37646c-4.94117,3.88984 -119.75085,2.72015 -126.23792,-0.44512z" fill="#ffbbce" stroke="#000000" stroke-width="5" stroke-linecap="butt"/><path d="M175.92621,141.17796c-0.53029,-0.17578 -0.65367,-7.04261 -0.68956,-13.48349c-0.03092,-5.5491 -0.21023,-10.78226 1.97186,-11.14529c2.41253,-0.40137 41.90791,-0.05805 43.2474,0.36594c3.06823,0.9712 2.38386,23.13005 -0.04038,24.41782c-1.74293,0.92586 -42.20436,0.60248 -44.48932,-0.15497z" fill="#ffffff" stroke="#000000" stroke-width="5" stroke-linecap="butt"/><path d="M197.68533,139.07257c-0.25573,-0.16945 0.01157,-6.14831 0.30203,-11.7538c0.25027,-4.82938 0.41149,-9.38847 1.51579,-9.63647c1.22092,-0.27419 20.87759,1.25331 21.52452,1.66392c1.48183,0.94054 0.08006,20.20024 -1.18913,21.24534c-0.9125,0.75138 -21.05132,-0.78883 -22.15322,-1.519z" fill="#ff0000" stroke="#000000" stroke-width="5" stroke-linecap="butt"/><path d="M258.70621,140.36858c-0.52598,-0.18421 -0.48446,-7.05167 -0.36568,-13.49189c0.10233,-5.54853 0.04871,-10.78354 2.23908,-11.11175c2.42172,-0.36286 41.90129,0.60946 43.23035,1.05472c3.04433,1.0199 1.82804,23.1636 -0.62666,24.41252c-1.76483,0.89792 -42.21075,-0.06988 -44.47709,-0.86358z" fill="#ffffff" stroke="#000000" stroke-width="5" stroke-linecap="butt"/><path d="M280.51172,138.61017c-0.25162,-0.1735 0.15918,-6.14695 0.5842,-11.74675c0.36617,-4.82447 0.63684,-9.38012 1.74689,-9.61048c1.22728,-0.25468 20.84351,1.58563 21.48046,2.00646c1.45896,0.96395 -0.40496,20.19764 -1.69901,21.22233c-0.93036,0.7367 -21.02837,-1.12397 -22.11253,-1.87157z" fill="#ff0000" stroke="#000000" stroke-width="5" stroke-linecap="butt"/><g stroke="#000000" stroke-width="5"><path d="M191.84885,59.84189l-0.5465,10.23765h8.74401l1.6395,-10.68276l21.31351,-0.44512l2.18599,11.12788l31.697,-0.44512v-9.79253l23.49951,-0.89024l1.093,12.46323h8.1975l1.6395,-12.01811l21.31351,0.89023l-0.5465,24.48133l-7.10451,4.89626l-131.70652,0.44512l-6.0115,-2.22558l1.09301,-27.15201z" fill="#fee70a" stroke-linecap="round"/><path d="M196.22084,86.10368c-5.43284,0 -9.837,-2.88963 -9.837,-6.45417c0,-3.56454 4.40417,-6.45417 9.837,-6.45417c5.43284,0 9.837,2.88963 9.837,6.45417c0,3.56454 -4.40416,6.45417 -9.837,6.45417z" fill="#7e93ff" stroke-linecap="butt"/><path d="M242.12686,86.9939c-6.64012,0 -12.02301,-3.38784 -12.02301,-7.56695c0,-4.17911 5.38288,-7.56696 12.02301,-7.56696c6.64012,0 12.023,3.38785 12.023,7.56696c0,4.17911 -5.38288,7.56695 -12.023,7.56695z" fill="#0026ff" stroke-linecap="butt"/><path d="M285.57362,86.9939c-6.79104,0 -12.29626,-3.08892 -12.29626,-6.89928c0,-3.81036 5.50522,-6.89929 12.29626,-6.89929c6.79104,0 12.29625,3.08893 12.29625,6.89929c0,3.81036 -5.50521,6.89928 -12.29625,6.89928z" fill="#b6ff00" stroke-linecap="butt"/></g><g stroke-linecap="butt"><path d="M214.80132,180.8373c-0.61029,-0.19049 -0.76527,-7.65617 -0.81881,-14.65885c-0.04611,-6.03312 -0.26232,-11.72255 2.2469,-12.11986c2.77421,-0.43927 48.20373,-0.11311 49.74527,0.34628c3.53102,1.05227 2.78598,25.14487 0,26.54786c-2.003,1.00869 -48.54369,0.70538 -51.17336,-0.11542z" fill="#fea3c1" stroke="none" stroke-width="0"/><path d="M216.98785,164.88903v-9.34741h50.27801v9.34741z" fill="#ffc7d9" stroke="none" stroke-width="0"/><path d="M219.49336,164.01182c0.44195,-0.02209 0.76289,0.03018 0.76289,0.03018l4.30976,1.21648c0.20201,1.28529 0.61411,2.5601 0.60605,3.85586c-0.02292,3.68243 -3.17814,9.52285 -9.20436,5.19772c-2.04995,-1.47127 0.07976,-6.70401 0.52672,-8.52418c0,0 0.5068,-2.0639 2.99895,-1.77607z" fill="#563741" stroke="none" stroke-width="0.5"/><path d="M265.81228,165.0335c0.72297,0.53267 1.21344,1.35863 1.4336,2.22299c1.85456,1.19959 3.48806,2.60022 1.9724,5.20962c-1.62222,2.79283 -7.39741,3.70235 -10.07707,1.40086c-1.8034,-1.5489 -0.87906,-6.75902 1.93249,-8.74948c0.3933,-0.6005 1.23062,-1.34783 2.90256,-1.07547c0.98309,0.16014 1.53333,0.55531 1.83603,0.99148z" fill="#563741" stroke="none" stroke-width="0.5"/><path d="M215.34835,182.24852v-4.89626h53.01051v4.89626z" fill="#a06778" stroke="none" stroke-width="0"/><path d="M215.34783,181.72753c-0.61029,-0.19049 -0.76528,-7.65617 -0.81882,-14.65885c-0.04611,-6.03312 -0.26231,-11.72256 2.24691,-12.11986c2.77421,-0.43927 48.20373,-0.11311 49.74527,0.34628c3.53102,1.05227 2.78598,25.14487 0,26.54786c-2.003,1.00869 -48.54369,0.70537 -51.17336,-0.11543z" fill="none" stroke="#000000" stroke-width="5"/></g></g><path d="M227.50001,120l-54,-25" fill="none" stroke="#000000" stroke-width="5" stroke-linecap="round"/><path d="M304.50001,100l-56,19" fill="none" stroke="#000000" stroke-width="5" stroke-linecap="round"/></g></g></svg>