<svg version="1.1" xmlns="http://www.w3.org/2000/svg" xmlns:xlink="http://www.w3.org/1999/xlink" width="278.81739" height="299.43797" viewBox="0,0,278.81739,299.43797"><g transform="translate(-130.49203,-33.90336)"><g data-paper-data="{&quot;isPaintingLayer&quot;:true}" fill-rule="nonzero" stroke-linejoin="miter" stroke-miterlimit="10" stroke-dasharray="" stroke-dashoffset="0" style="mix-blend-mode: normal"><g stroke-linecap="butt"><path d="M322.66412,211.61796c-0.704,0.67727 -35.68637,12.44221 -68.52781,23.4204c-28.29432,9.45819 -54.92319,18.48501 -57.56785,17.54552c-2.92397,-1.0387 -15.52325,-29.80077 -13.84715,-31.47745c3.83923,-3.84057 117.11863,-41.033 124.5683,-41.49323c5.35602,-0.33089 18.40802,29.08651 15.37451,32.00476z" fill="#c41414" stroke="none" stroke-width="0"/><path d="M326.47102,209.86683l-26.46358,8.1529l-17.56919,-30.41877l26.46359,-8.1529z" fill="#ef99b4" stroke="none" stroke-width="NaN"/><path d="M300.98608,217.31107l-16.88352,6.67297l-17.1619,-30.01835l16.88352,-6.67297z" fill="#d8d8d8" stroke="none" stroke-width="NaN"/><path d="M323.95422,211.44173c-0.704,0.67727 -35.68637,12.44221 -68.52781,23.4204c-28.29432,9.45819 -54.92319,18.48501 -57.56785,17.54552c-2.92397,-1.0387 -15.52325,-29.80077 -13.84715,-31.47745c3.83923,-3.84057 117.11863,-41.033 124.5683,-41.49323c5.35602,-0.33089 18.40802,29.08651 15.37451,32.00476z" fill="none" stroke="#000000" stroke-width="5"/></g><g data-paper-data="{&quot;index&quot;:null}"><path d="M349.66869,192.88007l-110.00211,33.83417l-11.70783,-16.25216l111.34214,-34.26376z" fill="#773f00" stroke="#000000" stroke-width="5" stroke-linecap="round"/><path d="M292.46067,245.03763l56.23646,-27.07761l-0.22458,-20.88595l-11.30062,-16.85902l-21.86587,-18.2353l-71.25768,5.69551l-1.71563,-5.64214l72.59823,-10.88841l31.04922,25.77039l11.30062,16.85902l5.78481,28.15354l-66.35878,28.41723z" fill="#763e00" stroke="#000000" stroke-width="5" stroke-linecap="round"/><path d="M349.23845,193.99314l-78.63818,23.77991l-11.51544,-16.31383l79.59338,-24.08613z" fill="#24202a" stroke="#000000" stroke-width="5" stroke-linecap="round"/><path d="M294.99123,244.70274l-31.20286,-35.24748l-20.30696,-41.59826" fill="none" stroke="#676767" stroke-width="5" stroke-linecap="round"/><g stroke-linecap="butt"><path d="M332.53892,177.41338l16.44133,-5.27055l13.14025,19.6035l-16.44133,5.27055z" fill="#ff3535" stroke="none" stroke-width="0"/><path d="M347.83199,172.53344l12.67549,-4.06336l13.14025,19.6035l-12.67549,4.06336z" fill="#efefef" stroke="none" stroke-width="0"/><path d="M359.63332,168.75031l12.67549,-4.06336l13.14025,19.6035l-12.67549,4.06336z" fill="#ff3535" stroke="none" stroke-width="0"/><path d="M371.42641,164.99234l12.67549,-4.06336l13.14025,19.6035l-12.67549,4.06336z" fill="#efefef" stroke="none" stroke-width="0"/><path d="M383.54934,161.0836l20.96516,6.61612l-7.82491,12.98738z" fill="#ff3535" stroke="none" stroke-width="0"/><path d="M331.73168,177.08663l49.39763,-15.83528l23.95342,6.07179l-10.43522,14.09558l-49.39763,15.83528z" fill="none" stroke="#000000" stroke-width="5"/></g></g><g stroke-linecap="round"><path d="M206.39064,283.10266c0,0 -9.01374,44.18997 -15.90334,47.74026c-5.28143,2.72159 -38.7588,0.59699 -41.67772,0.4774c-4.70398,-0.19272 14.22454,-19.66103 17.00012,-27.68935c2.77558,-8.02833 0,-21.48312 0,-21.48312z" fill="#c41414" stroke="none" stroke-width="0"/><path d="M198.85026,303.57821l-7.40328,22.67663l-3.01615,2.86442l-13.43558,0.95481l-25.22599,-1.19351c0,0 12.44324,-13.38498 15.53144,-18.1889c2.02615,-3.15181 3.11385,-7.82955 3.11385,-7.82955z" fill="#5b5a5a" stroke="#5b5a5a" stroke-width="0.5"/><path d="M205.84225,284.49391c0,0 -8.88662,42.29412 -15.67906,45.69209c-5.20695,2.60482 -38.21219,0.57138 -41.08995,0.45692c-4.63764,-0.18445 14.02394,-18.81752 16.76038,-26.50141c2.73644,-7.68389 0,-20.56145 0,-20.56145z" fill="none" stroke="#000000" stroke-width="5"/></g><path d="M167.89307,289.54755c-1.33477,-0.70308 -4.30481,-31.47415 -6.89998,-60.34933c-2.23583,-24.87721 -4.70292,-48.31396 0.36629,-50.29223c5.60456,-2.1872 100.05017,-6.99029 103.41397,-5.30419c7.70509,3.86218 14.70424,103.33246 9.41709,109.49613c-3.80126,4.43144 -100.54595,9.47911 -106.29737,6.4496z" fill="#c41414" stroke="#000000" stroke-width="5" stroke-linecap="butt"/><g><g stroke-linecap="round"><path d="M248.62978,177.47354c0,0 -6.70137,28.06107 -4.95658,51.06938c1.74479,23.0083 13.15712,57.06984 13.15712,57.06984l-63.59958,2.2304c0,0 4.58086,-38.60564 2.70183,-58.1035c-1.87902,-19.49786 -12.92604,-47.98886 -12.92604,-47.98886z" fill="#f7f6f6" stroke="none" stroke-width="0"/><path d="M195.80126,285.76065l5.46249,-51.58109l-12.54295,-49.92878l54.68605,-3.56437l-3.52071,48.5821l12.82956,53.26127z" fill="none" stroke="#c6c7c7" stroke-width="5"/><path d="M248.71166,178.42568c0,0 -6.70137,28.06107 -4.95658,51.06938c1.74479,23.0083 13.15712,57.06984 13.15712,57.06984l-63.59958,2.2304c0,0 4.58086,-38.60564 2.70183,-58.1035c-1.87902,-19.49786 -12.92604,-47.98886 -12.92604,-47.98886z" fill="none" stroke="#000000" stroke-width="5"/></g><path d="M210.21519,210.37727c-0.32788,-3.81242 2.95646,-7.13441 7.33579,-7.41985c4.37932,-0.28544 8.19528,2.57375 8.52316,6.38619c0.32788,3.81242 -2.95646,7.13441 -7.33579,7.41985c-4.37932,0.28544 -8.19528,-2.57375 -8.52316,-6.38619z" fill="#ffd901" stroke="none" stroke-width="NaN" stroke-linecap="butt"/><path d="M211.73011,227.99187c-0.32788,-3.81242 2.95645,-7.13441 7.33579,-7.41985c4.37933,-0.28544 8.19528,2.57375 8.52316,6.38619c0.32788,3.81242 -2.95645,7.13441 -7.33579,7.41985c-4.37933,0.28544 -8.19528,-2.57375 -8.52316,-6.38619z" fill="#ffd901" stroke="none" stroke-width="NaN" stroke-linecap="butt"/><path d="M213.20409,245.1304c-0.32788,-3.81242 2.95645,-7.13441 7.33579,-7.41985c4.37933,-0.28544 8.19528,2.57375 8.52316,6.38619c0.32788,3.81243 -2.95645,7.13441 -7.33579,7.41985c-4.37933,0.28544 -8.19528,-2.57374 -8.52316,-6.38619z" fill="#ffd901" stroke="none" stroke-width="NaN" stroke-linecap="butt"/></g><g stroke-linecap="round"><path d="M271.10076,286.20578c0,0 17.44302,44.30391 11.51621,44.39686c-8.08289,0.12677 -29.78108,-0.69148 -36.19381,-0.54142c-8.76603,0.20512 10.68036,-9.03122 10.41943,-18.94989c-0.26094,-9.91866 -11.51621,-22.73985 -11.51621,-22.73985z" fill="#c41414" stroke="none" stroke-width="0"/><path d="M274.254,302.146c0,0 3.04182,6.89328 3.98912,10.80153c1.12437,4.63877 3.68836,16.64912 3.68836,16.64912l-34.27444,-1.19351l10.69362,-14.56078c0,0 -0.04314,-5.31802 -0.29113,-7.34739c-0.19731,-1.61464 -0.53146,-4.34898 -0.53146,-4.34898z" fill="#5a5b5a" stroke="#5a5b5a" stroke-width="0.5"/><path d="M271.10076,286.44448c0,0 17.44302,44.30391 11.51621,44.39686c-8.08289,0.12677 -29.78108,-0.69148 -36.19381,-0.54142c-8.76603,0.20512 10.68036,-9.03122 10.41943,-18.94989c-0.26094,-9.91866 -11.51621,-22.73985 -11.51621,-22.73985z" fill="none" stroke="#000000" stroke-width="5"/></g><g><path d="M151.56021,182.53279c-1.57407,-0.68748 -4.60488,-31.4546 -7.22102,-60.3284c-2.25391,-24.87604 -4.80578,-48.30726 1.24728,-50.34965c6.6923,-2.2581 118.9505,-8.2222 122.91873,-6.57549c9.08958,3.77194 15.7966,103.26126 9.41709,109.49613c-4.58662,4.48263 -119.57959,10.71968 -126.36209,7.7574z" fill="#ffbbce" stroke="#000000" stroke-width="5" stroke-linecap="butt"/><path d="M148.08445,131.88397c-0.54681,-0.15343 -1.30191,-7.48975 -1.93029,-14.37621c-0.54137,-5.93299 -1.20217,-11.51839 0.94796,-12.04898c2.3772,-0.58663 41.93019,-2.79541 43.30958,-2.42929c3.15959,0.83863 4.51304,24.58312 2.20567,26.11856c-1.65892,1.10393 -42.17678,3.39703 -44.53292,2.73593z" fill="#ffffff" stroke="#000000" stroke-width="5" stroke-linecap="butt"/><path d="M169.66428,128.21299c-0.27149,-0.16456 -0.55398,-6.57663 -0.77893,-12.5909c-0.1938,-5.18156 -0.45183,-10.06822 0.63039,-10.40549c1.19651,-0.37289 21.00664,-0.0212 21.69176,0.37576c1.56932,0.9093 1.93823,21.59982 0.76434,22.80039c-0.84398,0.86315 -21.13776,0.52932 -22.30755,-0.17976z" fill="#ff0000" stroke="#000000" stroke-width="5" stroke-linecap="butt"/><path d="M230.84458,125.61924c-0.54327,-0.16271 -1.13343,-7.51049 -1.60697,-14.40633c-0.40799,-5.94107 -0.94319,-11.53665 1.21845,-12.03055c2.38993,-0.54605 41.98497,-2.08104 43.35587,-1.69149c3.14014,0.89227 3.95994,24.65527 1.61851,26.15113c-1.68341,1.07547 -42.24501,2.67833 -44.58585,1.97725z" fill="#ffffff" stroke="#000000" stroke-width="5" stroke-linecap="butt"/><path d="M252.50273,122.31635c-0.26775,-0.16915 -0.40614,-6.58481 -0.49594,-12.60177c-0.07737,-5.18387 -0.22558,-10.07398 0.86402,-10.39277c1.20467,-0.35245 21.00311,0.33644 21.67917,0.745c1.54859,0.93583 1.45264,21.62869 0.252,22.80903c-0.86321,0.84861 -21.14562,0.16936 -22.29926,-0.55951z" fill="#ff0000" stroke="#000000" stroke-width="5" stroke-linecap="butt"/><g stroke="#000000" stroke-width="5"><path d="M156.53592,43.85295l0.39485,10.98525l8.74977,-0.5703l0.65793,-11.53262l21.28661,-1.86618l3.21104,11.75918l31.67696,-2.54341l-0.90077,-10.47355l23.43311,-2.48482l2.24014,13.25867l8.20291,-0.53465l0.5351,-12.96082l21.40945,-0.43797l1.70506,26.21951l-6.65881,5.70014l-131.75241,9.06621l-6.22018,-1.98827l-1.40386,-29.11156z" fill="#fee70a" stroke-linecap="round"/><path d="M163.32649,71.65594c-5.43642,0.35434 -10.10929,-2.449 -10.43718,-6.26143c-0.32788,-3.81242 3.81339,-7.19027 9.2498,-7.5446c5.43642,-0.35434 10.10929,2.449 10.43718,6.26143c0.32788,3.81242 -3.81339,7.19027 -9.2498,7.5446z" fill="#7e93ff" stroke-linecap="butt"/><path d="M209.34466,69.61401c-6.64449,0.43308 -12.34256,-2.83929 -12.72697,-7.30903c-0.38441,-4.46975 4.69039,-8.44428 11.33488,-8.87736c6.64449,-0.43308 12.34256,2.83929 12.72697,7.30903c0.38441,4.46975 -4.69039,8.44428 -11.33488,8.87736z" fill="#0026ff" stroke-linecap="butt"/><path d="M252.82004,66.78033c-6.79552,0.44292 -12.58849,-2.50175 -12.93899,-6.5771c-0.3505,-4.07535 4.87421,-7.73814 11.66973,-8.18107c6.79552,-0.44292 12.58849,2.50175 12.93899,6.5771c0.3505,4.07535 -4.87421,7.73814 -11.66973,8.18107z" fill="#b6ff00" stroke-linecap="butt"/></g><g stroke-linecap="butt"><path d="M190.63329,171.76588c-0.62821,-0.16393 -1.47003,-8.1387 -2.16775,-15.62488c-0.6011,-6.44967 -1.34079,-12.52069 1.13354,-13.10929c2.73564,-0.65076 48.22511,-3.26491 49.80992,-2.87412c3.63014,0.89515 5.10077,26.71184 2.44201,28.39411c-1.91155,1.20948 -48.51081,3.92054 -51.21771,3.21417z" fill="#fea3c1" stroke="none" stroke-width="0"/><path d="M191.35425,154.5659l-0.85982,-9.99747l50.31116,-3.27922l0.85982,9.99747z" fill="#ffc7d9" stroke="none" stroke-width="0"/><path d="M193.78074,153.46427c0.4402,-0.05246 0.76616,-0.01747 0.76616,-0.01747l4.42451,1.01999c0.32037,1.3615 0.85001,2.69809 0.96113,4.08449c0.3158,3.94002 -2.30427,10.3924 -8.73232,6.15953c-2.18663,-1.43989 -0.53685,-7.17544 -0.25703,-9.15134c0,0 0.31729,-2.24048 2.83756,-2.09519z" fill="#563741" stroke="none" stroke-width="0.5"/><path d="M240.22417,151.53599c0.77244,0.52256 1.33921,1.37397 1.63903,2.28409c1.96614,1.16206 3.72954,2.55355 2.4529,5.44328c-1.36639,3.09287 -7.06173,4.4423 -9.95485,2.15552c-1.94706,-1.539 -1.50136,-7.17172 1.12894,-9.48399c0.33831,-0.66791 1.10745,-1.52183 2.80555,-1.33957c0.99847,0.10716 1.58543,0.49392 1.92844,0.94067z" fill="#563741" stroke="none" stroke-width="0.5"/><path d="M191.31048,173.23957l-0.45038,-5.23677l53.04546,-3.45745l0.45038,5.23677z" fill="#a06778" stroke="none" stroke-width="0"/><path d="M191.26203,172.68238c-0.62821,-0.16393 -1.47003,-8.1387 -2.16775,-15.62488c-0.6011,-6.44967 -1.34079,-12.52069 1.13354,-13.10929c2.73564,-0.65076 48.22511,-3.26491 49.80992,-2.87412c3.63014,0.89515 5.10077,26.71184 2.44201,28.39411c-1.91155,1.20948 -48.51081,3.92054 -51.21771,3.21417z" fill="none" stroke="#000000" stroke-width="5"/></g></g><path d="M199.57091,104.81749l-61.10812,-19.95399" fill="none" stroke="#000000" stroke-width="5" stroke-linecap="round"/><path d="M222.45717,102.36831l59.69249,-22.08276" fill="none" stroke="#000000" stroke-width="5" stroke-linecap="round"/><g stroke-linecap="butt"><path d="M304.60283,217.3439c-0.70344,0.67788 -35.68674,12.47347 -68.52915,23.48044c-28.29516,9.48297 -54.92464,18.53313 -57.5718,17.59596c-2.92672,-1.03614 -15.56977,-29.78715 -13.89508,-31.46529c3.83599,-3.84394 117.1196,-41.13561 124.57215,-41.60237c5.35811,-0.33559 18.45495,29.07036 15.42387,31.99127z" fill="#c41414" stroke="none" stroke-width="0"/><path d="M307.35077,215.62374l-25.64957,8.82062l-16.19327,-30.89262l25.64957,-8.82062z" fill="#ef99b4" stroke="none" stroke-width="NaN"/><path d="M282.9221,223.05602l-16.88269,6.68777l-17.20947,-30.00329l16.88269,-6.68777z" fill="#d8d8d8" stroke="none" stroke-width="NaN"/><path d="M305.89329,217.16654c-0.70344,0.67788 -35.68674,12.47347 -68.52915,23.48044c-28.29516,9.48297 -54.92464,18.53313 -57.5718,17.59596c-2.92672,-1.03614 -15.56977,-29.78715 -13.89508,-31.46529c3.83599,-3.84394 117.1196,-41.13561 124.57215,-41.60237c5.35811,-0.33559 18.45495,29.07036 15.42387,31.99127z" fill="none" stroke="#000000" stroke-width="5"/></g></g></g></svg>