<svg version="1.1" xmlns="http://www.w3.org/2000/svg" xmlns:xlink="http://www.w3.org/1999/xlink" width="249.0872" height="313.38034" viewBox="0,0,249.0872,313.38034"><g transform="translate(-154.50815,-19.89563)"><g data-paper-data="{&quot;isPaintingLayer&quot;:true}" fill-rule="nonzero" stroke-linejoin="miter" stroke-miterlimit="10" stroke-dasharray="" stroke-dashoffset="0" style="mix-blend-mode: normal"><g stroke-linecap="butt"><path d="M323.85991,200.76727c-0.60173,0.70933 -30.50238,13.03115 -58.5731,24.52898c-24.18414,9.90588 -46.94476,19.35998 -49.20524,18.37602c-2.49922,-1.08787 -13.26826,-31.21136 -11.83564,-32.9674c3.28152,-4.02236 100.10536,-42.97525 106.47285,-43.45727c4.57798,-0.34655 15.73397,30.46329 13.14113,33.51967z" fill="#c41414" stroke="none" stroke-width="0"/><path d="M327.1138,198.93326l-22.61934,8.53881l-15.017,-31.85861l22.61935,-8.53881z" fill="#ef99b4" stroke="none" stroke-width="NaN"/><path d="M305.33093,206.72986l-14.43093,6.98883l-14.66887,-31.43924l14.43093,-6.98883z" fill="#d8d8d8" stroke="none" stroke-width="NaN"/><path d="M324.9626,200.5827c-0.60173,0.70933 -30.50238,13.03115 -58.5731,24.52898c-24.18414,9.90588 -46.94476,19.35998 -49.20524,18.37602c-2.49922,-1.08787 -13.26826,-31.21136 -11.83564,-32.9674c3.28152,-4.02236 100.10536,-42.97525 106.47285,-43.45727c4.57798,-0.34655 15.73397,30.46329 13.14113,33.51967z" fill="none" stroke="#000000" stroke-width="5"/></g><g data-paper-data="{&quot;index&quot;:null}"><path d="M359.94712,176.14245l-79.67298,35.43568l-8.47982,-17.02144l80.64355,-35.8856z" fill="#773f00" stroke="#000000" stroke-width="5" stroke-linecap="round"/><path d="M318.51215,230.76883l40.73128,-28.3593l-0.16266,-21.87456l-8.18488,-17.65702l-15.83714,-19.09845l-51.61094,5.9651l-1.24261,-5.90921l52.58188,-11.4038l22.48852,26.99021l8.18488,17.65702l4.18986,29.48616l-48.06273,29.76233z" fill="#763e00" stroke="#000000" stroke-width="5" stroke-linecap="round"/><path d="M359.6355,177.3082l-56.95653,24.90551l-8.34047,-17.08603l57.64837,-25.22622z" fill="#24202a" stroke="#000000" stroke-width="5" stroke-linecap="round"/><path d="M320.345,230.41809l-22.59979,-36.91588l-14.70804,-43.56727" fill="none" stroke="#676767" stroke-width="5" stroke-linecap="round"/><g stroke-linecap="butt"><path d="M347.54027,159.94366l11.90822,-5.52003l9.5173,20.53141l-11.90822,5.52003z" fill="#ff3535" stroke="none" stroke-width="0"/><path d="M358.61682,154.83273l9.18068,-4.25569l9.5173,20.53141l-9.18068,4.25569z" fill="#efefef" stroke="none" stroke-width="0"/><path d="M367.16436,150.87053l9.18068,-4.25569l9.5173,20.53141l-9.18068,4.25569z" fill="#ff3535" stroke="none" stroke-width="0"/><path d="M375.70593,146.93468l9.18068,-4.25569l9.5173,20.53141l-9.18068,4.25569z" fill="#efefef" stroke="none" stroke-width="0"/><path d="M384.4864,142.84092l15.18477,6.92929l-5.66747,13.60212z" fill="#ff3535" stroke="none" stroke-width="0"/><path d="M346.95559,159.60144l35.77801,-16.58483l17.34913,6.35919l-7.55808,14.76278l-35.77801,16.58483z" fill="none" stroke="#000000" stroke-width="5"/></g></g><g stroke-linecap="round"><path d="M223.92359,280.77763c0,0 -8.21835,46.28166 -14.5,50c-4.81539,2.85041 -35.33865,0.62525 -38,0.5c-4.28889,-0.20184 12.96934,-20.59166 15.5,-29c2.53066,-8.40834 0,-22.5 0,-22.5z" fill="#c41414" stroke="none" stroke-width="0"/><path d="M217.04859,302.22237l-6.75,23.75l-2.75,3l-12.25,1l-23,-1.25c0,0 11.34523,-14.01854 14.16092,-19.04985c1.84736,-3.301 2.83908,-8.20015 2.83908,-8.20015z" fill="#5b5a5a" stroke="#5b5a5a" stroke-width="0.5"/><path d="M223.42359,282.23473c0,0 -8.10245,44.29607 -14.29551,47.85488c-4.74748,2.72812 -34.84028,0.59843 -37.4641,0.47855c-4.22841,-0.19318 12.78644,-19.70823 15.28141,-27.75583c2.49497,-8.0476 0,-21.5347 0,-21.5347z" fill="none" stroke="#000000" stroke-width="5"/></g><path d="M188.82312,287.52758c-1.21699,-0.73636 -3.92495,-32.96395 -6.29111,-63.2059c-2.03854,-26.05475 -4.28793,-50.60085 0.33397,-52.67276c5.11,-2.29073 91.22156,-7.32117 94.28853,-5.55526c7.02518,4.04499 13.40671,108.2236 8.58611,114.67902c-3.46583,4.6412 -91.67359,9.92779 -96.9175,6.75489z" fill="#c41414" stroke="#000000" stroke-width="5" stroke-linecap="butt"/><g><g stroke-linecap="round"><path d="M262.43547,170.14866c0,0 -6.11003,29.38931 -4.5192,53.4867c1.59083,24.09737 11.99611,59.77118 11.99611,59.77118l-57.98744,2.33597c0,0 4.17664,-40.433 2.46342,-60.85377c-1.71321,-20.42077 -11.78542,-50.26036 -11.78542,-50.26036z" fill="#f7f6f6" stroke="none" stroke-width="0"/><path d="M214.26864,283.56143l4.98047,-54.02263l-11.43614,-52.29211l49.86045,-3.73309l-3.21004,50.88168l11.69746,55.78234z" fill="none" stroke="#c6c7c7" stroke-width="5"/><path d="M262.51013,171.14587c0,0 -6.11003,29.38931 -4.5192,53.4867c1.59083,24.09737 11.99611,59.77118 11.99611,59.77118l-57.98744,2.33597c0,0 4.17664,-40.433 2.46342,-60.85377c-1.71321,-20.42077 -11.78542,-50.26036 -11.78542,-50.26036z" fill="none" stroke="#000000" stroke-width="5"/></g><path d="M227.41066,204.60986c-0.29895,-3.99288 2.69558,-7.47211 6.68847,-7.77106c3.99288,-0.29895 7.47211,2.69558 7.77106,6.68847c0.29895,3.99288 -2.69558,7.47211 -6.68847,7.77106c-3.99288,0.29895 -7.47211,-2.69558 -7.77106,-6.68847z" fill="#ffd901" stroke="none" stroke-width="NaN" stroke-linecap="butt"/><path d="M228.7919,223.05823c-0.29895,-3.99288 2.69557,-7.47211 6.68847,-7.77106c3.99289,-0.29895 7.47211,2.69558 7.77106,6.68847c0.29895,3.99288 -2.69557,7.47211 -6.68847,7.77106c-3.99289,0.29895 -7.47211,-2.69558 -7.77106,-6.68847z" fill="#ffd901" stroke="none" stroke-width="NaN" stroke-linecap="butt"/><path d="M230.13581,241.00799c-0.29895,-3.99288 2.69557,-7.47211 6.68847,-7.77106c3.99289,-0.29895 7.47211,2.69558 7.77106,6.68847c0.29895,3.99289 -2.69557,7.47211 -6.68847,7.77106c-3.99289,0.29895 -7.47211,-2.69557 -7.77106,-6.68847z" fill="#ffd901" stroke="none" stroke-width="NaN" stroke-linecap="butt"/></g><g stroke-linecap="round"><path d="M282.92357,284.02763c0,0 15.90382,46.40099 10.5,46.49834c-7.36964,0.13277 -27.15314,-0.72421 -33,-0.56705c-7.9925,0.21483 9.73791,-9.4587 9.5,-19.84686c-0.23791,-10.38815 -10.5,-23.81622 -10.5,-23.81622z" fill="#c41414" stroke="none" stroke-width="0"/><path d="M285.79857,300.72237c0,0 2.7734,7.21957 3.63711,11.31281c1.02515,4.85834 3.36289,17.43719 3.36289,17.43719l-31.25,-1.25l9.75,-15.25c0,0 -0.03933,-5.56974 -0.26544,-7.69517c-0.1799,-1.69107 -0.48456,-4.55483 -0.48456,-4.55483z" fill="#5a5b5a" stroke="#5a5b5a" stroke-width="0.5"/><path d="M282.92357,284.27763c0,0 15.90382,46.40099 10.5,46.49834c-7.36964,0.13277 -27.15314,-0.72421 -33,-0.56705c-7.9925,0.21483 9.73791,-9.4587 9.5,-19.84686c-0.23791,-10.38815 -10.5,-23.81622 -10.5,-23.81622z" fill="none" stroke="#000000" stroke-width="5"/></g><g><path d="M173.9315,175.44739c-1.43517,-0.72002 -4.19854,-32.94347 -6.58382,-63.18398c-2.05502,-26.05352 -4.38171,-50.59383 1.13722,-52.7329c6.10176,-2.36498 108.45409,-8.61139 112.07216,-6.88673c8.2875,3.95048 14.40268,108.14903 8.58611,114.67902c-4.18189,4.69481 -109.02767,11.22709 -115.21167,8.12459z" fill="#ffbbce" stroke="#000000" stroke-width="5" stroke-linecap="butt"/><path d="M170.76245,122.40116c-0.49856,-0.16069 -1.18703,-7.84427 -1.75996,-15.05669c-0.4936,-6.21382 -1.09609,-12.0636 0.86431,-12.61931c2.16743,-0.6144 38.23019,-2.92773 39.48786,-2.54428c2.88078,0.87833 4.1148,25.74674 2.01104,27.35486c-1.51253,1.15618 -38.45502,3.55782 -40.60325,2.86543z" fill="#ffffff" stroke="#000000" stroke-width="5" stroke-linecap="butt"/><path d="M190.43803,118.55642c-0.24753,-0.17235 -0.5051,-6.88793 -0.7102,-13.18688c-0.1767,-5.42682 -0.41196,-10.54479 0.57476,-10.89802c1.09093,-0.39054 19.15298,-0.0222 19.77764,0.39355c1.43084,0.95234 1.7672,22.62223 0.69689,23.87962c-0.76951,0.90401 -19.27253,0.55438 -20.33909,-0.18827z" fill="#ff0000" stroke="#000000" stroke-width="5" stroke-linecap="butt"/><path d="M246.21967,115.83989c-0.49533,-0.17041 -1.03341,-7.86599 -1.46517,-15.08824c-0.37199,-6.22228 -0.85996,-12.08273 1.11093,-12.6c2.17904,-0.5719 38.28014,-2.17954 39.53007,-1.77156c2.86305,0.9345 3.61051,25.8223 1.47569,27.38897c-1.53486,1.12638 -38.51723,2.80511 -40.65151,2.07084z" fill="#ffffff" stroke="#000000" stroke-width="5" stroke-linecap="butt"/><path d="M265.96667,112.38067c-0.24412,-0.17716 -0.3703,-6.8965 -0.45218,-13.19826c-0.07054,-5.42924 -0.20567,-10.55082 0.78778,-10.8847c1.09837,-0.36913 19.14976,0.35237 19.76616,0.78026c1.41194,0.98013 1.32446,22.65246 0.22976,23.88867c-0.78704,0.88878 -19.27969,0.17738 -20.33153,-0.58599z" fill="#ff0000" stroke="#000000" stroke-width="5" stroke-linecap="butt"/><g stroke="#000000" stroke-width="5"><path d="M178.46814,30.20328l0.36001,11.50523l7.97767,-0.59729l0.59987,-12.0785l19.40824,-1.95451l2.92769,12.31579l28.88173,-2.6638l-0.82128,-10.9693l21.36533,-2.60244l2.04247,13.88626l7.47907,-0.55996l0.48788,-13.57431l19.52024,-0.4587l1.5546,27.46058l-6.07122,5.96995l-120.12634,9.49535l-5.6713,-2.08238l-1.27998,-30.48953z" fill="#fee70a" stroke-linecap="round"/><path d="M184.6595,59.3223c-4.9567,0.37111 -9.21723,-2.56492 -9.51618,-6.55781c-0.29895,-3.99288 3.47689,-7.53061 8.43358,-7.90172c4.9567,-0.37111 9.21723,2.56492 9.51618,6.55781c0.29895,3.99288 -3.47689,7.53061 -8.43358,7.90172z" fill="#7e93ff" stroke-linecap="butt"/><path d="M226.61694,57.18371c-6.05817,0.45358 -11.25343,-2.97368 -11.60392,-7.655c-0.35049,-4.68132 4.2765,-8.84398 10.33467,-9.29756c6.05817,-0.45358 11.25343,2.97368 11.60392,7.655c0.35049,4.68132 -4.2765,8.84398 -10.33467,9.29756z" fill="#0026ff" stroke-linecap="butt"/><path d="M266.25598,54.21591c-6.19587,0.46389 -11.47766,-2.62017 -11.79723,-6.88842c-0.31957,-4.26825 4.4441,-8.10442 10.63997,-8.56831c6.19587,-0.46389 11.47766,2.62017 11.79723,6.88842c0.31957,4.26825 -4.4441,8.10442 -10.63997,8.56831z" fill="#b6ff00" stroke-linecap="butt"/></g><g stroke-linecap="butt"><path d="M209.5567,164.17084c-0.57278,-0.17169 -1.34031,-8.52394 -1.97646,-16.36447c-0.54806,-6.75496 -1.22248,-13.11334 1.03351,-13.7298c2.49424,-0.68156 43.96964,-3.41945 45.4146,-3.01016c3.30981,0.93752 4.65067,27.97622 2.22652,29.73812c-1.74287,1.26673 -44.23013,4.10611 -46.69817,3.36631z" fill="#fea3c1" stroke="none" stroke-width="0"/><path d="M210.21404,146.15671l-0.78395,-10.47069l45.87161,-3.43444l0.78395,10.47069z" fill="#ffc7d9" stroke="none" stroke-width="0"/><path d="M212.42641,145.00294c0.40136,-0.05494 0.69855,-0.0183 0.69855,-0.0183l4.03408,1.06827c0.2921,1.42594 0.775,2.8258 0.87632,4.27782c0.28793,4.12652 -2.10094,10.88431 -7.96176,6.45108c-1.99368,-1.50805 -0.48948,-7.51508 -0.23435,-9.58451c0,0 0.28929,-2.34653 2.58717,-2.19436z" fill="#563741" stroke="none" stroke-width="0.5"/><path d="M254.77159,142.98339c0.70428,0.54729 1.22104,1.43901 1.4944,2.3922c1.79264,1.21707 3.40044,2.67442 2.23645,5.70093c-1.24582,3.23927 -6.43859,4.65257 -9.07642,2.25755c-1.77525,-1.61185 -1.36888,-7.51119 1.02932,-9.93291c0.30846,-0.69953 1.00973,-1.59386 2.55798,-1.40298c0.91036,0.11223 1.44553,0.5173 1.75827,0.9852z" fill="#563741" stroke="none" stroke-width="0.5"/><path d="M210.17413,165.71428l-0.41064,-5.48465l48.36463,-3.6211l0.41064,5.48465z" fill="#a06778" stroke="none" stroke-width="0"/><path d="M210.12996,165.13072c-0.57278,-0.17169 -1.34031,-8.52394 -1.97646,-16.36447c-0.54806,-6.75496 -1.22248,-13.11334 1.03351,-13.7298c2.49424,-0.68156 43.96964,-3.41945 45.4146,-3.01016c3.30981,0.93752 4.65067,27.97622 2.22652,29.73812c-1.74287,1.26673 -44.23013,4.10611 -46.69817,3.36631z" fill="none" stroke="#000000" stroke-width="5"/></g></g><path d="M217.70565,94.05352l-55.71583,-20.89849" fill="none" stroke="#000000" stroke-width="5" stroke-linecap="round"/><path d="M292.9975,68.36038l-54.42512,23.12803" fill="none" stroke="#000000" stroke-width="5" stroke-linecap="round"/><g stroke-linecap="butt"><path d="M328.62716,203.90625c-0.60097,0.70997 -30.48836,13.06389 -58.54672,24.59186c-24.17349,9.93184 -46.92394,19.41038 -49.18549,18.42885c-2.50039,-1.08518 -13.30177,-31.19709 -11.87103,-32.95467c3.27721,-4.02589 100.05915,-43.08272 106.42611,-43.57158c4.57761,-0.35147 15.76667,30.44638 13.17712,33.50554z" fill="#c41414" stroke="none" stroke-width="0"/><path d="M330.97482,202.10467l-21.91328,9.23814l-13.83445,-32.35489l21.91328,-9.23813z" fill="#ef99b4" stroke="none" stroke-width="NaN"/><path d="M310.1046,209.88875l-14.42344,7.00433l-14.70262,-31.42346l14.42344,-7.00433z" fill="#d8d8d8" stroke="none" stroke-width="NaN"/><path d="M329.72964,203.72049c-0.60097,0.70997 -30.48836,13.06389 -58.54672,24.59186c-24.17349,9.93184 -46.92394,19.41038 -49.18549,18.42885c-2.50039,-1.08518 -13.30177,-31.19709 -11.87103,-32.95467c3.27721,-4.02589 100.05915,-43.08272 106.42611,-43.57158c4.57761,-0.35147 15.76667,30.44638 13.17712,33.50554z" fill="none" stroke="#000000" stroke-width="5"/></g></g></g></svg>