<svg version="1.1" xmlns="http://www.w3.org/2000/svg" xmlns:xlink="http://www.w3.org/1999/xlink" width="271.30619" height="311.64482" viewBox="0,0,271.30619,311.64482"><g transform="translate(-169.16396,-21.63115)"><g data-paper-data="{&quot;isPaintingLayer&quot;:true}" fill-rule="nonzero" stroke-linejoin="miter" stroke-miterlimit="10" stroke-dasharray="" stroke-dashoffset="0" style="mix-blend-mode: normal"><g stroke-linecap="butt"><path d="M330.30418,223.01235c-0.85153,0.37434 -33.12897,-1.63627 -63.40043,-3.58667c-26.08017,-1.68035 -50.6827,-3.14375 -52.28436,-5.01795c-1.77082,-2.07214 1.73344,-33.8702 3.79021,-34.82192c4.7112,-2.17999 108.8168,5.18258 114.75279,7.53658c4.26774,1.69244 0.81094,34.27699 -2.85821,35.88995z" fill="#c41414" stroke="none" stroke-width="0"/><path d="M334.03259,222.78779l-24.07483,-2.22449l0.44449,-35.21766l24.07484,2.22448z" fill="#ef99b4" stroke="none" stroke-width="NaN"/><path d="M311.03472,220.26217l-16.03417,-0.03356l0.57391,-34.68822l16.03417,0.03356z" fill="#d8d8d8" stroke="none" stroke-width="NaN"/><path d="M331.3764,223.3291c-0.85153,0.37434 -33.12897,-1.63627 -63.40043,-3.58667c-26.08017,-1.68035 -50.6827,-3.14375 -52.28436,-5.01795c-1.77082,-2.07214 1.73344,-33.8702 3.79021,-34.82192c4.7112,-2.17999 108.8168,5.18258 114.75279,7.53658c4.26774,1.69244 0.81094,34.27699 -2.85821,35.88995z" fill="none" stroke="#000000" stroke-width="5"/></g><g data-paper-data="{&quot;index&quot;:null}"><path d="M388.66867,220.06935l-86.89946,-7.20806l0.7425,-19.00225l87.96682,7.27988z" fill="#773f00" stroke="#000000" stroke-width="5" stroke-linecap="round"/><path d="M326.08178,248.06538l49.34789,-5.29839l10.36854,-19.26178l1.30657,-19.41791l-4.71169,-24.3591l-48.12828,-19.56886l1.74975,-5.77938l51.59319,15.26577l6.75268,34.47616l-1.30657,19.41791l-10.49429,27.87218l-56.45163,3.0059z" fill="#763e00" stroke="#000000" stroke-width="5" stroke-linecap="round"/><path d="M387.83522,220.94195l-61.91754,-5.52711l0.89575,-18.99193l62.67838,5.57829z" fill="#24202a" stroke="#000000" stroke-width="5" stroke-linecap="round"/><path d="M327.85769,248.63851l-2.08077,-43.23428l8.03629,-45.27528" fill="none" stroke="#676767" stroke-width="5" stroke-linecap="round"/><g stroke-linecap="butt"><path d="M385.57193,199.90153l13.0958,0.88118l-1.51927,22.57897l-13.0958,-0.88118z" fill="#ff3535" stroke="none" stroke-width="0"/><path d="M397.74179,200.74185l10.09626,0.67934l-1.51927,22.57897l-10.09626,-0.67934z" fill="#efefef" stroke="none" stroke-width="0"/><path d="M407.14176,201.37434l10.09626,0.67934l-1.51927,22.57897l-10.09626,-0.67934z" fill="#ff3535" stroke="none" stroke-width="0"/><path d="M416.52383,202.02707l10.09626,0.67934l-1.51927,22.57897l-10.09626,-0.67934z" fill="#efefef" stroke="none" stroke-width="0"/><path d="M426.19129,202.65612l9.98712,13.37347l-11.50638,9.20549z" fill="#ff3535" stroke="none" stroke-width="0"/><path d="M385.22362,199.32045l39.34608,2.64748l12.15917,13.91352l-13.72214,9.31488l-39.34608,-2.64748z" fill="none" stroke="#000000" stroke-width="5"/></g></g><g stroke-linecap="round"><path d="M223.92358,280.77763c0,0 -8.21835,46.28166 -14.5,50c-4.81539,2.85041 -35.33865,0.62525 -38,0.5c-4.28889,-0.20184 12.96934,-20.59166 15.5,-29c2.53066,-8.40834 0,-22.5 0,-22.5z" fill="#c41414" stroke="none" stroke-width="0"/><path d="M217.04858,302.22237l-6.75,23.75l-2.75,3l-12.25,1l-23,-1.25c0,0 11.34523,-14.01854 14.16092,-19.04985c1.84736,-3.301 2.83908,-8.20015 2.83908,-8.20015z" fill="#5b5a5a" stroke="#5b5a5a" stroke-width="0.5"/><path d="M223.42358,282.23473c0,0 -8.10245,44.29607 -14.29551,47.85488c-4.74748,2.72812 -34.84028,0.59843 -37.4641,0.47855c-4.22841,-0.19318 12.78644,-19.70823 15.28141,-27.75583c2.49497,-8.0476 0,-21.5347 0,-21.5347z" fill="none" stroke="#000000" stroke-width="5"/></g><path d="M186.25296,281.77763c-1.15862,-0.82517 -1.45285,-33.16499 -1.55448,-63.49919c-0.08756,-26.13423 -0.49801,-50.77976 4.26568,-52.50081c5.26677,-1.90281 91.51356,-0.48997 94.44013,1.5c6.70357,4.55821 5.28912,108.92251 0,115c-3.80268,4.36948 -92.15895,3.05556 -97.15133,-0.5z" fill="#c41414" stroke="#000000" stroke-width="5" stroke-linecap="butt"/><g><g stroke-linecap="round"><path d="M268.42357,170.22236c0,0 -8.28724,28.8511 -8.5,53c-0.21276,24.14889 7.5,60.5 7.5,60.5l-58,-2c0,0 7.18378,-40.00831 7,-60.5c-0.18378,-20.49169 -8,-51 -8,-51z" fill="#f7f6f6" stroke="none" stroke-width="0"/><path d="M211.92358,279.72236l9,-53.5l-7.5,-53h50l-7,50.5l7.5,56.5z" fill="none" stroke="#c6c7c7" stroke-width="5"/><path d="M268.42357,171.22236c0,0 -8.28724,28.8511 -8.5,53c-0.21276,24.14889 7.5,60.5 7.5,60.5l-58,-2c0,0 7.18378,-40.00831 7,-60.5c-0.18378,-20.49169 -8,-51 -8,-51z" fill="none" stroke="#000000" stroke-width="5"/></g><path d="M230.92358,201.97236c0,-4.00406 3.24594,-7.25 7.25,-7.25c4.00406,0 7.25,3.24594 7.25,7.25c0,4.00406 -3.24594,7.25 -7.25,7.25c-4.00406,0 -7.25,-3.24594 -7.25,-7.25z" fill="#ffd901" stroke="none" stroke-width="NaN" stroke-linecap="butt"/><path d="M230.92358,220.47236c0,-4.00406 3.24593,-7.25 7.25,-7.25c4.00407,0 7.25,3.24594 7.25,7.25c0,4.00406 -3.24593,7.25 -7.25,7.25c-4.00407,0 -7.25,-3.24594 -7.25,-7.25z" fill="#ffd901" stroke="none" stroke-width="NaN" stroke-linecap="butt"/><path d="M230.92358,238.47236c0,-4.00406 3.24593,-7.25 7.25,-7.25c4.00407,0 7.25,3.24594 7.25,7.25c0,4.00407 -3.24593,7.25 -7.25,7.25c-4.00407,0 -7.25,-3.24593 -7.25,-7.25z" fill="#ffd901" stroke="none" stroke-width="NaN" stroke-linecap="butt"/></g><g stroke-linecap="round"><path d="M282.92357,284.02763c0,0 15.90382,46.40099 10.5,46.49834c-7.36964,0.13277 -27.15314,-0.72421 -33,-0.56705c-7.9925,0.21483 9.73791,-9.4587 9.5,-19.84686c-0.23791,-10.38815 -10.5,-23.81622 -10.5,-23.81622z" fill="#c41414" stroke="none" stroke-width="0"/><path d="M285.79857,300.72237c0,0 2.7734,7.21957 3.63711,11.31281c1.02515,4.85834 3.36289,17.43719 3.36289,17.43719l-31.25,-1.25l9.75,-15.25c0,0 -0.03933,-5.56974 -0.26544,-7.69517c-0.1799,-1.69107 -0.48456,-4.55483 -0.48456,-4.55483z" fill="#5a5b5a" stroke="#5a5b5a" stroke-width="0.5"/><path d="M282.92357,284.27763c0,0 15.90382,46.40099 10.5,46.49834c-7.36964,0.13277 -27.15314,-0.72421 -33,-0.56705c-7.9925,0.21483 9.73791,-9.4587 9.5,-19.84686c-0.23791,-10.38815 -10.5,-23.81622 -10.5,-23.81622z" fill="none" stroke="#000000" stroke-width="5"/></g><g><path d="M179.17829,167.77174c-1.32633,-0.90499 0.23258,-33.20912 1.90173,-63.4976c1.43805,-26.09484 2.40504,-50.72623 8.15995,-52.11014c6.36266,-1.53007 108.63371,5.92986 111.98944,8.12165c7.6866,5.02047 -0.14962,109.10375 -6.78513,114.79966c-4.77067,4.09514 -109.55102,-3.41403 -115.26599,-7.31356z" fill="#ffbbce" stroke="#000000" stroke-width="5" stroke-linecap="butt"/><path d="M183.11222,114.77675c-0.47267,-0.22574 -0.13025,-7.9325 0.26384,-15.15691c0.33953,-6.22414 0.5226,-12.10202 2.5396,-12.39131c2.23001,-0.31984 38.27913,2.19712 39.47443,2.74488c2.7379,1.25468 0.64425,26.06552 -1.6552,27.3787c-1.65321,0.94412 -38.58598,-1.60264 -40.62268,-2.57535z" fill="#ffffff" stroke="#000000" stroke-width="5" stroke-linecap="butt"/><path d="M203.12479,113.59045c-0.22233,-0.20382 0.41805,-6.89376 1.05486,-13.16379c0.54864,-5.40191 0.99806,-10.50554 2.02307,-10.72401c1.13327,-0.24156 18.98484,2.5324 19.54847,3.02775c1.29104,1.13466 -1.26567,22.65582 -2.49412,23.75923c-0.8832,0.7933 -19.1743,-2.02092 -20.13229,-2.89918z" fill="#ff0000" stroke="#000000" stroke-width="5" stroke-linecap="butt"/><path d="M258.77042,118.33769c-0.46817,-0.23495 0.02489,-7.93354 0.56021,-15.14886c0.46119,-6.21631 0.75917,-12.08948 2.78145,-12.33928c2.23585,-0.27617 38.22885,2.94528 39.4132,3.51632c2.71284,1.30799 0.13438,26.07314 -2.19031,27.3411c-1.67137,0.91162 -38.54725,-2.35693 -40.56454,-3.36928z" fill="#ffffff" stroke="#000000" stroke-width="5" stroke-linecap="butt"/><path d="M278.80236,117.54299c-0.21831,-0.20813 0.55278,-6.88428 1.31209,-13.14066c0.65417,-5.39014 1.20331,-10.484 2.23241,-10.68239c1.13778,-0.21934 18.93169,2.90319 19.48552,3.40947c1.26861,1.15968 -1.70849,22.62673 -2.95828,23.70591c-0.89854,0.77588 -19.13111,-2.3955 -20.07175,-3.29233z" fill="#ff0000" stroke="#000000" stroke-width="5" stroke-linecap="butt"/><g stroke="#000000" stroke-width="5"><path d="M203.04533,24.43021l-1.17764,11.45047l7.98606,0.47201l2.2054,-11.89059l19.49553,0.65139l1.259,12.59623l28.97898,1.2119l0.64901,-10.98084l21.52155,0.27027l0.17224,14.03461l7.48693,0.44251l2.2939,-13.38798l19.40703,2.14878l-2.12166,27.42259l-6.81318,5.10691l-120.31958,-6.6105l-5.34292,-2.82015l2.79779,-30.38787z" fill="#fee70a" stroke-linecap="round"/><path d="M205.29783,54.11482c-4.96191,-0.29327 -8.79281,-3.7713 -8.55656,-7.76838c0.23624,-3.99708 4.45017,-6.99963 9.41208,-6.70636c4.96191,0.29327 8.79281,3.7713 8.55656,7.76838c-0.23624,3.99708 -4.45017,6.99963 -9.41208,6.70636z" fill="#7e93ff" stroke-linecap="butt"/><path d="M247.16566,57.59113c-6.06455,-0.35844 -10.7563,-4.44796 -10.47933,-9.1342c0.27698,-4.68624 5.4178,-8.19462 11.48235,-7.83618c6.06455,0.35844 10.7563,4.44796 10.47933,9.1342c-0.27698,4.68624 -5.4178,8.19462 -11.48235,7.83618z" fill="#0026ff" stroke-linecap="butt"/><path d="M286.84642,59.93642c-6.20239,-0.36659 -11.02568,-4.12752 -10.77314,-8.40026c0.25254,-4.27274 5.48527,-7.43932 11.68766,-7.07274c6.20239,0.36659 11.02568,4.12752 10.77314,8.40026c-0.25254,4.27274 -5.48527,7.43932 -11.68766,7.07274z" fill="#b6ff00" stroke-linecap="butt"/></g><g stroke-linecap="butt"><path d="M215.98915,161.3472c-0.54476,-0.24655 -0.19152,-8.62655 0.2237,-16.48187c0.35774,-6.76771 0.53735,-13.15923 2.8554,-13.4693c2.56285,-0.34282 44.03289,2.47525 45.41035,3.07359c3.15521,1.37057 0.87798,28.34654 -1.75949,29.7694c-1.89624,1.02297 -44.38263,-1.82946 -46.72996,-2.89182z" fill="#fea3c1" stroke="none" stroke-width="0"/><path d="M219.04314,143.58167l0.61951,-10.48171l45.91986,2.71405l-0.61951,10.48171z" fill="#ffc7d9" stroke="none" stroke-width="0"/><path d="M221.38961,142.73327c0.4051,-0.00092 0.69475,0.07503 0.69475,0.07503l3.85557,1.59674c0.09931,1.45216 0.39121,2.90392 0.29796,4.35648c-0.26499,4.12806 -3.53379,10.50688 -8.75101,5.3316c-1.77474,-1.76047 0.51717,-7.51323 1.04601,-9.53015c0,0 0.59966,-2.28698 2.85671,-1.82971z" fill="#563741" stroke="none" stroke-width="0.5"/><path d="M263.62585,146.37925c0.62499,0.63633 1.01821,1.589 1.162,2.57014c1.61431,1.44527 3.01338,3.10404 1.45615,5.94828c-1.6667,3.04418 -7.00158,3.75231 -9.29642,1.02688c-1.54442,-1.83421 -0.3549,-7.62666 2.34486,-9.7069c0.399,-0.65214 1.21328,-1.44495 2.72224,-1.04929c0.88726,0.23264 1.36362,0.70546 1.61117,1.2109z" fill="#563741" stroke="none" stroke-width="0.5"/><path d="M216.39523,162.9592l0.32451,-5.49042l48.41551,2.86155l-0.32451,5.49042z" fill="#a06778" stroke="none" stroke-width="0"/><path d="M216.42928,162.37496c-0.54476,-0.24655 -0.19152,-8.62655 0.2237,-16.48187c0.35774,-6.76771 0.53735,-13.15923 2.8554,-13.4693c2.56285,-0.34282 44.03289,2.47525 45.41035,3.07359c3.15521,1.37057 0.87798,28.34654 -1.75949,29.7694c-1.89624,1.02297 -44.38263,-1.82946 -46.72996,-2.89182z" fill="none" stroke="#000000" stroke-width="5"/></g></g><path d="M231.25,89.5l-51,-19.5" fill="none" stroke="#000000" stroke-width="5" stroke-linecap="round"/><path d="M307.25,74l-47,14" fill="none" stroke="#000000" stroke-width="5" stroke-linecap="round"/><g stroke-linecap="butt"><path d="M374.29109,229.23969c-0.82975,0.42039 -33.16886,0.17974 -63.5017,-0.11061c-26.13306,-0.25015 -50.77879,-0.36455 -52.48066,-2.14826c-1.8816,-1.97209 -0.12329,-33.91431 1.87831,-34.97719c4.58481,-2.43462 108.93734,-0.78206 114.99328,1.24347c4.354,1.45628 2.68611,34.1812 -0.88922,35.9926z" fill="#c41414" stroke="none" stroke-width="0"/><path d="M377.15455,228.49284l-23.78098,-0.01033l-0.16382,-35.18812l23.78098,0.01033z" fill="#ef99b4" stroke="none" stroke-width="NaN"/><path d="M354.89997,227.5485l-16.01198,0.84423l-1.32585,-34.66761l16.01198,-0.84423z" fill="#d8d8d8" stroke="none" stroke-width="NaN"/><path d="M375.37904,229.49727c-0.82975,0.42039 -33.16886,0.17974 -63.5017,-0.11061c-26.13306,-0.25015 -50.77879,-0.36455 -52.48066,-2.14826c-1.8816,-1.97209 -0.12329,-33.91431 1.87831,-34.97719c4.58481,-2.43462 108.93734,-0.78206 114.99328,1.24347c4.354,1.45628 2.68611,34.1812 -0.88922,35.9926z" fill="none" stroke="#000000" stroke-width="5"/></g></g></g></svg>