<svg version="1.1" xmlns="http://www.w3.org/2000/svg" xmlns:xlink="http://www.w3.org/1999/xlink" width="292.87191" height="294.7207" viewBox="0,0,292.87191,294.7207"><g transform="translate(-148.23675,-38.6351)"><g data-paper-data="{&quot;isPaintingLayer&quot;:true}" fill-rule="nonzero" stroke-linejoin="miter" stroke-miterlimit="10" stroke-dasharray="" stroke-dashoffset="0" style="mix-blend-mode: normal"><g stroke-linecap="butt"><path d="M313.58296,233.52397c-0.91877,0.35368 -35.74454,-1.54598 -68.40597,-3.38875c-28.13924,-1.58763 -54.68417,-2.97027 -56.41227,-4.74104c-1.91062,-1.95779 1.8703,-32.00112 4.08945,-32.90032c5.08315,-2.05969 117.40803,4.89658 123.81267,7.12068c4.60468,1.59905 0.87497,32.38546 -3.08387,33.90942z" fill="#c41414" stroke="none" stroke-width="0"/><path d="M317.60573,233.3118l-25.97557,-2.10173l0.47958,-33.27422l25.97558,2.10172z" fill="#ef99b4" stroke="none" stroke-width="NaN"/><path d="M292.79215,230.92556l-17.30009,-0.03171l0.61922,-32.774l17.30009,0.03171z" fill="#d8d8d8" stroke="none" stroke-width="NaN"/><path d="M314.73983,233.82324c-0.91877,0.35368 -35.74454,-1.54598 -68.40597,-3.38875c-28.13924,-1.58763 -54.68417,-2.97027 -56.41227,-4.74104c-1.91062,-1.95779 1.8703,-32.00112 4.08945,-32.90032c5.08315,-2.05969 117.40803,4.89658 123.81267,7.12068c4.60468,1.59905 0.87497,32.38546 -3.08387,33.90942z" fill="none" stroke="#000000" stroke-width="5"/></g><g data-paper-data="{&quot;index&quot;:null}"><path d="M377.8237,226.25837l-106.50866,-6.81029l0.91005,-17.95364l107.81688,6.87815z" fill="#773f00" stroke="#000000" stroke-width="5" stroke-linecap="round"/><path d="M301.11384,252.70948l60.48343,-5.00601l12.70825,-18.19884l1.6014,-18.34636l-5.7749,-23.01488l-58.98862,-18.48898l2.14459,-5.46046l63.2354,14.42335l8.27644,32.57364l-1.6014,18.34636l-12.86236,26.33409l-69.19016,2.84002z" fill="#763e00" stroke="#000000" stroke-width="5" stroke-linecap="round"/><path d="M376.80218,227.08281l-75.88947,-5.22211l1.09787,-17.94388l76.822,5.27046z" fill="#24202a" stroke="#000000" stroke-width="5" stroke-linecap="round"/><path d="M303.29048,253.25098l-2.5503,-40.84846l9.84972,-42.77682" fill="none" stroke="#676767" stroke-width="5" stroke-linecap="round"/><g stroke-linecap="butt"><path d="M374.02816,207.20349l16.05092,0.83255l-1.8621,21.33298l-16.05092,-0.83255z" fill="#ff3535" stroke="none" stroke-width="0"/><path d="M388.9442,207.99743l12.37452,0.64185l-1.8621,21.33298l-12.37452,-0.64185z" fill="#efefef" stroke="none" stroke-width="0"/><path d="M400.46531,208.59502l12.37452,0.64185l-1.8621,21.33298l-12.37452,-0.64185z" fill="#ff3535" stroke="none" stroke-width="0"/><path d="M411.96448,209.21173l12.37452,0.64185l-1.86209,21.33298l-12.37452,-0.64185z" fill="#efefef" stroke="none" stroke-width="0"/><path d="M423.81344,209.80606l12.24075,12.63548l-14.10283,8.69749z" fill="#ff3535" stroke="none" stroke-width="0"/><path d="M373.60126,206.65447l48.22468,2.50137l14.90294,13.14572l-16.81859,8.80086l-48.22468,-2.50138z" fill="none" stroke="#000000" stroke-width="5"/></g></g><g stroke-linecap="round"><path d="M207.12233,283.61654c0,0 -8.86719,43.72768 -15.64479,47.24083c-5.19557,2.69312 -38.12869,0.59074 -41.00015,0.4724c-4.6275,-0.1907 13.99328,-19.45534 16.72374,-27.39967c2.73046,-7.94433 0,-21.25838 0,-21.25838z" fill="#c41414" stroke="none" stroke-width="0"/><path d="M199.70454,303.87789l-7.28292,22.43939l-2.96712,2.83446l-13.21715,0.94482l-24.81588,-1.18102c0,0 12.24096,-13.24494 15.27895,-17.99861c1.99322,-3.11884 3.06322,-7.74763 3.06322,-7.74763z" fill="#5b5a5a" stroke="#5b5a5a" stroke-width="0.5"/><path d="M206.58285,284.99323c0,0 -8.74214,41.85166 -15.42416,45.21408c-5.12229,2.57758 -37.59097,0.56541 -40.42194,0.45215c-4.56225,-0.18253 13.79595,-18.62067 16.4879,-26.22417c2.69195,-7.60351 0,-20.34634 0,-20.34634z" fill="none" stroke="#000000" stroke-width="5"/></g><path d="M166.47756,284.56136c-1.2501,-0.77963 -1.56755,-31.33482 -1.67721,-59.99507c-0.09447,-24.69205 -0.53733,-47.97755 4.60246,-49.60363c5.68259,-1.79781 98.73867,-0.46294 101.89629,1.41723c7.23283,4.30667 5.7067,102.91177 0,108.65388c-4.10291,4.12836 -99.43501,2.88694 -104.82155,-0.47241z" fill="#c41414" stroke="#000000" stroke-width="5" stroke-linecap="butt"/><g><g stroke-linecap="round"><path d="M255.13565,179.16212c0,0 -8.94152,27.25899 -9.17108,50.07527c-0.22956,22.81626 8.09213,57.16139 8.09213,57.16139l-62.57918,-1.88963c0,0 7.75095,-37.80051 7.55266,-57.16139c-0.19829,-19.36088 -8.63161,-48.18563 -8.63161,-48.18563z" fill="#f7f6f6" stroke="none" stroke-width="0"/><path d="M194.17491,282.61951l9.71057,-50.54768l-8.09214,-50.07526h53.94756l-7.55266,47.71322l8.09213,53.38213z" fill="none" stroke="#c6c7c7" stroke-width="5"/><path d="M255.13565,180.10693c0,0 -8.94152,27.25899 -9.17108,50.07527c-0.22956,22.81626 8.09213,57.16139 8.09213,57.16139l-62.57918,-1.88963c0,0 7.75095,-37.8005 7.55266,-57.16139c-0.19829,-19.36088 -8.63161,-48.18564 -8.63161,-48.18564z" fill="none" stroke="#000000" stroke-width="5"/></g><path d="M214.67499,209.16004c0,-3.7831 3.50222,-6.84991 7.8224,-6.84991c4.32019,0 7.8224,3.06681 7.8224,6.84991c0,3.7831 -3.50222,6.84992 -7.8224,6.84992c-4.32019,0 -7.8224,-3.06682 -7.8224,-6.84992z" fill="#ffd901" stroke="none" stroke-width="NaN" stroke-linecap="butt"/><path d="M214.67499,226.63914c0,-3.7831 3.5022,-6.84991 7.8224,-6.84991c4.3202,0 7.8224,3.06681 7.8224,6.84991c0,3.7831 -3.5022,6.84992 -7.8224,6.84992c-4.3202,0 -7.8224,-3.06682 -7.8224,-6.84992z" fill="#ffd901" stroke="none" stroke-width="NaN" stroke-linecap="butt"/><path d="M214.67499,243.64583c0,-3.7831 3.5022,-6.84991 7.8224,-6.84991c4.3202,0 7.8224,3.06681 7.8224,6.84991c0,3.78311 -3.5022,6.84992 -7.8224,6.84992c-4.3202,0 -7.8224,-3.06681 -7.8224,-6.84992z" fill="#ffd901" stroke="none" stroke-width="NaN" stroke-linecap="butt"/></g><g stroke-linecap="round"><path d="M270.78045,286.6872c0,0 17.15945,43.84041 11.32899,43.93239c-7.95148,0.12544 -29.29692,-0.68424 -35.6054,-0.53575c-8.62351,0.20297 10.50673,-8.93675 10.25004,-18.75164c-0.25669,-9.81489 -11.32899,-22.50195 -11.32899,-22.50195z" fill="#c41414" stroke="none" stroke-width="0"/><path d="M273.88243,302.46066c0,0 2.99237,6.82116 3.92426,10.68853c1.10609,4.59023 3.62839,16.47494 3.62839,16.47494l-33.71723,-1.18102l10.51978,-14.40844c0,0 -0.04244,-5.26238 -0.2864,-7.27053c-0.19411,-1.59775 -0.52281,-4.30348 -0.52281,-4.30348z" fill="#5a5b5a" stroke="#5a5b5a" stroke-width="0.5"/><path d="M270.78045,286.9234c0,0 17.15945,43.84041 11.32899,43.9324c-7.95148,0.12544 -29.29692,-0.68424 -35.6054,-0.53575c-8.62351,0.20297 10.50673,-8.93674 10.25004,-18.75164c-0.25669,-9.81489 -11.32899,-22.50195 -11.32899,-22.50195z" fill="none" stroke="#000000" stroke-width="5"/></g><g><path d="M158.84434,176.84673c-1.43104,-0.85505 0.25094,-31.37652 2.05187,-59.99358c1.55159,-24.65483 2.59492,-47.92698 8.8042,-49.23451c6.865,-1.44564 117.21047,5.60263 120.83114,7.67347c8.29347,4.74343 -0.16143,103.08301 -7.32082,108.46459c-5.14731,3.86916 -118.20021,-3.22563 -124.36639,-6.90997z" fill="#ffbbce" stroke="#000000" stroke-width="5" stroke-linecap="butt"/><path d="M163.08886,126.77619c-0.50999,-0.21328 -0.14053,-7.49476 0.28467,-14.3205c0.36633,-5.88067 0.56386,-11.43419 2.74011,-11.70751c2.40607,-0.3022 41.30131,2.07587 42.59098,2.59341c2.95406,1.18544 0.69512,24.62713 -1.78587,25.86785c-1.78373,0.89202 -41.63239,-1.5142 -43.82989,-2.43323z" fill="#ffffff" stroke="#000000" stroke-width="5" stroke-linecap="butt"/><path d="M184.68144,125.65536c-0.23988,-0.19258 0.45106,-6.51333 1.13814,-12.43736c0.59196,-5.10381 1.07686,-9.92581 2.18279,-10.13223c1.22274,-0.22823 20.48372,2.39266 21.09185,2.86066c1.39297,1.07204 -1.36559,21.40559 -2.69104,22.44811c-0.95292,0.74952 -20.68814,-1.90939 -21.72176,-2.73919z" fill="#ff0000" stroke="#000000" stroke-width="5" stroke-linecap="butt"/><path d="M244.72037,130.14063c-0.50513,-0.22199 0.02685,-7.49573 0.60444,-14.31289c0.4976,-5.87327 0.81911,-11.42234 3.00105,-11.65835c2.41237,-0.26093 41.24707,2.78275 42.52493,3.32227c2.92702,1.23581 0.14499,24.63433 -2.36323,25.83232c-1.80332,0.86132 -41.59061,-2.22687 -43.76716,-3.18335z" fill="#ffffff" stroke="#000000" stroke-width="5" stroke-linecap="butt"/><path d="M266.33385,129.38979c-0.23555,-0.19665 0.59642,-6.50439 1.41568,-12.41551c0.70581,-5.09269 1.29831,-9.90545 2.40866,-10.0929c1.22761,-0.20723 20.42637,2.74297 21.02393,3.22132c1.36876,1.09568 -1.84338,21.3781 -3.19184,22.39774c-0.96948,0.73306 -20.64154,-2.26331 -21.65645,-3.11065z" fill="#ff0000" stroke="#000000" stroke-width="5" stroke-linecap="butt"/><g stroke="#000000" stroke-width="5"><path d="M184.59571,41.41531l-1.27061,10.8186l8.61657,0.44597l2.37952,-11.23443l21.03473,0.61545l1.35841,11.90112l31.26691,1.14502l0.70025,-10.37489l23.2207,0.25536l0.18584,13.26013l8.07804,0.41809l2.47501,-12.64918l20.93925,2.0302l-2.28917,25.90931l-7.35108,4.82509l-129.81897,-6.24571l-5.76475,-2.66453l3.01867,-28.71096z" fill="#fee70a" stroke-linecap="round"/><path d="M187.02605,69.46181c-5.35366,-0.27708 -9.48701,-3.56318 -9.23211,-7.33969c0.25489,-3.77651 4.80152,-6.61337 10.15517,-6.33628c5.35366,0.27708 9.48701,3.56319 9.23211,7.3397c-0.25489,3.77651 -4.80152,6.61337 -10.15518,6.33627z" fill="#7e93ff" stroke-linecap="butt"/><path d="M232.1994,72.74628c-6.54335,-0.33866 -11.60552,-4.20251 -11.30669,-8.63015c0.29885,-4.42764 5.84555,-7.74241 12.3889,-7.40375c6.54335,0.33866 11.60552,4.2025 11.30668,8.63015c-0.29885,4.42764 -5.84555,7.74242 -12.3889,7.40376z" fill="#0026ff" stroke-linecap="butt"/><path d="M275.01301,74.96216c-6.69207,-0.34636 -11.89617,-3.89975 -11.62369,-7.93671c0.27248,-4.03695 5.91834,-7.02879 12.61042,-6.68244c6.69208,0.34636 11.89617,3.89975 11.62369,7.93671c-0.27248,4.03695 -5.91835,7.02879 -12.61042,6.68244z" fill="#b6ff00" stroke-linecap="butt"/></g><g stroke-linecap="butt"><path d="M198.56147,170.77671c-0.58777,-0.23295 -0.20664,-8.15051 0.24136,-15.57233c0.38598,-6.39424 0.57977,-12.43305 3.08084,-12.72602c2.76519,-0.32389 47.50935,2.33867 48.99556,2.90398c3.40433,1.29494 0.9473,26.78228 -1.8984,28.12662c-2.04595,0.96652 -47.88669,-1.72851 -50.41935,-2.73225z" fill="#fea3c1" stroke="none" stroke-width="0"/><path d="M201.85658,153.99155l0.66842,-9.90329l49.54529,2.56427l-0.66842,9.9033z" fill="#ffc7d9" stroke="none" stroke-width="0"/><path d="M204.38829,153.18997c0.43708,-0.00087 0.7496,0.0709 0.7496,0.0709l4.15997,1.50862c0.10716,1.37203 0.4221,2.74367 0.32148,4.11608c-0.28592,3.90026 -3.81279,9.92707 -9.44191,5.03738c-1.91486,-1.66332 0.55801,-7.09862 1.1286,-9.00425c0,0 0.64701,-2.16077 3.08225,-1.72874z" fill="#563741" stroke="none" stroke-width="0.5"/><path d="M249.95914,156.63475c0.67433,0.60122 1.0986,1.50132 1.25375,2.42831c1.74176,1.36552 3.25129,2.93276 1.57112,5.62003c-1.79829,2.87619 -7.55436,3.54525 -10.03039,0.97021c-1.66636,-1.73299 -0.38293,-7.2058 2.52998,-9.17123c0.4305,-0.61616 1.30908,-1.36522 2.93717,-0.99139c0.9573,0.2198 1.47128,0.66653 1.73837,1.14407z" fill="#563741" stroke="none" stroke-width="0.5"/><path d="M198.99961,172.29976l0.35013,-5.18744l52.23797,2.70364l-0.35013,5.18744z" fill="#a06778" stroke="none" stroke-width="0"/><path d="M199.03635,171.74776c-0.58777,-0.23295 -0.20664,-8.15051 0.24136,-15.57233c0.38598,-6.39424 0.57977,-12.43305 3.08084,-12.72602c2.7652,-0.32389 47.50935,2.33867 48.99556,2.90398c3.40433,1.29494 0.9473,26.78228 -1.8984,28.12662c-2.04595,0.96652 -47.88669,-1.72851 -50.41935,-2.73225z" fill="none" stroke="#000000" stroke-width="5"/></g></g><path d="M215.02718,102.89431l-55.02652,-18.42392" fill="none" stroke="#000000" stroke-width="5" stroke-linecap="round"/><path d="M297.02747,88.24965l-50.71071,13.22743" fill="none" stroke="#000000" stroke-width="5" stroke-linecap="round"/><g stroke-linecap="butt"><path d="M341.90281,239.18393c-0.89526,0.39719 -35.78758,0.16983 -68.51524,-0.1045c-28.1963,-0.23634 -54.78784,-0.34444 -56.62407,-2.02972c-2.03015,-1.86326 -0.13303,-32.04279 2.02661,-33.04702c4.94679,-2.30027 117.53808,-0.7389 124.07215,1.17485c4.69775,1.37592 2.89819,32.29496 -0.95942,34.0064z" fill="#c41414" stroke="none" stroke-width="0"/><path d="M344.99235,238.4783l-25.65852,-0.00976l-0.17675,-33.24631l25.65852,0.00976z" fill="#ef99b4" stroke="none" stroke-width="NaN"/><path d="M320.98074,237.58607l-17.27615,0.79765l-1.43053,-32.75453l17.27615,-0.79764z" fill="#d8d8d8" stroke="none" stroke-width="NaN"/><path d="M343.07666,239.4273c-0.89526,0.39719 -35.78758,0.16983 -68.51524,-0.1045c-28.19629,-0.23634 -54.78784,-0.34444 -56.62408,-2.02972c-2.03015,-1.86326 -0.13302,-32.04279 2.02661,-33.04702c4.94679,-2.30027 117.53808,-0.7389 124.07215,1.17485c4.69775,1.37592 2.89819,32.29495 -0.95942,34.00639z" fill="none" stroke="#000000" stroke-width="5"/></g></g></g></svg>