<svg version="1.1" xmlns="http://www.w3.org/2000/svg" xmlns:xlink="http://www.w3.org/1999/xlink" width="281.52677" height="303.68044" viewBox="0,0,281.52677,303.68044"><g transform="translate(-159.19862,-29.63309)"><g data-paper-data="{&quot;isPaintingLayer&quot;:true}" fill-rule="nonzero" stroke-linejoin="miter" stroke-miterlimit="10" stroke-dasharray="" stroke-dashoffset="0" style="mix-blend-mode: normal"><g stroke-linecap="butt"><path d="M318.30305,226.34841c-0.88355,0.36462 -34.37448,-1.59378 -65.78402,-3.49353c-27.06068,-1.63672 -52.58816,-3.06211 -54.25003,-4.88764c-1.83739,-2.01833 1.79861,-32.99063 3.9327,-33.91764c4.88832,-2.12338 112.90786,5.04799 119.06702,7.34086c4.42819,1.64849 0.84143,33.38686 -2.96567,34.95794z" fill="#c41414" stroke="none" stroke-width="0"/><path d="M322.17163,226.12968l-24.97994,-2.16672l0.4612,-34.3031l24.97995,2.16671z" fill="#ef99b4" stroke="none" stroke-width="NaN"/><path d="M298.30914,223.66965l-16.63699,-0.03269l0.59549,-33.78741l16.63699,0.03269z" fill="#d8d8d8" stroke="none" stroke-width="NaN"/><path d="M319.41558,226.65693c-0.88355,0.36462 -34.37448,-1.59378 -65.78402,-3.49353c-27.06068,-1.63672 -52.58816,-3.06211 -54.25003,-4.88764c-1.83739,-2.01833 1.79861,-32.99063 3.9327,-33.91764c4.88832,-2.12338 112.90786,5.04799 119.06702,7.34086c4.42819,1.64849 0.84143,33.38686 -2.96567,34.95794z" fill="none" stroke="#000000" stroke-width="5"/></g><g data-paper-data="{&quot;index&quot;:null}"><path d="M384.19099,222.98183l-94.99571,-7.02087l0.81168,-18.50879l96.16252,7.09083z" fill="#773f00" stroke="#000000" stroke-width="5" stroke-linecap="round"/><path d="M315.77301,250.25084l53.94553,-5.1608l11.33456,-18.76157l1.4283,-18.91365l-5.15067,-23.72653l-52.6123,-19.06068l1.91277,-5.6293l56.40003,14.86934l7.38181,33.58086l-1.4283,18.91365l-11.47202,27.14837l-61.71112,2.92784z" fill="#763e00" stroke="#000000" stroke-width="5" stroke-linecap="round"/><path d="M383.27989,223.83177l-67.68627,-5.38358l0.9792,-18.49873l68.518,5.43343z" fill="#24202a" stroke="#000000" stroke-width="5" stroke-linecap="round"/><path d="M317.71437,250.80909l-2.27463,-42.11154l8.78502,-44.09953" fill="none" stroke="#676767" stroke-width="5" stroke-linecap="round"/><g stroke-linecap="butt"><path d="M380.80573,203.33775l14.31591,0.85829l-1.66082,21.99262l-14.31591,-0.85829z" fill="#ff3535" stroke="none" stroke-width="0"/><path d="M394.10943,204.15624l11.03691,0.6617l-1.66082,21.99262l-11.03691,-0.6617z" fill="#efefef" stroke="none" stroke-width="0"/><path d="M404.38518,204.77231l11.03691,0.6617l-1.66082,21.99262l-11.03691,-0.6617z" fill="#ff3535" stroke="none" stroke-width="0"/><path d="M414.64136,205.40809l11.03691,0.6617l-1.66081,21.99262l-11.03691,-0.6617z" fill="#efefef" stroke="none" stroke-width="0"/><path d="M425.20952,206.0208l10.9176,13.02618l-12.5784,8.96643z" fill="#ff3535" stroke="none" stroke-width="0"/><path d="M380.42497,202.77176l43.01188,2.57872l13.29202,13.5522l-15.0006,9.07299l-43.01188,-2.57873z" fill="none" stroke="#000000" stroke-width="5"/></g></g><g stroke-linecap="round"><path d="M215.92298,282.11359c0,0 -8.52732,45.07979 -15.04514,48.70157c-4.99643,2.77639 -36.66724,0.60901 -39.42864,0.48701c-4.45013,-0.1966 13.45693,-20.05692 16.08273,-28.2469c2.6258,-8.18998 0,-21.91571 0,-21.91571z" fill="#c41414" stroke="none" stroke-width="0"/><path d="M208.78951,303.00144l-7.00377,23.13324l-2.85339,2.9221l-12.71055,0.97403l-23.8647,-1.21754c0,0 11.77177,-13.65449 14.69332,-18.55515c1.91682,-3.21528 2.94581,-7.9872 2.94581,-7.9872z" fill="#5b5a5a" stroke="#5b5a5a" stroke-width="0.5"/><path d="M215.40418,283.53285c0,0 -8.40706,43.14576 -14.83296,46.61215c-4.92596,2.65728 -36.15013,0.58289 -38.8726,0.46613c-4.38738,-0.18817 13.26716,-19.19644 15.85593,-27.03505c2.58877,-7.83862 0,-20.97547 0,-20.97547z" fill="none" stroke="#000000" stroke-width="5"/></g><path d="M176.8361,283.08762c-1.20218,-0.80374 -1.50747,-32.30373 -1.61292,-61.85019c-0.09085,-25.45556 -0.51673,-49.46107 4.42605,-51.13743c5.46478,-1.8534 94.95409,-0.47725 97.99068,1.46105c6.9556,4.43984 5.48797,106.09393 0,112.01359c-3.94565,4.25601 -95.62374,2.97621 -100.80381,-0.48702z" fill="#c41414" stroke="#000000" stroke-width="5" stroke-linecap="butt"/><g><g stroke-linecap="round"><path d="M262.09599,174.42931c0,0 -8.5988,28.10187 -8.81956,51.62366c-0.22076,23.52177 7.78196,58.92889 7.78196,58.92889l-60.18056,-1.94806c0,0 7.45386,-38.96935 7.26317,-58.92889c-0.19069,-19.95954 -8.30077,-49.67559 -8.30077,-49.67559z" fill="#f7f6f6" stroke="none" stroke-width="0"/><path d="M203.47183,281.08573l9.33837,-52.11067l-7.78197,-51.62365h51.87979l-7.26317,49.18857l7.78196,55.03277z" fill="none" stroke="#c6c7c7" stroke-width="5"/><path d="M262.09599,175.40334c0,0 -8.5988,28.10187 -8.81956,51.62366c-0.22076,23.52177 7.78196,58.92889 7.78196,58.92889l-60.18056,-1.94806c0,0 7.45386,-38.96934 7.26317,-58.92889c-0.19069,-19.95954 -8.30077,-49.6756 -8.30077,-49.6756z" fill="none" stroke="#000000" stroke-width="5"/></g><path d="M223.18615,205.3548c0,-3.90008 3.36798,-7.06172 7.52257,-7.06172c4.1546,0 7.52257,3.16164 7.52257,7.06172c0,3.90008 -3.36798,7.06173 -7.52257,7.06173c-4.1546,0 -7.52257,-3.16165 -7.52257,-7.06173z" fill="#ffd901" stroke="none" stroke-width="NaN" stroke-linecap="butt"/><path d="M223.18615,223.37438c0,-3.90008 3.36796,-7.06172 7.52257,-7.06172c4.15461,0 7.52257,3.16164 7.52257,7.06172c0,3.90008 -3.36796,7.06173 -7.52257,7.06173c-4.15461,0 -7.52257,-3.16165 -7.52257,-7.06173z" fill="#ffd901" stroke="none" stroke-width="NaN" stroke-linecap="butt"/><path d="M223.18615,240.90694c0,-3.90008 3.36796,-7.06172 7.52257,-7.06172c4.15461,0 7.52257,3.16164 7.52257,7.06172c0,3.90009 -3.36796,7.06173 -7.52257,7.06173c-4.15461,0 -7.52257,-3.16164 -7.52257,-7.06173z" fill="#ffd901" stroke="none" stroke-width="NaN" stroke-linecap="butt"/></g><g stroke-linecap="round"><path d="M277.14113,285.2792c0,0 16.50174,45.19601 10.89476,45.29083c-7.64671,0.12932 -28.17399,-0.7054 -34.24067,-0.55232c-8.29298,0.20925 10.10401,-9.21308 9.85716,-19.33146c-0.24685,-10.11838 -10.89476,-23.19774 -10.89476,-23.19774z" fill="#c41414" stroke="none" stroke-width="0"/><path d="M280.12421,301.54039c0,0 2.87767,7.03208 3.77385,11.01903c1.06369,4.73217 3.48932,16.98437 3.48932,16.98437l-32.42487,-1.21754l10.11656,-14.85397c0,0 -0.04081,-5.4251 -0.27542,-7.49534c-0.18667,-1.64715 -0.50277,-4.43655 -0.50277,-4.43655z" fill="#5a5b5a" stroke="#5a5b5a" stroke-width="0.5"/><path d="M277.14113,285.5227c0,0 16.50174,45.19601 10.89476,45.29084c-7.64671,0.12932 -28.17399,-0.7054 -34.24067,-0.55232c-8.29298,0.20925 10.10401,-9.21307 9.85716,-19.33146c-0.24685,-10.11838 -10.89476,-23.19774 -10.89476,-23.19774z" fill="none" stroke="#000000" stroke-width="5"/></g><g><path d="M169.49545,172.04233c-1.37619,-0.88149 0.24132,-32.34672 1.97322,-61.84865c1.49212,-25.41719 2.49546,-49.40894 8.46674,-50.7569c6.60187,-1.49034 112.71788,5.77587 116.19977,7.91074c7.97559,4.8901 -0.15524,106.27046 -7.04022,111.81845c-4.95002,3.9888 -113.66968,-3.32537 -119.59951,-7.12363z" fill="#ffbbce" stroke="#000000" stroke-width="5" stroke-linecap="butt"/><path d="M173.57728,120.42355c-0.49044,-0.21988 -0.13514,-7.72651 0.27376,-14.76331c0.35229,-6.06251 0.54225,-11.78775 2.63508,-12.06952c2.31385,-0.31154 39.71826,2.14006 40.9585,2.6736c2.84083,1.2221 0.66848,25.38863 -1.71742,26.66771c-1.71536,0.9196 -40.03665,-1.56102 -42.14992,-2.50847z" fill="#ffffff" stroke="#000000" stroke-width="5" stroke-linecap="butt"/><path d="M194.34224,119.26806c-0.23069,-0.19853 0.43377,-6.71473 1.09452,-12.82194c0.56927,-5.26163 1.03558,-10.23273 2.09913,-10.44553c1.17587,-0.23529 19.69859,2.46664 20.28341,2.94912c1.33958,1.10519 -1.31325,22.06748 -2.58789,23.14223c-0.9164,0.7727 -19.89518,-1.96843 -20.88918,-2.82389z" fill="#ff0000" stroke="#000000" stroke-width="5" stroke-linecap="butt"/><path d="M252.07992,123.89202c-0.48577,-0.22885 0.02582,-7.72751 0.58127,-14.75546c0.47853,-6.05488 0.78771,-11.77553 2.88602,-12.01884c2.31991,-0.269 39.6661,2.8688 40.89498,3.425c2.81483,1.27402 0.13943,25.39605 -2.27265,26.63109c-1.7342,0.88795 -39.99647,-2.29573 -42.0896,-3.28178z" fill="#ffffff" stroke="#000000" stroke-width="5" stroke-linecap="butt"/><path d="M272.86497,123.11796c-0.22652,-0.20273 0.57356,-6.70551 1.36142,-12.79941c0.67876,-5.25016 1.24855,-10.21174 2.31634,-10.40498c1.18056,-0.21364 19.64344,2.82779 20.2181,3.32093c1.3163,1.12956 -1.77272,22.03914 -3.0695,23.0903c-0.93232,0.75573 -19.85036,-2.33329 -20.82637,-3.20683z" fill="#ff0000" stroke="#000000" stroke-width="5" stroke-linecap="butt"/><g stroke="#000000" stroke-width="5"><path d="M194.25979,32.4232l-1.22191,11.15312l8.2863,0.45976l2.28831,-11.58181l20.22848,0.63448l1.30634,12.26912l30.06847,1.18043l0.67341,-10.69569l22.33067,0.26326l0.17872,13.67015l7.76841,0.43102l2.38014,-13.04031l20.13666,2.09298l-2.20143,26.71046l-7.06932,4.97429l-124.8431,-6.43883l-5.54379,-2.74692l2.90297,-29.59874z" fill="#fee70a" stroke-linecap="round"/><path d="M196.59698,61.33694c-5.14846,-0.28565 -9.12338,-3.67336 -8.87825,-7.56664c0.24512,-3.89328 4.61748,-6.81786 9.76593,-6.53221c5.14846,0.28565 9.12338,3.67337 8.87825,7.56665c-0.24512,3.89328 -4.61748,6.81786 -9.76594,6.5322z" fill="#7e93ff" stroke-linecap="butt"/><path d="M240.03887,64.72297c-6.29255,-0.34913 -11.16069,-4.33246 -10.87331,-8.897c0.2874,-4.56455 5.62149,-7.98181 11.91404,-7.63268c6.29255,0.34913 11.16069,4.33245 10.8733,8.897c-0.2874,4.56455 -5.62149,7.98182 -11.91404,7.63269z" fill="#0026ff" stroke-linecap="butt"/><path d="M281.21146,67.00736c-6.43557,-0.35707 -11.4402,-4.02034 -11.17816,-8.18212c0.26204,-4.16178 5.69149,-7.24613 12.12707,-6.88907c6.43558,0.35707 11.4402,4.02034 11.17816,8.18212c-0.26204,4.16178 -5.6915,7.24613 -12.12707,6.88907z" fill="#b6ff00" stroke-linecap="butt"/></g><g stroke-linecap="butt"><path d="M207.69025,165.78462c-0.56524,-0.24015 -0.19872,-8.40253 0.23211,-16.05385c0.37119,-6.59196 0.55755,-12.8175 2.96275,-13.11952c2.6592,-0.33391 45.68835,2.41098 47.11759,2.99377c3.27384,1.33498 0.91099,27.61042 -1.82564,28.99633c-1.96753,0.99641 -46.05123,-1.78196 -48.48681,-2.81673z" fill="#fea3c1" stroke="none" stroke-width="0"/><path d="M210.85906,148.48044l0.6428,-10.20951l47.64625,2.64356l-0.6428,10.20952z" fill="#ffc7d9" stroke="none" stroke-width="0"/><path d="M213.29374,147.65407c0.42033,-0.0009 0.72087,0.07309 0.72087,0.07309l4.00052,1.55527c0.10305,1.41445 0.40592,2.82851 0.30916,4.24335c-0.27496,4.02086 -3.66665,10.23403 -9.08001,5.19314c-1.84146,-1.71475 0.53662,-7.31812 1.08534,-9.28267c0,0 0.62221,-2.22758 2.96411,-1.78219z" fill="#563741" stroke="none" stroke-width="0.5"/><path d="M257.11789,151.20537c0.64848,0.61981 1.05649,1.54774 1.20569,2.5034c1.675,1.40774 3.12667,3.02344 1.5109,5.79381c-1.72936,2.96513 -7.26481,3.65487 -9.64593,1.00021c-1.60249,-1.78658 -0.36825,-7.42861 2.43301,-9.45482c0.414,-0.63521 1.2589,-1.40743 2.82459,-1.02204c0.92061,0.2266 1.41489,0.68714 1.67174,1.17945z" fill="#563741" stroke="none" stroke-width="0.5"/><path d="M208.1116,167.35476l0.33671,-5.34784l50.23573,2.78724l-0.33671,5.34784z" fill="#a06778" stroke="none" stroke-width="0"/><path d="M208.14693,166.78569c-0.56524,-0.24015 -0.19872,-8.40253 0.23211,-16.05385c0.37119,-6.59196 0.55755,-12.8175 2.96275,-13.11952c2.65921,-0.33391 45.68835,2.41098 47.11759,2.99377c3.27384,1.33498 0.91099,27.61042 -1.82564,28.99633c-1.96753,0.99641 -46.05123,-1.78196 -48.48681,-2.81673z" fill="none" stroke="#000000" stroke-width="5"/></g></g><path d="M223.52484,95.80321l-52.91739,-18.99361" fill="none" stroke="#000000" stroke-width="5" stroke-linecap="round"/><path d="M302.38212,80.70572l-48.767,13.63644" fill="none" stroke="#000000" stroke-width="5" stroke-linecap="round"/><g stroke-linecap="butt"><path d="M359.96248,234.24523c-0.86095,0.40947 -34.41587,0.17508 -65.8891,-0.10773c-27.11556,-0.24365 -52.68786,-0.35509 -54.45371,-2.09248c-1.95234,-1.92087 -0.12793,-33.03359 1.94893,-34.06887c4.75718,-2.3714 113.03293,-0.76175 119.31655,1.21118c4.51769,1.41846 2.7871,33.29356 -0.92265,35.05792z" fill="#c41414" stroke="none" stroke-width="0"/><path d="M362.9336,233.51778l-24.67505,-0.01006l-0.16998,-34.27433l24.67505,0.01006z" fill="#ef99b4" stroke="none" stroke-width="NaN"/><path d="M339.84234,232.59796l-16.61397,0.82231l-1.3757,-33.76734l16.61397,-0.8223z" fill="#d8d8d8" stroke="none" stroke-width="NaN"/><path d="M361.09134,234.49612c-0.86095,0.40947 -34.41587,0.17508 -65.8891,-0.10773c-27.11555,-0.24365 -52.68786,-0.35509 -54.45372,-2.09248c-1.95234,-1.92087 -0.12792,-33.03359 1.94893,-34.06887c4.75718,-2.3714 113.03293,-0.76175 119.31655,1.21118c4.51769,1.41846 2.7871,33.29355 -0.92265,35.05791z" fill="none" stroke="#000000" stroke-width="5"/></g></g></g></svg>