<svg version="1.1" xmlns="http://www.w3.org/2000/svg" xmlns:xlink="http://www.w3.org/1999/xlink" width="232.91057" height="347.35699" viewBox="0,0,232.91057,347.35699"><g transform="translate(-181.05081,14.24495)"><g data-paper-data="{&quot;isPaintingLayer&quot;:true}" fill-rule="nonzero" stroke-linejoin="miter" stroke-miterlimit="10" stroke-dasharray="" stroke-dashoffset="0" style="mix-blend-mode: normal"><g stroke-linecap="butt"><path d="M340.04186,177.87926c-0.57794,0.73106 -27.6181,11.62349 -52.9983,21.77175c-21.86612,8.74317 -42.45479,17.11737 -44.3588,15.81571c-2.1051,-1.43914 -9.31385,-35.86016 -7.93294,-37.67529c3.16305,-4.15773 90.65476,-38.37829 96.25629,-38.32147c4.02728,0.04084 11.52405,35.2593 9.03373,38.4093z" fill="#c41414" stroke="none" stroke-width="0"/><path d="M343.02055,176.14682l-20.39816,7.37186l-10.79516,-36.74073l20.39817,-7.37187z" fill="#ef99b4" stroke="none" stroke-width="NaN"/><path d="M323.40795,182.77296l-13.12666,6.41301l-10.52153,-36.24313l13.12666,-6.41301z" fill="#d8d8d8" stroke="none" stroke-width="NaN"/><path d="M341.0193,177.77693c-0.57794,0.73106 -27.6181,11.62349 -52.9983,21.77175c-21.86612,8.74317 -42.45479,17.11737 -44.3588,15.81571c-2.1051,-1.43914 -9.31385,-35.86016 -7.93294,-37.67529c3.16305,-4.15773 90.65476,-38.37829 96.25629,-38.32147c4.02728,0.04084 11.52405,35.2593 9.03373,38.4093z" fill="none" stroke="#000000" stroke-width="5"/></g><g data-paper-data="{&quot;index&quot;:null}"><path d="M364.44952,163.84997l-88.8726,28.27421l-6.74188,-19.9654l89.95763,-28.6388z" fill="#773f00" stroke="#000000" stroke-width="5" stroke-linecap="round"/><path d="M313.5001,218.55005l46.77296,-25.77297l2.68645,-24.192l-6.34697,-20.6274l-14.24971,-23.26503l-55.35022,-0.45665l-0.54169,-6.69893l57.08754,-5.42013l20.25129,32.8931l6.34697,20.6274l0.57708,33.1522l-54.70819,26.32207z" fill="#763e00" stroke="#000000" stroke-width="5" stroke-linecap="round"/><path d="M363.96771,165.0955l-63.47739,19.74116l-6.58609,-20.01774l64.25081,-20.00104z" fill="#24202a" stroke="#000000" stroke-width="5" stroke-linecap="round"/><path d="M315.48388,218.4128l-19.07192,-43.87543l-9.85844,-50.14708" fill="none" stroke="#676767" stroke-width="5" stroke-linecap="round"/><g stroke-linecap="butt"><path d="M353.44791,144.2573l13.31246,-4.47313l7.38018,23.98534l-13.31246,4.47313z" fill="#ff3535" stroke="none" stroke-width="0"/><path d="M365.82755,140.12263l10.26329,-3.44857l7.38018,23.98534l-10.26329,3.44857z" fill="#efefef" stroke="none" stroke-width="0"/><path d="M375.38303,136.91189l10.26329,-3.44857l7.38018,23.98534l-10.26329,3.44857z" fill="#ff3535" stroke="none" stroke-width="0"/><path d="M384.92876,133.72945l10.26329,-3.44857l7.38018,23.98534l-10.26329,3.44857z" fill="#efefef" stroke="none" stroke-width="0"/><path d="M394.74772,130.40515l15.15012,9.7299l-7.76992,14.25544z" fill="#ff3535" stroke="none" stroke-width="0"/><path d="M352.87442,143.79932l39.99702,-13.43941l17.5131,9.39553l-9.92064,15.27971l-39.99702,13.43941z" fill="none" stroke="#000000" stroke-width="5"/></g></g><g stroke-linecap="round"><path d="M229.39432,274.94723c0,0 -7.20935,51.52691 -12.71978,55.66666c-4.22418,3.17346 -31,0.69611 -33.33461,0.55667c-3.76232,-0.22472 11.37704,-22.92538 13.59701,-32.28667c2.21996,-9.36129 0,-25.05 0,-25.05z" fill="#c41414" stroke="none" stroke-width="0"/><path d="M223.36339,298.82237l-5.92128,26.44167l-2.41238,3.34l-10.74602,1.11333l-20.17621,-1.39167c0,0 9.95233,-15.60731 12.42234,-21.20883c1.62055,-3.67512 2.49052,-9.1295 2.49052,-9.1295z" fill="#5b5a5a" stroke="#5b5a5a" stroke-width="0.5"/><path d="M228.9557,276.56947c0,0 -7.10768,49.31629 -12.5404,53.27843c-4.16461,3.0373 -30.56282,0.66625 -32.8645,0.53278c-3.70927,-0.21508 11.2166,-21.94183 13.40525,-30.90148c2.18865,-8.95966 0,-23.9753 0,-23.9753z" fill="none" stroke="#000000" stroke-width="5"/></g><path d="M196.34865,276.06057c-1.01637,-0.91869 -1.27448,-36.92369 -1.36363,-70.69576c-0.07681,-29.09611 -0.43687,-56.53479 3.74197,-58.45089c4.62015,-2.11846 80.27811,-0.5455 82.84538,1.67c5.88055,5.07481 4.63976,121.26704 0,128.03332c-3.33582,4.86468 -80.84426,3.40186 -85.22371,-0.55667z" fill="#c41414" stroke="#000000" stroke-width="5" stroke-linecap="butt"/><g><g stroke-linecap="round"><path d="M268.43087,151.86238c0,0 -7.26979,32.12088 -7.45642,59.00666c-0.18664,26.88576 6.57919,67.35665 6.57919,67.35665l-50.87913,-2.22667c0,0 6.3018,-44.54258 6.14059,-67.35665c-0.16121,-22.81408 -7.01781,-56.78 -7.01781,-56.78z" fill="#f7f6f6" stroke="none" stroke-width="0"/><path d="M218.8676,273.77236l7.89504,-59.56333l-6.57919,-59.00666h43.86132l-6.14059,56.22333l6.57919,62.90332z" fill="none" stroke="#c6c7c7" stroke-width="5"/><path d="M268.43087,152.97571c0,0 -7.26979,32.12088 -7.45642,59.00666c-0.18664,26.88576 6.57919,67.35665 6.57919,67.35665l-50.87913,-2.22667c0,0 6.3018,-44.54258 6.14059,-67.35665c-0.16121,-22.81408 -7.01781,-56.78 -7.01781,-56.78z" fill="none" stroke="#000000" stroke-width="5"/></g><path d="M235.5349,187.21071c0,-4.45786 2.84743,-8.07167 6.35989,-8.07167c3.51247,0 6.35989,3.61381 6.35989,8.07167c0,4.45786 -2.84743,8.07167 -6.35989,8.07167c-3.51247,0 -6.35989,-3.61381 -6.35989,-8.07167z" fill="#ffd901" stroke="none" stroke-width="NaN" stroke-linecap="butt"/><path d="M235.5349,207.80737c0,-4.45786 2.84742,-8.07167 6.35989,-8.07167c3.51248,0 6.35989,3.61381 6.35989,8.07167c0,4.45786 -2.84742,8.07167 -6.35989,8.07167c-3.51248,0 -6.35989,-3.61381 -6.35989,-8.07167z" fill="#ffd901" stroke="none" stroke-width="NaN" stroke-linecap="butt"/><path d="M235.5349,227.84737c0,-4.45786 2.84742,-8.07167 6.35989,-8.07167c3.51248,0 6.35989,3.61381 6.35989,8.07167c0,4.45787 -2.84742,8.07167 -6.35989,8.07167c-3.51248,0 -6.35989,-3.6138 -6.35989,-8.07167z" fill="#ffd901" stroke="none" stroke-width="NaN" stroke-linecap="butt"/></g><g stroke-linecap="round"><path d="M281.15065,278.56557c0,0 13.95125,51.65976 9.21087,51.76814c-6.46485,0.14782 -23.81945,-0.80629 -28.94848,-0.63132c-7.01123,0.23918 8.54235,-10.53068 8.33365,-22.09616c-0.2087,-11.56547 -9.21087,-26.51539 -9.21087,-26.51539z" fill="#c41414" stroke="none" stroke-width="0"/><path d="M283.67269,297.15237c0,0 2.4329,8.03779 3.19057,12.59493c0.89929,5.40895 2.95002,19.41341 2.95002,19.41341l-27.41333,-1.39167l8.55296,-16.97833c0,0 -0.0345,-6.20097 -0.23285,-8.56729c-0.15782,-1.88272 -0.42507,-5.07105 -0.42507,-5.07105z" fill="#5a5b5a" stroke="#5a5b5a" stroke-width="0.5"/><path d="M281.15065,278.8439c0,0 13.95125,51.65976 9.21087,51.76814c-6.46485,0.14782 -23.81945,-0.80629 -28.94848,-0.63132c-7.01123,0.23918 8.54235,-10.53068 8.33365,-22.09616c-0.2087,-11.56547 -9.21087,-26.51539 -9.21087,-26.51539z" fill="none" stroke="#000000" stroke-width="5"/></g><g><path d="M190.66251,150.3884c-1.2083,-0.91868 -1.51515,-36.92369 -1.62113,-70.69576c-0.0913,-29.09611 -0.51936,-56.53479 4.44857,-58.45089c5.49258,-2.11846 95.43726,-0.54551 98.48931,1.67c6.99099,5.07481 5.51589,121.26704 0,128.03332c-3.96571,4.86468 -96.11033,3.40185 -101.31676,-0.55667z" fill="#ffbbce" stroke="#000000" stroke-width="5" stroke-linecap="butt"/><path d="M191.36457,91.23169c-0.42561,-0.21984 -0.52462,-8.80758 -0.55343,-16.86262c-0.02481,-6.93978 -0.16872,-13.48444 1.58259,-13.93844c1.93626,-0.50196 33.63469,-0.07261 34.70975,0.45764c2.46252,1.21461 1.91325,28.92673 -0.0324,30.53724c-1.39885,1.15789 -33.87263,0.75347 -35.7065,-0.19381z" fill="#ffffff" stroke="#000000" stroke-width="5" stroke-linecap="butt"/><path d="M208.82816,88.59867c-0.20524,-0.21192 0.00928,-7.68915 0.24242,-14.69945c0.20086,-6.03969 0.33025,-11.74135 1.21656,-12.05149c0.97989,-0.3429 16.75606,1.56741 17.27527,2.08092c1.18929,1.17624 0.06425,25.26268 -0.95438,26.5697c-0.73236,0.93968 -16.8955,-0.98651 -17.77986,-1.89968z" fill="#ff0000" stroke="#000000" stroke-width="5" stroke-linecap="butt"/><path d="M257.80261,90.21947c-0.42214,-0.23037 -0.38882,-8.81892 -0.2935,-16.87314c0.08212,-6.93906 0.03909,-13.48604 1.79706,-13.89651c1.94364,-0.45381 33.62938,0.7622 34.69607,1.31904c2.44333,1.27549 1.46715,28.96869 -0.50294,30.5306c-1.41644,1.12296 -33.87774,-0.08739 -35.69667,-1.08z" fill="#ffffff" stroke="#000000" stroke-width="5" stroke-linecap="butt"/><path d="M275.30343,88.02039c-0.20194,-0.21697 0.12776,-7.68745 0.46887,-14.69063c0.29388,-6.03355 0.51112,-11.73089 1.40203,-12.01899c0.985,-0.31851 16.72871,1.98301 17.2399,2.50929c1.17094,1.20553 -0.32502,25.25944 -1.3636,26.54092c-0.74669,0.92132 -16.87707,-1.40566 -17.74719,-2.34061z" fill="#ff0000" stroke="#000000" stroke-width="5" stroke-linecap="butt"/><g stroke="#000000" stroke-width="5"><path d="M204.14388,-10.48824l-0.43861,12.80333h7.01781l1.31584,-13.36l17.10591,-0.55667l1.75445,13.91667l25.43957,-0.55667v-12.24667l18.86037,-1.11333l0.87723,15.58667h6.57919l1.31584,-15.03l17.10591,1.11333l-0.43861,30.61667l-5.70197,6.12333l-105.70578,0.55667l-4.82474,-2.78333l0.87723,-33.95666z" fill="#fee70a" stroke-linecap="round"/><path d="M207.65278,22.35509c-4.36031,0 -7.89504,-3.61381 -7.89504,-8.07167c0,-4.45786 3.53473,-8.07167 7.89504,-8.07167c4.36031,0 7.89504,3.61381 7.89504,8.07167c0,4.45786 -3.53473,8.07167 -7.89504,8.07167z" fill="#7e93ff" stroke-linecap="butt"/><path d="M244.49629,23.46842c-5.32927,0 -9.64949,-4.23688 -9.64949,-9.46333c0,-5.22645 4.32022,-9.46333 9.64949,-9.46333c5.32927,0 9.64949,4.23688 9.64949,9.46333c0,5.22645 -4.32022,9.46333 -9.64949,9.46333z" fill="#0026ff" stroke-linecap="butt"/><path d="M279.36602,23.46842c-5.45039,0 -9.8688,-3.86305 -9.8688,-8.62833c0,-4.76529 4.4184,-8.62833 9.8688,-8.62833c5.45039,0 9.8688,3.86305 9.8688,8.62833c0,4.76529 -4.4184,8.62833 -9.8688,8.62833z" fill="#b6ff00" stroke-linecap="butt"/></g><g stroke-linecap="butt"><path d="M222.56521,140.83019c-0.48981,-0.23823 -0.6142,-9.57491 -0.65717,-18.33254c-0.03701,-7.5451 -0.21054,-14.66038 1.80333,-15.15726c2.22654,-0.54935 38.68763,-0.14145 39.92485,0.43306c2.83395,1.31598 2.23599,31.44649 0,33.2011c-1.60758,1.26149 -38.96047,0.88215 -41.07101,-0.14436z" fill="#fea3c1" stroke="none" stroke-width="0"/><path d="M224.32008,120.88507v-11.69h40.35241v11.69z" fill="#ffc7d9" stroke="none" stroke-width="0"/><path d="M226.33098,119.78803c0.3547,-0.02764 0.61228,0.03776 0.61228,0.03776l3.45896,1.52135c0.16213,1.6074 0.49288,3.2017 0.4864,4.82219c-0.01839,4.6053 -2.55073,11.9094 -7.38729,6.50034c-1.64525,-1.83999 0.06402,-8.38412 0.42274,-10.66046c0,0 0.40675,-2.58113 2.40692,-2.22117z" fill="#563741" stroke="none" stroke-width="0.5"/><path d="M263.50588,121.06575c0.58024,0.66617 0.97389,1.69913 1.15059,2.7801c1.48845,1.50023 2.79946,3.25187 1.58302,6.51523c-1.30197,3.49276 -5.93706,4.63021 -8.08771,1.75193c-1.44738,-1.93707 -0.70551,-8.4529 1.55099,-10.94222c0.31565,-0.751 0.98767,-1.68561 2.32955,-1.345c0.78902,0.20027 1.23063,0.69448 1.47358,1.23995z" fill="#563741" stroke="none" stroke-width="0.5"/><path d="M223.00425,142.59507v-6.12333h42.54548v6.12333z" fill="#a06778" stroke="none" stroke-width="0"/><path d="M223.00383,141.94352c-0.48981,-0.23823 -0.6142,-9.57491 -0.65717,-18.33254c-0.03701,-7.5451 -0.21054,-14.66038 1.80333,-15.15726c2.22654,-0.54935 38.68763,-0.14145 39.92485,0.43306c2.83395,1.31598 2.23599,31.44649 0,33.2011c-1.60758,1.26149 -38.96047,0.88215 -41.07101,-0.14436z" fill="none" stroke="#000000" stroke-width="5"/></g></g><path d="M186.91587,35.82817l47.37022,27.83333" fill="none" stroke="#000000" stroke-width="5" stroke-linecap="round"/><path d="M301.83254,41.39484l-49.12468,21.15333" fill="none" stroke="#000000" stroke-width="5" stroke-linecap="round"/><g stroke-linecap="butt"><path d="M339.78019,184.9055c-0.58424,0.72295 -27.71712,11.23741 -53.18368,21.03092c-21.94055,8.43753 -42.6005,16.52394 -44.49313,15.19578c-2.09251,-1.46842 -9.00264,-35.98796 -7.60608,-37.78373c3.19889,-4.11334 90.98175,-37.111 96.58244,-36.97603c4.0267,0.09704 11.2179,35.41798 8.70045,38.53304z" fill="#c41414" stroke="none" stroke-width="0"/><path d="M341.9811,183.15845l-19.90879,7.90897l-9.37081,-37.3277l19.90878,-7.90897z" fill="#ef99b4" stroke="none" stroke-width="NaN"/><path d="M323.10491,189.56684l-13.18144,6.22945l-10.20693,-36.38773l13.18144,-6.22945z" fill="#d8d8d8" stroke="none" stroke-width="NaN"/><path d="M340.75847,184.81683c-0.58424,0.72295 -27.71712,11.23741 -53.18368,21.03092c-21.94055,8.43753 -42.6005,16.52394 -44.49313,15.19578c-2.09251,-1.46842 -9.00264,-35.98796 -7.60608,-37.78373c3.19889,-4.11334 90.98175,-37.111 96.58244,-36.97603c4.0267,0.09704 11.2179,35.41798 8.70045,38.53304z" fill="none" stroke="#000000" stroke-width="5"/></g></g></g></svg>