<svg version="1.1" xmlns="http://www.w3.org/2000/svg" xmlns:xlink="http://www.w3.org/1999/xlink" width="248.71366" height="333.40709" viewBox="0,0,248.71366,333.40709"><g transform="translate(-178.10386,0.22948)"><g data-paper-data="{&quot;isPaintingLayer&quot;:true}" fill-rule="nonzero" stroke-linejoin="miter" stroke-miterlimit="10" stroke-dasharray="" stroke-dashoffset="0" style="mix-blend-mode: normal"><g stroke-linecap="butt"><path d="M352.68947,179.36747c-0.61586,0.70129 -29.42998,11.1502 -56.47523,20.88524c-23.30064,8.38716 -45.24002,16.42038 -47.26894,15.17172c-2.2432,-1.38054 -9.92488,-34.39999 -8.45338,-36.14121c3.37056,-3.98843 96.60213,-36.81558 102.57115,-36.76108c4.29149,0.03918 12.28008,33.82359 9.62638,36.84533z" fill="#c41414" stroke="none" stroke-width="0"/><path d="M355.86358,177.70558l-21.73637,7.07169l-11.50337,-35.2447l21.73638,-7.0717z" fill="#ef99b4" stroke="none" stroke-width="NaN"/><path d="M334.9643,184.06191l-13.98783,6.15188l-11.21179,-34.76736l13.98783,-6.15188z" fill="#d8d8d8" stroke="none" stroke-width="NaN"/><path d="M353.73104,179.26931c-0.61586,0.70129 -29.42998,11.1502 -56.47523,20.88524c-23.30064,8.38716 -45.24002,16.42038 -47.26894,15.17172c-2.2432,-1.38054 -9.92488,-34.39999 -8.45338,-36.14121c3.37056,-3.98843 96.60213,-36.81558 102.57115,-36.76108c4.29149,0.03918 12.28008,33.82359 9.62638,36.84533z" fill="none" stroke="#000000" stroke-width="5"/></g><g data-paper-data="{&quot;index&quot;:null}"><path d="M383.0811,166.86872l-77.97692,27.12293l-5.91533,-19.15244l78.92892,-27.47267z" fill="#773f00" stroke="#000000" stroke-width="5" stroke-linecap="round"/><path d="M338.37803,219.34149l41.03865,-24.72353l2.35709,-23.20694l-5.56884,-19.78748l-12.50271,-22.31771l-48.56434,-0.43806l-0.47528,-6.42616l50.08867,-5.19943l17.7685,31.55374l5.56884,19.78748l0.50633,31.80229l-48.00103,25.25027z" fill="#763e00" stroke="#000000" stroke-width="5" stroke-linecap="round"/><path d="M382.65836,168.06353l-55.69513,18.93733l-5.77864,-19.20265l56.37373,-19.18663z" fill="#24202a" stroke="#000000" stroke-width="5" stroke-linecap="round"/><path d="M340.1186,219.20983l-16.73372,-42.08889l-8.64981,-48.10517" fill="none" stroke="#676767" stroke-width="5" stroke-linecap="round"/><g stroke-linecap="butt"><path d="M373.42828,148.07383l11.68037,-4.29099l6.47538,23.00869l-11.68037,4.29099z" fill="#ff3535" stroke="none" stroke-width="0"/><path d="M384.29019,144.10752l9.00502,-3.30815l6.47538,23.00869l-9.00502,3.30815z" fill="#efefef" stroke="none" stroke-width="0"/><path d="M392.67418,141.02752l9.00502,-3.30815l6.47538,23.00869l-9.00502,3.30815z" fill="#ff3535" stroke="none" stroke-width="0"/><path d="M401.04961,137.97466l9.00502,-3.30815l6.47538,23.00869l-9.00502,3.30815z" fill="#efefef" stroke="none" stroke-width="0"/><path d="M409.66478,134.78572l13.29273,9.33371l-6.81734,13.67498z" fill="#ff3535" stroke="none" stroke-width="0"/><path d="M372.9251,147.6345l35.09343,-12.89218l15.36601,9.01296l-8.70438,14.65754l-35.09343,12.89218z" fill="none" stroke="#000000" stroke-width="5"/></g></g><g stroke-linecap="round"><path d="M229.45492,277.27939c0,0 -7.68232,49.42881 -13.55426,53.4c-4.50131,3.04424 -33.03374,0.66777 -35.52151,0.534c-4.00915,-0.21557 12.12343,-21.99189 14.48904,-30.972c2.3656,-8.98011 0,-24.03 0,-24.03z" fill="#c41414" stroke="none" stroke-width="0"/><path d="M223.02833,300.18237l-6.30974,25.365l-2.57064,3.204l-11.45101,1.068l-21.49986,-1.335c0,0 10.60525,-14.9718 13.2373,-20.34524c1.72687,-3.52547 2.65391,-8.75776 2.65391,-8.75776z" fill="#5b5a5a" stroke="#5b5a5a" stroke-width="0.5"/><path d="M228.98753,278.83557c0,0 -7.57398,47.3082 -13.36311,51.10901c-4.43783,2.91363 -32.56788,0.63912 -35.02056,0.51109c-3.95262,-0.20632 11.95246,-21.04839 14.2847,-29.64322c2.33224,-8.59484 0,-22.99906 0,-22.99906z" fill="none" stroke="#000000" stroke-width="5"/></g><path d="M194.2413,278.34739c-1.08305,-0.88128 -1.35809,-35.42021 -1.45309,-67.81713c-0.08185,-27.91136 -0.46553,-54.23278 3.98746,-56.07086c4.92325,-2.0322 85.54473,-0.52329 88.28042,1.602c6.26634,4.86817 4.94415,116.32923 0,122.81999c-3.55466,4.6666 -86.14802,3.26334 -90.81478,-0.534z" fill="#c41414" stroke="#000000" stroke-width="5" stroke-linecap="butt"/><g><g stroke-linecap="round"><path d="M271.05245,159.20637c0,0 -7.74672,30.81297 -7.9456,56.604c-0.19888,25.79101 7.01082,64.61399 7.01082,64.61399l-54.21704,-2.136c0,0 6.71523,-42.72887 6.54344,-64.61399c-0.17179,-21.88512 -7.47821,-54.468 -7.47821,-54.468z" fill="#f7f6f6" stroke="none" stroke-width="0"/><path d="M218.2376,276.15236l8.41299,-57.138l-7.01082,-56.604h46.73883l-6.54344,53.934l7.01082,60.34199z" fill="none" stroke="#c6c7c7" stroke-width="5"/><path d="M271.05245,160.27437c0,0 -7.74672,30.81297 -7.9456,56.604c-0.19888,25.79101 7.01082,64.61399 7.01082,64.61399l-54.21704,-2.136c0,0 6.71523,-42.72887 6.54344,-64.61399c-0.17179,-21.88512 -7.47821,-54.468 -7.47821,-54.468z" fill="none" stroke="#000000" stroke-width="5"/></g><path d="M235.99835,193.11537c0,-4.27634 3.03423,-7.743 6.77713,-7.743c3.7429,0 6.77713,3.46666 6.77713,7.743c0,4.27634 -3.03423,7.743 -6.77713,7.743c-3.7429,0 -6.77713,-3.46666 -6.77713,-7.743z" fill="#ffd901" stroke="none" stroke-width="NaN" stroke-linecap="butt"/><path d="M235.99835,212.87336c0,-4.27634 3.03422,-7.743 6.77713,-7.743c3.74291,0 6.77713,3.46666 6.77713,7.743c0,4.27634 -3.03422,7.743 -6.77713,7.743c-3.74291,0 -6.77713,-3.46666 -6.77713,-7.743z" fill="#ffd901" stroke="none" stroke-width="NaN" stroke-linecap="butt"/><path d="M235.99835,232.09736c0,-4.27634 3.03422,-7.743 6.77713,-7.743c3.74291,0 6.77713,3.46666 6.77713,7.743c0,4.27635 -3.03422,7.743 -6.77713,7.743c-3.74291,0 -6.77713,-3.46665 -6.77713,-7.743z" fill="#ffd901" stroke="none" stroke-width="NaN" stroke-linecap="butt"/></g><g stroke-linecap="round"><path d="M284.60671,280.75039c0,0 14.86652,49.55625 9.81515,49.66022c-6.88897,0.1418 -25.38212,-0.77346 -30.84763,-0.60561c-7.4712,0.22944 9.10277,-10.10189 8.88038,-21.19644c-0.22239,-11.09454 -9.81515,-25.43572 -9.81515,-25.43572z" fill="#c41414" stroke="none" stroke-width="0"/><path d="M287.2942,298.58037c0,0 2.59251,7.7105 3.39989,12.08208c0.95829,5.18871 3.14355,18.62292 3.14355,18.62292l-29.21177,-1.335l9.11407,-16.287c0,0 -0.03676,-5.94848 -0.24813,-8.21844c-0.16817,-1.80606 -0.45296,-4.86456 -0.45296,-4.86456z" fill="#5a5b5a" stroke="#5a5b5a" stroke-width="0.5"/><path d="M284.60671,281.01739c0,0 14.86652,49.55625 9.81515,49.66022c-6.88897,0.1418 -25.38212,-0.77346 -30.84763,-0.60561c-7.4712,0.22944 9.10277,-10.10189 8.88038,-21.19644c-0.22239,-11.09454 -9.81515,-25.43572 -9.81515,-25.43572z" fill="none" stroke="#000000" stroke-width="5"/></g><g><path d="M188.18212,157.79241c-1.28757,-0.88127 -1.61455,-35.42021 -1.72748,-67.81713c-0.09729,-27.91136 -0.55343,-54.23278 4.74042,-56.07086c5.85292,-2.0322 101.69839,-0.5233 104.95066,1.602c7.44963,4.86817 5.87776,116.32923 0,122.81999c-4.22588,4.6666 -102.41561,3.26333 -107.96361,-0.534z" fill="#ffbbce" stroke="#000000" stroke-width="5" stroke-linecap="butt"/><path d="M188.93024,101.04447c-0.45353,-0.21089 -0.55904,-8.44895 -0.58974,-16.176c-0.02644,-6.6572 -0.17979,-12.93537 1.68641,-13.37089c2.06329,-0.48152 35.84128,-0.06965 36.98687,0.43901c2.62407,1.16515 2.03877,27.74888 -0.03453,29.29381c-1.49062,1.11074 -36.09483,0.72279 -38.04901,-0.18592z" fill="#ffffff" stroke="#000000" stroke-width="5" stroke-linecap="butt"/><path d="M207.53952,98.51866c-0.21871,-0.20329 0.00989,-7.37606 0.25832,-14.10091c0.21404,-5.79376 0.35192,-11.26326 1.29637,-11.56077c1.04418,-0.32894 17.85533,1.50359 18.40861,1.99619c1.26731,1.12835 0.06847,24.23402 -1.01699,25.48782c-0.78041,0.90142 -18.00392,-0.94634 -18.9463,-1.82233z" fill="#ff0000" stroke="#000000" stroke-width="5" stroke-linecap="butt"/><path d="M259.72693,100.07347c-0.44983,-0.22099 -0.41433,-8.45983 -0.31275,-16.18609c0.08751,-6.65651 0.04165,-12.93691 1.91496,-13.33066c2.07115,-0.43533 35.83562,0.73116 36.97229,1.26533c2.60362,1.22355 1.5634,27.78913 -0.53594,29.28744c-1.50936,1.07723 -36.10028,-0.08383 -38.03854,-1.03602z" fill="#ffffff" stroke="#000000" stroke-width="5" stroke-linecap="butt"/><path d="M278.37588,97.96393c-0.21519,-0.20814 0.13614,-7.37443 0.49963,-14.09245c0.31316,-5.78787 0.54465,-11.25323 1.49401,-11.52959c1.04962,-0.30554 17.82619,1.90226 18.37092,2.40712c1.24776,1.15644 -0.34634,24.23091 -1.45306,25.46021c-0.79568,0.88381 -17.98428,-1.34842 -18.91149,-2.2453z" fill="#ff0000" stroke="#000000" stroke-width="5" stroke-linecap="butt"/><g stroke="#000000" stroke-width="5"><path d="M202.54793,3.46643l-0.46739,12.282h7.47821l1.40216,-12.816l18.22814,-0.534l1.86955,13.35l27.10852,-0.534v-11.748l20.0977,-1.068l0.93478,14.952h7.01082l1.40216,-14.418l18.22814,1.068l-0.46739,29.37l-6.07605,5.874l-112.64057,0.534l-5.14127,-2.67l0.93478,-32.574z" fill="#fee70a" stroke-linecap="round"/><path d="M206.28704,34.97242c-4.64637,0 -8.41299,-3.46666 -8.41299,-7.743c0,-4.27634 3.76662,-7.743 8.41299,-7.743c4.64637,0 8.41299,3.46666 8.41299,7.743c0,4.27634 -3.76662,7.743 -8.41299,7.743z" fill="#7e93ff" stroke-linecap="butt"/><path d="M245.54765,36.04042c-5.67889,0 -10.28254,-4.06436 -10.28254,-9.078c0,-5.01364 4.60365,-9.078 10.28254,-9.078c5.67889,0 10.28254,4.06436 10.28254,9.078c0,5.01364 -4.60365,9.078 -10.28254,9.078z" fill="#0026ff" stroke-linecap="butt"/><path d="M282.705,36.04042c-5.80796,0 -10.51624,-3.70575 -10.51624,-8.277c0,-4.57125 4.70827,-8.277 10.51624,-8.277c5.80796,0 10.51624,3.70575 10.51624,8.277c0,4.57125 -4.70827,8.277 -10.51624,8.277z" fill="#b6ff00" stroke-linecap="butt"/></g><g stroke-linecap="butt"><path d="M222.17779,148.62339c-0.52194,-0.22853 -0.65449,-9.18503 -0.70028,-17.58607c-0.03944,-7.23787 -0.22435,-14.06343 1.92164,-14.54008c2.37261,-0.52698 41.22572,-0.13569 42.5441,0.41543c3.01987,1.2624 2.38268,30.16604 0,31.8492c-1.71305,1.21012 -41.51646,0.84623 -43.76546,-0.13848z" fill="#fea3c1" stroke="none" stroke-width="0"/><path d="M224.04779,129.49041v-11.214h42.99972v11.214z" fill="#ffc7d9" stroke="none" stroke-width="0"/><path d="M226.19061,128.43804c0.37797,-0.02651 0.65245,0.03622 0.65245,0.03622l3.68588,1.4594c0.17277,1.54195 0.52521,3.07133 0.51831,4.62584c-0.0196,4.41778 -2.71807,11.42447 -7.87193,6.23566c-1.75319,-1.76507 0.06822,-8.04273 0.45047,-10.22638c0,0 0.43344,-2.47603 2.56482,-2.13073z" fill="#563741" stroke="none" stroke-width="0.5"/><path d="M265.80436,129.66373c0.61831,0.63904 1.03778,1.62994 1.22607,2.6669c1.5861,1.43914 2.98312,3.11946 1.68687,6.24994c-1.38739,3.35054 -6.32656,4.44167 -8.6183,1.68059c-1.54233,-1.8582 -0.7518,-8.10871 1.65274,-10.49667c0.33636,-0.72042 1.05247,-1.61697 2.48238,-1.29023c0.84078,0.19212 1.31137,0.6662 1.57025,1.18946z" fill="#563741" stroke="none" stroke-width="0.5"/><path d="M222.64563,150.31641v-5.874h45.33666v5.874z" fill="#a06778" stroke="none" stroke-width="0"/><path d="M222.64518,149.69139c-0.52194,-0.22853 -0.65449,-9.18503 -0.70028,-17.58607c-0.03944,-7.23787 -0.22435,-14.06343 1.92164,-14.54008c2.37261,-0.52698 41.22572,-0.13569 42.5441,0.41543c3.01987,1.2624 2.38268,30.16604 0,31.8492c-1.71305,1.21012 -41.51646,0.84623 -43.76546,-0.13848z" fill="none" stroke="#000000" stroke-width="5"/></g></g><path d="M184.18969,47.8969l50.47793,26.7" fill="none" stroke="#000000" stroke-width="5" stroke-linecap="round"/><path d="M306.64542,53.2369l-52.34749,20.292" fill="none" stroke="#000000" stroke-width="5" stroke-linecap="round"/><g stroke-linecap="butt"><path d="M358.80427,188.98546c-0.62257,0.69351 -29.53549,10.77984 -56.67278,20.17457c-23.37995,8.09397 -45.39529,15.85111 -47.41208,14.57703c-2.22979,-1.40863 -9.59325,-34.52258 -8.10507,-36.24523c3.40875,-3.94585 96.95057,-35.5999 102.9187,-35.47042c4.29087,0.09309 11.95385,33.97581 9.27124,36.96403z" fill="#c41414" stroke="none" stroke-width="0"/><path d="M361.14957,187.30955l-21.2149,7.58693l-9.98558,-35.80777l21.21489,-7.58693z" fill="#ef99b4" stroke="none" stroke-width="NaN"/><path d="M341.03501,193.457l-14.0462,5.9758l-10.87655,-34.90608l14.0462,-5.9758z" fill="#d8d8d8" stroke="none" stroke-width="NaN"/><path d="M359.84672,188.9004c-0.62257,0.69351 -29.53549,10.77984 -56.67278,20.17457c-23.37995,8.09397 -45.39529,15.85111 -47.41208,14.57703c-2.22979,-1.40863 -9.59325,-34.52258 -8.10507,-36.24523c3.40875,-3.94585 96.95057,-35.5999 102.9187,-35.47042c4.29087,0.09309 11.95385,33.97581 9.27124,36.96403z" fill="none" stroke="#000000" stroke-width="5"/></g></g></g></svg>