<svg version="1.1" xmlns="http://www.w3.org/2000/svg" xmlns:xlink="http://www.w3.org/1999/xlink" width="309.63817" height="317.75799" viewBox="0,0,309.63817,317.75799"><g transform="translate(-109.53099,-15.51798)"><g data-paper-data="{&quot;isPaintingLayer&quot;:true}" fill-rule="nonzero" stroke-linejoin="miter" stroke-miterlimit="10" stroke-dasharray="" stroke-dashoffset="0" style="mix-blend-mode: normal"><g data-paper-data="{&quot;index&quot;:null}"><path d="M383.63065,125.49812l-68.7265,53.66693l-12.34773,-14.46272l69.55931,-54.3384z" fill="#773f00" stroke="#000000" stroke-width="5" stroke-linecap="round"/><path d="M356.65024,188.5295l32.65565,-37.37507l-5.4526,-21.18471l-12.2154,-15.15079l-19.98901,-14.69712l-48.63234,18.28024l-2.63599,-5.43271l48.25796,-23.79223l28.35281,20.74422l12.2154,15.15079l11.20244,27.59518l-39.42947,40.51097z" fill="#763e00" stroke="#000000" stroke-width="5" stroke-linecap="round"/><path d="M383.61047,126.70463l-49.2344,37.95134l-12.22815,-14.55913l49.82805,-38.42997z" fill="#24202a" stroke="#000000" stroke-width="5" stroke-linecap="round"/><path d="M358.34368,187.74555l-30.8633,-30.34781l-24.81621,-38.71161" fill="none" stroke="#676767" stroke-width="5" stroke-linecap="round"/><g stroke-linecap="butt"><path d="M367.6718,112.78413l10.21797,-8.23829l14.20395,17.61719l-10.21797,8.23829z" fill="#ff3535" stroke="none" stroke-width="0"/><path d="M377.18185,105.14408l7.87758,-6.35134l14.20395,17.61719l-7.87758,6.35134z" fill="#efefef" stroke="none" stroke-width="0"/><path d="M384.51616,99.23075l7.87758,-6.35134l14.20395,17.61719l-7.87758,6.35134z" fill="#ff3535" stroke="none" stroke-width="0"/><path d="M391.85105,93.34444l7.87758,-6.35134l14.20395,17.61719l-7.87758,6.35134z" fill="#efefef" stroke="none" stroke-width="0"/><path d="M399.37953,87.24709l16.41047,3.04773l-2.20652,14.56946z" fill="#ff3535" stroke="none" stroke-width="0"/><path d="M367.02167,112.5936l30.69971,-24.75179l18.37248,1.9707l-3.75998,16.15323l-30.69971,24.75179z" fill="none" stroke="#000000" stroke-width="5"/></g></g><g stroke-linecap="butt"><path d="M112.92466,254.49756c0.2073,-0.90678 21.06962,-25.6179 40.68736,-48.75466c16.90154,-19.93332 32.74772,-38.80986 35.20734,-38.97791c2.71939,-0.1858 26.15496,21.58966 25.6924,23.80824c-1.05954,5.08185 -69.05207,84.26011 -74.48157,87.62132c-3.90361,2.41659 -27.99882,-19.78979 -27.10554,-23.697z" fill="#c41414" stroke="none" stroke-width="0"/><path d="M111.66803,257.17676l15.21324,-18.27819l27.1603,22.37296l-15.21325,18.27818z" fill="#ef99b4" stroke="none" stroke-width="NaN"/><path d="M126.62348,240.66939l9.58877,-12.85113l27.50308,21.14668l-9.58877,12.85113z" fill="#d8d8d8" stroke="none" stroke-width="NaN"/><path d="M112.03099,255.16938c0.2073,-0.90678 21.06962,-25.6179 40.68736,-48.75466c16.90154,-19.93332 32.74772,-38.80986 35.20734,-38.97791c2.71939,-0.1858 26.15496,21.58966 25.6924,23.80824c-1.05954,5.08185 -69.05207,84.26011 -74.48157,87.62132c-3.90361,2.41659 -27.99882,-19.78979 -27.10554,-23.697z" fill="none" stroke="#000000" stroke-width="5"/></g><g stroke-linecap="butt"><path d="M361.86363,154.21973c-0.36509,0.85553 -25.28533,21.46761 -48.70113,40.75145c-20.17371,16.61385 -39.12112,32.37524 -41.57148,32.10367c-2.70913,-0.30024 -21.90376,-25.8925 -21.05442,-27.99362c1.94543,-4.81281 82.92193,-70.65343 88.86217,-72.99667c4.27079,-1.6847 24.03801,24.44879 22.46484,28.13518z" fill="#c41414" stroke="none" stroke-width="0"/><path d="M364.42973,151.50558l-19.0831,14.84523l-23.76569,-25.99372l19.0831,-14.84523z" fill="#ef99b4" stroke="none" stroke-width="NaN"/><path d="M345.92622,165.39447l-11.71916,10.94338l-23.3091,-25.69605l11.71916,-10.94338z" fill="#d8d8d8" stroke="none" stroke-width="NaN"/><path d="M362.86244,153.71735c-0.36509,0.85553 -25.28533,21.46761 -48.70113,40.75145c-20.17371,16.61385 -39.12112,32.37524 -41.57148,32.10367c-2.70913,-0.30024 -21.90376,-25.8925 -21.05442,-27.99362c1.94543,-4.81281 82.92193,-70.65343 88.86217,-72.99667c4.27079,-1.6847 24.03801,24.44879 22.46484,28.13518z" fill="none" stroke="#000000" stroke-width="5"/></g><g stroke-linecap="round"><path d="M223.92355,280.77763c0,0 -8.21835,46.28166 -14.5,50c-4.81539,2.85041 -35.33865,0.62525 -38,0.5c-4.28889,-0.20184 12.96934,-20.59166 15.5,-29c2.53066,-8.40834 0,-22.5 0,-22.5z" fill="#c41414" stroke="none" stroke-width="0"/><path d="M217.04855,302.22237l-6.75,23.75l-2.75,3l-12.25,1l-23,-1.25c0,0 11.34523,-14.01854 14.16092,-19.04985c1.84736,-3.301 2.83908,-8.20015 2.83908,-8.20015z" fill="#5b5a5a" stroke="#5b5a5a" stroke-width="0.5"/><path d="M223.42355,282.23473c0,0 -8.10245,44.29607 -14.29551,47.85488c-4.74748,2.72812 -34.84028,0.59843 -37.4641,0.47855c-4.22841,-0.19318 12.78644,-19.70823 15.28141,-27.75583c2.49497,-8.0476 0,-21.5347 0,-21.5347z" fill="none" stroke="#000000" stroke-width="5"/></g><path d="M186.25293,281.77763c-1.15862,-0.82517 -1.45285,-33.16499 -1.55448,-63.49919c-0.08756,-26.13423 -0.49801,-50.77976 4.26568,-52.50081c5.26677,-1.90281 91.51356,-0.48997 94.44013,1.5c6.70357,4.55821 5.28912,108.92251 0,115c-3.80268,4.36948 -92.15895,3.05556 -97.15133,-0.5z" fill="#c41414" stroke="#000000" stroke-width="5" stroke-linecap="butt"/><g><path d="M180.2289,167.81082c-1.41225,-0.76401 -3.17883,-33.05745 -4.62877,-63.35722c-1.24918,-26.10457 -2.81665,-50.70504 2.76572,-52.6726c6.1719,-2.17535 108.66836,-5.25688 112.23141,-3.42127c8.16151,4.20461 11.05482,108.54235 5.0393,114.88954c-4.32493,4.56338 -109.32247,7.8536 -115.40767,4.56155z" fill="#ffbbce" stroke="#000000" stroke-width="5" stroke-linecap="butt"/><g stroke="#000000" stroke-width="5" stroke-linecap="butt"><path d="M178.70009,114.69201c-0.49336,-0.17601 -0.94414,-7.87719 -1.29398,-15.10388c-0.30141,-6.2261 -0.72289,-12.09171 1.25374,-12.58659c2.18537,-0.54715 38.30239,-1.74531 39.54762,-1.32319c2.85227,0.9669 3.31746,25.86157 1.16502,27.40393c-1.54752,1.1089 -38.54657,2.36816 -40.67239,1.60973z" fill="#ffffff"/><path d="M198.48503,111.45694c-0.24209,-0.17991 -0.29207,-6.90025 -0.30249,-13.20253c-0.00897,-5.42969 -0.08601,-10.55249 0.91115,-10.87506c1.10247,-0.35665 19.14452,0.56949 19.75605,1.00434c1.40073,0.99609 1.0675,22.66602 -0.04114,23.88975c-0.79707,0.8798 -19.28046,-0.04126 -20.32357,-0.81651z" fill="#000000"/></g><g stroke="#000000" stroke-width="5" stroke-linecap="butt"><path d="M254.324,110.46493c-0.48982,-0.18563 -0.78992,-7.89416 -0.99836,-15.1263c-0.17959,-6.23081 -0.48628,-12.10353 1.49965,-12.55967c2.19567,-0.50431 38.32921,-0.99593 39.56593,-0.54954c2.83282,1.0225 2.81107,25.92151 0.62887,27.42148c-1.56892,1.07843 -38.5855,1.61388 -40.69608,0.81402z" fill="#ffffff"/><path d="M274.16842,107.61739c-0.23853,-0.18461 -0.15707,-6.90465 -0.04424,-13.20593c0.09721,-5.42882 0.12037,-10.55214 1.12366,-10.85517c1.10924,-0.33502 19.12973,0.94378 19.73263,1.39051c1.38099,1.02328 0.62404,22.68256 -0.50833,23.88437c-0.81412,0.86404 -19.27597,-0.4183 -20.30372,-1.2138z" fill="#000000"/></g><g stroke="#000000" stroke-width="5"><path d="M189.2503,22.77619l0.00441,11.51086l7.99232,-0.35056l0.97272,-12.0542l19.45936,-1.35401l2.54583,12.40035l28.95023,-1.7703l-0.48202,-10.98943l21.43553,-1.94117l1.61252,13.94273l7.4928,-0.32865l0.90699,-13.55276l19.52509,0.14455l0.70553,27.49549l-6.25275,5.77955l-120.36234,5.77983l-5.60427,-2.25659l-0.33747,-30.51452z" fill="#fee70a" stroke-linecap="round"/><path d="M194.53915,52.07257c-4.9658,0.21781 -9.13359,-2.84844 -9.30905,-6.84866c-0.17546,-4.00021 3.70786,-7.41961 8.67366,-7.63742c4.9658,-0.21781 9.13359,2.84844 9.30905,6.84866c0.17546,4.00021 -3.70786,7.41961 -8.67366,7.63742z" fill="#7e93ff" stroke-linecap="butt"/><path d="M236.54262,51.23117c-6.06929,0.26621 -11.15619,-3.3199 -11.3619,-8.00982c-0.20571,-4.68991 4.54767,-8.70764 10.61696,-8.97386c6.06929,-0.26621 11.15619,3.3199 11.3619,8.00982c0.20571,4.68991 -4.54767,8.70764 -10.61696,8.97386z" fill="#0026ff" stroke-linecap="butt"/><path d="M276.25444,49.48933c-6.20724,0.27226 -11.39124,-2.97349 -11.5788,-7.24958c-0.18756,-4.27609 4.69235,-7.96327 10.89959,-8.23553c6.20724,-0.27226 11.39124,2.97349 11.5788,7.24958c0.18756,4.27609 -4.69235,7.96327 -10.89959,8.23553z" fill="#b6ff00" stroke-linecap="butt"/></g><g stroke-linecap="butt"><path d="M216.18543,157.64021c-0.5672,-0.18931 -1.07635,-8.56128 -1.46998,-16.41772c-0.33912,-6.76867 -0.81679,-13.14484 1.45717,-13.69131c2.5141,-0.60418 44.05429,-2.05949 45.48592,-1.60576c3.27927,1.03932 3.78419,28.10653 1.30677,29.7927c-1.78117,1.21229 -44.33587,2.73778 -46.77988,1.92208z" fill="#fea3c1" stroke="none" stroke-width="0"/><path d="M217.39897,139.65499l-0.46011,-10.48991l45.95581,-2.01572l0.46011,10.48991z" fill="#ffc7d9" stroke="none" stroke-width="0"/><path d="M219.64592,138.57011c0.40286,-0.04251 0.69879,0.00329 0.69879,0.00329l3.99915,1.19238c0.24791,1.43428 0.68734,2.8484 0.74375,4.30285c0.16031,4.13345 -2.43618,10.81421 -8.15725,6.20204c-1.94614,-1.56892 -0.25708,-7.52661 0.06185,-9.58718c0,0 0.36164,-2.33647 2.65372,-2.11339z" fill="#563741" stroke="none" stroke-width="0.5"/><path d="M262.03328,137.85968c0.68703,0.56879 1.176,1.47605 1.41978,2.43723c1.75419,1.27186 3.3162,2.77819 2.05927,5.7673c-1.34529,3.19923 -6.57925,4.45145 -9.14183,1.97608c-1.72461,-1.66592 -1.13619,-7.54989 1.33568,-9.89638c0.32993,-0.68967 1.05848,-1.5619 2.6001,-1.32329c0.90646,0.1403 1.42886,0.56171 1.727,1.03905z" fill="#563741" stroke="none" stroke-width="0.5"/><path d="M216.7549,159.20198l-0.24101,-5.49472l48.45341,-2.12527l0.24101,5.49472z" fill="#a06778" stroke="none" stroke-width="0"/><path d="M216.72877,158.61734c-0.5672,-0.18931 -1.07635,-8.56128 -1.46998,-16.41772c-0.33912,-6.76867 -0.81679,-13.14484 1.45717,-13.69131c2.5141,-0.60418 44.05429,-2.05949 45.48592,-1.60576c3.27927,1.03932 3.78419,28.10653 1.30677,29.7927c-1.78117,1.21229 -44.33587,2.73778 -46.77988,1.92208z" fill="none" stroke="#000000" stroke-width="5"/></g></g><g><g stroke-linecap="round"><path d="M268.42355,170.22236c0,0 -8.28724,28.8511 -8.5,53c-0.21276,24.14889 7.5,60.5 7.5,60.5l-58,-2c0,0 7.18378,-40.00831 7,-60.5c-0.18378,-20.49169 -8,-51 -8,-51z" fill="#f7f6f6" stroke="none" stroke-width="0"/><path d="M211.92355,279.72236l9,-53.5l-7.5,-53h50l-7,50.5l7.5,56.5z" fill="none" stroke="#c6c7c7" stroke-width="5"/><path d="M268.42355,171.22236c0,0 -8.28724,28.8511 -8.5,53c-0.21276,24.14889 7.5,60.5 7.5,60.5l-58,-2c0,0 7.18378,-40.00831 7,-60.5c-0.18378,-20.49169 -8,-51 -8,-51z" fill="none" stroke="#000000" stroke-width="5"/></g><path d="M230.92355,201.97236c0,-4.00406 3.24594,-7.25 7.25,-7.25c4.00406,0 7.25,3.24594 7.25,7.25c0,4.00406 -3.24594,7.25 -7.25,7.25c-4.00406,0 -7.25,-3.24594 -7.25,-7.25z" fill="#ffd901" stroke="none" stroke-width="NaN" stroke-linecap="butt"/><path d="M230.92355,220.47236c0,-4.00406 3.24593,-7.25 7.25,-7.25c4.00407,0 7.25,3.24594 7.25,7.25c0,4.00406 -3.24593,7.25 -7.25,7.25c-4.00407,0 -7.25,-3.24594 -7.25,-7.25z" fill="#ffd901" stroke="none" stroke-width="NaN" stroke-linecap="butt"/><path d="M230.92355,238.47236c0,-4.00406 3.24593,-7.25 7.25,-7.25c4.00407,0 7.25,3.24594 7.25,7.25c0,4.00407 -3.24593,7.25 -7.25,7.25c-4.00407,0 -7.25,-3.24593 -7.25,-7.25z" fill="#ffd901" stroke="none" stroke-width="NaN" stroke-linecap="butt"/></g><g stroke-linecap="round"><path d="M282.92355,284.02763c0,0 15.90382,46.40099 10.5,46.49834c-7.36964,0.13277 -27.15314,-0.72421 -33,-0.56705c-7.9925,0.21483 9.73791,-9.4587 9.5,-19.84686c-0.23791,-10.38815 -10.5,-23.81622 -10.5,-23.81622z" fill="#c41414" stroke="none" stroke-width="0"/><path d="M285.79855,300.72237c0,0 2.7734,7.21957 3.63711,11.31281c1.02515,4.85834 3.36289,17.43719 3.36289,17.43719l-31.25,-1.25l9.75,-15.25c0,0 -0.03933,-5.56974 -0.26544,-7.69517c-0.1799,-1.69107 -0.48456,-4.55483 -0.48456,-4.55483z" fill="#5a5b5a" stroke="#5a5b5a" stroke-width="0.5"/><path d="M282.92355,284.27763c0,0 15.90382,46.40099 10.5,46.49834c-7.36964,0.13277 -27.15314,-0.72421 -33,-0.56705c-7.9925,0.21483 9.73791,-9.4587 9.5,-19.84686c-0.23791,-10.38815 -10.5,-23.81622 -10.5,-23.81622z" fill="none" stroke="#000000" stroke-width="5"/></g></g></g></svg>