<svg version="1.1" xmlns="http://www.w3.org/2000/svg" xmlns:xlink="http://www.w3.org/1999/xlink" width="362.98329" height="316.10894" viewBox="0,0,362.98329,316.10894"><g transform="translate(-35.97432,-17.16703)"><g data-paper-data="{&quot;isPaintingLayer&quot;:true}" fill-rule="nonzero" stroke-linejoin="miter" stroke-miterlimit="10" stroke-dasharray="" stroke-dashoffset="0" style="mix-blend-mode: normal"><g stroke="#000000" stroke-width="5"><path d="M116.80655,238.09477l45.72678,36.54191l-7.76395,10.42694l-46.32401,-35.73984z" fill="#825800" stroke-linecap="round"/><path d="M108.44536,249.32377c0,0 -8.14138,14.38689 -12.20719,18.37507c-3.5792,3.51086 -12.01511,4.10892 -12.01511,4.10892c0,0 4.47101,-11.37855 7.28316,-16.04879c2.38789,-3.96565 8.52604,-10.2061 8.52604,-10.2061l9.15459,-13.13177c0,0 5.55596,-8.92174 9.20812,-12.86321c3.75091,-4.04804 13.009,-11.11385 13.009,-11.11385c0,0 0.47349,8.5262 -1.7044,13.19409c-2.34308,5.02196 -11.89477,15.95317 -11.89477,15.95317z" fill="#00a5a5" stroke-linecap="round"/><path d="M95.60988,249.19808l-49.93649,-29.82316l-6.49781,-26.97216l23.32652,0.81966l51.65695,30.8909z" fill="#00ffff" stroke-linecap="round"/><path d="M175.48117,293.24752c-3.72902,5.00805 -10.70208,6.12661 -15.57478,2.49838c-4.8727,-3.62823 -5.79984,-10.62932 -2.07082,-15.63737c3.72902,-5.00805 10.70208,-6.12661 15.57478,-2.49838c4.8727,3.62823 5.79984,10.62932 2.07082,15.63737z" fill="#00a5a5" stroke-linecap="butt"/></g><g stroke-linecap="butt"><path d="M118.85312,256.05373c0.15101,-0.91783 19.45033,-26.86802 37.60449,-51.17011c15.6406,-20.93731 30.293,-40.75479 32.73758,-41.07414c2.70276,-0.35308 27.43612,19.93627 27.1112,22.17915c-0.74425,5.1375 -63.72651,88.35659 -68.93848,92.04611c-3.74721,2.65263 -29.16551,-18.02616 -28.51479,-21.981z" fill="#c41414" stroke="none" stroke-width="0"/><path d="M117.76404,258.80531l14.05755,-19.18125l28.48783,20.65611l-14.05755,19.18124z" fill="#ef99b4" stroke="none" stroke-width="NaN"/><path d="M131.67344,241.40739l8.77832,-13.41779l28.75436,19.41103l-8.77832,13.41779z" fill="#d8d8d8" stroke="none" stroke-width="NaN"/><path d="M118.00256,256.77936c0.15101,-0.91783 19.45033,-26.86802 37.60449,-51.17011c15.6406,-20.93731 30.293,-40.75479 32.73758,-41.07414c2.70276,-0.35308 27.43612,19.93627 27.1112,22.17915c-0.74425,5.1375 -63.72651,88.35659 -68.93848,92.04611c-3.74721,2.65263 -29.16551,-18.02616 -28.51479,-21.981z" fill="none" stroke="#000000" stroke-width="5"/></g><g><path d="M304.43718,263.00309c4.01174,-8.61148 45.19688,-43.71473 45.19688,-43.71473c0,0 3.2826,11.34591 6.76943,14.68764c3.63941,3.48796 14.62889,5.82023 14.62889,5.82023c0,0 -38.71524,35.05309 -50.10535,41.11375c-6.7249,3.57831 -20.50159,-9.2954 -16.48985,-17.90688z" fill="#343545" stroke="none" stroke-width="0" stroke-linecap="butt"/><path d="M360.64627,200.76991c8.76302,-8.06957 22.40854,-7.50743 30.47812,1.25559c8.06957,8.76302 7.50743,22.40854 -1.25559,30.47812c-8.76302,8.06958 -22.40854,7.50743 -30.47812,-1.25559c-8.06957,-8.76302 -7.50743,-22.40854 1.25559,-30.47812z" fill="#343545" stroke="none" stroke-width="0" stroke-linecap="butt"/><path d="M343.19112,232.76137l-36.09902,31.7746" fill="none" stroke="#485e84" stroke-width="10" stroke-linecap="round"/><path d="M305.53466,262.83023c4.01174,-8.61148 45.19689,-43.71473 45.19689,-43.71473c0,0 3.2826,11.34591 6.76943,14.68765c3.63941,3.48796 14.62888,5.82022 14.62888,5.82022c0,0 -38.71524,35.05309 -50.10535,41.11375c-6.7249,3.57831 -20.50159,-9.2954 -16.48985,-17.90688z" fill="none" stroke="#000000" stroke-width="5" stroke-linecap="butt"/><path d="M352.57586,206.10726l27.06174,-11.09709l16.94319,17.48942c0,0 -11.88501,9.24774 -18.29547,11.14086c-6.94,2.04951 -24.78644,-2.88446 -24.78644,-2.88446z" fill="#485f85" stroke="none" stroke-width="0" stroke-linecap="butt"/><path d="M360.21087,200.75197c8.76302,-8.06958 22.40854,-7.50743 30.47812,1.25559c8.06957,8.76302 7.50742,22.40854 -1.2556,30.47812c-8.76302,8.06958 -22.40854,7.50742 -30.47812,-1.25559c-8.06957,-8.76302 -7.50742,-22.40853 1.2556,-30.47811z" fill="none" stroke="#000000" stroke-width="5" stroke-linecap="butt"/><path d="M343.25789,229.28956c-1.25527,-3.66083 7.17066,-8.65487 7.17066,-8.65487c0,0 6.32678,8.24916 9.56457,11.68639c3.37948,3.58764 10.30544,9.40753 10.30544,9.40753c0,0 -7.09895,5.95092 -10.88761,5.10209c-2.23688,-0.50117 -14.8978,-13.88032 -16.15307,-17.54115z" fill="#485f85" stroke="#000101" stroke-width="5" stroke-linecap="butt"/><path d="M381.1819,199.87134l-25.61364,23.58675" fill="none" stroke="#000000" stroke-width="2.5" stroke-linecap="round"/><path d="M356.64288,213.25306l18.77768,-16.45398" fill="none" stroke="#000000" stroke-width="2.5" stroke-linecap="round"/><path d="M359.23575,229.71515l30.58243,-27.74345" fill="none" stroke="#000000" stroke-width="2.5" stroke-linecap="round"/><path d="M367.12028,234.1833l29.39526,-25.39359" fill="none" stroke="#000000" stroke-width="2.5" stroke-linecap="round"/><path d="M397.70761,216.90743l-20.8177,18.33256" fill="none" stroke="#000000" stroke-width="2.5" stroke-linecap="round"/><path d="M355.70684,209.5073l24.17707,27.16445" fill="none" stroke="#000000" stroke-width="2.5" stroke-linecap="round"/><path d="M361.2904,201.01452l28.33378,32.13323" fill="none" stroke="#000000" stroke-width="2.5" stroke-linecap="round"/><path d="M369.55161,196.33923l25.42946,28.52446" fill="none" stroke="#000000" stroke-width="2.5" stroke-linecap="round"/></g><g stroke-linecap="butt"><path d="M322.89252,273.68282c-0.85466,-0.36712 -21.40751,-25.33623 -40.6357,-48.79773c-16.56592,-20.2131 -32.28226,-39.19789 -32.00488,-41.64759c0.30667,-2.70842 25.94443,-21.84221 28.04353,-20.9879c4.80817,1.95685 70.45635,83.08945 72.78549,89.03524c1.67456,4.27479 -24.5058,23.97989 -28.18844,22.39798z" fill="#c41414" stroke="none" stroke-width="0"/><path d="M325.60056,276.25535l-14.79988,-19.1183l26.05008,-23.7039l14.79989,19.1183z" fill="#ef99b4" stroke="none" stroke-width="NaN"/><path d="M311.75564,257.71893l-10.91551,-11.7451l25.75132,-23.24804l10.91551,11.7451z" fill="#d8d8d8" stroke="none" stroke-width="NaN"/><path d="M323.39252,274.68282c-0.85466,-0.36712 -21.40751,-25.33623 -40.6357,-48.79773c-16.56592,-20.2131 -32.28226,-39.19789 -32.00488,-41.64759c0.30667,-2.70842 25.94443,-21.84221 28.04353,-20.9879c4.80817,1.95685 70.45635,83.08945 72.78549,89.03524c1.67456,4.27479 -24.5058,23.97989 -28.18844,22.39798z" fill="none" stroke="#000000" stroke-width="5"/></g><g stroke-linecap="round"><path d="M223.92355,280.77763c0,0 -8.21835,46.28166 -14.5,50c-4.81539,2.85041 -35.33865,0.62525 -38,0.5c-4.28889,-0.20184 12.96934,-20.59166 15.5,-29c2.53066,-8.40834 0,-22.5 0,-22.5z" fill="#c41414" stroke="none" stroke-width="0"/><path d="M217.04855,302.22237l-6.75,23.75l-2.75,3l-12.25,1l-23,-1.25c0,0 11.34523,-14.01854 14.16092,-19.04985c1.84736,-3.301 2.83908,-8.20015 2.83908,-8.20015z" fill="#5b5a5a" stroke="#5b5a5a" stroke-width="0.5"/><path d="M223.42355,282.23473c0,0 -8.10245,44.29607 -14.29551,47.85488c-4.74748,2.72812 -34.84028,0.59843 -37.4641,0.47855c-4.22841,-0.19318 12.78644,-19.70823 15.28141,-27.75583c2.49497,-8.0476 0,-21.5347 0,-21.5347z" fill="none" stroke="#000000" stroke-width="5"/></g><path d="M186.25293,281.77763c-1.15862,-0.82517 -1.45285,-33.16499 -1.55448,-63.49919c-0.08756,-26.13423 -0.49801,-50.77976 4.26568,-52.50081c5.26677,-1.90281 91.51356,-0.48997 94.44013,1.5c6.70357,4.55821 5.28912,108.92251 0,115c-3.80268,4.36948 -92.15895,3.05556 -97.15133,-0.5z" fill="#c41414" stroke="#000000" stroke-width="5" stroke-linecap="butt"/><g><path d="M177.0554,165.27763c-1.37741,-0.82516 -1.7272,-33.16499 -1.84801,-63.49919c-0.10408,-26.13423 -0.59205,-50.77976 5.07118,-52.50081c6.2613,-1.90281 108.79433,-0.48998 112.27353,1.5c7.96942,4.55821 6.28788,108.92251 0,115c-4.52074,4.36948 -109.5616,3.05555 -115.4967,-0.5z" fill="#ffbbce" stroke="#000000" stroke-width="5" stroke-linecap="butt"/><g stroke="#000000" stroke-width="5" stroke-linecap="butt"><path d="M177.85572,112.14285c-0.48517,-0.19746 -0.59805,-7.911 -0.63089,-15.14607c-0.02829,-6.23333 -0.19234,-12.11177 1.80408,-12.51956c2.20725,-0.45086 38.34208,-0.06522 39.56761,0.41106c2.80716,1.09096 2.18102,25.9821 -0.03694,27.42866c-1.59463,1.04002 -38.61332,0.67677 -40.70386,-0.17408z" fill="#ffffff"/><path d="M197.76342,109.77786c-0.23397,-0.19035 0.01058,-6.90642 0.27634,-13.2031c0.22897,-5.42487 0.37648,-10.54612 1.38682,-10.82469c1.11704,-0.308 19.10118,1.40786 19.69306,1.86909c1.35574,1.05651 0.07325,22.69103 -1.08795,23.865c-0.83486,0.84403 -19.26013,-0.88609 -20.26827,-1.7063z" fill="#000000"/></g><g stroke="#000000" stroke-width="5" stroke-linecap="butt"><path d="M253.59222,111.23367c-0.48122,-0.20692 -0.44324,-7.92119 -0.33457,-15.15552c0.09362,-6.23269 0.04456,-12.11321 2.04857,-12.48189c2.21566,-0.40761 38.33603,0.68461 39.55201,1.18477c2.78529,1.14565 1.67249,26.01979 -0.57334,27.4227c-1.61467,1.00864 -38.61916,-0.07849 -40.69266,-0.97006z" fill="#ffffff"/><path d="M273.54236,109.25845c-0.23021,-0.19489 0.14564,-6.9049 0.53449,-13.19518c0.33501,-5.41935 0.58265,-10.53673 1.59825,-10.7955c1.12286,-0.28609 19.07,1.78114 19.65274,2.25386c1.33482,1.08281 -0.37051,22.68812 -1.55445,23.83915c-0.8512,0.82754 -19.23912,-1.26257 -20.23103,-2.10234z" fill="#000000"/></g><g stroke="#000000" stroke-width="5"><path d="M192.42355,20.77763l-0.5,11.5h8l1.5,-12l19.5,-0.5l2,12.5l29,-0.5v-11l21.5,-1l1,14h7.5l1.5,-13.5l19.5,1l-0.5,27.5l-6.5,5.5l-120.5,0.5l-5.5,-2.5l1,-30.5z" fill="#fee70a" stroke-linecap="round"/><path d="M196.42355,50.27763c-4.97057,0 -9,-3.24594 -9,-7.25c0,-4.00406 4.02943,-7.25 9,-7.25c4.97057,0 9,3.24594 9,7.25c0,4.00406 -4.02943,7.25 -9,7.25z" fill="#7e93ff" stroke-linecap="butt"/><path d="M238.42355,51.27763c-6.07513,0 -11,-3.80558 -11,-8.5c0,-4.69442 4.92487,-8.5 11,-8.5c6.07513,0 11,3.80558 11,8.5c0,4.69442 -4.92487,8.5 -11,8.5z" fill="#0026ff" stroke-linecap="butt"/><path d="M278.17355,51.27763c-6.21321,0 -11.25,-3.4698 -11.25,-7.75c0,-4.2802 5.03679,-7.75 11.25,-7.75c6.21321,0 11.25,3.4698 11.25,7.75c0,4.2802 -5.03679,7.75 -11.25,7.75z" fill="#b6ff00" stroke-linecap="butt"/></g><g stroke-linecap="butt"><path d="M213.42307,156.6924c-0.55836,-0.21398 -0.70016,-8.60022 -0.74914,-16.46636c-0.04219,-6.77703 -0.24,-13.16801 2.05572,-13.61431c2.53816,-0.49343 44.10222,-0.12705 45.51259,0.38898c3.23058,1.18202 2.54893,28.24536 0,29.82135c-1.83258,1.13307 -44.41325,0.79235 -46.81917,-0.12966z" fill="#fea3c1" stroke="none" stroke-width="0"/><path d="M215.42355,138.77763v-10.5h46v10.5z" fill="#ffc7d9" stroke="none" stroke-width="0"/><path d="M217.71588,137.79226c0.40434,-0.02482 0.69797,0.03391 0.69797,0.03391l3.94306,1.36648c0.18482,1.44377 0.56186,2.87578 0.55448,4.33131c-0.02097,4.1365 -2.90772,10.69707 -8.42119,5.83863c-1.87552,-1.65269 0.07298,-7.53065 0.4819,-9.57526c0,0 0.46368,-2.31838 2.74378,-1.99507z" fill="#563741" stroke="none" stroke-width="0.5"/><path d="M260.09366,138.93992c0.66145,0.59835 1.11019,1.52616 1.31162,2.4971c1.69677,1.34751 3.19127,2.92084 1.80457,5.852c-1.48419,3.13721 -6.76799,4.15887 -9.21964,1.57359c-1.64995,-1.73989 -0.80426,-7.59243 1.76806,-9.82834c0.35983,-0.67455 1.12591,-1.51402 2.65559,-1.20808c0.89944,0.17989 1.40287,0.62378 1.67981,1.11373z" fill="#563741" stroke="none" stroke-width="0.5"/><path d="M213.92355,158.27763v-5.5h48.5v5.5z" fill="#a06778" stroke="none" stroke-width="0"/><path d="M213.92307,157.6924c-0.55836,-0.21398 -0.70016,-8.60022 -0.74914,-16.46636c-0.04219,-6.77703 -0.24,-13.16801 2.05572,-13.61431c2.53816,-0.49343 44.10222,-0.12705 45.51259,0.38898c3.23058,1.18202 2.54893,28.24536 0,29.82135c-1.83258,1.13307 -44.41325,0.79235 -46.81917,-0.12966z" fill="none" stroke="#000000" stroke-width="5"/></g></g><g><g stroke-linecap="round"><path d="M268.42355,170.22236c0,0 -8.28724,28.8511 -8.5,53c-0.21276,24.14889 7.5,60.5 7.5,60.5l-58,-2c0,0 7.18378,-40.00831 7,-60.5c-0.18378,-20.49169 -8,-51 -8,-51z" fill="#f7f6f6" stroke="none" stroke-width="0"/><path d="M211.92355,279.72236l9,-53.5l-7.5,-53h50l-7,50.5l7.5,56.5z" fill="none" stroke="#c6c7c7" stroke-width="5"/><path d="M268.42355,171.22236c0,0 -8.28724,28.8511 -8.5,53c-0.21276,24.14889 7.5,60.5 7.5,60.5l-58,-2c0,0 7.18378,-40.00831 7,-60.5c-0.18378,-20.49169 -8,-51 -8,-51z" fill="none" stroke="#000000" stroke-width="5"/></g><path d="M230.92355,201.97236c0,-4.00406 3.24594,-7.25 7.25,-7.25c4.00406,0 7.25,3.24594 7.25,7.25c0,4.00406 -3.24594,7.25 -7.25,7.25c-4.00406,0 -7.25,-3.24594 -7.25,-7.25z" fill="#ffd901" stroke="none" stroke-width="NaN" stroke-linecap="butt"/><path d="M230.92355,220.47236c0,-4.00406 3.24593,-7.25 7.25,-7.25c4.00407,0 7.25,3.24594 7.25,7.25c0,4.00406 -3.24593,7.25 -7.25,7.25c-4.00407,0 -7.25,-3.24594 -7.25,-7.25z" fill="#ffd901" stroke="none" stroke-width="NaN" stroke-linecap="butt"/><path d="M230.92355,238.47236c0,-4.00406 3.24593,-7.25 7.25,-7.25c4.00407,0 7.25,3.24594 7.25,7.25c0,4.00407 -3.24593,7.25 -7.25,7.25c-4.00407,0 -7.25,-3.24593 -7.25,-7.25z" fill="#ffd901" stroke="none" stroke-width="NaN" stroke-linecap="butt"/></g><g stroke-linecap="round"><path d="M282.92355,284.02763c0,0 15.90382,46.40099 10.5,46.49834c-7.36964,0.13277 -27.15314,-0.72421 -33,-0.56705c-7.9925,0.21483 9.73791,-9.4587 9.5,-19.84686c-0.23791,-10.38815 -10.5,-23.81622 -10.5,-23.81622z" fill="#c41414" stroke="none" stroke-width="0"/><path d="M285.79855,300.72237c0,0 2.7734,7.21957 3.63711,11.31281c1.02515,4.85834 3.36289,17.43719 3.36289,17.43719l-31.25,-1.25l9.75,-15.25c0,0 -0.03933,-5.56974 -0.26544,-7.69517c-0.1799,-1.69107 -0.48456,-4.55483 -0.48456,-4.55483z" fill="#5a5b5a" stroke="#5a5b5a" stroke-width="0.5"/><path d="M282.92355,284.27763c0,0 15.90382,46.40099 10.5,46.49834c-7.36964,0.13277 -27.15314,-0.72421 -33,-0.56705c-7.9925,0.21483 9.73791,-9.4587 9.5,-19.84686c-0.23791,-10.38815 -10.5,-23.81622 -10.5,-23.81622z" fill="none" stroke="#000000" stroke-width="5"/></g></g></g></svg>