<svg version="1.1" xmlns="http://www.w3.org/2000/svg" xmlns:xlink="http://www.w3.org/1999/xlink" width="331.42674" height="316.10894" viewBox="0,0,331.42674,316.10894"><g transform="translate(-53.11571,-17.16702)"><g data-paper-data="{&quot;isPaintingLayer&quot;:true}" fill-rule="nonzero" stroke-linejoin="miter" stroke-miterlimit="10" stroke-dasharray="" stroke-dashoffset="0" style="mix-blend-mode: normal"><g stroke="#000000" stroke-width="5"><path d="M147.01565,253.3721l57.23831,12.24847l-2.28436,12.79772l-57.41404,-11.26403z" fill="#825800" stroke-linecap="round"/><path d="M144.55555,267.15426c0,0 -0.8519,16.50875 -2.70623,21.89372c-1.63239,4.74048 -8.91129,9.04627 -8.91129,9.04627c0,0 -1.08667,-12.17705 -0.65866,-17.61176c0.36343,-4.61479 3.06479,-12.94082 3.06479,-12.94082l2.31929,-15.8389c0,0 0.98204,-10.46431 2.48722,-15.62259c1.54588,-5.29776 6.6692,-15.7567 6.6692,-15.7567c0,0 4.23472,7.41535 4.37304,12.56446c0.14882,5.53967 -3.50933,19.58759 -3.50933,19.58759z" fill="#00a5a5" stroke-linecap="round"/><path d="M133.01756,272.77921l-58.00081,-4.35658l-17.86893,-21.2231l21.23281,-9.69361l60.0171,4.54268z" fill="#00ffff" stroke-linecap="round"/><path d="M224.15522,276.48104c-1.09718,6.14674 -6.83484,10.26425 -12.81545,9.19673c-5.98061,-1.06752 -9.93942,-6.91582 -8.84224,-13.06256c1.09718,-6.14674 6.83484,-10.26425 12.81545,-9.19673c5.98061,1.06752 9.93942,6.91582 8.84224,13.06256z" fill="#00a5a5" stroke-linecap="butt"/></g><g stroke-linecap="butt"><path d="M156.41038,275.60733c-0.25513,-0.8945 6.12391,-32.59913 12.17066,-62.32458c5.20954,-25.60976 10.00328,-49.78507 12.07778,-51.11713c2.2936,-1.47275 33.32028,6.32094 33.98361,8.48798c1.51942,4.96379 -19.92468,107.10258 -23.06365,112.66352c-2.2568,3.99811 -34.06912,-3.85546 -35.16841,-7.70978z" fill="#c41414" stroke="none" stroke-width="0"/><path d="M156.59973,278.56053l4.5273,-23.34606l34.57861,6.5231l-4.52731,23.34605z" fill="#ef99b4" stroke="none" stroke-width="NaN"/><path d="M161.75411,256.89048l2.21259,-15.88082l34.2883,5.28335l-2.21259,15.88082z" fill="#d8d8d8" stroke="none" stroke-width="NaN"/><path d="M155.95084,276.62655c-0.25513,-0.8945 6.12391,-32.59913 12.17066,-62.32458c5.20954,-25.60976 10.00328,-49.78507 12.07778,-51.11713c2.2936,-1.47275 33.32028,6.32094 33.98361,8.48798c1.51942,4.96379 -19.92468,107.10258 -23.06365,112.66352c-2.2568,3.99811 -34.06912,-3.85546 -35.16841,-7.70978z" fill="none" stroke="#000000" stroke-width="5"/></g><g><path d="M278.22566,258.61979c6.71488,-6.72027 57.42166,-25.62202 57.42166,-25.62202c0,0 -0.79551,11.78441 1.33824,16.11711c2.22712,4.52229 11.75636,10.47222 11.75636,10.47222c0,0 -48.36865,19.6993 -61.14466,21.49923c-7.54316,1.0627 -16.08649,-15.74626 -9.3716,-22.46652z" fill="#343545" stroke="none" stroke-width="0" stroke-linecap="butt"/><path d="M352.32865,219.36197c10.99435,-4.58614 23.62485,0.60873 28.211,11.60309c4.58614,10.99435 -0.60873,23.62485 -11.60309,28.211c-10.99436,4.58615 -23.62485,-0.60873 -28.211,-11.60309c-4.58614,-10.99435 0.60873,-23.62485 11.60309,-28.211z" fill="#343545" stroke="none" stroke-width="0" stroke-linecap="butt"/><path d="M324.98523,243.45498l-44.78897,17.51321" fill="none" stroke="#485e84" stroke-width="10" stroke-linecap="round"/><path d="M279.31608,258.83268c6.71488,-6.72027 57.42167,-25.62202 57.42167,-25.62202c0,0 -0.79551,11.78441 1.33823,16.11711c2.22712,4.52229 11.75636,10.47221 11.75636,10.47221c0,0 -48.36865,19.6993 -61.14466,21.49923c-7.54316,1.0627 -16.08649,-15.74626 -9.3716,-22.46652z" fill="none" stroke="#000000" stroke-width="5" stroke-linecap="butt"/><path d="M342.91954,221.6175l29.22511,-1.17314l9.94038,22.22927c0,0 -14.33102,4.62558 -21.00238,4.21224c-7.22245,-0.44748 -22.30545,-11.18725 -22.30545,-11.18725z" fill="#485f85" stroke="none" stroke-width="0" stroke-linecap="butt"/><path d="M351.92564,219.19621c10.99436,-4.58615 23.62485,0.60873 28.211,11.60309c4.58614,10.99435 -0.60874,23.62485 -11.6031,28.211c-10.99436,4.58615 -23.62485,-0.60874 -28.211,-11.60309c-4.58614,-10.99435 0.60874,-23.62484 11.60309,-28.21099z" fill="none" stroke="#000000" stroke-width="5" stroke-linecap="butt"/><path d="M326.2353,240.21535c0.07238,-3.86938 9.69817,-5.68072 9.69817,-5.68072c0,0 3.12417,9.91546 4.99124,14.25273c1.94877,4.52707 6.46678,12.36465 6.46678,12.36465c0,0 -8.70606,3.16433 -11.97599,1.071c-1.93061,-1.23594 -9.25259,-18.13828 -9.18021,-22.00767z" fill="#485f85" stroke="#000101" stroke-width="5" stroke-linecap="butt"/><path d="M339.7977,238.94551l32.13566,-13.40495" fill="none" stroke="#000000" stroke-width="2.5" stroke-linecap="round"/><path d="M344.29754,229.72332l23.27255,-9.04009" fill="none" stroke="#000000" stroke-width="2.5" stroke-linecap="round"/><path d="M379.33061,230.46779l-38.2264,15.61174" fill="none" stroke="#000000" stroke-width="2.5" stroke-linecap="round"/><path d="M346.98527,252.9747l36.30718,-13.80957" fill="none" stroke="#000000" stroke-width="2.5" stroke-linecap="round"/><path d="M381.63647,247.20106l-25.83202,10.10773" fill="none" stroke="#000000" stroke-width="2.5" stroke-linecap="round"/><path d="M344.69896,225.8833l13.42932,33.79484" fill="none" stroke="#000000" stroke-width="2.5" stroke-linecap="round"/><path d="M352.85029,219.81212l15.63612,39.88558" fill="none" stroke="#000000" stroke-width="2.5" stroke-linecap="round"/><path d="M362.21228,218.24398l14.14108,35.50115" fill="none" stroke="#000000" stroke-width="2.5" stroke-linecap="round"/></g><g stroke-linecap="butt"><path d="M292.04286,281.71535c-0.67479,-0.64022 -11.3161,-31.17935 -21.23637,-59.8456c-8.54674,-24.69721 -16.72151,-47.94799 -15.61346,-50.15031c1.22506,-2.43491 31.90041,-11.51345 33.57413,-9.98546c3.8338,3.49996 37.34634,102.33868 37.47379,108.72312c0.09164,4.59016 -31.2905,14.01691 -34.19809,11.25825z" fill="#c41414" stroke="none" stroke-width="0"/><path d="M293.69324,285.06612l-7.26873,-23.05887l32.64383,-13.22353l7.26874,23.05887z" fill="#ef99b4" stroke="none" stroke-width="NaN"/><path d="M287.11908,262.88367l-6.17616,-14.79699l32.20577,-12.89923l6.17616,14.79699z" fill="#d8d8d8" stroke="none" stroke-width="NaN"/><path d="M292.16588,282.8266c-0.67479,-0.64022 -11.3161,-31.17935 -21.23637,-59.8456c-8.54674,-24.69721 -16.72151,-47.94799 -15.61346,-50.15031c1.22506,-2.43491 31.90041,-11.51345 33.57413,-9.98546c3.8338,3.49996 37.34634,102.33868 37.47379,108.72312c0.09164,4.59016 -31.2905,14.01691 -34.19809,11.25825z" fill="none" stroke="#000000" stroke-width="5"/></g><g stroke-linecap="round"><path d="M223.92355,280.77763c0,0 -8.21835,46.28166 -14.5,50c-4.81539,2.85041 -35.33865,0.62525 -38,0.5c-4.28889,-0.20184 12.96934,-20.59166 15.5,-29c2.53066,-8.40834 0,-22.5 0,-22.5z" fill="#c41414" stroke="none" stroke-width="0"/><path d="M217.04855,302.22237l-6.75,23.75l-2.75,3l-12.25,1l-23,-1.25c0,0 11.34523,-14.01854 14.16092,-19.04985c1.84736,-3.301 2.83908,-8.20015 2.83908,-8.20015z" fill="#5b5a5a" stroke="#5b5a5a" stroke-width="0.5"/><path d="M223.42355,282.23473c0,0 -8.10245,44.29607 -14.29551,47.85488c-4.74748,2.72812 -34.84028,0.59843 -37.4641,0.47855c-4.22841,-0.19318 12.78644,-19.70823 15.28141,-27.75583c2.49497,-8.0476 0,-21.5347 0,-21.5347z" fill="none" stroke="#000000" stroke-width="5"/></g><path d="M186.25293,281.77763c-1.15862,-0.82517 -1.45285,-33.16499 -1.55448,-63.49919c-0.08756,-26.13423 -0.49801,-50.77976 4.26568,-52.50081c5.26677,-1.90281 91.51356,-0.48997 94.44013,1.5c6.70357,4.55821 5.28912,108.92251 0,115c-3.80268,4.36948 -92.15895,3.05556 -97.15133,-0.5z" fill="#c41414" stroke="#000000" stroke-width="5" stroke-linecap="butt"/><g><path d="M177.0554,165.27763c-1.37741,-0.82516 -1.7272,-33.16499 -1.84801,-63.49919c-0.10408,-26.13423 -0.59205,-50.77976 5.07118,-52.50081c6.2613,-1.90281 108.79433,-0.48998 112.27353,1.5c7.96942,4.55821 6.28788,108.92251 0,115c-4.52074,4.36948 -109.5616,3.05555 -115.4967,-0.5z" fill="#ffbbce" stroke="#000000" stroke-width="5" stroke-linecap="butt"/><g stroke="#000000" stroke-width="5" stroke-linecap="butt"><path d="M177.85572,112.14285c-0.48517,-0.19746 -0.59805,-7.911 -0.63089,-15.14607c-0.02829,-6.23333 -0.19234,-12.11177 1.80408,-12.51956c2.20725,-0.45086 38.34208,-0.06522 39.56761,0.41106c2.80716,1.09096 2.18102,25.9821 -0.03694,27.42866c-1.59463,1.04002 -38.61332,0.67677 -40.70386,-0.17408z" fill="#ffffff"/><path d="M197.76342,109.77786c-0.23397,-0.19035 0.01058,-6.90642 0.27634,-13.2031c0.22897,-5.42487 0.37648,-10.54612 1.38682,-10.82469c1.11704,-0.308 19.10118,1.40786 19.69306,1.86909c1.35574,1.05651 0.07325,22.69103 -1.08795,23.865c-0.83486,0.84403 -19.26013,-0.88609 -20.26827,-1.7063z" fill="#000000"/></g><g stroke="#000000" stroke-width="5" stroke-linecap="butt"><path d="M253.59222,111.23367c-0.48122,-0.20692 -0.44324,-7.92119 -0.33457,-15.15552c0.09362,-6.23269 0.04456,-12.11321 2.04857,-12.48189c2.21566,-0.40761 38.33603,0.68461 39.55201,1.18477c2.78529,1.14565 1.67249,26.01979 -0.57334,27.4227c-1.61467,1.00864 -38.61916,-0.07849 -40.69266,-0.97006z" fill="#ffffff"/><path d="M273.54236,109.25845c-0.23021,-0.19489 0.14564,-6.9049 0.53449,-13.19518c0.33501,-5.41935 0.58265,-10.53673 1.59825,-10.7955c1.12286,-0.28609 19.07,1.78114 19.65274,2.25386c1.33482,1.08281 -0.37051,22.68812 -1.55445,23.83915c-0.8512,0.82754 -19.23912,-1.26257 -20.23103,-2.10234z" fill="#000000"/></g><g stroke="#000000" stroke-width="5"><path d="M192.42355,20.77763l-0.5,11.5h8l1.5,-12l19.5,-0.5l2,12.5l29,-0.5v-11l21.5,-1l1,14h7.5l1.5,-13.5l19.5,1l-0.5,27.5l-6.5,5.5l-120.5,0.5l-5.5,-2.5l1,-30.5z" fill="#fee70a" stroke-linecap="round"/><path d="M196.42355,50.27763c-4.97057,0 -9,-3.24594 -9,-7.25c0,-4.00406 4.02943,-7.25 9,-7.25c4.97057,0 9,3.24594 9,7.25c0,4.00406 -4.02943,7.25 -9,7.25z" fill="#7e93ff" stroke-linecap="butt"/><path d="M238.42355,51.27763c-6.07513,0 -11,-3.80558 -11,-8.5c0,-4.69442 4.92487,-8.5 11,-8.5c6.07513,0 11,3.80558 11,8.5c0,4.69442 -4.92487,8.5 -11,8.5z" fill="#0026ff" stroke-linecap="butt"/><path d="M278.17355,51.27763c-6.21321,0 -11.25,-3.4698 -11.25,-7.75c0,-4.2802 5.03679,-7.75 11.25,-7.75c6.21321,0 11.25,3.4698 11.25,7.75c0,4.2802 -5.03679,7.75 -11.25,7.75z" fill="#b6ff00" stroke-linecap="butt"/></g><g stroke-linecap="butt"><path d="M213.42307,156.6924c-0.55836,-0.21398 -0.70016,-8.60022 -0.74914,-16.46636c-0.04219,-6.77703 -0.24,-13.16801 2.05572,-13.61431c2.53816,-0.49343 44.10222,-0.12705 45.51259,0.38898c3.23058,1.18202 2.54893,28.24536 0,29.82135c-1.83258,1.13307 -44.41325,0.79235 -46.81917,-0.12966z" fill="#fea3c1" stroke="none" stroke-width="0"/><path d="M215.42355,138.77763v-10.5h46v10.5z" fill="#ffc7d9" stroke="none" stroke-width="0"/><path d="M217.71588,137.79226c0.40434,-0.02482 0.69797,0.03391 0.69797,0.03391l3.94306,1.36648c0.18482,1.44377 0.56186,2.87578 0.55448,4.33131c-0.02097,4.1365 -2.90772,10.69707 -8.42119,5.83863c-1.87552,-1.65269 0.07298,-7.53065 0.4819,-9.57526c0,0 0.46368,-2.31838 2.74378,-1.99507z" fill="#563741" stroke="none" stroke-width="0.5"/><path d="M260.09366,138.93992c0.66145,0.59835 1.11019,1.52616 1.31162,2.4971c1.69677,1.34751 3.19127,2.92084 1.80457,5.852c-1.48419,3.13721 -6.76799,4.15887 -9.21964,1.57359c-1.64995,-1.73989 -0.80426,-7.59243 1.76806,-9.82834c0.35983,-0.67455 1.12591,-1.51402 2.65559,-1.20808c0.89944,0.17989 1.40287,0.62378 1.67981,1.11373z" fill="#563741" stroke="none" stroke-width="0.5"/><path d="M213.92355,158.27763v-5.5h48.5v5.5z" fill="#a06778" stroke="none" stroke-width="0"/><path d="M213.92307,157.6924c-0.55836,-0.21398 -0.70016,-8.60022 -0.74914,-16.46636c-0.04219,-6.77703 -0.24,-13.16801 2.05572,-13.61431c2.53816,-0.49343 44.10222,-0.12705 45.51259,0.38898c3.23058,1.18202 2.54893,28.24536 0,29.82135c-1.83258,1.13307 -44.41325,0.79235 -46.81917,-0.12966z" fill="none" stroke="#000000" stroke-width="5"/></g></g><g><g stroke-linecap="round"><path d="M268.42355,170.22236c0,0 -8.28724,28.8511 -8.5,53c-0.21276,24.14889 7.5,60.5 7.5,60.5l-58,-2c0,0 7.18378,-40.00831 7,-60.5c-0.18378,-20.49169 -8,-51 -8,-51z" fill="#f7f6f6" stroke="none" stroke-width="0"/><path d="M211.92355,279.72236l9,-53.5l-7.5,-53h50l-7,50.5l7.5,56.5z" fill="none" stroke="#c6c7c7" stroke-width="5"/><path d="M268.42355,171.22236c0,0 -8.28724,28.8511 -8.5,53c-0.21276,24.14889 7.5,60.5 7.5,60.5l-58,-2c0,0 7.18378,-40.00831 7,-60.5c-0.18378,-20.49169 -8,-51 -8,-51z" fill="none" stroke="#000000" stroke-width="5"/></g><path d="M230.92355,201.97236c0,-4.00406 3.24594,-7.25 7.25,-7.25c4.00406,0 7.25,3.24594 7.25,7.25c0,4.00406 -3.24594,7.25 -7.25,7.25c-4.00406,0 -7.25,-3.24594 -7.25,-7.25z" fill="#ffd901" stroke="none" stroke-width="NaN" stroke-linecap="butt"/><path d="M230.92355,220.47236c0,-4.00406 3.24593,-7.25 7.25,-7.25c4.00407,0 7.25,3.24594 7.25,7.25c0,4.00406 -3.24593,7.25 -7.25,7.25c-4.00407,0 -7.25,-3.24594 -7.25,-7.25z" fill="#ffd901" stroke="none" stroke-width="NaN" stroke-linecap="butt"/><path d="M230.92355,238.47236c0,-4.00406 3.24593,-7.25 7.25,-7.25c4.00407,0 7.25,3.24594 7.25,7.25c0,4.00407 -3.24593,7.25 -7.25,7.25c-4.00407,0 -7.25,-3.24593 -7.25,-7.25z" fill="#ffd901" stroke="none" stroke-width="NaN" stroke-linecap="butt"/></g><g stroke-linecap="round"><path d="M282.92355,284.02763c0,0 15.90382,46.40099 10.5,46.49834c-7.36964,0.13277 -27.15314,-0.72421 -33,-0.56705c-7.9925,0.21483 9.73791,-9.4587 9.5,-19.84686c-0.23791,-10.38815 -10.5,-23.81622 -10.5,-23.81622z" fill="#c41414" stroke="none" stroke-width="0"/><path d="M285.79855,300.72237c0,0 2.7734,7.21957 3.63711,11.31281c1.02515,4.85834 3.36289,17.43719 3.36289,17.43719l-31.25,-1.25l9.75,-15.25c0,0 -0.03933,-5.56974 -0.26544,-7.69517c-0.1799,-1.69107 -0.48456,-4.55483 -0.48456,-4.55483z" fill="#5a5b5a" stroke="#5a5b5a" stroke-width="0.5"/><path d="M282.92355,284.27763c0,0 15.90382,46.40099 10.5,46.49834c-7.36964,0.13277 -27.15314,-0.72421 -33,-0.56705c-7.9925,0.21483 9.73791,-9.4587 9.5,-19.84686c-0.23791,-10.38815 -10.5,-23.81622 -10.5,-23.81622z" fill="none" stroke="#000000" stroke-width="5"/></g></g></g></svg>