<svg version="1.1" xmlns="http://www.w3.org/2000/svg" xmlns:xlink="http://www.w3.org/1999/xlink" width="138.09688" height="150.6106" viewBox="0,0,138.09688,150.6106"><g transform="translate(-170.94667,-103.00931)"><g data-paper-data="{&quot;isPaintingLayer&quot;:true}" fill-rule="nonzero" stroke-linejoin="miter" stroke-miterlimit="10" stroke-dasharray="" stroke-dashoffset="0" style="mix-blend-mode: normal"><path d="M180.63185,251.11991c-1.37741,-0.82516 -1.7272,-33.16499 -1.84801,-63.49919c-0.10408,-26.13423 -0.59205,-50.77976 5.07118,-52.50081c6.2613,-1.90281 108.79433,-0.48998 112.27353,1.5c7.96942,4.55821 6.28788,108.92251 0,115c-4.52074,4.36948 -109.5616,3.05555 -115.4967,-0.5z" fill="#ffbbce" stroke="#000000" stroke-width="5" stroke-linecap="butt"/><g stroke="#000000" stroke-width="5" stroke-linecap="butt"><path d="M181.43217,197.98513c-0.48517,-0.19746 -0.59805,-7.911 -0.63089,-15.14607c-0.02829,-6.23333 -0.19234,-12.11177 1.80408,-12.51956c2.20725,-0.45086 38.34208,-0.06522 39.56761,0.41106c2.80716,1.09096 2.18102,25.9821 -0.03694,27.42866c-1.59463,1.04002 -38.61332,0.67677 -40.70386,-0.17408z" fill="#ffffff"/><path d="M201.33987,195.62014c-0.23397,-0.19035 0.01058,-6.90642 0.27634,-13.2031c0.22897,-5.42487 0.37648,-10.54612 1.38682,-10.82469c1.11704,-0.308 19.10118,1.40786 19.69306,1.86909c1.35574,1.05651 0.07325,22.69103 -1.08795,23.865c-0.83486,0.84403 -19.26013,-0.88609 -20.26827,-1.7063z" fill="#000000"/></g><g stroke="#000000" stroke-width="5" stroke-linecap="butt"><path d="M257.16867,197.07595c-0.48122,-0.20692 -0.44324,-7.92119 -0.33457,-15.15552c0.09362,-6.23269 0.04456,-12.11321 2.04857,-12.48189c2.21566,-0.40761 38.33603,0.68461 39.55201,1.18477c2.78529,1.14565 1.67249,26.01979 -0.57334,27.4227c-1.61467,1.00864 -38.61916,-0.07849 -40.69266,-0.97006z" fill="#ffffff"/><path d="M277.11881,195.10073c-0.23021,-0.19489 0.14564,-6.9049 0.53449,-13.19518c0.33501,-5.41935 0.58265,-10.53673 1.59825,-10.7955c1.12286,-0.28609 19.07,1.78114 19.65274,2.25386c1.33482,1.08281 -0.37051,22.68812 -1.55445,23.83915c-0.8512,0.82754 -19.23912,-1.26257 -20.23103,-2.10234z" fill="#000000"/></g><path d="M196,106.61991l-0.5,11.5h8l1.5,-12l19.5,-0.5l2,12.5l29,-0.5v-11l21.5,-1l1,14h7.5l1.5,-13.5l19.5,1l-0.5,27.5l-6.5,5.5l-120.5,0.5l-5.5,-2.5l1,-30.5z" fill="#fee70a" stroke="#000000" stroke-width="5" stroke-linecap="round"/><path d="M200,136.1199c-4.97057,0 -9,-3.24594 -9,-7.25c0,-4.00406 4.02943,-7.25 9,-7.25c4.97057,0 9,3.24594 9,7.25c0,4.00406 -4.02943,7.25 -9,7.25z" fill="#7e93ff" stroke="#000000" stroke-width="5" stroke-linecap="butt"/><path d="M242,137.1199c-6.07513,0 -11,-3.80558 -11,-8.5c0,-4.69442 4.92487,-8.5 11,-8.5c6.07513,0 11,3.80558 11,8.5c0,4.69442 -4.92487,8.5 -11,8.5z" fill="#0026ff" stroke="#000000" stroke-width="5" stroke-linecap="butt"/><path d="M281.75,137.1199c-6.21321,0 -11.25,-3.4698 -11.25,-7.75c0,-4.2802 5.03679,-7.75 11.25,-7.75c6.21321,0 11.25,3.4698 11.25,7.75c0,4.2802 -5.03679,7.75 -11.25,7.75z" fill="#b6ff00" stroke="#000000" stroke-width="5" stroke-linecap="butt"/><g stroke-linecap="butt"><path d="M216.99952,242.53468c-0.55836,-0.21398 -0.70016,-8.60022 -0.74914,-16.46636c-0.04219,-6.77703 -0.24,-13.16801 2.05572,-13.61431c2.53816,-0.49343 44.10222,-0.12705 45.51259,0.38898c3.23058,1.18202 2.54893,28.24536 0,29.82135c-1.83258,1.13307 -44.41325,0.79235 -46.81917,-0.12966z" fill="#fea3c1" stroke="none" stroke-width="0"/><path d="M219,224.61991v-10.5h46v10.5z" fill="#ffc7d9" stroke="none" stroke-width="0"/><path d="M221.29233,223.63454c0.40434,-0.02482 0.69797,0.03391 0.69797,0.03391l3.94306,1.36648c0.18482,1.44377 0.56186,2.87578 0.55448,4.33131c-0.02097,4.1365 -2.90772,10.69707 -8.42119,5.83863c-1.87552,-1.65269 0.07298,-7.53065 0.4819,-9.57526c0,0 0.46368,-2.31838 2.74378,-1.99507z" fill="#563741" stroke="none" stroke-width="0.5"/><path d="M263.67011,224.7822c0.66145,0.59835 1.11019,1.52616 1.31162,2.4971c1.69677,1.34751 3.19127,2.92084 1.80457,5.852c-1.48419,3.13721 -6.76799,4.15887 -9.21964,1.57359c-1.64995,-1.73989 -0.80426,-7.59243 1.76806,-9.82834c0.35983,-0.67455 1.12591,-1.51402 2.65559,-1.20808c0.89944,0.17989 1.40287,0.62378 1.67981,1.11373z" fill="#563741" stroke="none" stroke-width="0.5"/><path d="M217.5,244.11991v-5.5h48.5v5.5z" fill="#a06778" stroke="none" stroke-width="0"/><path d="M217.49952,243.53468c-0.55836,-0.21398 -0.70016,-8.60022 -0.74914,-16.46636c-0.04219,-6.77703 -0.24,-13.16801 2.05572,-13.61431c2.53816,-0.49343 44.10222,-0.12705 45.51259,0.38898c3.23058,1.18202 2.54893,28.24536 0,29.82135c-1.83258,1.13307 -44.41325,0.79235 -46.81917,-0.12966z" fill="none" stroke="#000000" stroke-width="5"/></g><path d="M175.44743,156.42808l50.67266,1.3219" fill="none" stroke="#000000" stroke-width="5" stroke-linecap="round"/><path d="M267.98012,145.41229l26.87854,1.76253" fill="none" stroke="#000000" stroke-width="5" stroke-linecap="round"/></g></g></svg>