<svg version="1.1" xmlns="http://www.w3.org/2000/svg" xmlns:xlink="http://www.w3.org/1999/xlink" width="144.72179" height="161.87099" viewBox="0,0,144.72179,161.87099"><g transform="translate(-167.6391,-99.06451)"><g data-paper-data="{&quot;isPaintingLayer&quot;:true}" fill-rule="nonzero" stroke-linejoin="miter" stroke-miterlimit="10" stroke-dasharray="" stroke-dashoffset="0" style="mix-blend-mode: normal"><g fill="#c30000" stroke="none" stroke-width="0"><path d="M175.39951,257.38797c-1.49881,-0.89788 -1.87942,-36.08795 -2.01088,-69.09561c-0.11325,-28.43754 -0.64423,-55.25517 5.51812,-57.1279c6.81313,-2.07051 118.38279,-0.53316 122.16862,1.6322c8.6718,4.95994 6.84205,118.52226 0,125.13539c-4.91917,4.75458 -119.21768,3.32485 -125.67586,-0.54407z" stroke-linecap="butt"/><path d="M176.27037,199.57022c-0.52793,-0.21486 -0.65076,-8.60823 -0.68649,-16.48095c-0.03078,-6.7827 -0.20929,-13.17923 1.96308,-13.62296c2.40178,-0.4906 41.72131,-0.07097 43.05485,0.44729c3.05457,1.18711 2.37324,28.272 -0.0402,29.84605c-1.73517,1.13168 -42.01646,0.73642 -44.29125,-0.18942z" stroke-linecap="butt"/><path d="M197.93261,196.63408c-0.25459,-0.20713 0.01151,-7.51511 0.30069,-14.36674c0.24915,-5.90298 0.40966,-11.47559 1.50905,-11.77871c1.21549,-0.33515 20.78464,1.53194 21.42868,2.03382c1.47523,1.14962 0.07971,24.69088 -1.18384,25.96831c-0.90844,0.91842 -20.9576,-0.96418 -22.05459,-1.85668z" stroke-linecap="butt"/><path d="M258.68181,198.58091c-0.52363,-0.22516 -0.4823,-8.61931 -0.36406,-16.49123c0.10187,-6.782 0.04849,-13.18079 2.22912,-13.58197c2.41093,-0.44353 41.71473,0.74495 43.03788,1.28919c3.03077,1.24662 1.81989,28.31301 -0.62387,29.83957c-1.75698,1.09754 -42.02281,-0.08541 -44.27906,-1.05556z" stroke-linecap="butt"/><path d="M280.39023,196.43161c-0.2505,-0.21207 0.15848,-7.51345 0.5816,-14.35812c0.36454,-5.89698 0.634,-11.46537 1.73911,-11.74695c1.22182,-0.3113 20.75071,1.93812 21.38481,2.4525c1.45246,1.17824 -0.40316,24.68771 -1.69145,25.94018c-0.92622,0.90047 -20.93474,-1.37385 -22.01407,-2.28763z" stroke-linecap="butt"/><path d="M192.12211,100.15264l-0.54407,12.51354h8.70507l1.6322,-13.05761l21.21861,-0.54407l2.17627,13.60167l31.55588,-0.54407v-11.96947l23.39488,-1.08813l1.08813,15.23387h8.161l1.6322,-14.68981l21.21861,1.08813l-0.54407,29.92368l-7.07287,5.98474l-131.12012,0.54407l-5.98474,-2.72033l1.08813,-33.18808z" stroke-linecap="round"/><path d="M196.47465,132.25258c-5.40865,0 -9.7932,-3.53202 -9.7932,-7.88897c0,-4.35695 4.38456,-7.88897 9.7932,-7.88897c5.40865,0 9.7932,3.53202 9.7932,7.88897c0,4.35695 -4.38456,7.88897 -9.7932,7.88897z" stroke-linecap="butt"/><path d="M242.17627,133.34071c-6.61055,0 -11.96947,-4.14098 -11.96947,-9.24914c0,-5.10816 5.35892,-9.24914 11.96947,-9.24914c6.61055,0 11.96947,4.14098 11.96947,9.24914c0,5.10816 -5.35892,9.24914 -11.96947,9.24914z" stroke-linecap="butt"/><path d="M285.42959,133.34071c-6.7608,0 -12.24151,-3.77561 -12.24151,-8.43304c0,-4.65743 5.4807,-8.43304 12.24151,-8.43304c6.7608,0 12.24151,3.77561 12.24151,8.43304c0,4.65743 -5.4807,8.43304 -12.24151,8.43304z" stroke-linecap="butt"/><path d="M214.9724,248.04609c-0.60757,-0.23284 -0.76187,-9.35819 -0.81516,-17.9176c-0.04591,-7.37432 -0.26115,-14.32856 2.2369,-14.81419c2.76186,-0.53692 47.98912,-0.13825 49.52379,0.42326c3.5153,1.2862 2.77358,30.73473 0,32.44962c-1.99409,1.23293 -48.32756,0.86218 -50.94552,-0.14109z" stroke-linecap="butt"/><path d="M217.14919,228.55243v-11.4254h50.05415v11.4254z" stroke-linecap="butt"/><path d="M219.64355,227.48021c0.43998,-0.02701 0.75948,0.0369 0.75948,0.0369l4.29058,1.48691c0.20111,1.57101 0.61138,3.12923 0.60335,4.71304c-0.02282,4.50107 -3.16399,11.63984 -9.16338,6.35321c-2.04082,-1.79835 0.07941,-8.19435 0.52437,-10.41916c0,0 0.50455,-2.52271 2.9856,-2.1709z" stroke-linecap="butt"/><path d="M265.75625,228.72902c0.71975,0.65108 1.20804,1.66067 1.42722,2.71718c1.84631,1.46627 3.47253,3.17826 1.96361,6.36776c-1.615,3.4137 -7.36448,4.52541 -10.0322,1.71228c-1.79537,-1.89323 -0.87514,-8.26158 1.92389,-10.69455c0.39154,-0.734 1.22514,-1.64746 2.88964,-1.31455c0.97871,0.19574 1.52651,0.67876 1.82786,1.21189z" stroke-linecap="butt"/><path d="M215.51699,249.77104v-5.98474h52.77449v5.98474z" stroke-linecap="butt"/><path d="M215.51647,249.13423c-0.60757,-0.23284 -0.76187,-9.35819 -0.81516,-17.9176c-0.04591,-7.37432 -0.26115,-14.32856 2.2369,-14.81419c2.76186,-0.53692 47.98912,-0.13825 49.52379,0.42326c3.5153,1.2862 2.77358,30.73473 0,32.44962c-1.99409,1.23293 -48.32756,0.86218 -50.94552,-0.14109z" stroke-linecap="butt"/></g><g><path d="M180.63185,251.11991c-1.37741,-0.82516 -1.7272,-33.16499 -1.84801,-63.49919c-0.10408,-26.13423 -0.59205,-50.77976 5.07118,-52.50081c6.2613,-1.90281 108.79433,-0.48998 112.27353,1.5c7.96942,4.55821 6.28788,108.92251 0,115c-4.52074,4.36948 -109.5616,3.05555 -115.4967,-0.5z" fill="#ffbbce" stroke="#270000" stroke-width="5" stroke-linecap="butt"/><path d="M181.43217,197.98513c-0.48517,-0.19746 -0.59805,-7.911 -0.63089,-15.14607c-0.02829,-6.23333 -0.19234,-12.11177 1.80408,-12.51956c2.20725,-0.45086 38.34208,-0.06522 39.56761,0.41106c2.80716,1.09096 2.18102,25.9821 -0.03694,27.42866c-1.59463,1.04002 -38.61332,0.67677 -40.70386,-0.17408z" fill="#ffeaea" stroke="#2b0000" stroke-width="5" stroke-linecap="butt"/><path d="M201.33987,195.2868c-0.23397,-0.19035 0.01058,-6.90642 0.27634,-13.2031c0.22897,-5.42487 0.37648,-10.54612 1.38682,-10.82469c1.11704,-0.308 19.10118,1.40786 19.69306,1.86909c1.35574,1.05651 0.07325,22.69103 -1.08795,23.865c-0.83486,0.84403 -19.26013,-0.88609 -20.26827,-1.7063z" fill="#ff0000" stroke="#2b0000" stroke-width="5" stroke-linecap="butt"/><path d="M257.16867,197.07595c-0.48122,-0.20692 -0.44324,-7.92119 -0.33457,-15.15552c0.09362,-6.23269 0.04456,-12.11321 2.04857,-12.48189c2.21566,-0.40761 38.33603,0.68461 39.55201,1.18477c2.78529,1.14565 1.67249,26.01979 -0.57334,27.4227c-1.61467,1.00864 -38.61916,-0.07849 -40.69266,-0.97006z" fill="#ffe2e2" stroke="#2b0000" stroke-width="5" stroke-linecap="butt"/><path d="M277.11881,195.10073c-0.23021,-0.19489 0.14564,-6.9049 0.53449,-13.19518c0.33501,-5.41935 0.58265,-10.53673 1.59825,-10.7955c1.12286,-0.28609 19.07,1.78114 19.65274,2.25386c1.33482,1.08281 -0.37051,22.68812 -1.55445,23.83915c-0.8512,0.82754 -19.23912,-1.26257 -20.23103,-2.10234z" fill="#ff0000" stroke="#2b0000" stroke-width="5" stroke-linecap="butt"/><path d="M196,106.61991l-0.5,11.5h8l1.5,-12l19.5,-0.5l2,12.5l29,-0.5v-11l21.5,-1l1,14h7.5l1.5,-13.5l19.5,1l-0.5,27.5l-6.5,5.5l-120.5,0.5l-5.5,-2.5l1,-30.5z" fill="#fee70a" stroke="#2f0000" stroke-width="5" stroke-linecap="round"/><path d="M200,136.1199c-4.97057,0 -9,-3.24594 -9,-7.25c0,-4.00406 4.02943,-7.25 9,-7.25c4.97057,0 9,3.24594 9,7.25c0,4.00406 -4.02943,7.25 -9,7.25z" fill="#7e93ff" stroke="#2b0000" stroke-width="5" stroke-linecap="butt"/><path d="M242,137.1199c-6.07513,0 -11,-3.80558 -11,-8.5c0,-4.69442 4.92487,-8.5 11,-8.5c6.07513,0 11,3.80558 11,8.5c0,4.69442 -4.92487,8.5 -11,8.5z" fill="#0026ff" stroke="#2b0000" stroke-width="5" stroke-linecap="butt"/><path d="M281.75,137.1199c-6.21321,0 -11.25,-3.4698 -11.25,-7.75c0,-4.2802 5.03679,-7.75 11.25,-7.75c6.21321,0 11.25,3.4698 11.25,7.75c0,4.2802 -5.03679,7.75 -11.25,7.75z" fill="#b6ff00" stroke="#2b0000" stroke-width="5" stroke-linecap="butt"/><path d="M216.99952,242.53468c-0.55836,-0.21398 -0.70016,-8.60022 -0.74914,-16.46636c-0.04219,-6.77703 -0.24,-13.16801 2.05572,-13.61431c2.53816,-0.49343 44.10222,-0.12705 45.51259,0.38898c3.23058,1.18202 2.54893,28.24536 0,29.82135c-1.83258,1.13307 -44.41325,0.79235 -46.81917,-0.12966z" fill="#fea3c1" stroke="none" stroke-width="0" stroke-linecap="butt"/><path d="M219,224.61991v-10.5h46v10.5z" fill="#ffc7d9" stroke="none" stroke-width="0" stroke-linecap="butt"/><path d="M221.29233,223.63454c0.40434,-0.02482 0.69797,0.03391 0.69797,0.03391l3.94306,1.36648c0.18482,1.44377 0.56186,2.87578 0.55448,4.33131c-0.02097,4.1365 -2.90772,10.69707 -8.42119,5.83863c-1.87552,-1.65269 0.07298,-7.53065 0.4819,-9.57526c0,0 0.46368,-2.31838 2.74378,-1.99507z" fill="#563741" stroke="none" stroke-width="0.5" stroke-linecap="butt"/><path d="M263.67011,224.7822c0.66145,0.59835 1.11019,1.52616 1.31162,2.4971c1.69677,1.34751 3.19127,2.92084 1.80457,5.852c-1.48419,3.13721 -6.76799,4.15887 -9.21964,1.57359c-1.64995,-1.73989 -0.80426,-7.59243 1.76806,-9.82834c0.35983,-0.67455 1.12591,-1.51402 2.65559,-1.20808c0.89944,0.17989 1.40287,0.62378 1.67981,1.11373z" fill="#563741" stroke="none" stroke-width="0.5" stroke-linecap="butt"/><path d="M217.5,244.11991v-5.5h48.5v5.5z" fill="#a06778" stroke="none" stroke-width="0" stroke-linecap="butt"/><path d="M217.49952,243.53468c-0.55836,-0.21398 -0.70016,-8.60022 -0.74914,-16.46636c-0.04219,-6.77703 -0.24,-13.16801 2.05572,-13.61431c2.53816,-0.49343 44.10222,-0.12705 45.51259,0.38898c3.23058,1.18202 2.54893,28.24536 0,29.82135c-1.83258,1.13307 -44.41325,0.79235 -46.81917,-0.12966z" fill="none" stroke="#2f0000" stroke-width="5" stroke-linecap="butt"/></g></g></g></svg>