<svg version="1.1" xmlns="http://www.w3.org/2000/svg" xmlns:xlink="http://www.w3.org/1999/xlink" width="339.0353" height="268.65581" viewBox="0,0,339.0353,268.65581"><g transform="translate(-46.96322,-64.81827)"><g data-paper-data="{&quot;isPaintingLayer&quot;:true}" fill-rule="nonzero" stroke-linejoin="miter" stroke-miterlimit="10" stroke-dasharray="" stroke-dashoffset="0" style="mix-blend-mode: normal"><g stroke-linecap="round"><path d="M290.31794,290.62853c0,0 17.5362,40.04578 11.57773,40.1298c-8.12607,0.11458 -29.94016,-0.62502 -36.38714,-0.48938c-8.81285,0.18541 10.73741,-8.16321 10.47509,-17.12857c-0.26233,-8.96535 -11.57773,-20.55429 -11.57773,-20.55429z" fill="#c41414" stroke="none" stroke-width="0"/><path d="M293.48803,305.03671c0,0 3.05806,6.23076 4.01042,9.76338c1.13037,4.19293 3.70806,15.04894 3.70806,15.04894l-34.45752,-1.0788l10.75075,-13.16132c0,0 -0.04336,-4.80689 -0.29269,-6.64121c-0.19836,-1.45946 -0.53429,-3.93099 -0.53429,-3.93099z" fill="#5a5b5a" stroke="#5a5b5a" stroke-width="0.5"/><path d="M290.31794,290.84428c0,0 17.5362,40.04578 11.57773,40.1298c-8.12607,0.11458 -29.94016,-0.62502 -36.38714,-0.48938c-8.81285,0.18541 10.73741,-8.16321 10.47509,-17.12857c-0.26233,-8.96535 -11.57773,-20.55429 -11.57773,-20.55429z" fill="none" stroke="#000000" stroke-width="5"/></g><g stroke="#000000" stroke-width="5"><path d="M110.21533,222.89074l26.58826,46.03154l-12.85213,4.96849l-27.57688,-45.64934z" fill="#825800" stroke-linecap="round"/><path d="M96.37457,228.2414c0,0 -15.20803,7.86432 -21.20036,9.33458c-5.27515,1.2943 -13.85977,-1.55612 -13.85977,-1.55612c0,0 10.09525,-6.99207 15.19832,-9.47854c4.33318,-2.11134 13.48987,-4.4997 13.48987,-4.4997l15.57385,-6.50197c0,0 9.9291,-4.67786 15.4918,-6.27453c5.71309,-1.63983 18.34759,-3.43841 18.34759,-3.43841c0,0 -3.80939,6.73969 -8.28839,9.47322c-4.81873,2.94087 -19.67937,7.59551 -19.67937,7.59551z" fill="#00a5a5" stroke-linecap="round"/><path d="M83.83204,223.10832l-34.09081,-42.51882l7.14039,-23.28255l22.49771,9.78306l35.24518,44.01464z" fill="#00ffff" stroke-linecap="round"/><path d="M140.1894,288.30857c-6.17287,2.38637 -13.58176,0.51003 -16.54825,-4.19088c-2.96649,-4.70092 -0.36721,-10.44629 5.80566,-12.83266c6.17287,-2.38637 13.58176,-0.51003 16.54826,4.19088c2.96649,4.70092 0.3672,10.4463 -5.80567,12.83266z" fill="#00a5a5" stroke-linecap="butt"/></g><g stroke-linecap="butt"><path d="M97.09012,239.89931c0.55155,-0.67681 31.37943,-14.70517 60.33109,-27.81522c24.9431,-11.29488 48.3984,-22.03717 51.01478,-21.45979c2.89273,0.63837 19.15257,25.13926 17.84945,26.80815c-2.98489,3.82275 -102.95265,48.43899 -109.83721,49.5948c-4.94973,0.83098 -21.73472,-24.21162 -19.3581,-27.12794z" fill="#c41414" stroke="none" stroke-width="0"/><path d="M94.79161,241.71209l22.57615,-10.43972l19.90601,26.06771l-22.57614,10.43971z" fill="#ef99b4" stroke="none" stroke-width="NaN"/><path d="M116.44332,232.63677l14.72299,-7.66147l20.71674,25.17053l-14.72299,7.66148z" fill="#d8d8d8" stroke="none" stroke-width="NaN"/><path d="M95.91297,240.18593c0.55155,-0.67681 31.37943,-14.70517 60.33108,-27.81522c24.9431,-11.29488 48.39841,-22.03718 51.0148,-21.4598c2.89273,0.63837 19.15258,25.13926 17.84945,26.80816c-2.98489,3.82275 -102.95266,48.43899 -109.83722,49.5948c-4.94973,0.83098 -21.73472,-24.21162 -19.3581,-27.12794z" fill="none" stroke="#000000" stroke-width="5"/></g><g><path d="M357.38637,268.14376c-5.77314,-6.17053 -15.6681,-51.99523 -15.6681,-51.99523c0,0 12.3121,0.99723 17.32244,-0.80684c5.22959,-1.88302 13.4255,-10.26457 13.4255,-10.26457c0,0 11.20502,43.75211 10.5631,55.22626c-0.37901,6.77453 -19.86982,14.0109 -25.64293,7.84037z" fill="#343545" stroke="none" stroke-width="0" stroke-linecap="butt"/><path d="M330.61352,200.89359c-2.66168,-9.94763 5.35341,-21.12213 17.90218,-24.95894c12.54878,-3.83681 24.8793,1.11698 27.541,11.0646c2.66168,9.94763 -5.3534,21.12213 -17.90218,24.95894c-12.54878,3.83681 -24.87931,-1.11697 -27.541,-11.0646z" fill="#343545" stroke="none" stroke-width="0" stroke-linecap="butt"/><path d="M360.26433,266.43759l-9.60518,-40.49647" fill="none" stroke="#485e84" stroke-width="10" stroke-linecap="round"/><path d="M357.82901,267.17334c-5.77314,-6.17053 -15.6681,-51.99523 -15.6681,-51.99523c0,0 12.3121,0.99723 17.32246,-0.80683c5.22959,-1.88302 13.42549,-10.26457 13.42549,-10.26457c0,0 11.20502,43.75211 10.5631,55.22626c-0.37901,6.77453 -19.86982,14.01091 -25.64293,7.84038z" fill="none" stroke="#000000" stroke-width="5" stroke-linecap="butt"/><path d="M331.12487,209.36646l4.58408,-26.17578l25.50525,-8.35501c0,0 2.0383,12.93386 0.27108,18.89264c-1.9132,6.45101 -16.28495,19.6854 -16.28495,19.6854z" fill="#485f85" stroke="none" stroke-width="0" stroke-linecap="butt"/><path d="M330.3578,201.25015c-2.66168,-9.94763 5.3534,-21.12213 17.90217,-24.95895c12.54878,-3.83681 24.8793,1.11699 27.54101,11.06461c2.66168,9.94763 -5.35341,21.12212 -17.90218,24.95894c-12.54878,3.83681 -24.87929,-1.11698 -27.54099,-11.06461z" fill="none" stroke="#000000" stroke-width="5" stroke-linecap="butt"/><path d="M347.48005,224.74422c-4.08029,-0.1585 -4.07838,-8.81447 -4.07838,-8.81447c0,0 11.11564,-2.55495 16.07765,-4.12031c5.17915,-1.63388 14.37375,-5.4862 14.37375,-5.4862c0,0 1.61321,7.86586 -1.25384,10.74072c-1.69276,1.69735 -21.03893,7.83875 -25.11921,7.68025z" fill="#485f85" stroke="#000101" stroke-width="5" stroke-linecap="butt"/><path d="M341.0598,183.50318l7.7799,29.07616" fill="none" stroke="#000000" stroke-width="2.5" stroke-linecap="round"/><path d="M339.97741,208.32995l-4.92756,-21.04068" fill="none" stroke="#000000" stroke-width="2.5" stroke-linecap="round"/><path d="M347.74848,177.00432l8.90111,34.57894" fill="none" stroke="#000000" stroke-width="2.5" stroke-linecap="round"/><path d="M357.74204,173.67041l7.37656,32.81818" fill="none" stroke="#000000" stroke-width="2.5" stroke-linecap="round"/><path d="M365.91585,175.34668l5.54718,23.35649" fill="none" stroke="#000000" stroke-width="2.5" stroke-linecap="round"/><path d="M374.43358,196.68146l-38.4398,11.19632" fill="none" stroke="#000000" stroke-width="2.5" stroke-linecap="round"/><path d="M376.51899,187.41462l-45.32511,13.02317" fill="none" stroke="#000000" stroke-width="2.5" stroke-linecap="round"/><path d="M371.78793,180.23194l-40.38735,11.7918" fill="none" stroke="#000000" stroke-width="2.5" stroke-linecap="round"/></g><g stroke-linecap="butt"><path d="M378.78848,259.27939c-0.79005,0.653 -33.64086,11.18938 -64.46164,21.01412c-26.55344,8.46444 -51.5806,16.55614 -53.52873,15.52186c-2.1539,-1.14351 -4.3256,-30.3826 -2.42581,-32.00158c4.35158,-3.70841 110.46377,-36.92156 116.86083,-37.11803c4.59924,-0.14125 6.95965,29.76993 3.55539,32.58362z" fill="#c41414" stroke="none" stroke-width="0"/><path d="M382.50123,257.66146l-24.63239,7.22272l-5.86453,-31.07383l24.63239,-7.22273z" fill="#ef99b4" stroke="none" stroke-width="NaN"/><path d="M358.89893,264.20952l-16.146,6.08107l-5.63937,-30.65855l16.146,-6.08107z" fill="#d8d8d8" stroke="none" stroke-width="NaN"/><path d="M379.92455,259.14873c-0.79005,0.653 -33.64086,11.18938 -64.46164,21.01412c-26.55344,8.46444 -51.58061,16.55615 -53.52875,15.52187c-2.1539,-1.14351 -4.3256,-30.3826 -2.42582,-32.00156c4.35158,-3.70841 110.46377,-36.92156 116.86084,-37.11803c4.59924,-0.14125 6.95965,29.76993 3.55539,32.58362z" fill="none" stroke="#000000" stroke-width="5"/></g><g stroke-linecap="round"><path d="M225.26213,287.82366c0,0 -9.06189,39.94279 -15.98829,43.15185c-5.30965,2.46001 -38.96583,0.53962 -41.90035,0.43152c-4.7291,-0.1742 14.30052,-17.77136 17.09093,-25.02808c2.79041,-7.25671 0,-19.41833 0,-19.41833z" fill="#c41414" stroke="none" stroke-width="0"/><path d="M217.68148,306.33126l-7.44283,20.49713l-3.03226,2.58911l-13.50735,0.86303l-25.36074,-1.0788c0,0 12.50971,-12.09852 15.61441,-16.44073c2.03698,-2.84889 3.13049,-7.07704 3.13049,-7.07704z" fill="#5b5a5a" stroke="#5b5a5a" stroke-width="0.5"/><path d="M224.71082,289.08118c0,0 -8.9341,38.22915 -15.76281,41.30054c-5.23476,2.35447 -38.41631,0.51647 -41.30944,0.41301c-4.66241,-0.16672 14.09885,-17.00894 16.84991,-23.95431c2.75105,-6.94538 0,-18.58525 0,-18.58525z" fill="none" stroke="#000000" stroke-width="5"/></g><path d="M181.05585,287.87689c-1.13273,-0.84911 3.69663,-28.5036 8.41672,-54.4213c4.06656,-22.32923 7.54372,-43.42737 13.01537,-44.30332c6.0495,-0.96847 99.92656,10.98886 102.80275,13.05307c6.58819,4.72826 -11.57596,93.67779 -18.3147,98.2086c-4.8449,3.25747 -101.03932,-8.87833 -105.92015,-12.53704z" fill="#c41414" stroke="#000000" stroke-width="5" stroke-linecap="butt"/><g><g stroke-linecap="round"><path d="M288.47657,202.85274c0,0 -13.63679,23.60547 -17.71485,44.20182c-4.07805,20.59633 -1.45204,52.60115 -1.45204,52.60115l-62.96406,-8.93776c0,0 14.20972,-33.27115 17.27267,-50.7937c3.06295,-17.52256 -0.60646,-44.55058 -0.60646,-44.55058z" fill="#f7f6f6" stroke="none" stroke-width="0"/><path d="M209.39183,289.32159l18.34002,-44.56649l0.25759,-46.19624l54.55395,6.23257l-15.68009,42.25383l-0.815,49.1852z" fill="none" stroke="#c6c7c7" stroke-width="5"/><path d="M288.31731,203.70672c0,0 -13.63679,23.60546 -17.71485,44.20181c-4.07805,20.59633 -1.45204,52.60115 -1.45204,52.60115l-62.96407,-8.93776c0,0 14.20973,-33.27114 17.27268,-50.79369c3.06295,-17.52256 -0.60646,-44.55059 -0.60646,-44.55059z" fill="none" stroke="#000000" stroke-width="5"/></g><path d="M242.50466,225.29242c0.63768,-3.41941 4.69619,-5.78679 9.06494,-5.28768c4.36874,0.49912 7.39338,3.67571 6.7557,7.09513c-0.63768,3.41941 -4.6962,5.7868 -9.06495,5.28769c-4.36874,-0.49912 -7.39337,-3.67572 -6.75569,-7.09514z" fill="#ffd901" stroke="none" stroke-width="NaN" stroke-linecap="butt"/><path d="M239.55838,241.0912c0.63768,-3.41941 4.69619,-5.78679 9.06495,-5.28768c4.36876,0.49912 7.39337,3.67572 6.7557,7.09513c-0.63768,3.41941 -4.69619,5.7868 -9.06494,5.28769c-4.36876,-0.49912 -7.39338,-3.67572 -6.7557,-7.09514z" fill="#ffd901" stroke="none" stroke-width="NaN" stroke-linecap="butt"/><path d="M236.69174,256.46297c0.63768,-3.41941 4.69618,-5.78679 9.06494,-5.28768c4.36876,0.49912 7.39338,3.67572 6.7557,7.09513c-0.63768,3.41943 -4.69619,5.7868 -9.06495,5.28769c-4.36876,-0.49912 -7.39337,-3.67571 -6.75569,-7.09514z" fill="#ffd901" stroke="none" stroke-width="NaN" stroke-linecap="butt"/></g><g><path d="M189.44101,189.72377c-1.29144,-0.94791 5.88936,-28.28829 12.84822,-53.89519c5.99535,-22.06145 11.22913,-42.93749 17.73398,-43.35318c7.1918,-0.4596 117.35028,19.48687 120.63438,21.80168c7.52253,5.30226 -18.67917,93.01873 -26.87522,96.99452c-5.89265,2.85844 -118.77665,-17.46334 -124.34133,-21.54781z" fill="#ffbbce" stroke="#000000" stroke-width="5" stroke-linecap="butt"/><g stroke="#000000" stroke-width="5" stroke-linecap="butt"><path d="M202.7209,145.05466c-0.47667,-0.2553 1.20434,-6.78177 2.85977,-12.89005c1.42624,-5.26255 2.62323,-10.25061 4.86984,-10.22938c2.48388,0.02347 41.33231,6.95833 42.54164,7.58421c2.77002,1.43363 -3.72172,22.31304 -6.44982,23.12741c-1.96141,0.5855 -41.76752,-6.49216 -43.82142,-7.59217z" fill="#ffffff"/><path d="M224.72594,146.70138c-0.20764,-0.20334 1.62541,-5.82314 3.38332,-11.08535c1.51452,-4.53362 2.87029,-8.82606 4.02413,-8.8762c1.2757,-0.05546 20.25424,4.68133 20.78426,5.1786c1.21403,1.13908 -5.2239,19.15171 -6.74956,19.92947c-1.09689,0.55917 -20.54747,-4.27033 -21.44215,-5.14653z" fill="#000000"/></g><g stroke="#000000" stroke-width="5" stroke-linecap="butt"><path d="M284.54631,158.1412c-0.47021,-0.26255 1.37354,-6.76205 3.18128,-12.84383c1.55745,-5.23971 2.87884,-10.2085 5.12451,-10.15289c2.48283,0.06149 41.15057,7.58966 42.34401,8.23393c2.73366,1.47575 -4.2785,22.25182 -7.02644,23.02427c-1.97567,0.55537 -41.59731,-7.13023 -43.62333,-8.26149z" fill="#ffffff"/><path d="M306.50601,160.12441c-0.20252,-0.20649 1.7706,-5.79716 3.65964,-11.03146c1.6275,-4.50957 3.09026,-8.78042 4.24514,-8.81291c1.27683,-0.03591 20.13341,4.99046 20.6509,5.49576c1.18534,1.15744 -5.70141,19.06809 -7.24622,19.82234c-1.11064,0.54228 -20.43684,-4.58402 -21.30947,-5.47374z" fill="#000000"/></g><g stroke="#000000" stroke-width="5"><path d="M239.77088,70.65912l-3.22631,9.60799l8.62072,1.46332l4.42077,-9.8468l21.12987,3.14514l-0.76604,10.90872l31.36699,4.88282l2.57068,-9.27774l23.4019,3.08924l-2.19416,11.99095l8.08193,1.37187l4.7713,-11.11194l20.77933,4.41028l-6.96548,23.10289l-8.28967,3.44992l-129.96654,-21.61956l-5.3425,-3.11461l8.20537,-25.54171z" fill="#fee70a" stroke-linecap="round"/><path d="M237.18717,96.27198c-5.35623,-0.90919 -8.93974,-4.38396 -8.00401,-7.7611c0.93574,-3.37714 6.03639,-5.37782 11.39263,-4.46863c5.35623,0.90919 8.93974,4.38396 8.004,7.7611c-0.93574,3.37714 -6.03638,5.37782 -11.39262,4.46863z" fill="#7e93ff" stroke-linecap="butt"/><path d="M282.21229,104.79785c-6.54651,-1.11124 -10.96414,-5.22182 -9.86707,-9.18123c1.09708,-3.95942 7.29341,-6.26833 13.83993,-5.1571c6.54651,1.11124 10.96414,5.22182 9.86707,9.18123c-1.09708,3.95942 -7.29342,6.26833 -13.83993,5.1571z" fill="#0026ff" stroke-linecap="butt"/><path d="M325.04652,112.06872c-6.69528,-1.13649 -11.312,-4.98433 -10.31174,-8.59438c1.00027,-3.61005 7.23876,-5.61528 13.93405,-4.47879c6.69528,1.13649 11.31201,4.98433 10.31175,8.59438c-1.00027,3.61005 -7.23876,5.61528 -13.93406,4.47879z" fill="#b6ff00" stroke-linecap="butt"/></g><g stroke-linecap="butt"><path d="M230.63682,189.13492c-0.55169,-0.2826 1.25537,-7.38175 3.04089,-14.02526c1.53832,-5.72367 2.8187,-11.1502 5.39685,-11.1067c2.85041,0.04809 47.55384,7.95981 48.95305,8.65302c3.20501,1.58787 -3.85417,24.28924 -6.96919,25.15224c-2.23957,0.62046 -48.04448,-7.45557 -50.42159,-8.6733z" fill="#fea3c1" stroke="none" stroke-width="0"/><path d="M236.97915,174.39097l2.45383,-8.85602l49.56918,8.41409l-2.45383,8.85602z" fill="#ffc7d9" stroke="none" stroke-width="0"/><path d="M239.67964,173.97918c0.44152,0.05302 0.74421,0.15627 0.74421,0.15627l3.92965,1.87379c-0.13824,1.25153 -0.06659,2.5283 -0.41472,3.75458c-0.98929,3.48502 -5.63322,8.49037 -10.43907,3.38412c-1.63481,-1.73699 1.83854,-6.33822 2.75701,-7.98792c0,0 1.04145,-1.87059 3.42291,-1.18083z" fill="#563741" stroke="none" stroke-width="0.5"/><path d="M285.07733,182.6987c0.57294,0.62565 0.83967,1.49028 0.82983,2.34605c1.51351,1.44689 2.75628,3.04725 0.57699,5.26584c-2.33251,2.37453 -8.26505,2.26975 -10.30274,-0.35919c-1.37135,-1.76928 0.90767,-6.55081 4.2021,-7.96612c0.54539,-0.50311 1.56708,-1.07102 3.14396,-0.53319c0.92719,0.31624 1.36595,0.78272 1.54988,1.24662z" fill="#563741" stroke="none" stroke-width="0.5"/><path d="M230.80567,190.5635l1.28534,-4.63887l52.26315,8.87139l-1.28534,4.63888z" fill="#a06778" stroke="none" stroke-width="0"/><path d="M230.94192,190.06981c-0.55169,-0.2826 1.25536,-7.38175 3.04087,-14.02526c1.53832,-5.72367 2.81871,-11.15021 5.39686,-11.10671c2.85041,0.04809 47.55384,7.95981 48.95305,8.65302c3.20501,1.58787 -3.85417,24.28924 -6.96918,25.15224c-2.23957,0.62046 -48.04448,-7.45556 -50.42159,-8.67329z" fill="none" stroke="#000000" stroke-width="5"/></g></g><path d="M260.0796,131.80585l-56.23467,-22.43897" fill="none" stroke="#000000" stroke-width="5" stroke-linecap="round"/><path d="M342.17903,127.39841l-54.25956,7.0467" fill="none" stroke="#000000" stroke-width="5" stroke-linecap="round"/></g></g></svg>