<svg version="1.1" xmlns="http://www.w3.org/2000/svg" xmlns:xlink="http://www.w3.org/1999/xlink" width="340.4299" height="284.61455" viewBox="0,0,340.4299,284.61455"><g transform="translate(-54.00755,-48.78406)"><g data-paper-data="{&quot;isPaintingLayer&quot;:true}" fill-rule="nonzero" stroke-linejoin="miter" stroke-miterlimit="10" stroke-dasharray="" stroke-dashoffset="0" style="mix-blend-mode: normal"><g stroke-linecap="round"><path d="M288.92004,288.1139c0,0 16.92406,42.46681 11.17358,42.55591c-7.84241,0.12151 -28.89503,-0.66281 -35.11696,-0.51897c-8.50522,0.19662 10.3626,-8.65673 10.10943,-18.16411c-0.25317,-9.50737 -11.17358,-21.79693 -11.17358,-21.79693z" fill="#c41414" stroke="none" stroke-width="0"/><path d="M291.97947,303.39315c0,0 2.95131,6.60745 3.87043,10.35364c1.09091,4.44642 3.57862,15.95875 3.57862,15.95875l-33.2547,-1.14402l10.37547,-13.95701c0,0 -0.04185,-5.0975 -0.28247,-7.04272c-0.19144,-1.54769 -0.51564,-4.16864 -0.51564,-4.16864z" fill="#5a5b5a" stroke="#5a5b5a" stroke-width="0.5"/><path d="M288.92004,288.3427c0,0 16.92406,42.46681 11.17358,42.55591c-7.84241,0.12151 -28.89503,-0.66281 -35.11696,-0.51897c-8.50522,0.19662 10.3626,-8.65673 10.10943,-18.16411c-0.25317,-9.50737 -11.17358,-21.79693 -11.17358,-21.79693z" fill="none" stroke="#000000" stroke-width="5"/></g><g stroke="#000000" stroke-width="5"><path d="M115.10434,216.28091l25.66013,48.81445l-12.4035,5.26887l-26.61424,-48.40915z" fill="#825800" stroke-linecap="round"/><path d="M101.74672,221.95506c0,0 -14.67716,8.33977 -20.46031,9.89892c-5.09101,1.37255 -13.37596,-1.6502 -13.37596,-1.6502c0,0 9.74285,-7.41479 14.66779,-10.05158c4.18192,-2.23898 13.01897,-4.77174 13.01897,-4.77174l15.03021,-6.89506c0,0 9.5825,-4.96067 14.95102,-6.65387c5.51366,-1.73897 17.70712,-3.64629 17.70712,-3.64629c0,0 -3.67641,7.14715 -7.99906,10.04594c-4.65052,3.11867 -18.99242,8.05471 -18.99242,8.05471z" fill="#00a5a5" stroke-linecap="round"/><path d="M89.64202,216.51165l-32.90079,-45.08936l6.89114,-24.69014l21.71237,10.37451l34.01486,46.67562z" fill="#00ffff" stroke-linecap="round"/><path d="M144.03209,285.65369c-5.95739,2.53064 -13.10766,0.54087 -15.97059,-4.44425c-2.86294,-4.98512 -0.35439,-11.07784 5.603,-13.60848c5.95739,-2.53064 13.10766,-0.54087 15.9706,4.44425c2.86294,4.98512 0.35438,11.07785 -5.60301,13.60848z" fill="#00a5a5" stroke-linecap="butt"/></g><g stroke-linecap="butt"><path d="M102.43729,234.31777c0.5323,-0.71773 30.28406,-15.59419 58.22509,-29.49683c24.0724,-11.97773 46.70894,-23.36946 49.23399,-22.75718c2.79175,0.67696 18.484,26.65909 17.22637,28.42888c-2.8807,4.05386 -99.35885,51.36745 -106.00308,52.59313c-4.77695,0.88122 -20.97602,-25.67537 -18.68236,-28.768z" fill="#c41414" stroke="none" stroke-width="0"/><path d="M100.21902,236.24014l21.78808,-11.07087l19.21114,27.64368l-21.78807,11.07086z" fill="#ef99b4" stroke="none" stroke-width="NaN"/><path d="M121.11493,226.61616l14.20905,-8.12466l19.99357,26.69226l-14.20905,8.12467z" fill="#d8d8d8" stroke="none" stroke-width="NaN"/><path d="M101.30124,234.62171c0.5323,-0.71773 30.28406,-15.59419 58.22508,-29.49683c24.0724,-11.97773 46.70895,-23.36947 49.23401,-22.75719c2.79175,0.67696 18.48401,26.6591 17.22637,28.42889c-2.8807,4.05386 -99.35886,51.36745 -106.00309,52.59313c-4.77695,0.88122 -20.97602,-25.67537 -18.68236,-28.768z" fill="none" stroke="#000000" stroke-width="5"/></g><g><path d="M348.26253,279.02837c-3.17101,-8.25582 3.14721,-57.48378 3.14721,-57.48378c0,0 10.81808,5.50339 15.9573,5.54378c5.36411,0.04215 15.58156,-5.2959 15.58156,-5.2959c0,0 -4.44067,47.64541 -8.84796,58.82875c-2.60214,6.60283 -22.6671,6.66296 -25.8381,-1.59286z" fill="#343545" stroke="none" stroke-width="0" stroke-linecap="butt"/><path d="M346.43918,202.29497c0.90634,-10.87461 11.8913,-19.05834 24.53558,-18.27885c12.64429,0.77949 22.15978,10.227 21.25346,21.10162c-0.90634,10.87462 -11.89129,19.05834 -24.53558,18.27885c-12.64429,-0.77949 -22.15979,-10.227 -21.25346,-21.10162z" fill="#343545" stroke="none" stroke-width="0" stroke-linecap="butt"/><path d="M351.4379,278.38491l4.80403,-43.81938" fill="none" stroke="#485e84" stroke-width="10" stroke-linecap="round"/><path d="M348.98699,278.22483c-3.17101,-8.25582 3.14721,-57.48378 3.14721,-57.48378c0,0 10.81808,5.50339 15.95731,5.54379c5.36411,0.04215 15.58155,-5.2959 15.58155,-5.2959c0,0 -4.44067,47.64541 -8.84796,58.82875c-2.60214,6.60283 -22.6671,6.66297 -25.8381,-1.59285z" fill="none" stroke="#000000" stroke-width="5" stroke-linecap="butt"/><path d="M344.07711,210.91411l12.87963,-24.36936l25.885,1.03027c0,0 -2.46663,13.61797 -6.05403,18.90038c-3.88373,5.71877 -21.31252,13.6234 -21.31252,13.6234z" fill="#485f85" stroke="none" stroke-width="0" stroke-linecap="butt"/><path d="M346.08869,202.5561c0.90634,-10.87462 11.89129,-19.05834 24.53558,-18.27886c12.64429,0.77949 22.15978,10.22701 21.25346,21.10163c-0.90634,10.87462 -11.8913,19.05833 -24.53558,18.27885c-12.64429,-0.77949 -22.15977,-10.227 -21.25345,-21.10162z" fill="none" stroke="#000000" stroke-width="5" stroke-linecap="butt"/><path d="M353.76183,232.20965c-3.64251,-1.65269 -0.75455,-10.266 -0.75455,-10.266c0,0 10.91892,1.53006 15.93478,1.7903c5.23536,0.27162 14.84706,-0.19326 14.84706,-0.19326c0,0 -1.16176,8.4188 -4.71692,10.22927c-2.09903,1.06892 -21.66788,0.09238 -25.31039,-1.56031z" fill="#485f85" stroke="#000101" stroke-width="5" stroke-linecap="butt"/><path d="M361.6986,188.81622l-2.64915,31.78567" fill="none" stroke="#000000" stroke-width="2.5" stroke-linecap="round"/><path d="M354.99319,190.38199l-2.55307,22.74409" fill="none" stroke="#000000" stroke-width="2.5" stroke-linecap="round"/><path d="M369.92325,184.7995l-3.46855,37.67257" fill="none" stroke="#000000" stroke-width="2.5" stroke-linecap="round"/><path d="M380.08569,185.14326l-4.26217,35.36177" fill="none" stroke="#000000" stroke-width="2.5" stroke-linecap="round"/><path d="M386.92946,189.80618l-2.76408,25.27569" fill="none" stroke="#000000" stroke-width="2.5" stroke-linecap="round"/><path d="M348.98308,211.21655l38.54673,2.94177" fill="none" stroke="#000000" stroke-width="2.5" stroke-linecap="round"/><path d="M347.11677,202.05401l45.39163,3.64647" fill="none" stroke="#000000" stroke-width="2.5" stroke-linecap="round"/><path d="M350.10953,193.75647l40.50911,3.06274" fill="none" stroke="#000000" stroke-width="2.5" stroke-linecap="round"/></g><g stroke-linecap="butt"><path d="M373.34308,276.517c-0.91458,0.37746 -34.57133,-0.42161 -66.13232,-1.23141c-27.19116,-0.69767 -52.84932,-1.24228 -54.40869,-2.93664c-1.72407,-1.87331 3.92795,-31.64277 6.14002,-32.59883c5.06689,-2.18994 113.56641,1.20582 119.63223,3.20314c4.36109,1.436 -1.29036,31.9373 -5.23122,33.56374z" fill="#c41414" stroke="none" stroke-width="0"/><path d="M377.25931,276.18332l-25.05837,-1.27194l2.66302,-32.85636l25.05838,1.27193z" fill="#ef99b4" stroke="none" stroke-width="NaN"/><path d="M353.34689,274.59468l-16.77959,0.50316l2.76543,-32.36695l16.77959,-0.50316z" fill="#d8d8d8" stroke="none" stroke-width="NaN"/><path d="M374.44552,276.77665c-0.91458,0.37746 -34.57133,-0.42161 -66.13232,-1.23141c-27.19116,-0.69767 -52.84933,-1.24228 -54.4087,-2.93664c-1.72407,-1.87331 3.92795,-31.64277 6.14001,-32.59883c5.06689,-2.18994 113.56641,1.20582 119.63223,3.20315c4.36109,1.436 -1.29036,31.9373 -5.23122,33.56374z" fill="none" stroke="#000000" stroke-width="5"/></g><g stroke-linecap="round"><path d="M226.13516,285.13946c0,0 -8.74556,42.3576 -15.43018,45.76067c-5.1243,2.60873 -37.60564,0.57224 -40.43772,0.45761c-4.56402,-0.18473 13.80133,-18.84576 16.49433,-26.54119c2.693,-7.69543 0,-20.5923 0,-20.5923z" fill="#c41414" stroke="none" stroke-width="0"/><path d="M218.81913,304.76597l-7.18302,21.73632l-2.92641,2.74564l-13.03584,0.91521l-24.47546,-1.14402c0,0 12.07303,-12.82996 15.06935,-17.43468c1.96587,-3.02112 3.02121,-7.50489 3.02121,-7.50489z" fill="#5b5a5a" stroke="#5b5a5a" stroke-width="0.5"/><path d="M225.60309,286.47301c0,0 -8.62223,40.54036 -15.21257,43.79743c-5.05203,2.49681 -37.0753,0.54769 -39.86744,0.43798c-4.49966,-0.1768 13.6067,-18.03724 16.26172,-25.40251c2.65502,-7.36527 0,-19.70885 0,-19.70885z" fill="none" stroke="#000000" stroke-width="5"/></g><path d="M183.472,285.19591c-1.09319,-0.90044 3.56759,-30.22683 8.12291,-57.71143c3.92461,-23.67918 7.28039,-46.05284 12.56104,-46.98175c5.83833,-1.02702 96.43839,11.65321 99.21418,13.84222c6.35821,5.01412 -11.17187,99.34123 -17.67538,104.14596c-4.67578,3.45441 -97.51231,-9.41508 -102.22276,-13.29499z" fill="#c41414" stroke="#000000" stroke-width="5" stroke-linecap="butt"/><g><g stroke-linecap="round"><path d="M287.14295,195.03148c0,0 -13.16077,25.03258 -17.09647,46.87411c-3.9357,21.84152 -1.40135,55.78124 -1.40135,55.78124l-60.76615,-9.47811c0,0 13.7137,-35.28261 16.66973,-53.86452c2.95603,-18.58192 -0.58529,-47.24396 -0.58529,-47.24396z" fill="#f7f6f6" stroke="none" stroke-width="0"/><path d="M210.81885,286.72795l17.69982,-47.26083l0.2486,-48.98911l52.64962,6.60937l-15.13274,44.80835l-0.78655,52.15877z" fill="none" stroke="#c6c7c7" stroke-width="5"/><path d="M286.98925,195.93709c0,0 -13.16077,25.03257 -17.09647,46.8741c-3.9357,21.84152 -1.40135,55.78124 -1.40135,55.78124l-60.76616,-9.47811c0,0 13.71371,-35.2826 16.66974,-53.86451c2.95603,-18.58192 -0.58529,-47.24397 -0.58529,-47.24397z" fill="none" stroke="#000000" stroke-width="5"/></g><path d="M242.7758,218.82779c0.61542,-3.62614 4.53226,-6.13664 8.74851,-5.60736c4.21624,0.52929 7.1353,3.89793 6.51988,7.52408c-0.61542,3.62614 -4.53227,6.13665 -8.74852,5.60737c-4.21624,-0.52929 -7.13529,-3.89794 -6.51987,-7.52409z" fill="#ffd901" stroke="none" stroke-width="NaN" stroke-linecap="butt"/><path d="M239.93237,235.58171c0.61542,-3.62614 4.53226,-6.13664 8.74852,-5.60736c4.21626,0.52929 7.13529,3.89794 6.51988,7.52408c-0.61542,3.62614 -4.53226,6.13665 -8.74851,5.60737c-4.21626,-0.52929 -7.1353,-3.89794 -6.51988,-7.52409z" fill="#ffd901" stroke="none" stroke-width="NaN" stroke-linecap="butt"/><path d="M237.16579,251.88281c0.61542,-3.62614 4.53225,-6.13664 8.74851,-5.60736c4.21626,0.52929 7.1353,3.89794 6.51988,7.52408c-0.61542,3.62616 -4.53226,6.13665 -8.74852,5.60737c-4.21626,-0.52929 -7.13529,-3.89793 -6.51987,-7.52409z" fill="#ffd901" stroke="none" stroke-width="NaN" stroke-linecap="butt"/></g><g><path d="M191.56446,181.10878c-1.24636,-1.00522 5.68378,-29.99851 12.39972,-57.15351c5.78607,-23.39521 10.83715,-45.53335 17.11493,-45.97417c6.94075,-0.48739 113.25389,20.66498 116.42335,23.11974c7.25994,5.62282 -18.02713,98.64233 -25.93708,102.85848c-5.68695,3.03125 -114.63047,-18.51912 -120.0009,-22.85052z" fill="#ffbbce" stroke="#000000" stroke-width="5" stroke-linecap="butt"/><g stroke="#000000" stroke-width="5" stroke-linecap="butt"><path d="M204.38078,133.73913c-0.46003,-0.27073 1.1623,-7.19177 2.75994,-13.66934c1.37645,-5.58071 2.53166,-10.87033 4.69985,-10.84781c2.39717,0.02489 39.88951,7.37901 41.05662,8.04273c2.67333,1.5203 -3.5918,23.66201 -6.22467,24.52562c-1.89294,0.6209 -40.30953,-6.88465 -42.29173,-8.05117z" fill="#ffffff"/><path d="M225.61769,135.4854c-0.20039,-0.21563 1.56867,-6.17519 3.26522,-11.75553c1.46165,-4.80771 2.7701,-9.35965 3.88366,-9.41283c1.23117,-0.05881 19.54722,4.96435 20.05874,5.49168c1.17165,1.20794 -5.04155,20.30956 -6.51395,21.13434c-1.0586,0.59298 -19.83021,-4.5285 -20.69366,-5.45767z" fill="#000000"/></g><g stroke="#000000" stroke-width="5" stroke-linecap="butt"><path d="M283.34989,147.61683c-0.4538,-0.27842 1.32559,-7.17086 3.07023,-13.62033c1.50308,-5.55649 2.77835,-10.82567 4.94563,-10.7667c2.39616,0.06521 39.71411,8.04851 40.86589,8.73173c2.63824,1.56497 -4.12915,23.59709 -6.78117,24.41624c-1.9067,0.58895 -40.14526,-7.5613 -42.10056,-8.76095z" fill="#ffffff"/><path d="M304.54303,149.71994c-0.19545,-0.21897 1.70879,-6.14764 3.53189,-11.69838c1.57069,-4.7822 2.98239,-9.31126 4.09695,-9.34571c1.23226,-0.03808 19.43061,5.29217 19.93003,5.82802c1.14396,1.22741 -5.50239,20.22088 -6.99327,21.02073c-1.07187,0.57506 -19.72344,-4.86115 -20.56561,-5.80466z" fill="#000000"/></g><g stroke="#000000" stroke-width="5"><path d="M240.13745,54.84588l-3.11369,10.18886l8.31979,1.55179l4.26645,-10.4421l20.39228,3.33528l-0.7393,11.56822l30.27205,5.17802l2.48094,-9.83864l22.585,3.27601l-2.11757,12.71588l7.79981,1.45481l4.60475,-11.78373l20.05398,4.67691l-6.72233,24.49961l-8.0003,3.65849l-125.42975,-22.92661l-5.15601,-3.30291l7.91894,-27.08588z" fill="#fee70a" stroke-linecap="round"/><path d="M237.64393,82.00721c-5.16926,-0.96416 -8.62768,-4.649 -7.72461,-8.23031c0.90308,-3.58131 5.82568,-5.70295 10.99494,-4.73879c5.16926,0.96416 8.62768,4.649 7.7246,8.23031c-0.90308,3.58131 -5.82567,5.70295 -10.99493,4.73879z" fill="#7e93ff" stroke-linecap="butt"/><path d="M281.09734,91.04852c-6.31799,-1.17842 -10.58141,-5.53751 -9.52264,-9.7363c1.05878,-4.19879 7.03882,-6.64729 13.35681,-5.46888c6.31799,1.17842 10.58141,5.53751 9.52264,9.7363c-1.05878,4.19879 -7.03883,6.64729 -13.35681,5.46888z" fill="#0026ff" stroke-linecap="butt"/><path d="M322.43634,98.75897c-6.46157,-1.2052 -10.91713,-5.28567 -9.95178,-9.11397c0.96535,-3.8283 6.98607,-5.95476 13.44765,-4.74956c6.46157,1.2052 10.91714,5.28567 9.95179,9.11397c-0.96535,3.8283 -6.98607,5.95476 -13.44766,4.74956z" fill="#b6ff00" stroke-linecap="butt"/></g><g stroke-linecap="butt"><path d="M231.32223,180.48433c-0.53243,-0.29969 1.21155,-7.82803 2.93474,-14.87318c1.48462,-6.0697 2.72031,-11.8243 5.20846,-11.77817c2.75091,0.051 45.89386,8.44103 47.24423,9.17615c3.09313,1.68387 -3.71963,25.75769 -6.72591,26.67286c-2.16139,0.65797 -46.36737,-7.90631 -48.66151,-9.19766z" fill="#fea3c1" stroke="none" stroke-width="0"/><path d="M237.44317,164.84901l2.36817,-9.39143l47.83885,8.92278l-2.36817,9.39143z" fill="#ffc7d9" stroke="none" stroke-width="0"/><path d="M240.04939,164.41233c0.42611,0.05623 0.71823,0.16572 0.71823,0.16572l3.79248,1.98707c-0.13341,1.32719 -0.06427,2.68115 -0.40024,3.98157c-0.95476,3.69571 -5.43658,9.00367 -10.07467,3.58871c-1.57774,-1.842 1.77436,-6.72141 2.66077,-8.47084c0,0 1.0051,-1.98368 3.30343,-1.25222z" fill="#563741" stroke="none" stroke-width="0.5"/><path d="M283.86237,173.659c0.55294,0.66347 0.81036,1.58038 0.80086,2.48788c1.46068,1.53436 2.66007,3.23148 0.55685,5.58419c-2.25109,2.51809 -7.97654,2.40697 -9.9431,-0.38091c-1.32348,-1.87624 0.87599,-6.94685 4.05542,-8.44772c0.52635,-0.53353 1.51238,-1.13577 3.03421,-0.56542c0.89482,0.33536 1.31827,0.83004 1.49578,1.32199z" fill="#563741" stroke="none" stroke-width="0.5"/><path d="M231.48519,181.99928l1.24047,-4.91932l50.43878,9.40772l-1.24047,4.91933z" fill="#a06778" stroke="none" stroke-width="0"/><path d="M231.61668,181.47574c-0.53243,-0.29969 1.21154,-7.82803 2.93472,-14.87318c1.48462,-6.0697 2.72032,-11.82431 5.20847,-11.77818c2.75091,0.051 45.89386,8.44103 47.24423,9.17615c3.09313,1.68387 -3.71963,25.75769 -6.7259,26.67286c-2.16139,0.65797 -46.36737,-7.9063 -48.66151,-9.19765z" fill="none" stroke="#000000" stroke-width="5"/></g></g><path d="M259.73725,119.68933l-54.27167,-23.79555" fill="none" stroke="#000000" stroke-width="5" stroke-linecap="round"/><path d="M342.8837,123.87506h-59.89691" fill="none" stroke="#000000" stroke-width="5" stroke-linecap="round"/></g></g></svg>