<svg version="1.1" xmlns="http://www.w3.org/2000/svg" xmlns:xlink="http://www.w3.org/1999/xlink" width="316.40693" height="310.55533" viewBox="0,0,316.40693,310.55533"><g transform="translate(-62.06495,-22.72064)"><g data-paper-data="{&quot;isPaintingLayer&quot;:true}" fill-rule="nonzero" stroke-linejoin="miter" stroke-miterlimit="10" stroke-dasharray="" stroke-dashoffset="0" style="mix-blend-mode: normal"><g stroke-linecap="round"><path d="M282.92355,284.02763c0,0 15.90382,46.40099 10.5,46.49834c-7.36964,0.13277 -27.15314,-0.72421 -33,-0.56705c-7.9925,0.21483 9.73791,-9.4587 9.5,-19.84686c-0.23791,-10.38815 -10.5,-23.81622 -10.5,-23.81622z" fill="#c41414" stroke="none" stroke-width="0"/><path d="M285.79855,300.72237c0,0 2.7734,7.21957 3.63711,11.31281c1.02515,4.85834 3.36289,17.43719 3.36289,17.43719l-31.25,-1.25l9.75,-15.25c0,0 -0.03933,-5.56974 -0.26544,-7.69517c-0.1799,-1.69107 -0.48456,-4.55483 -0.48456,-4.55483z" fill="#5a5b5a" stroke="#5a5b5a" stroke-width="0.5"/><path d="M282.92355,284.27763c0,0 15.90382,46.40099 10.5,46.49834c-7.36964,0.13277 -27.15314,-0.72421 -33,-0.56705c-7.9925,0.21483 9.73791,-9.4587 9.5,-19.84686c-0.23791,-10.38815 -10.5,-23.81622 -10.5,-23.81622z" fill="none" stroke="#000000" stroke-width="5"/></g><g stroke="#000000" stroke-width="5"><path d="M119.58603,205.53994l24.11325,53.33668l-11.65578,5.75698l-25.00985,-52.89383z" fill="#825800" stroke-linecap="round"/><path d="M107.03365,211.73975c0,0 -13.79237,9.11238 -19.2269,10.81597c-4.78411,1.4997 -12.56961,-1.80308 -12.56961,-1.80308c0,0 9.15552,-8.10171 13.78357,-10.98277c3.92982,-2.4464 12.23414,-5.2138 12.23414,-5.2138l14.12414,-7.53383c0,0 9.00484,-5.42023 14.04972,-7.27029c5.18128,-1.90007 16.63968,-3.98409 16.63968,-3.98409c0,0 -3.45478,7.80927 -7.51685,10.97661c-4.37017,3.40759 -17.8475,8.80091 -17.8475,8.80091z" fill="#00a5a5" stroke-linecap="round"/><path d="M95.65866,205.79206l-30.91742,-49.26649l6.47572,-26.97747l20.40348,11.33562l31.96433,50.99971z" fill="#00ffff" stroke-linecap="round"/><path d="M146.76992,281.3395c-5.59826,2.76508 -12.31749,0.59098 -15.00783,-4.85597c-2.69035,-5.44695 -0.33303,-12.10411 5.26523,-14.86919c5.59826,-2.76508 12.31749,-0.59098 15.00784,4.85597c2.69035,5.44695 0.33302,12.10412 -5.26524,14.86919z" fill="#00a5a5" stroke-linecap="butt"/></g><g stroke-linecap="butt"><path d="M107.68259,225.24776c0.50021,-0.78422 28.45844,-17.03886 54.71509,-32.22945c22.62124,-13.08736 43.89317,-25.53444 46.26601,-24.86543c2.62345,0.73967 17.36972,29.12882 16.18791,31.06257c-2.70704,4.42942 -93.36918,56.1262 -99.61287,57.46542c-4.48898,0.96286 -19.71152,-28.05397 -17.55613,-31.4331z" fill="#c41414" stroke="none" stroke-width="0"/><path d="M105.59804,227.34822l20.47462,-12.09649l18.05303,30.20462l-20.47461,12.09648z" fill="#ef99b4" stroke="none" stroke-width="NaN"/><path d="M125.23428,216.83266l13.35248,-8.87734l18.78829,29.16507l-13.35248,8.87735z" fill="#d8d8d8" stroke="none" stroke-width="NaN"/><path d="M106.61502,225.57986c0.50021,-0.78422 28.45844,-17.03886 54.71508,-32.22945c22.62124,-13.08736 43.89318,-25.53445 46.26602,-24.86544c2.62345,0.73967 17.36973,29.12883 16.18791,31.06258c-2.70704,4.42942 -93.36919,56.12619 -99.61288,57.46542c-4.48898,0.96286 -19.71152,-28.05397 -17.55613,-31.4331z" fill="none" stroke="#000000" stroke-width="5"/></g><g><path d="M334.92982,283.93418c-2.97985,-9.02065 2.95749,-62.80915 2.95749,-62.80915c0,0 10.16593,6.01323 14.99534,6.05736c5.04074,0.04606 14.64225,-5.78652 14.64225,-5.78652c0,0 -4.17297,52.05934 -8.31458,64.27872c-2.44527,7.21452 -21.30065,7.28023 -24.2805,-1.74042z" fill="#343545" stroke="none" stroke-width="0" stroke-linecap="butt"/><path d="M333.21639,200.0921c0.8517,-11.88205 11.17445,-20.82393 23.0565,-19.97223c11.88205,0.8517 20.82392,11.17444 19.97223,23.0565c-0.8517,11.88206 -11.17444,20.82393 -23.0565,19.97223c-11.88205,-0.8517 -20.82393,-11.17444 -19.97223,-23.0565z" fill="#343545" stroke="none" stroke-width="0" stroke-linecap="butt"/><path d="M337.91377,283.23111l4.51443,-47.87886" fill="none" stroke="#485e84" stroke-width="10" stroke-linecap="round"/><path d="M335.61061,283.0562c-2.97985,-9.02065 2.95749,-62.80915 2.95749,-62.80915c0,0 10.16593,6.01323 14.99535,6.05737c5.04074,0.04606 14.64224,-5.78652 14.64224,-5.78652c0,0 -4.17297,52.05934 -8.31458,64.27872c-2.44527,7.21452 -21.30065,7.28024 -24.2805,-1.74041z" fill="none" stroke="#000000" stroke-width="5" stroke-linecap="butt"/><path d="M330.99671,209.50973l12.1032,-26.62697l24.32457,1.12572c0,0 -2.31793,14.87956 -5.68907,20.65133c-3.64961,6.24856 -20.02773,14.88549 -20.02773,14.88549z" fill="#485f85" stroke="none" stroke-width="0" stroke-linecap="butt"/><path d="M332.88702,200.37742c0.8517,-11.88206 11.17444,-20.82393 23.0565,-19.97224c11.88205,0.8517 20.82392,11.17445 19.97223,23.05651c-0.8517,11.88206 -11.17445,20.82392 -23.0565,19.97223c-11.88205,-0.8517 -20.82391,-11.17444 -19.97222,-23.0565z" fill="none" stroke="#000000" stroke-width="5" stroke-linecap="butt"/><path d="M340.0976,232.77811c-3.42293,-1.8058 -0.70906,-11.21706 -0.70906,-11.21706c0,0 10.26069,1.67181 14.97418,1.95616c4.91976,0.29678 13.95203,-0.21116 13.95203,-0.21116c0,0 -1.09173,9.19873 -4.43257,11.17692c-1.97249,1.16795 -20.36167,0.10094 -23.7846,-1.70486z" fill="#485f85" stroke="#000101" stroke-width="5" stroke-linecap="butt"/><path d="M345.06647,220.09499l2.48945,-34.73033" fill="none" stroke="#000000" stroke-width="2.5" stroke-linecap="round"/><path d="M338.85557,211.92662l2.39916,-24.85113" fill="none" stroke="#000000" stroke-width="2.5" stroke-linecap="round"/><path d="M355.28476,180.97583l-3.25945,41.1626" fill="none" stroke="#000000" stroke-width="2.5" stroke-linecap="round"/><path d="M360.82934,219.98916l4.00523,-38.63773" fill="none" stroke="#000000" stroke-width="2.5" stroke-linecap="round"/><path d="M371.26578,186.44633l-2.59745,27.61726" fill="none" stroke="#000000" stroke-width="2.5" stroke-linecap="round"/><path d="M335.60693,209.84019l36.22301,3.2143" fill="none" stroke="#000000" stroke-width="2.5" stroke-linecap="round"/><path d="M376.5084,203.8131l-42.65528,-3.98428" fill="none" stroke="#000000" stroke-width="2.5" stroke-linecap="round"/><path d="M374.73256,194.10906l-38.06709,-3.34648" fill="none" stroke="#000000" stroke-width="2.5" stroke-linecap="round"/></g><g stroke-linecap="butt"><path d="M353.49157,290.94074c-0.92862,0.05369 -30.47589,-13.09299 -58.16424,-25.48331c-23.85472,-10.67479 -46.40036,-20.63067 -47.2474,-22.94595c-0.9365,-2.5598 13.44269,-31.13663 15.70228,-31.31086c5.17576,-0.39911 100.16935,42.82588 104.91089,47.10315c3.40898,3.0752 -11.20017,32.40564 -15.20152,32.63697z" fill="#c41414" stroke="none" stroke-width="0"/><path d="M357.06399,292.03123l-21.78555,-10.48502l12.70492,-32.84915l21.78556,10.48501z" fill="#ef99b4" stroke="none" stroke-width="NaN"/><path d="M336.39279,281.63979l-15.01472,-5.62619l12.64147,-32.30782l15.01472,5.62618z" fill="#d8d8d8" stroke="none" stroke-width="NaN"/><path d="M354.38588,291.61171c-0.92862,0.05369 -30.47589,-13.09299 -58.16424,-25.48331c-23.85472,-10.67479 -46.40037,-20.63067 -47.24741,-22.94595c-0.9365,-2.5598 13.44269,-31.13663 15.70227,-31.31086c5.17576,-0.39911 100.16935,42.82588 104.91089,47.10316c3.40898,3.0752 -11.20017,32.40564 -15.20152,32.63697z" fill="none" stroke="#000000" stroke-width="5"/></g><g stroke-linecap="round"><path d="M223.92355,280.77763c0,0 -8.21835,46.28166 -14.5,50c-4.81539,2.85041 -35.33865,0.62525 -38,0.5c-4.28889,-0.20184 12.96934,-20.59166 15.5,-29c2.53066,-8.40834 0,-22.5 0,-22.5z" fill="#c41414" stroke="none" stroke-width="0"/><path d="M217.04855,302.22237l-6.75,23.75l-2.75,3l-12.25,1l-23,-1.25c0,0 11.34523,-14.01854 14.16092,-19.04985c1.84736,-3.301 2.83908,-8.20015 2.83908,-8.20015z" fill="#5b5a5a" stroke="#5b5a5a" stroke-width="0.5"/><path d="M223.42355,282.23473c0,0 -8.10245,44.29607 -14.29551,47.85488c-4.74748,2.72812 -34.84028,0.59843 -37.4641,0.47855c-4.22841,-0.19318 12.78644,-19.70823 15.28141,-27.75583c2.49497,-8.0476 0,-21.5347 0,-21.5347z" fill="none" stroke="#000000" stroke-width="5"/></g><path d="M183.83226,280.83931c-1.02729,-0.98386 3.35252,-33.02708 7.63323,-63.05789c3.68802,-25.87285 6.8415,-50.31923 11.80382,-51.3342c5.48638,-1.12216 90.62477,12.73278 93.23323,15.12458c5.97492,5.47863 -10.49839,108.54433 -16.60985,113.79417c-4.39391,3.77443 -91.63395,-10.28731 -96.06044,-14.52666z" fill="#c41414" stroke="#000000" stroke-width="5" stroke-linecap="butt"/><g><g stroke-linecap="round"><path d="M281.25359,182.32194c0,0 -12.3674,27.35163 -16.06584,51.21659c-3.69844,23.86495 -1.31687,60.94888 -1.31687,60.94888l-57.10297,-10.35617c0,0 12.88699,-38.55123 15.66482,-58.8546c2.77783,-20.30337 -0.55001,-51.6207 -0.55001,-51.6207z" fill="#f7f6f6" stroke="none" stroke-width="0"/><path d="M209.53056,282.51329l16.63282,-51.63913l0.23361,-53.52752l49.47573,7.22167l-14.22049,48.95945l-0.73913,56.99082z" fill="none" stroke="#c6c7c7" stroke-width="5"/><path d="M281.10916,183.31145c0,0 -12.3674,27.35162 -16.06584,51.21658c-3.69844,23.86495 -1.31687,60.94888 -1.31687,60.94888l-57.10298,-10.35617c0,0 12.887,-38.55122 15.66483,-58.85459c2.77783,-20.30337 -0.55001,-51.62071 -0.55001,-51.62071z" fill="none" stroke="#000000" stroke-width="5"/></g><path d="M239.56104,208.32277c0.57832,-3.96207 4.25904,-6.70515 8.22112,-6.12683c3.96207,0.57832 6.70516,4.25904 6.12684,8.22112c-0.57832,3.96207 -4.25905,6.70516 -8.22113,6.12684c-3.96207,-0.57832 -6.70515,-4.25905 -6.12683,-8.22113z" fill="#ffd901" stroke="none" stroke-width="NaN" stroke-linecap="butt"/><path d="M236.88902,226.62879c0.57832,-3.96207 4.25904,-6.70515 8.22113,-6.12683c3.96209,0.57832 6.70515,4.25905 6.12684,8.22112c-0.57832,3.96207 -4.25904,6.70516 -8.22112,6.12684c-3.96209,-0.57832 -6.70516,-4.25905 -6.12684,-8.22113z" fill="#ffd901" stroke="none" stroke-width="NaN" stroke-linecap="butt"/><path d="M234.28922,244.44005c0.57832,-3.96207 4.25903,-6.70515 8.22112,-6.12683c3.96209,0.57832 6.70516,4.25905 6.12684,8.22112c-0.57832,3.96209 -4.25904,6.70516 -8.22113,6.12684c-3.96209,-0.57832 -6.70515,-4.25904 -6.12683,-8.22113z" fill="#ffd901" stroke="none" stroke-width="NaN" stroke-linecap="butt"/></g><g><path d="M191.43688,167.10942c-1.17123,-1.09834 5.34114,-32.77761 11.65222,-62.44828c5.43727,-25.56257 10.18385,-49.75162 16.08319,-50.23328c6.52234,-0.53254 106.42658,22.57941 109.40497,25.26158c6.82229,6.14373 -16.9404,107.78068 -24.37351,112.38742c-5.34412,3.31207 -107.72017,-20.23475 -112.76686,-24.96742z" fill="#ffbbce" stroke="#000000" stroke-width="5" stroke-linecap="butt"/><g stroke="#000000" stroke-width="5" stroke-linecap="butt"><path d="M203.48059,115.35139c-0.4323,-0.29581 1.09223,-7.85803 2.59356,-14.93569c1.29347,-6.09771 2.37904,-11.87737 4.41653,-11.85277c2.25266,0.0272 37.48484,8.06261 38.58159,8.78782c2.51217,1.66114 -3.37527,25.85409 -5.84943,26.7977c-1.77883,0.67842 -37.87954,-7.52245 -39.74225,-8.79704z" fill="#ffffff"/><path d="M223.43727,117.25943c-0.18831,-0.23561 1.47411,-6.74727 3.06838,-12.84458c1.37354,-5.2531 2.60311,-10.22674 3.64954,-10.28485c1.15695,-0.06426 18.36885,5.42425 18.84953,6.00044c1.10102,1.31985 -4.73763,22.19106 -6.12127,23.09225c-0.99478,0.64791 -18.63478,-4.94803 -19.44618,-5.96327z" fill="#000000"/></g><g stroke="#000000" stroke-width="5" stroke-linecap="butt"><path d="M277.68919,130.51473c-0.42644,-0.30421 1.24568,-7.83518 2.88515,-14.88213c1.41247,-6.07125 2.61086,-11.82857 4.64749,-11.76414c2.25171,0.07125 37.32001,8.79413 38.40236,9.54065c2.4792,1.70995 -3.88023,25.78315 -6.37238,26.67819c-1.79176,0.64351 -37.72517,-8.26179 -39.5626,-9.57257z" fill="#ffffff"/><path d="M297.60474,132.81268c-0.18367,-0.23926 1.60578,-6.71717 3.31898,-12.78213c1.476,-5.22523 2.8026,-10.17387 3.84997,-10.21151c1.15798,-0.04161 18.25927,5.78244 18.72858,6.36793c1.075,1.34112 -5.17069,22.09417 -6.57169,22.96812c-1.00725,0.62833 -18.53445,-5.31149 -19.32585,-6.34241z" fill="#000000"/></g><g stroke="#000000" stroke-width="5"><path d="M237.08174,29.14937l-2.92599,11.13277l7.81825,1.69555l4.00925,-11.40947l19.16297,3.64426l-0.69473,12.63991l28.44715,5.65772l2.33138,-10.7501l21.2235,3.5795l-1.98992,13.8939l7.32961,1.58958l4.32716,-12.87539l18.84506,5.11018l-6.31709,26.76929l-7.51802,3.99742l-117.86844,-25.05056l-4.84519,-3.6089l7.44156,-29.59515z" fill="#fee70a" stroke-linecap="round"/><path d="M234.73853,58.82696c-4.85764,-1.05348 -8.10758,-5.07969 -7.25895,-8.99278c0.84864,-3.91309 5.47449,-6.23128 10.33213,-5.1778c4.85764,1.05348 8.10758,5.07969 7.25894,8.99278c-0.84864,3.91309 -5.47448,6.23128 -10.33212,5.1778z" fill="#7e93ff" stroke-linecap="butt"/><path d="M275.57243,68.70587c-5.93712,-1.28759 -9.94353,-6.05051 -8.94858,-10.63828c0.99495,-4.58777 6.6145,-7.2631 12.55162,-5.97552c5.93712,1.28759 9.94353,6.05051 8.94858,10.63828c-0.99495,4.58777 -6.61451,7.2631 -12.55162,5.97552z" fill="#0026ff" stroke-linecap="butt"/><path d="M314.41938,77.13062c-6.07205,-1.31685 -10.25901,-5.77534 -9.35185,-9.9583c0.90716,-4.18296 6.56493,-6.50642 12.63698,-5.18957c6.07205,1.31685 10.25902,5.77534 9.35186,9.9583c-0.90716,4.18296 -6.56493,6.50642 -12.63699,5.18957z" fill="#b6ff00" stroke-linecap="butt"/></g><g stroke-linecap="butt"><path d="M228.79793,166.42712c-0.50033,-0.32745 1.13851,-8.55323 2.75782,-16.25105c1.39512,-6.63201 2.55632,-12.91972 4.89448,-12.86931c2.58508,0.05573 43.12723,9.22302 44.39619,10.02624c2.90667,1.83987 -3.4954,28.14391 -6.32045,29.14387c-2.03109,0.71893 -43.57219,-8.63876 -45.72804,-10.04974z" fill="#fea3c1" stroke="none" stroke-width="0"/><path d="M234.54988,149.34333l2.22541,-10.26146l44.95497,9.7494l-2.22541,10.26146z" fill="#ffc7d9" stroke="none" stroke-width="0"/><path d="M236.99898,148.86619c0.40042,0.06144 0.67493,0.18107 0.67493,0.18107l3.56386,2.17115c-0.12537,1.45014 -0.0604,2.92953 -0.37611,4.35043c-0.8972,4.03808 -5.10885,9.83778 -9.46734,3.92117c-1.48263,-2.01265 1.6674,-7.34409 2.50037,-9.25559c0,0 0.94451,-2.16745 3.10429,-1.36823z" fill="#563741" stroke="none" stroke-width="0.5"/><path d="M278.17078,158.96948c0.51961,0.72494 0.76151,1.72679 0.75258,2.71836c1.37263,1.67651 2.49971,3.53085 0.52328,6.10152c-2.11539,2.75137 -7.49569,2.62995 -9.3437,-0.4162c-1.2437,-2.05006 0.82318,-7.59041 3.81095,-9.23033c0.49462,-0.58296 1.42121,-1.24099 2.8513,-0.6178c0.84088,0.36643 1.2388,0.90694 1.40561,1.44446z" fill="#563741" stroke="none" stroke-width="0.5"/><path d="M228.95106,168.08242l1.16569,-5.37505l47.39817,10.27926l-1.16569,5.37506z" fill="#a06778" stroke="none" stroke-width="0"/><path d="M229.07463,167.51038c-0.50033,-0.32745 1.1385,-8.55323 2.75781,-16.25105c1.39512,-6.63201 2.55633,-12.91973 4.89449,-12.86933c2.58508,0.05573 43.12723,9.22302 44.39619,10.02624c2.90667,1.83987 -3.4954,28.14391 -6.32044,29.14387c-2.03109,0.71893 -43.57219,-8.63875 -45.72804,-10.04973z" fill="none" stroke="#000000" stroke-width="5"/></g></g><path d="M204.5,74l51,26" fill="none" stroke="#000000" stroke-width="5" stroke-linecap="round"/><path d="M333.72299,99.21163l-52.14555,2.11401" fill="none" stroke="#000000" stroke-width="5" stroke-linecap="round"/></g></g></svg>