<svg version="1.1" xmlns="http://www.w3.org/2000/svg" xmlns:xlink="http://www.w3.org/1999/xlink" width="383.87291" height="292.20405" viewBox="0,0,383.87291,292.20405"><g transform="translate(-27.93852,-41.18302)"><g data-paper-data="{&quot;isPaintingLayer&quot;:true}" fill-rule="nonzero" stroke-linejoin="miter" stroke-miterlimit="10" stroke-dasharray="" stroke-dashoffset="0" style="mix-blend-mode: normal"><g stroke="#000000" stroke-width="5"><path d="M104.3001,238.3578l41.68115,40.16608l-9.96332,8.32865l-42.44757,-39.52541z" fill="#825800" stroke-linecap="round"/><path d="M93.57036,247.32709c0,0 -11.04693,11.8787 -16.00901,14.89931c-4.36821,2.6591 -13.33148,1.93412 -13.33148,1.93412c0,0 6.67019,-9.69103 10.43403,-13.52158c3.196,-3.25264 10.72535,-8.01279 10.72535,-8.01279l11.89319,-10.58298c0,0 7.38325,-7.28999 11.90281,-10.33032c4.64176,-3.12254 15.59095,-8.16486 15.59095,-8.16486c0,0 -0.98241,7.83722 -4.07973,11.7611c-3.33226,4.22151 -15.2606,12.74039 -15.2606,12.74039z" fill="#00a5a5" stroke-linecap="round"/><path d="M80.1122,245.28071l-47.26824,-34.68002l-2.14321,-25.54517l24.35553,4.2575l48.88978,35.91151z" fill="#00ffff" stroke-linecap="round"/><path d="M156.34942,297.42408c-4.78538,4.00024 -12.30268,3.96953 -16.79039,-0.06859c-4.4877,-4.03812 -4.2464,-10.55449 0.53898,-14.55474c4.78538,-4.00024 12.30268,-3.96953 16.79039,0.06859c4.4877,4.03812 4.2464,10.55449 -0.53898,14.55474z" fill="#00a5a5" stroke-linecap="butt"/></g><g stroke-linecap="butt"><path d="M101.10682,255.48817c0.28445,-0.82252 24.194,-22.30212 46.67005,-42.40802c19.36412,-17.32212 37.53242,-33.73568 40.15667,-33.73924c2.9014,-0.00394 26.24835,21.49518 25.59979,23.51035c-1.48559,4.61593 -79.31306,73.36938 -85.31797,76.13168c-4.31731,1.986 -28.33429,-19.95062 -27.10855,-23.49476z" fill="#c41414" stroke="none" stroke-width="0"/><path d="M99.58223,257.87882l17.45365,-15.90131l27.26058,22.27852l-17.45365,15.9013z" fill="#ef99b4" stroke="none" stroke-width="NaN"/><path d="M116.63653,243.5928l11.0952,-11.24808l27.71157,21.17002l-11.0952,11.24808z" fill="#d8d8d8" stroke="none" stroke-width="NaN"/><path d="M100.11004,256.05205c0.28445,-0.82252 24.194,-22.30212 46.67005,-42.40802c19.36412,-17.32212 37.53242,-33.73568 40.15667,-33.73924c2.9014,-0.00394 26.24835,21.49518 25.59979,23.51035c-1.48559,4.61593 -79.31306,73.36938 -85.31797,76.13168c-4.31731,1.986 -28.33429,-19.95062 -27.10855,-23.49476z" fill="none" stroke="#000000" stroke-width="5"/></g><g><path d="M318.45333,261.65802c3.04746,-8.36263 41.67986,-45.41978 41.67986,-45.41978c0,0 5.02854,9.99383 9.16946,12.63609c4.32211,2.75789 16.24288,3.57924 16.24288,3.57924c0,0 -36.03235,36.716 -47.21921,43.62555c-6.60489,4.07951 -22.92044,-6.05846 -19.87299,-14.42109z" fill="#343545" stroke="none" stroke-width="0" stroke-linecap="butt"/><path d="M369.20414,197.96981c8.13709,-8.43451 22.61732,-9.55105 32.34249,-2.49386c9.72517,7.05719 11.01256,19.6157 2.87547,28.05021c-8.13709,8.43452 -22.61732,9.55105 -32.34249,2.49386c-9.72517,-7.05719 -11.01256,-19.6157 -2.87547,-28.05021z" fill="#343545" stroke="none" stroke-width="0" stroke-linecap="butt"/><path d="M355.18967,229.3418l-33.72282,33.40208" fill="none" stroke="#485e84" stroke-width="10" stroke-linecap="round"/><path d="M319.58789,261.36859c3.04746,-8.36263 41.67987,-45.41978 41.67987,-45.41978c0,0 5.02854,9.99383 9.16946,12.6361c4.32211,2.75789 16.24287,3.57923 16.24287,3.57923c0,0 -36.03235,36.716 -47.21921,43.62555c-6.60489,4.07951 -22.92044,-6.05846 -19.87299,-14.42109z" fill="none" stroke="#000000" stroke-width="5" stroke-linecap="butt"/><path d="M361.42152,203.82041l27.03398,-13.3933l20.29395,13.98474c0,0 -11.26995,9.88621 -17.77522,12.38549c-7.04264,2.70574 -26.55947,0.3224 -26.55947,0.3224z" fill="#485f85" stroke="none" stroke-width="0" stroke-linecap="butt"/><path d="M368.74211,198.00543c8.13709,-8.43452 22.61732,-9.55105 32.34249,-2.49386c9.72517,7.05719 11.01255,19.6157 2.87546,28.05021c-8.13709,8.43452 -22.61732,9.55104 -32.34249,2.49386c-9.72517,-7.05719 -11.01255,-19.61569 -2.87546,-28.0502z" fill="none" stroke="#000000" stroke-width="5" stroke-linecap="butt"/><path d="M354.78164,226.15567c-1.8295,-3.20113 6.37569,-8.77996 6.37569,-8.77996c0,0 7.81484,6.79512 11.70605,9.55458c4.0615,2.8802 12.17394,7.37992 12.17394,7.37992c0,0 -6.67269,6.29614 -10.78858,5.97199c-2.43008,-0.19139 -17.63761,-10.92542 -19.46711,-14.12654z" fill="#485f85" stroke="#000101" stroke-width="5" stroke-linecap="butt"/><path d="M366.97141,219.34591l23.7841,-24.65343" fill="none" stroke="#000000" stroke-width="2.5" stroke-linecap="round"/><path d="M366.69912,209.87563l17.55188,-17.30684" fill="none" stroke="#000000" stroke-width="2.5" stroke-linecap="round"/><path d="M400.16052,195.58285l-28.45571,29.05248" fill="none" stroke="#000000" stroke-width="2.5" stroke-linecap="round"/><path d="M408.16926,201.02357l-27.52654,26.75947" fill="none" stroke="#000000" stroke-width="2.5" stroke-linecap="round"/><path d="M410.54632,208.31215l-19.44618,19.27037" fill="none" stroke="#000000" stroke-width="2.5" stroke-linecap="round"/><path d="M365.19487,206.55859l29.26275,21.97669" fill="none" stroke="#000000" stroke-width="2.5" stroke-linecap="round"/><path d="M369.91773,198.11673l34.33496,26.02831" fill="none" stroke="#000000" stroke-width="2.5" stroke-linecap="round"/><path d="M377.99299,192.84939l30.77209,23.07196" fill="none" stroke="#000000" stroke-width="2.5" stroke-linecap="round"/></g><g stroke-linecap="butt"><path d="M343.87413,272.85599c-0.96098,-0.20681 -26.85007,-19.8848 -51.08808,-38.38715c-20.8821,-15.94058 -40.66026,-30.88901 -40.79073,-33.16219c-0.14425,-2.51325 23.49162,-23.77356 25.8437,-23.30876c5.38763,1.06466 88.31773,65.17415 91.78821,70.24308c2.49513,3.64435 -21.61233,25.50619 -25.75309,24.61502z" fill="#c41414" stroke="none" stroke-width="0"/><path d="M347.16173,274.7952l-18.83847,-15.20694l23.28201,-25.48539l18.83848,15.20694z" fill="#ef99b4" stroke="none" stroke-width="NaN"/><path d="M329.4266,259.97574l-13.48852,-9.06988l23.04669,-25.02547l13.48852,9.06988z" fill="#d8d8d8" stroke="none" stroke-width="NaN"/><path d="M344.57155,273.69236c-0.96098,-0.20681 -26.85007,-19.8848 -51.08808,-38.38715c-20.8821,-15.94058 -40.66026,-30.88901 -40.79073,-33.16219c-0.14425,-2.51325 23.49162,-23.77356 25.8437,-23.30876c5.38763,1.06466 88.31773,65.17415 91.78821,70.24308c2.49513,3.64435 -21.61233,25.50619 -25.75309,24.61502z" fill="none" stroke="#000000" stroke-width="5"/></g><g stroke-linecap="round"><path d="M224.66847,284.72928c0,0 -8.74805,42.7266 -15.43458,46.15932c-5.12576,2.63146 -37.61636,0.57722 -40.44924,0.46159c-4.56532,-0.18634 13.80526,-19.00994 16.49903,-26.77241c2.69377,-7.76247 0,-20.77169 0,-20.77169z" fill="#c41414" stroke="none" stroke-width="0"/><path d="M217.35036,304.52677l-7.18506,21.92568l-2.92725,2.76956l-13.03956,0.92319l-24.48243,-1.15398c0,0 12.07647,-12.94173 15.07364,-17.58656c1.96643,-3.04744 3.02207,-7.57027 3.02207,-7.57027z" fill="#5b5a5a" stroke="#5b5a5a" stroke-width="0.5"/><path d="M224.13625,286.07445c0,0 -8.62468,40.89353 -15.21691,44.17898c-5.05347,2.51856 -37.08586,0.55246 -39.8788,0.44179c-4.50095,-0.17834 13.61057,-18.19437 16.26635,-25.62381c2.65578,-7.42944 0,-19.88054 0,-19.88054z" fill="none" stroke="#000000" stroke-width="5"/></g><path d="M184.56985,285.65247c-1.2333,-0.76179 -1.54649,-30.61747 -1.65467,-58.62159c-0.0932,-24.12677 -0.53011,-46.87918 4.54062,-48.46803c5.60623,-1.75665 97.41194,-0.45233 100.52714,1.38478c7.13564,4.20808 5.63002,100.55578 0,106.16644c-4.04778,4.03384 -98.09893,2.82085 -103.41309,-0.46159z" fill="#c41414" stroke="#000000" stroke-width="5" stroke-linecap="butt"/><g><path d="M174.7795,178.10125c-1.46619,-0.76178 -1.83852,-30.61747 -1.96712,-58.62159c-0.11079,-24.12677 -0.63021,-46.87918 5.39804,-48.46803c6.66486,-1.75665 115.80652,-0.45234 119.50997,1.38478c8.48308,4.20808 6.69316,100.55578 0,106.16644c-4.81212,4.03384 -116.62325,2.82084 -122.94088,-0.46159z" fill="#ffbbce" stroke="#000000" stroke-width="5" stroke-linecap="butt"/><g stroke="#000000" stroke-width="5" stroke-linecap="butt"><path d="M175.6314,129.04794c-0.51644,-0.18229 -0.6366,-7.30333 -0.67155,-13.98265c-0.03011,-5.75453 -0.20474,-11.18142 1.92036,-11.55789c2.34952,-0.41623 40.81337,-0.06021 42.11789,0.37949c2.98809,1.00716 2.32159,23.98632 -0.03932,25.32177c-1.69741,0.96013 -41.10209,0.62478 -43.32737,-0.16071z" fill="#ffffff"/><path d="M196.82223,126.86462c-0.24905,-0.17573 0.01126,-6.37591 0.29415,-12.18892c0.24373,-5.00817 0.40075,-9.73603 1.47621,-9.99321c1.18904,-0.28434 20.33232,1.29972 20.96235,1.72552c1.44312,0.97536 0.07797,20.94805 -1.15807,22.03184c-0.88867,0.7792 -20.50152,-0.81803 -21.57463,-1.57523z" fill="#000000"/></g><g stroke="#000000" stroke-width="5" stroke-linecap="butt"><path d="M256.2494,128.2086c-0.51224,-0.19103 -0.47181,-7.31274 -0.35613,-13.99137c0.09965,-5.75393 0.04743,-11.18275 2.18061,-11.52311c2.35847,-0.3763 40.80693,0.63202 42.10128,1.09376c2.96481,1.05765 1.78029,24.02112 -0.61029,25.31626c-1.71874,0.93116 -41.10831,-0.07246 -43.31545,-0.89555z" fill="#ffffff"/><path d="M277.4854,126.3851c-0.24505,-0.17992 0.15503,-6.37451 0.56894,-12.18161c0.3566,-5.00307 0.6202,-9.72737 1.70126,-9.96626c1.19523,-0.26411 20.29913,1.64432 20.91943,2.08073c1.42085,0.99964 -0.39439,20.94536 -1.65464,22.00798c-0.90606,0.76397 -20.47915,-1.16559 -21.53499,-1.94085z" fill="#000000"/></g><g stroke="#000000" stroke-width="5"><path d="M191.13818,44.70081l-0.53223,10.61664h8.51563l1.59668,-11.07824l20.75685,-0.46159l2.12891,11.53983l30.86916,-0.46159v-10.15505l22.88575,-0.92319l1.06445,12.92461h7.9834l1.59668,-12.46302l20.75685,0.92319l-0.53223,25.38763l-6.91895,5.07753l-128.26667,0.46159l-5.8545,-2.30797l1.06445,-28.15719z" fill="#fee70a" stroke-linecap="round"/><path d="M195.396,71.93481c-5.29094,0 -9.58008,-2.99661 -9.58008,-6.6931c0,-3.69649 4.28914,-6.6931 9.58008,-6.6931c5.29094,0 9.58008,2.99661 9.58008,6.6931c0,3.69649 -4.28914,6.6931 -9.58008,6.6931z" fill="#7e93ff" stroke-linecap="butt"/><path d="M240.10305,72.858c-6.46669,0 -11.70899,-3.51326 -11.70899,-7.84708c0,-4.33382 5.2423,-7.84708 11.70899,-7.84708c6.46669,0 11.70899,3.51326 11.70899,7.84708c0,4.33382 -5.2423,7.84708 -11.70899,7.84708z" fill="#0026ff" stroke-linecap="butt"/><path d="M282.41509,72.858c-6.61367,0 -11.9751,-3.20327 -11.9751,-7.15469c0,-3.95142 5.36143,-7.15469 11.9751,-7.15469c6.61367,0 11.9751,3.20327 11.9751,7.15469c0,3.95142 -5.36143,7.15469 -11.9751,7.15469z" fill="#b6ff00" stroke-linecap="butt"/></g><g stroke-linecap="butt"><path d="M213.4912,170.17548c-0.59435,-0.19754 -0.74529,-7.93961 -0.79742,-15.20152c-0.04491,-6.25646 -0.25547,-12.15653 2.18822,-12.56855c2.70175,-0.45553 46.94477,-0.11729 48.44604,0.3591c3.4388,1.09122 2.71322,26.07573 0,27.53067c-1.9507,1.04603 -47.27585,0.73149 -49.83684,-0.1197z" fill="#fea3c1" stroke="none" stroke-width="0"/><path d="M215.62062,153.63681v-9.69346h48.96487v9.69346z" fill="#ffc7d9" stroke="none" stroke-width="0"/><path d="M218.0607,152.72713c0.4304,-0.02291 0.74296,0.03131 0.74296,0.03131l4.1972,1.26152c0.19673,1.33287 0.59807,2.65488 0.59022,3.99861c-0.02232,3.81876 -3.09513,9.87539 -8.96397,5.39014c-1.9964,-1.52574 0.07768,-6.95219 0.51296,-8.83975c0,0 0.49357,-2.1403 2.92063,-1.84182z" fill="#563741" stroke="none" stroke-width="0.5"/><path d="M263.16988,153.78663c0.70408,0.55239 1.18175,1.40893 1.39616,2.30529c1.80613,1.244 3.39696,2.69648 1.92088,5.40249c-1.57985,2.89623 -7.20421,3.83941 -9.81388,1.45272c-1.7563,-1.60624 -0.8561,-7.00923 1.88202,-9.07339c0.38302,-0.62274 1.19848,-1.39772 2.82675,-1.11528c0.95741,0.16607 1.49329,0.57587 1.78808,1.02818z" fill="#563741" stroke="none" stroke-width="0.5"/><path d="M214.02394,171.63894v-5.07753h51.626v5.07753z" fill="#a06778" stroke="none" stroke-width="0"/><path d="M214.02343,171.09867c-0.59435,-0.19754 -0.74529,-7.93961 -0.79742,-15.20152c-0.04491,-6.25646 -0.25547,-12.15653 2.18822,-12.56855c2.70175,-0.45553 46.94477,-0.11729 48.44604,0.3591c3.4388,1.09122 2.71322,26.07573 0,27.53067c-1.9507,1.04603 -47.27585,0.73149 -49.83684,-0.1197z" fill="none" stroke="#000000" stroke-width="5"/></g></g><g><g stroke-linecap="round"><path d="M272.03666,182.66616c0,0 -8.82138,26.63494 -9.04786,48.92888c-0.22647,22.29393 7.9834,55.85278 7.9834,55.85278l-61.73831,-1.84637c0,0 7.6468,-36.93513 7.45118,-55.85278c-0.19563,-18.91765 -8.51563,-47.08251 -8.51563,-47.08251z" fill="#f7f6f6" stroke="none" stroke-width="0"/><path d="M211.89503,283.75507l9.58008,-49.39047l-7.9834,-48.92888h53.22268l-7.45118,46.62091l7.9834,52.16003z" fill="none" stroke="#c6c7c7" stroke-width="5"/><path d="M272.03666,183.58934c0,0 -8.82138,26.63494 -9.04786,48.92888c-0.22647,22.29393 7.9834,55.85278 7.9834,55.85278l-61.73831,-1.84637c0,0 7.6468,-36.93513 7.45118,-55.85278c-0.19563,-18.91765 -8.51563,-47.08251 -8.51563,-47.08251z" fill="none" stroke="#000000" stroke-width="5"/></g><path d="M232.11965,211.97733c0,-3.69649 3.45515,-6.6931 7.71729,-6.6931c4.26214,0 7.71729,2.99661 7.71729,6.6931c0,3.69649 -3.45515,6.6931 -7.71729,6.6931c-4.26214,0 -7.71729,-2.99661 -7.71729,-6.6931z" fill="#ffd901" stroke="none" stroke-width="NaN" stroke-linecap="butt"/><path d="M232.11965,229.05627c0,-3.69649 3.45514,-6.6931 7.71729,-6.6931c4.26215,0 7.71729,2.99661 7.71729,6.6931c0,3.69649 -3.45514,6.6931 -7.71729,6.6931c-4.26215,0 -7.71729,-2.99661 -7.71729,-6.6931z" fill="#ffd901" stroke="none" stroke-width="NaN" stroke-linecap="butt"/><path d="M232.11965,245.67363c0,-3.69649 3.45514,-6.6931 7.71729,-6.6931c4.26215,0 7.71729,2.99661 7.71729,6.6931c0,3.6965 -3.45514,6.6931 -7.71729,6.6931c-4.26215,0 -7.71729,-2.9966 -7.71729,-6.6931z" fill="#ffd901" stroke="none" stroke-width="NaN" stroke-linecap="butt"/></g><g stroke-linecap="round"><path d="M287.47124,287.72964c0,0 16.92888,42.83676 11.17676,42.92664c-7.84464,0.12257 -28.90326,-0.66858 -35.12697,-0.52349c-8.50765,0.19833 10.36555,-8.73214 10.11231,-18.32235c-0.25324,-9.5902 -11.17676,-21.98681 -11.17676,-21.98681z" fill="#c41414" stroke="none" stroke-width="0"/><path d="M290.53154,303.14199c0,0 2.95216,6.66501 3.87154,10.44383c1.09122,4.48515 3.57964,16.09778 3.57964,16.09778l-33.26418,-1.15398l10.37842,-14.07859c0,0 -0.04186,-5.14191 -0.28255,-7.10408c-0.1915,-1.56117 -0.51579,-4.20496 -0.51579,-4.20496z" fill="#5a5b5a" stroke="#5a5b5a" stroke-width="0.5"/><path d="M287.47124,287.96043c0,0 16.92888,42.83676 11.17676,42.92664c-7.84464,0.12257 -28.90326,-0.66858 -35.12697,-0.52349c-8.50765,0.19833 10.36555,-8.73214 10.11231,-18.32235c-0.25324,-9.5902 -11.17676,-21.98681 -11.17676,-21.98681z" fill="none" stroke="#000000" stroke-width="5"/></g><path d="M162.48829,90.75559l61.30625,11.27471" fill="none" stroke="#000000" stroke-width="5" stroke-linecap="round"/><path d="M311.87824,78.07154l-58.48757,26.07277" fill="none" stroke="#000000" stroke-width="5" stroke-linecap="round"/></g></g></svg>