<svg version="1.1" xmlns="http://www.w3.org/2000/svg" xmlns:xlink="http://www.w3.org/1999/xlink" width="325.81091" height="342.01553" viewBox="0,0,325.81091,342.01553"><g transform="translate(-66.58845,9.85992)"><g data-paper-data="{&quot;isPaintingLayer&quot;:true}" fill-rule="nonzero" stroke-linejoin="miter" stroke-miterlimit="10" stroke-dasharray="" stroke-dashoffset="0" style="mix-blend-mode: normal"><g stroke="#000000" stroke-width="5"><path d="M122.53158,210.68946l26.74954,54.33725l-9.67062,7.66501l-27.49343,-53.74763z" fill="#825800" stroke-linecap="round"/><path d="M112.11705,218.94408c0,0 -11.20561,11.54458 -15.81591,14.06342c-4.05852,2.21738 -11.25678,-0.353 -11.25678,-0.353c0,0 7.22625,-9.87191 11.00456,-13.55571c3.20829,-3.12803 10.23614,-7.15365 10.23614,-7.15365l11.66096,-9.8882c0,0 7.37067,-6.96806 11.62265,-9.59529c4.36694,-2.69826 14.24332,-6.38685 14.24332,-6.38685c0,0 -2.23565,8.83761 -5.4859,12.75795c-3.49678,4.2177 -14.80928,11.72141 -14.80928,11.72141z" fill="#00a5a5" stroke-linecap="round"/><path d="M101.48407,213.98135l-32.32154,-49.09943l2.91529,-29.84077l19.14149,9.61946l33.4227,50.83192z" fill="#00ffff" stroke-linecap="round"/><path d="M154.30703,288.80538c-4.6448,3.6815 -10.78732,2.19079 -13.71972,-3.32959c-2.93241,-5.52038 -1.54425,-12.97997 3.10055,-16.66147c4.6448,-3.6815 10.78732,-2.19079 13.71972,3.32959c2.93241,5.52038 1.54425,12.97997 -3.10055,16.66147z" fill="#00a5a5" stroke-linecap="butt"/></g><g stroke-linecap="butt"><path d="M115.19823,229.5595c0.34069,-0.91761 22.84375,-22.63378 43.98662,-42.9481c18.2155,-17.50166 35.32686,-34.10992 37.49382,-33.75631c2.39581,0.39096 18.90373,28.5723 18.10896,30.82707c-1.82046,5.16472 -74.91991,74.49872 -80.23284,76.89197c-3.8198,1.72066 -20.82458,-27.06072 -19.35657,-31.01463z" fill="#c41414" stroke="none" stroke-width="0"/><path d="M113.63193,232.13142l16.45545,-16.11007l19.63859,29.62115l-16.45545,16.11006z" fill="#ef99b4" stroke="none" stroke-width="NaN"/><path d="M129.54983,217.84512l10.60731,-11.56627l20.15356,28.3937l-10.60731,11.56627z" fill="#d8d8d8" stroke="none" stroke-width="NaN"/><path d="M114.30275,230.07927c0.34069,-0.91761 22.84375,-22.63378 43.98662,-42.9481c18.2155,-17.50166 35.32686,-34.10992 37.49382,-33.75631c2.39581,0.39096 18.90373,28.5723 18.10896,30.82707c-1.82046,5.16472 -74.91991,74.49872 -80.23284,76.89197c-3.8198,1.72066 -20.82458,-27.06072 -19.35657,-31.01463z" fill="none" stroke="#000000" stroke-width="5"/></g><g><path d="M325.43388,241.0554c0.83664,-10.23977 25.0325,-60.86158 25.0325,-60.86158c0,0 6.06965,10.42681 9.96671,12.59655c4.06759,2.2647 13.94912,0.71897 13.94912,0.71897c0,0 -22.14313,49.68717 -29.90265,59.95767c-4.58134,6.06387 -19.88232,-2.17186 -19.04567,-12.41162z" fill="#343545" stroke="none" stroke-width="0" stroke-linecap="butt"/><path d="M354.26206,157.32078c4.97233,-11.38498 16.55882,-15.69052 25.87912,-9.61669c9.32031,6.07382 12.84504,20.22699 7.87271,31.61195c-4.97233,11.38499 -16.55882,15.69052 -25.87912,9.61669c-9.32031,-6.07382 -12.84504,-20.22699 -7.87271,-31.61195z" fill="#343545" stroke="none" stroke-width="0" stroke-linecap="butt"/><path d="M349.01813,196.27387l-20.91315,45.39932" fill="none" stroke="#485e84" stroke-width="10" stroke-linecap="round"/><path d="M326.30191,240.48614c0.83664,-10.23977 25.03251,-60.86158 25.03251,-60.86158c0,0 6.06965,10.42681 9.96671,12.59656c4.06759,2.2647 13.94911,0.71897 13.94911,0.71897c0,0 -22.14313,49.68717 -29.90265,59.95767c-4.58134,6.06387 -19.88232,-2.17186 -19.04567,-12.41162z" fill="none" stroke="#000000" stroke-width="5" stroke-linecap="butt"/><path d="M349.0695,165.66444l19.40273,-21.02505l19.30292,11.82264c0,0 -7.24062,13.70619 -12.05217,17.93455c-5.20901,4.57765 -21.59187,5.9156 -21.59187,5.9156z" fill="#485f85" stroke="none" stroke-width="0" stroke-linecap="butt"/><path d="M353.89236,157.45817c4.97233,-11.38499 16.55882,-15.69052 25.87912,-9.61669c9.32031,6.07382 12.84503,20.22699 7.8727,31.61196c-4.97233,11.38499 -16.55882,15.69051 -25.87912,9.61669c-9.32031,-6.07382 -12.84503,-20.22698 -7.8727,-31.61195z" fill="none" stroke="#000000" stroke-width="5" stroke-linecap="butt"/><path d="M348.0575,192.70017c-2.12257,-3.29413 3.46809,-11.41392 3.46809,-11.41392c0,0 7.71106,6.17172 11.42762,8.52819c3.8792,2.45957 11.38053,5.93316 11.38053,5.93316c0,0 -4.19976,8.62356 -7.61956,9.11067c-2.0191,0.28759 -16.53413,-8.86399 -18.6567,-12.15811z" fill="#485f85" stroke="#000101" stroke-width="5" stroke-linecap="butt"/><path d="M356.65443,182.33488l14.53376,-33.27742" fill="none" stroke="#000000" stroke-width="2.5" stroke-linecap="round"/><path d="M354.566,171.51623l10.90017,-23.53951" fill="none" stroke="#000000" stroke-width="2.5" stroke-linecap="round"/><path d="M379.03208,148.11625l-17.47581,39.3046" fill="none" stroke="#000000" stroke-width="2.5" stroke-linecap="round"/><path d="M386.63431,152.69213l-17.17011,36.47734" fill="none" stroke="#000000" stroke-width="2.5" stroke-linecap="round"/><path d="M390.00891,160.5659l-12.05772,26.1899" fill="none" stroke="#000000" stroke-width="2.5" stroke-linecap="round"/><path d="M352.68577,168.02108l28.19074,19.12784" fill="none" stroke="#000000" stroke-width="2.5" stroke-linecap="round"/><path d="M354.87284,157.34052l33.1249,22.72161" fill="none" stroke="#000000" stroke-width="2.5" stroke-linecap="round"/><path d="M390.05619,169.67606l-29.63724,-20.0705" fill="none" stroke="#000000" stroke-width="2.5" stroke-linecap="round"/></g><g stroke-linecap="butt"><path d="M347.19057,249.11741c-0.82399,-0.04608 -25.68101,-17.51734 -48.96773,-33.96564c-20.06252,-14.17092 -39.03626,-27.42076 -39.57125,-30.01007c-0.5915,-2.86278 14.70955,-32.04272 16.71853,-31.97756c4.60173,0.14923 84.42849,57.35182 88.21879,62.4909c2.72506,3.69479 -12.84784,33.66095 -16.39833,33.46237z" fill="#c41414" stroke="none" stroke-width="0"/><path d="M350.24164,250.69214l-18.25484,-13.73487l14.2157,-33.97039l18.25485,13.73487z" fill="#ef99b4" stroke="none" stroke-width="NaN"/><path d="M332.96113,237.18278l-12.72793,-7.74213l14.11016,-33.39424l12.72793,7.74213z" fill="#d8d8d8" stroke="none" stroke-width="NaN"/><path d="M347.91791,249.94043c-0.82399,-0.04608 -25.68101,-17.51734 -48.96773,-33.96564c-20.06252,-14.17092 -39.03626,-27.42076 -39.57125,-30.01007c-0.5915,-2.86278 14.70955,-32.04272 16.71853,-31.97756c4.60173,0.14923 84.42849,57.35182 88.21879,62.4909c2.72506,3.69479 -12.84784,33.66095 -16.39833,33.46237z" fill="none" stroke="#000000" stroke-width="5"/></g><g stroke-linecap="round"><path d="M225.02277,275.49667c0,0 -7.28782,50.13298 -12.85822,54.16074c-4.27016,3.08761 -31.33738,0.67728 -33.6974,0.54161c-3.80327,-0.21864 11.50087,-22.30519 13.74499,-31.41323c2.24412,-9.10804 0,-24.37233 0,-24.37233z" fill="#c41414" stroke="none" stroke-width="0"/><path d="M218.92621,298.72593l-5.98572,25.72635l-2.43863,3.24964l-10.86298,1.08321l-20.39579,-1.35402c0,0 10.06065,-15.18509 12.55753,-20.63508c1.63819,-3.57569 2.51762,-8.88252 2.51762,-8.88252z" fill="#5b5a5a" stroke="#5b5a5a" stroke-width="0.5"/><path d="M224.57939,277.07502c0,0 -7.18504,47.98215 -12.67688,51.83711c-4.20994,2.95514 -30.89544,0.64823 -33.22218,0.51837c-3.74964,-0.20926 11.33868,-21.34824 13.55115,-30.06552c2.21247,-8.71728 0,-23.3267 0,-23.3267z" fill="none" stroke="#000000" stroke-width="5"/></g><path d="M191.61746,276.57989c-1.02743,-0.89384 -1.28835,-35.92481 -1.37847,-68.78326c-0.07765,-28.30898 -0.44162,-55.00538 3.78269,-56.86965c4.67043,-2.06115 81.15181,-0.53074 83.74702,1.62482c5.94455,4.93752 4.69025,117.98647 0,124.56969c-3.37212,4.73309 -81.72413,3.30983 -86.15124,-0.54161z" fill="#c41414" stroke="#000000" stroke-width="5" stroke-linecap="butt"/><g><path d="M183.46133,150.38537c-1.22145,-0.89383 -1.53164,-35.92481 -1.63877,-68.78326c-0.0923,-28.30898 -0.52501,-55.00538 4.49699,-56.86965c5.55236,-2.06115 96.47595,-0.53075 99.56121,1.62482c7.06707,4.93752 5.57593,117.98647 0,124.56969c-4.00887,4.73309 -97.15634,3.30982 -102.41943,-0.54161z" fill="#ffbbce" stroke="#000000" stroke-width="5" stroke-linecap="butt"/><g stroke="#000000" stroke-width="5" stroke-linecap="butt"><path d="M184.17104,92.829c-0.43024,-0.21389 -0.53033,-8.56931 -0.55946,-16.40645c-0.02509,-6.75203 -0.17056,-13.11965 1.59981,-13.56137c1.95733,-0.48838 34.00075,-0.07065 35.08751,0.44527c2.48932,1.18174 1.93407,28.14419 -0.03276,29.71113c-1.41408,1.12656 -34.24127,0.73309 -36.09511,-0.18857z" fill="#ffffff"/><path d="M201.82466,90.2672c-0.20748,-0.20619 0.00938,-7.48114 0.24505,-14.30179c0.20304,-5.8763 0.33385,-11.42371 1.2298,-11.72546c0.99056,-0.33363 16.93842,1.52501 17.46329,2.02463c1.20223,1.14443 0.06496,24.57926 -0.96477,25.85092c-0.74033,0.91427 -17.07938,-0.95983 -17.97337,-1.84829z" fill="#000000"/></g><g stroke="#000000" stroke-width="5" stroke-linecap="butt"><path d="M251.33217,91.84416c-0.42673,-0.22414 -0.39305,-8.58035 -0.29669,-16.41668c0.08302,-6.75134 0.03951,-13.12121 1.81662,-13.52057c1.96479,-0.44153 33.99538,0.74158 35.07368,1.28336c2.46992,1.24098 1.48312,28.18502 -0.50842,29.70467c-1.43185,1.09257 -34.24645,-0.08502 -36.08518,-1.05078z" fill="#ffffff"/><path d="M269.02343,89.70457c-0.20414,-0.21111 0.12915,-7.47949 0.47397,-14.29321c0.29708,-5.87032 0.51668,-11.41354 1.41729,-11.69384c0.99572,-0.3099 16.91077,1.92936 17.42753,2.44141c1.18368,1.17292 -0.32856,24.57611 -1.37845,25.82292c-0.75482,0.8964 -17.06074,-1.36763 -17.94034,-2.27729z" fill="#000000"/></g><g stroke="#000000" stroke-width="5"><path d="M197.0894,-6.13915l-0.44339,12.45697h7.09419l1.33016,-12.99858l17.29209,-0.54161l1.77355,13.54018l25.71644,-0.54161v-11.91536l19.06563,-1.08321l0.88677,15.16501h6.6508l1.33016,-14.6234l17.29209,1.08321l-0.44339,29.7884l-5.76403,5.95768l-106.85623,0.54161l-4.87726,-2.70804l0.88677,-33.03805z" fill="#fee70a" stroke-linecap="round"/><path d="M200.6365,25.81568c-4.40777,0 -7.98096,-3.51605 -7.98096,-7.85331c0,-4.33726 3.57319,-7.85331 7.98096,-7.85331c4.40777,0 7.98096,3.51605 7.98096,7.85331c0,4.33726 -3.57319,7.85331 -7.98096,7.85331z" fill="#7e93ff" stroke-linecap="butt"/><path d="M237.88099,26.89889c-5.38727,0 -9.75451,-4.12226 -9.75451,-9.20733c0,-5.08506 4.36724,-9.20733 9.75451,-9.20733c5.38727,0 9.75451,4.12226 9.75451,9.20733c0,5.08506 -4.36724,9.20733 -9.75451,9.20733z" fill="#0026ff" stroke-linecap="butt"/><path d="M273.13024,26.89889c-5.50971,0 -9.9762,-3.75854 -9.9762,-8.39491c0,-4.63638 4.46649,-8.39491 9.9762,-8.39491c5.50971,0 9.9762,3.75854 9.9762,8.39491c0,4.63638 -4.46649,8.39491 -9.9762,8.39491z" fill="#b6ff00" stroke-linecap="butt"/></g><g stroke-linecap="butt"><path d="M215.71122,141.08572c-0.49514,-0.23179 -0.62088,-9.31588 -0.66432,-17.8366c-0.03741,-7.34098 -0.21283,-14.26378 1.82296,-14.74722c2.25077,-0.53449 39.10869,-0.13762 40.35937,0.42135c2.86479,1.28038 2.26032,30.59579 0,32.30293c-1.62508,1.22736 -39.3845,0.85829 -41.51801,-0.14045z" fill="#fea3c1" stroke="none" stroke-width="0"/><path d="M217.4852,121.68018v-11.37375h40.79159v11.37375z" fill="#ffc7d9" stroke="none" stroke-width="0"/><path d="M219.51798,120.61281c0.35856,-0.02689 0.61894,0.03673 0.61894,0.03673l3.4966,1.48019c0.16389,1.56391 0.49824,3.11509 0.4917,4.69174c-0.0186,4.48072 -2.57849,11.58722 -7.46769,6.32449c-1.66316,-1.79022 0.06472,-8.15731 0.42734,-10.37206c0,0 0.41118,-2.5113 2.43311,-2.16109z" fill="#563741" stroke="none" stroke-width="0.5"/><path d="M257.09747,121.85598c0.58656,0.64814 0.98449,1.65316 1.16311,2.7049c1.50465,1.45964 2.82993,3.1639 1.60025,6.33897c-1.31614,3.39827 -6.00168,4.50495 -8.17573,1.70454c-1.46313,-1.88467 -0.7132,-8.22423 1.56787,-10.6462c0.31909,-0.73068 0.99843,-1.64001 2.35491,-1.30861c0.7976,0.19486 1.24403,0.67569 1.48961,1.20641z" fill="#563741" stroke="none" stroke-width="0.5"/><path d="M216.15504,142.80287v-5.95768h43.00852v5.95768z" fill="#a06778" stroke="none" stroke-width="0"/><path d="M216.15461,142.16894c-0.49514,-0.23179 -0.62088,-9.31588 -0.66432,-17.8366c-0.03741,-7.34098 -0.21283,-14.26378 1.82296,-14.74722c2.25077,-0.53449 39.10869,-0.13762 40.35937,0.42135c2.86479,1.28038 2.26032,30.59579 0,32.30293c-1.62508,1.22736 -39.3845,0.85829 -41.51801,-0.14045z" fill="none" stroke="#000000" stroke-width="5"/></g></g><g><g stroke-linecap="round"><path d="M264.4842,155.74158c0,0 -7.34891,31.25194 -7.53758,57.41038c-0.18867,26.15843 6.6508,65.53449 6.6508,65.53449l-51.43287,-2.16643c0,0 6.37039,-43.33759 6.20742,-65.53449c-0.16297,-22.1969 -7.09419,-55.24395 -7.09419,-55.24395z" fill="#f7f6f6" stroke="none" stroke-width="0"/><path d="M214.38149,274.35359l7.98096,-57.95199l-6.6508,-57.41038h44.33868l-6.20742,54.70234l6.6508,61.20163z" fill="none" stroke="#c6c7c7" stroke-width="5"/><path d="M264.4842,156.82479c0,0 -7.34891,31.25194 -7.53758,57.41038c-0.18867,26.15843 6.6508,65.53449 6.6508,65.53449l-51.43287,-2.16643c0,0 6.37039,-43.33759 6.20742,-65.53449c-0.16297,-22.1969 -7.09419,-55.24395 -7.09419,-55.24395z" fill="none" stroke="#000000" stroke-width="5"/></g><path d="M231.23019,190.13364c0,-4.33726 2.87841,-7.85331 6.42911,-7.85331c3.55069,0 6.42911,3.51605 6.42911,7.85331c0,4.33726 -2.87841,7.85331 -6.42911,7.85331c-3.55069,0 -6.42911,-3.51605 -6.42911,-7.85331z" fill="#ffd901" stroke="none" stroke-width="NaN" stroke-linecap="butt"/><path d="M231.23019,210.17312c0,-4.33726 2.87841,-7.85331 6.42911,-7.85331c3.5507,0 6.42911,3.51605 6.42911,7.85331c0,4.33726 -2.87841,7.85331 -6.42911,7.85331c-3.5507,0 -6.42911,-3.51605 -6.42911,-7.85331z" fill="#ffd901" stroke="none" stroke-width="NaN" stroke-linecap="butt"/><path d="M231.23019,229.67098c0,-4.33726 2.87841,-7.85331 6.42911,-7.85331c3.5507,0 6.42911,3.51605 6.42911,7.85331c0,4.33727 -2.87841,7.85331 -6.42911,7.85331c-3.5507,0 -6.42911,-3.51604 -6.42911,-7.85331z" fill="#ffd901" stroke="none" stroke-width="NaN" stroke-linecap="butt"/></g><g stroke-linecap="round"><path d="M277.34242,279.01712c0,0 14.10309,50.26224 9.31112,50.36769c-6.5352,0.14382 -24.07869,-0.78447 -29.26353,-0.61424c-7.08754,0.23271 8.63532,-10.2458 8.42435,-21.49841c-0.21097,-11.2526 -9.31112,-25.79808 -9.31112,-25.79808z" fill="#c41414" stroke="none" stroke-width="0"/><path d="M279.89189,297.10111c0,0 2.45938,7.82034 3.22529,12.2542c0.90908,5.26263 2.98212,18.88822 2.98212,18.88822l-27.71168,-1.35402l8.64604,-16.51902c0,0 -0.03488,-6.03322 -0.23539,-8.33552c-0.15953,-1.83179 -0.4297,-4.93386 -0.4297,-4.93386z" fill="#5a5b5a" stroke="#5a5b5a" stroke-width="0.5"/><path d="M277.34242,279.28792c0,0 14.10309,50.26224 9.31112,50.36769c-6.5352,0.14382 -24.07869,-0.78447 -29.26353,-0.61424c-7.08754,0.23271 8.63532,-10.2458 8.42435,-21.49841c-0.21097,-11.2526 -9.31112,-25.79808 -9.31112,-25.79808z" fill="none" stroke="#000000" stroke-width="5"/></g><path d="M173.05834,46.36141l51.44088,16.2074" fill="none" stroke="#000000" stroke-width="5" stroke-linecap="round"/><path d="M299.19419,39.31471l-50.03154,24.66343" fill="none" stroke="#000000" stroke-width="5" stroke-linecap="round"/></g></g></svg>