<svg version="1.1" xmlns="http://www.w3.org/2000/svg" xmlns:xlink="http://www.w3.org/1999/xlink" width="345.95259" height="326.07201" viewBox="0,0,345.95259,326.07201"><g transform="translate(-44.98238,-7.15766)"><g data-paper-data="{&quot;isPaintingLayer&quot;:true}" fill-rule="nonzero" stroke-linejoin="miter" stroke-miterlimit="10" stroke-dasharray="" stroke-dashoffset="0" style="mix-blend-mode: normal"><g stroke="#000000" stroke-width="5"><path d="M113.93717,227.29365l37.51134,44.9006l-8.96658,9.31037l-38.20109,-44.18441z" fill="#825800" stroke-linecap="round"/><path d="M104.28085,237.32019c0,0 -9.94179,13.27888 -14.40746,16.65554c-3.93121,2.97254 -11.99779,2.1621 -11.99779,2.1621c0,0 6.0029,-10.83335 9.3902,-15.11542c2.87627,-3.63604 9.65238,-8.95728 9.65238,-8.95728l10.70339,-11.83044c0,0 6.64463,-8.14928 10.71204,-11.54799c4.1774,-3.4906 14.03122,-9.12729 14.03122,-9.12729c0,0 -0.88413,8.76103 -3.67159,13.14742c-2.9989,4.71911 -13.73392,14.24214 -13.73392,14.24214z" fill="#00a5a5" stroke-linecap="round"/><path d="M92.16904,235.03259l-42.53949,-38.76788l-1.92881,-28.55627l21.91899,4.75935l43.99882,40.14452z" fill="#00ffff" stroke-linecap="round"/><path d="M160.77945,293.32228c-4.30665,4.47176 -11.07191,4.43743 -15.11067,-0.07668c-4.03875,-4.51411 -3.82159,-11.79859 0.48506,-16.27035c4.30665,-4.47176 11.07191,-4.43743 15.11067,0.07668c4.03875,4.51411 3.82159,11.79859 -0.48506,16.27035z" fill="#00a5a5" stroke-linecap="butt"/></g><g stroke-linecap="butt"><path d="M111.06335,246.44324c0.256,-0.91948 21.77362,-24.93095 42.00115,-47.4068c17.42692,-19.36394 33.77765,-37.71222 36.13937,-37.71621c2.61114,-0.00441 23.62245,24.02889 23.03877,26.2816c-1.33697,5.16003 -71.37853,82.01769 -76.78271,85.1056c-3.8854,2.22009 -25.49971,-22.30227 -24.39659,-26.26417z" fill="#c41414" stroke="none" stroke-width="0"/><path d="M109.69128,249.11568l15.70758,-17.77566l24.53342,24.90457l-15.70758,17.77565z" fill="#ef99b4" stroke="none" stroke-width="NaN"/><path d="M125.03946,233.14572l9.98523,-12.57393l24.93929,23.66541l-9.98523,12.57393z" fill="#d8d8d8" stroke="none" stroke-width="NaN"/><path d="M110.16629,247.07359c0.256,-0.91948 21.77362,-24.93095 42.00115,-47.4068c17.42692,-19.36394 33.77765,-37.71222 36.13937,-37.71621c2.61114,-0.00441 23.62245,24.02889 23.03877,26.2816c-1.33697,5.16003 -71.37853,82.01769 -76.78271,85.1056c-3.8854,2.22009 -25.49971,-22.30227 -24.39659,-26.26417z" fill="none" stroke="#000000" stroke-width="5"/></g><g><path d="M306.66638,253.34035c2.74259,-9.34836 37.51018,-50.77357 37.51018,-50.77357c0,0 4.52548,11.17183 8.25214,14.12555c3.88972,3.08297 14.61793,4.00114 14.61793,4.00114c0,0 -32.42765,41.04385 -42.49537,48.76785c-5.94413,4.56037 -20.62747,-6.77259 -17.88488,-16.12095z" fill="#343545" stroke="none" stroke-width="0" stroke-linecap="butt"/><path d="M352.34004,182.14499c7.32305,-9.42871 20.35467,-10.67686 29.10692,-2.78782c8.75226,7.88904 9.91086,21.92787 2.58781,31.35658c-7.32305,9.42872 -20.35467,10.67686 -29.10692,2.78782c-8.75226,-7.88904 -9.91086,-21.92787 -2.58781,-31.35658z" fill="#343545" stroke="none" stroke-width="0" stroke-linecap="butt"/><path d="M339.72759,217.2149l-30.34916,37.33931" fill="none" stroke="#485e84" stroke-width="10" stroke-linecap="round"/><path d="M307.68743,253.01681c2.74259,-9.34836 37.51019,-50.77357 37.51019,-50.77357c0,0 4.52548,11.17183 8.25214,14.12556c3.88972,3.08297 14.61792,4.00113 14.61792,4.00113c0,0 -32.42765,41.04385 -42.49537,48.76785c-5.94413,4.56037 -20.62747,-6.77259 -17.88488,-16.12095z" fill="none" stroke="#000000" stroke-width="5" stroke-linecap="butt"/><path d="M345.33599,188.68522l24.32949,-14.97202l18.26373,15.63317c0,0 -10.14249,11.05153 -15.99697,13.84541c-6.33809,3.02467 -23.90244,0.36041 -23.90244,0.36041z" fill="#485f85" stroke="none" stroke-width="0" stroke-linecap="butt"/><path d="M351.92423,182.18481c7.32305,-9.42872 20.35467,-10.67686 29.10692,-2.78782c8.75226,7.88904 9.91085,21.92787 2.5878,31.35658c-7.32305,9.42872 -20.35467,10.67685 -29.10692,2.78782c-8.75226,-7.88904 -9.91085,-21.92786 -2.5878,-31.35657z" fill="none" stroke="#000000" stroke-width="5" stroke-linecap="butt"/><path d="M339.36037,213.65321c-1.64647,-3.57846 5.73787,-9.81488 5.73787,-9.81488c0,0 7.03303,7.59609 10.53497,10.68081c3.65518,3.2197 10.95605,8.24981 10.95605,8.24981c0,0 -6.00515,7.03829 -9.70928,6.67593c-2.18698,-0.21395 -15.87314,-12.21324 -17.51961,-15.79169z" fill="#485f85" stroke="#000101" stroke-width="5" stroke-linecap="butt"/><path d="M371.73539,178.48136l-21.40472,27.55941" fill="none" stroke="#000000" stroke-width="2.5" stroke-linecap="round"/><path d="M365.8816,176.10732l-15.79598,19.34686" fill="none" stroke="#000000" stroke-width="2.5" stroke-linecap="round"/><path d="M354.59054,211.95366l25.60898,-32.477" fill="none" stroke="#000000" stroke-width="2.5" stroke-linecap="round"/><path d="M387.40706,185.55871l-24.77276,29.91371" fill="none" stroke="#000000" stroke-width="2.5" stroke-linecap="round"/><path d="M389.54632,193.70642l-17.50078,21.54184" fill="none" stroke="#000000" stroke-width="2.5" stroke-linecap="round"/><path d="M348.73186,191.74616l26.33528,24.56716" fill="none" stroke="#000000" stroke-width="2.5" stroke-linecap="round"/><path d="M383.88231,211.40559l-30.90007,-29.09636" fill="none" stroke="#000000" stroke-width="2.5" stroke-linecap="round"/><path d="M360.24964,176.42101l27.69363,25.79153" fill="none" stroke="#000000" stroke-width="2.5" stroke-linecap="round"/></g><g stroke-linecap="butt"><path d="M329.54406,265.85827c-0.86484,-0.23119 -24.16397,-22.22869 -45.9772,-42.91198c-18.79304,-17.81955 -36.59258,-34.53001 -36.71,-37.07113c-0.12982,-2.80949 21.1415,-26.57584 23.25828,-26.05624c4.84864,1.19015 79.48237,72.85646 82.60566,78.52288c2.24552,4.07392 -19.45022,28.5127 -23.17674,27.51648z" fill="#c41414" stroke="none" stroke-width="0"/><path d="M332.50277,268.02606l-16.95385,-16.99943l20.95286,-28.48945l16.95386,16.99943z" fill="#ef99b4" stroke="none" stroke-width="NaN"/><path d="M316.54187,251.45978l-12.13912,-10.13898l20.74108,-27.97531l12.13912,10.13898z" fill="#d8d8d8" stroke="none" stroke-width="NaN"/><path d="M330.17171,266.79322c-0.86484,-0.23119 -24.16397,-22.22869 -45.9772,-42.91198c-18.79304,-17.81955 -36.59258,-34.53001 -36.71,-37.07113c-0.12982,-2.80949 21.1415,-26.57584 23.25828,-26.05624c4.84864,1.19015 79.48237,72.85646 82.60566,78.52288c2.24552,4.07392 -19.45022,28.5127 -23.17674,27.51648z" fill="none" stroke="#000000" stroke-width="5"/></g><g stroke-linecap="round"><path d="M222.26382,279.1311c0,0 -7.87289,47.76294 -13.89049,51.60028c-4.61298,2.94164 -33.85319,0.64526 -36.40267,0.516c-4.10861,-0.2083 12.42417,-21.25071 14.84846,-29.92816c2.42428,-8.67745 0,-23.22013 0,-23.22013z" fill="#c41414" stroke="none" stroke-width="0"/><path d="M215.67781,301.2622l-6.46626,24.51013l-2.6344,3.09602l-11.73507,1.03201l-22.0332,-1.29001c0,0 10.86833,-14.46721 13.56567,-19.65955c1.76971,-3.40665 2.71974,-8.4626 2.71974,-8.4626z" fill="#5b5a5a" stroke="#5b5a5a" stroke-width="0.5"/><path d="M221.78483,280.63484c0,0 -7.76186,45.71379 -13.6946,49.38651c-4.54792,2.81544 -33.37577,0.61758 -35.8893,0.49387c-4.05067,-0.19936 12.24896,-20.339 14.63906,-28.64417c2.39009,-8.30517 0,-22.22393 0,-22.22393z" fill="none" stroke="#000000" stroke-width="5"/></g><path d="M186.17668,280.16311c-1.10992,-0.85158 -1.39178,-34.22646 -1.48914,-65.53152c-0.08388,-26.97067 -0.47708,-52.405 4.08637,-54.18113c5.04538,-1.96371 87.66679,-0.50565 90.47034,1.54801c6.42179,4.7041 5.06679,112.40865 0,118.68065c-3.64283,4.50933 -88.28505,3.15336 -93.06757,-0.516z" fill="#c41414" stroke="#000000" stroke-width="5" stroke-linecap="butt"/><g><path d="M177.36577,159.93445c-1.31951,-0.85157 -1.6546,-34.22646 -1.77033,-65.53152c-0.0997,-26.97067 -0.56716,-52.405 4.85801,-54.18113c5.99811,-1.96371 104.22116,-0.50566 107.55411,1.54801c7.63443,4.7041 6.02357,112.40865 0,118.68065c-4.33071,4.50933 -104.95618,3.15334 -110.6418,-0.516z" fill="#ffbbce" stroke="#000000" stroke-width="5" stroke-linecap="butt"/><g stroke="#000000" stroke-width="5" stroke-linecap="butt"><path d="M178.13245,105.09906c-0.46478,-0.20378 -0.57291,-8.1642 -0.60437,-15.63083c-0.0271,-6.43283 -0.18425,-12.49942 1.72825,-12.92026c2.11447,-0.46529 36.73037,-0.06731 37.90439,0.42422c2.68916,1.12588 2.08934,26.81367 -0.03539,28.30653c-1.5276,1.07331 -36.99021,0.69843 -38.99287,-0.17965z" fill="#ffffff"/><path d="M197.20333,102.65837c-0.22414,-0.19644 0.01014,-7.12746 0.26472,-13.62567c0.21935,-5.5985 0.36065,-10.88366 1.32853,-11.17114c1.07009,-0.31786 18.29826,1.45292 18.86526,1.92891c1.29875,1.09032 0.07017,23.41727 -1.04222,24.62882c-0.79977,0.87104 -18.45053,-0.91445 -19.41629,-1.76091z" fill="#000000"/></g><g stroke="#000000" stroke-width="5" stroke-linecap="butt"><path d="M250.68536,104.16078c-0.46099,-0.21354 -0.42461,-8.17471 -0.32051,-15.64058c0.08968,-6.43217 0.04269,-12.5009 1.96246,-12.88138c2.12252,-0.42066 36.72458,0.70652 37.88944,1.22269c2.66821,1.18232 1.60219,26.85257 -0.54924,28.30038c-1.5468,1.04092 -36.9958,-0.081 -38.98214,-1.00111z" fill="#ffffff"/><path d="M269.7969,102.12234c-0.22053,-0.20113 0.13952,-7.1259 0.51202,-13.6175c0.32093,-5.5928 0.55816,-10.87396 1.53107,-11.14102c1.07566,-0.29525 18.26839,1.83815 18.82664,2.326c1.27871,1.11747 -0.35494,23.41427 -1.48911,24.60214c-0.81542,0.85403 -18.4304,-1.30298 -19.38062,-2.16963z" fill="#000000"/></g><g stroke="#000000" stroke-width="5"><path d="M192.08792,10.80963l-0.47898,11.86807h7.66372l1.43695,-12.38407l18.68032,-0.516l1.91593,12.90007l27.78099,-0.516v-11.35206l20.59625,-1.03201l0.95797,14.44808h7.18474l1.43695,-13.93208l18.68032,1.03201l-0.47898,28.38016l-6.22677,5.67603l-115.43478,0.516l-5.26881,-2.58001l0.95797,-31.47617z" fill="#fee70a" stroke-linecap="round"/><path d="M195.91978,41.2538c-4.76163,0 -8.62169,-3.34983 -8.62169,-7.48204c0,-4.13221 3.86005,-7.48204 8.62169,-7.48204c4.76163,0 8.62169,3.34983 8.62169,7.48204c0,4.13221 -3.86005,7.48204 -8.62169,7.48204z" fill="#7e93ff" stroke-linecap="butt"/><path d="M236.15431,42.2858c-5.81976,0 -10.53762,-3.92738 -10.53762,-8.77205c0,-4.84467 4.71785,-8.77205 10.53762,-8.77205c5.81976,0 10.53762,3.92738 10.53762,8.77205c0,4.84467 -4.71785,8.77205 -10.53762,8.77205z" fill="#0026ff" stroke-linecap="butt"/><path d="M274.23342,42.2858c-5.95204,0 -10.77711,-3.58085 -10.77711,-7.99804c0,-4.41719 4.82507,-7.99804 10.77711,-7.99804c5.95204,0 10.77711,3.58085 10.77711,7.99804c0,4.41719 -4.82507,7.99804 -10.77711,7.99804z" fill="#b6ff00" stroke-linecap="butt"/></g><g stroke-linecap="butt"><path d="M212.20472,151.07444c-0.53489,-0.22083 -0.67073,-8.87548 -0.71765,-16.99338c-0.04042,-6.99393 -0.22991,-13.58946 1.96931,-14.05004c2.43147,-0.50922 42.24838,-0.13112 43.59947,0.40143c3.09478,1.21985 2.44179,29.14937 0,30.7758c-1.75555,1.16933 -42.54634,0.81771 -44.85113,-0.13381z" fill="#fea3c1" stroke="none" stroke-width="0"/><path d="M214.12111,132.5863v-10.83606h44.06639v10.83606z" fill="#ffc7d9" stroke="none" stroke-width="0"/><path d="M216.31709,131.56939c0.38734,-0.02561 0.66863,0.035 0.66863,0.035l3.77731,1.41022c0.17705,1.48998 0.53824,2.96782 0.53117,4.46994c-0.02009,4.26889 -2.78549,11.03944 -8.06721,6.0255c-1.79668,-1.70559 0.06991,-7.77167 0.46164,-9.88172c0,0 0.44419,-2.39258 2.62845,-2.05892z" fill="#563741" stroke="none" stroke-width="0.5"/><path d="M256.91352,132.75378c0.63365,0.6175 1.06352,1.57501 1.25649,2.57702c1.62545,1.39064 3.05712,3.01432 1.72871,6.0393c-1.4218,3.23762 -6.4835,4.29198 -8.83209,1.62395c-1.58059,-1.79558 -0.77045,-7.83543 1.69374,-10.1429c0.3447,-0.69614 1.07858,-1.56248 2.54396,-1.24675c0.86163,0.18565 1.3439,0.64374 1.6092,1.14938z" fill="#563741" stroke="none" stroke-width="0.5"/><path d="M212.68417,152.71041v-5.67603h46.4613v5.67603z" fill="#a06778" stroke="none" stroke-width="0"/><path d="M212.68371,152.10645c-0.53489,-0.22083 -0.67073,-8.87548 -0.71765,-16.99338c-0.04042,-6.99393 -0.22991,-13.58946 1.96931,-14.05004c2.43147,-0.50922 42.24838,-0.13112 43.59947,0.40143c3.09478,1.21985 2.44179,29.14937 0,30.7758c-1.75555,1.16933 -42.54634,0.81771 -44.85113,-0.13381z" fill="none" stroke="#000000" stroke-width="5"/></g></g><g><g stroke-linecap="round"><path d="M264.89326,165.03744c0,0 -7.93889,29.7745 -8.1427,54.6963c-0.20382,24.92179 7.18474,62.43634 7.18474,62.43634l-55.56197,-2.06401c0,0 6.88181,-41.2888 6.70576,-62.43634c-0.17605,-21.14754 -7.66372,-52.63229 -7.66372,-52.63229z" fill="#f7f6f6" stroke="none" stroke-width="0"/><path d="M210.76824,278.04206l8.62169,-55.2123l-7.18474,-54.6963h47.89825l-6.70576,52.11629l7.18474,58.30832z" fill="none" stroke="#c6c7c7" stroke-width="5"/><path d="M264.89326,166.06944c0,0 -7.93889,29.7745 -8.1427,54.6963c-0.20382,24.92179 7.18474,62.43634 7.18474,62.43634l-55.56197,-2.06401c0,0 6.88181,-41.2888 6.70576,-62.43634c-0.17605,-21.14754 -7.66372,-52.63229 -7.66372,-52.63229z" fill="none" stroke="#000000" stroke-width="5"/></g><path d="M228.96957,197.80362c0,-4.13221 3.1095,-7.48204 6.94525,-7.48204c3.83575,0 6.94525,3.34983 6.94525,7.48204c0,4.13221 -3.1095,7.48204 -6.94525,7.48204c-3.83575,0 -6.94525,-3.34983 -6.94525,-7.48204z" fill="#ffd901" stroke="none" stroke-width="NaN" stroke-linecap="butt"/><path d="M228.96957,216.89572c0,-4.13221 3.10949,-7.48204 6.94525,-7.48204c3.83576,0 6.94525,3.34983 6.94525,7.48204c0,4.13221 -3.10949,7.48204 -6.94525,7.48204c-3.83576,0 -6.94525,-3.34983 -6.94525,-7.48204z" fill="#ffd901" stroke="none" stroke-width="NaN" stroke-linecap="butt"/><path d="M228.96957,235.47182c0,-4.13221 3.10949,-7.48204 6.94525,-7.48204c3.83576,0 6.94525,3.34983 6.94525,7.48204c0,4.13222 -3.10949,7.48204 -6.94525,7.48204c-3.83576,0 -6.94525,-3.34982 -6.94525,-7.48204z" fill="#ffd901" stroke="none" stroke-width="NaN" stroke-linecap="butt"/></g><g stroke-linecap="round"><path d="M278.78375,282.48512c0,0 15.2353,47.88608 10.05863,47.98655c-7.05986,0.13702 -26.01176,-0.74739 -31.61285,-0.5852c-7.65654,0.22171 9.32858,-9.76143 9.10067,-20.48207c-0.22791,-10.72063 -10.05863,-24.57847 -10.05863,-24.57847z" fill="#c41414" stroke="none" stroke-width="0"/><path d="M281.5379,299.71419c0,0 2.65682,7.45064 3.48422,11.67488c0.98206,5.01383 3.22153,17.99528 3.22153,17.99528l-29.93641,-1.29001l9.34016,-15.73809c0,0 -0.03768,-5.748 -0.25428,-7.94146c-0.17234,-1.74519 -0.46419,-4.70061 -0.46419,-4.70061z" fill="#5a5b5a" stroke="#5a5b5a" stroke-width="0.5"/><path d="M278.78375,282.74312c0,0 15.2353,47.88608 10.05863,47.98655c-7.05986,0.13702 -26.01176,-0.74739 -31.61285,-0.5852c-7.65654,0.22171 9.32858,-9.76143 9.10067,-20.48207c-0.22791,-10.72063 -10.05863,-24.57847 -10.05863,-24.57847z" fill="none" stroke="#000000" stroke-width="5"/></g><path d="M166.71631,55.52211l57.07823,25.3681" fill="none" stroke="#000000" stroke-width="5" stroke-linecap="round"/><path d="M302.71753,55.52211l-58.48757,25.3681" fill="none" stroke="#000000" stroke-width="5" stroke-linecap="round"/></g></g></svg>