<svg version="1.1" xmlns="http://www.w3.org/2000/svg" xmlns:xlink="http://www.w3.org/1999/xlink" width="333.55402" height="291.70118" viewBox="0,0,333.55402,291.70118"><g transform="translate(-24.36779,-41.63725)"><g data-paper-data="{&quot;isPaintingLayer&quot;:true}" fill-rule="nonzero" stroke-linejoin="miter" stroke-miterlimit="10" stroke-dasharray="" stroke-dashoffset="0" style="mix-blend-mode: normal"><g stroke-linecap="round"><path d="M214.8027,282.99909c0,0 -8.77354,44.28315 -15.47954,47.84092c-5.14069,2.72732 -37.72595,0.59825 -40.56708,0.47841c-4.57863,-0.19312 13.84548,-19.70248 16.5471,-27.74774c2.70162,-8.04525 0,-21.52842 0,-21.52842z" fill="#c41414" stroke="none" stroke-width="0"/><path d="M207.46326,303.51781l-7.20599,22.72444l-2.93578,2.87046l-13.07755,0.95682l-24.55376,-1.19602c0,0 12.11165,-13.4132 15.11756,-18.22725c1.97216,-3.15846 3.03087,-7.84605 3.03087,-7.84605z" fill="#5b5a5a" stroke="#5b5a5a" stroke-width="0.5"/><path d="M214.26892,284.39327c0,0 -8.64981,42.3833 -15.26124,45.78843c-5.0682,2.61032 -37.19391,0.57259 -39.99498,0.45789c-4.51406,-0.18484 13.65023,-18.8572 16.31374,-26.55729c2.66352,-7.70009 0,-20.6048 0,-20.6048z" fill="none" stroke="#000000" stroke-width="5"/></g><g stroke-linecap="butt"><path d="M352.65033,202.54276c-0.47878,0.80802 -29.01535,19.53786 -55.81995,37.0561c-23.09333,15.09274 -44.80016,29.41977 -47.35405,29.04589c-2.82362,-0.41335 -20.25618,-25.96196 -19.13023,-27.94856c2.57907,-4.55048 95.18193,-64.31583 101.70238,-66.30298c4.68794,-1.42867 22.66489,24.66788 20.60187,28.14955z" fill="#c41414" stroke="none" stroke-width="0"/><path d="M355.6537,200.04376l-21.74944,13.43769l-22.20833,-26.14472l21.74943,-13.4377z" fill="#ef99b4" stroke="none" stroke-width="NaN"/><path d="M334.62028,212.58605l-13.5569,10.01318l-21.75956,-25.83688l13.5569,-10.01318z" fill="#d8d8d8" stroke="none" stroke-width="NaN"/><path d="M353.75857,202.10417c-0.47878,0.80802 -29.01535,19.53786 -55.81995,37.0561c-23.09333,15.09274 -44.80016,29.41977 -47.35405,29.04589c-2.82362,-0.41335 -20.25618,-25.96196 -19.13023,-27.94856c2.57907,-4.55048 95.18193,-64.31583 101.70238,-66.30298c4.68794,-1.42867 22.66489,24.66788 20.60187,28.14955z" fill="none" stroke="#000000" stroke-width="5"/></g><g stroke="#000000" stroke-width="5"><path d="M86.10756,231.9535l26.26474,50.81918l-12.38613,5.61072l-27.21752,-50.3876z" fill="#825800" stroke-linecap="round"/><path d="M72.76863,237.99579c0,0 -14.63402,8.83988 -20.41872,10.51765c-5.09236,1.47697 -13.43588,-1.61455 -13.43588,-1.61455c0,0 9.69407,-7.83209 14.60627,-10.62935c4.17111,-2.37523 13.00887,-5.0961 13.00887,-5.0961l15.00369,-7.33247c0,0 9.55955,-5.26519 14.92684,-7.07967c5.51242,-1.86354 17.7239,-3.9583 17.7239,-3.9583c0,0 -3.61135,7.50215 -7.91655,10.56832c-4.63175,3.29877 -18.96598,8.57755 -18.96598,8.57755z" fill="#00a5a5" stroke-linecap="round"/><path d="M60.56733,232.40527l-33.48831,-46.86505l6.64805,-25.86843l21.8922,10.66614l34.62291,48.51415z" fill="#00ffff" stroke-linecap="round"/><path d="M115.87077,304.23767c-5.94906,2.69482 -13.14324,0.67382 -16.06869,-4.51403c-2.92544,-5.18785 -0.47434,-11.57802 5.47472,-14.27284c5.94906,-2.69482 13.14324,-0.67382 16.06869,4.51403c2.92544,5.18785 0.47434,11.57802 -5.47472,14.27284z" fill="#00a5a5" stroke-linecap="butt"/></g><g stroke-linecap="butt"><path d="M73.50428,251.18022c0.44432,-0.79594 28.33109,-19.03863 54.5289,-36.09989c22.57055,-14.69902 43.77928,-28.65486 46.37282,-28.25361c2.86745,0.44364 21.66756,25.99748 20.62677,27.95501c-2.38402,4.48387 -92.92661,62.67643 -99.40792,64.57038c-4.65981,1.36168 -24.03511,-24.74225 -22.12057,-28.17187z" fill="#c41414" stroke="none" stroke-width="0"/><path d="M71.52343,253.38596l20.40095,-13.54308l22.51219,26.95349l-20.40095,13.54307z" fill="#ef99b4" stroke="none" stroke-width="NaN"/><path d="M91.20919,241.43056l13.195,-9.77294l23.17781,25.89124l-13.195,9.77294z" fill="#d8d8d8" stroke="none" stroke-width="NaN"/><path d="M72.40748,251.60217c0.44432,-0.79594 28.33109,-19.03863 54.5289,-36.09989c22.57055,-14.69902 43.77928,-28.65486 46.37282,-28.25361c2.86745,0.44364 21.66756,25.99748 20.62677,27.95501c-2.38402,4.48387 -92.92661,62.67643 -99.40792,64.57038c-4.65981,1.36168 -24.03511,-24.74225 -22.12057,-28.17187z" fill="none" stroke="#000000" stroke-width="5"/></g><path d="M175.22645,288.67805c-1.29497,-0.71081 -4.00112,-31.56023 -6.35376,-60.50801c-2.0269,-24.93978 -4.28752,-48.43716 0.6584,-50.39583c5.46826,-2.16553 97.42457,-6.53634 100.68857,-4.83096c7.47648,3.90635 13.69192,103.61772 8.50874,109.76953c-3.72651,4.42292 -97.92207,9.02804 -103.50197,5.96527z" fill="#c41414" stroke="#000000" stroke-width="5" stroke-linecap="butt"/><g><g stroke-linecap="round"><path d="M254.48328,176.74748c0,0 -6.69115,28.08845 -5.13098,51.1531c1.56017,23.06465 12.46375,57.25097 12.46375,57.25097l-61.91727,1.93719c0,0 4.69046,-38.66502 2.97857,-58.21252c-1.71189,-19.5475 -12.29334,-48.14989 -12.29334,-48.14989z" fill="#f7f6f6" stroke="none" stroke-width="0"/><path d="M202.41328,285.01392l5.62647,-51.66353l-11.90883,-50.09208l53.24939,-3.31571l-3.71846,48.66735l12.1678,53.4329z" fill="none" stroke="#c6c7c7" stroke-width="5"/><path d="M254.55726,177.702c0,0 -6.69115,28.08845 -5.13098,51.1531c1.56017,23.06465 12.46375,57.25097 12.46375,57.25097l-61.91727,1.93719c0,0 4.69046,-38.66502 2.97857,-58.21252c-1.71189,-19.5475 -12.29334,-48.14989 -12.29334,-48.14989z" fill="none" stroke="#000000" stroke-width="5"/></g><path d="M216.89539,209.5402c-0.29626,-3.82194 2.92047,-7.1355 7.18474,-7.40103c4.26427,-0.26553 7.96132,2.61753 8.25758,6.43947c0.29626,3.82194 -2.92047,7.1355 -7.18474,7.40103c-4.26427,0.26553 -7.96132,-2.61753 -8.25758,-6.43947z" fill="#ffd901" stroke="none" stroke-width="NaN" stroke-linecap="butt"/><path d="M218.26418,227.19878c-0.29626,-3.82194 2.92046,-7.1355 7.18474,-7.40103c4.26428,-0.26553 7.96132,2.61753 8.25758,6.43947c0.29626,3.82194 -2.92046,7.1355 -7.18474,7.40103c-4.26428,0.26553 -7.96132,-2.61753 -8.25758,-6.43947z" fill="#ffd901" stroke="none" stroke-width="NaN" stroke-linecap="butt"/><path d="M219.59599,244.3801c-0.29626,-3.82194 2.92046,-7.1355 7.18474,-7.40103c4.26428,-0.26553 7.96132,2.61753 8.25758,6.43947c0.29626,3.82195 -2.92046,7.1355 -7.18474,7.40103c-4.26428,0.26553 -7.96132,-2.61752 -8.25758,-6.43947z" fill="#ffd901" stroke="none" stroke-width="NaN" stroke-linecap="butt"/></g><g stroke-linecap="round"><path d="M277.78843,286.10875c0,0 16.9782,44.39732 11.20933,44.49047c-7.86749,0.12704 -28.98747,-0.69294 -35.22931,-0.54256c-8.53243,0.20555 10.39575,-9.05026 10.14177,-18.98984c-0.25398,-9.93957 -11.20933,-22.7878 -11.20933,-22.7878z" fill="#c41414" stroke="none" stroke-width="0"/><path d="M280.85765,302.08259c0,0 2.96076,6.90782 3.88281,10.82431c1.0944,4.64855 3.59007,16.68423 3.59007,16.68423l-33.36109,-1.19602l10.40866,-14.59148c0,0 -0.04199,-5.32923 -0.28337,-7.36288c-0.19205,-1.61805 -0.51729,-4.35815 -0.51729,-4.35815z" fill="#5a5b5a" stroke="#5a5b5a" stroke-width="0.5"/><path d="M277.78843,286.34796c0,0 16.9782,44.39732 11.20933,44.49047c-7.86749,0.12704 -28.98747,-0.69294 -35.22931,-0.54256c-8.53243,0.20555 10.39575,-9.05026 10.14177,-18.98984c-0.25398,-9.93957 -11.20933,-22.7878 -11.20933,-22.7878z" fill="none" stroke="#000000" stroke-width="5"/></g><g><path d="M162.04337,181.80704c-1.43224,-0.84409 -0.35804,-31.77426 0.87064,-60.77791c1.05857,-24.98791 1.64105,-48.56805 7.75856,-49.98618c6.76356,-1.5679 116.06374,3.89539 119.68565,5.93732c8.29632,4.67721 1.83218,104.37966 -5.14656,109.9374c-5.01744,3.9958 -116.99694,-1.47354 -123.16829,-5.11063z" fill="#ffbbce" stroke="#000000" stroke-width="5" stroke-linecap="butt"/><g stroke="#000000" stroke-width="5" stroke-linecap="butt"><path d="M165.27494,131.0435c-0.50866,-0.20823 -0.28385,-7.58673 0.00491,-14.5046c0.24878,-5.96006 0.33688,-11.5863 2.48454,-11.89606c2.37447,-0.34247 40.89921,1.47558 42.18507,1.98004c2.94534,1.15553 1.16354,24.92578 -1.26691,26.2197c-1.74741,0.93028 -41.21589,-0.90182 -43.40761,-1.79907z" fill="#ffffff"/><path d="M186.61465,129.58112c-0.24103,-0.19135 0.32036,-6.60196 0.88562,-12.61078c0.487,-5.17687 0.87353,-10.06675 1.96364,-10.29253c1.20524,-0.24963 20.31063,2.11204 20.92129,2.5767c1.39877,1.06437 -0.93736,21.69505 -2.22845,22.77076c-0.92825,0.77339 -20.50351,-1.61962 -21.5421,-2.44415z" fill="#000000"/></g><g stroke="#000000" stroke-width="5" stroke-linecap="butt"><path d="M246.09742,133.21217c-0.50401,-0.21711 -0.11827,-7.59026 0.32139,-14.50175c0.37879,-5.95456 0.58963,-11.57816 2.74364,-11.85023c2.3815,-0.3008 40.8592,2.19215 42.13379,2.71907c2.91957,1.20693 0.61945,24.94142 -1.83878,26.19248c-1.76737,0.89948 -41.18831,-1.62407 -43.36004,-2.55956z" fill="#ffffff"/><path d="M267.46495,132.12412c-0.23683,-0.19554 0.46435,-6.59508 1.16061,-12.59285c0.59986,-5.16734 1.09302,-10.0495 2.18785,-10.25615c1.21047,-0.22846 20.26066,2.46763 20.86107,2.94292c1.37528,1.08868 -1.41055,21.67446 -2.72487,22.72734c-0.94494,0.75697 -20.46426,-1.97868 -21.48466,-2.82127z" fill="#000000"/></g><g stroke="#000000" stroke-width="5"><path d="M184.90206,44.28474l-1.04797,10.97368l8.53293,0.32089l2.13696,-11.41156l20.8214,0.30416l1.57382,12.02994l30.95425,0.68522l0.49228,-10.51575l22.977,-0.0936l0.44008,13.42379l7.99963,0.30083l2.20408,-12.84553l20.75427,1.73814l-1.76401,26.26933l-7.17915,4.99716l-128.54964,-4.35533l-5.7545,-2.61055l2.43157,-29.1172z" fill="#fee70a" stroke-linecap="round"/><path d="M187.84833,72.64651c-5.30169,-0.19937 -9.45429,-3.46404 -9.27509,-7.29183c0.17919,-3.82779 4.62231,-6.76921 9.924,-6.56984c5.30169,0.19937 9.45429,3.46404 9.27509,7.29183c-0.17919,3.82779 -4.62231,6.76921 -9.924,6.56984z" fill="#7e93ff" stroke-linecap="butt"/><path d="M232.60145,75.28713c-6.47983,-0.24367 -11.56247,-4.07926 -11.35238,-8.56703c0.21008,-4.48776 5.63335,-7.92826 12.11318,-7.68459c6.47983,0.24367 11.56247,4.07926 11.35238,8.56703c-0.21008,4.48776 -5.63335,7.92826 -12.11318,7.68459z" fill="#0026ff" stroke-linecap="butt"/><path d="M274.99944,76.88152c-6.62711,-0.24921 -11.84415,-3.7683 -11.6526,-7.86007c0.19155,-4.09178 5.71916,-7.20679 12.34627,-6.95758c6.62711,0.24921 11.84415,3.7683 11.6526,7.86007c-0.19155,4.09178 -5.71916,7.20679 -12.34627,6.95758z" fill="#b6ff00" stroke-linecap="butt"/></g><g stroke-linecap="butt"><path d="M201.21794,175.05849c-0.58598,-0.22696 -0.36192,-8.2497 -0.06213,-15.77152c0.25829,-6.48038 0.33331,-12.59795 2.80195,-12.93251c2.72932,-0.3699 47.04584,1.64751 48.52707,2.19739c3.39289,1.25957 1.45467,27.10416 -1.33458,28.50854c-2.00537,1.00968 -47.40735,-1.02397 -49.93229,-2.00189z" fill="#fea3c1" stroke="none" stroke-width="0"/><path d="M204.15342,158.01261l0.46991,-10.03776l49.06435,1.84508l-0.46991,10.03776z" fill="#ffc7d9" stroke="none" stroke-width="0"/><path d="M206.64256,157.16256c0.43239,-0.00751 0.74294,0.06041 0.74294,0.06041l4.14458,1.46448c0.13252,1.38763 0.47059,2.77172 0.39758,4.16288c-0.20749,3.95355 -3.58014,10.10952 -9.24348,5.24381c-1.9265,-1.65516 0.41486,-7.1962 0.94252,-9.1344c0,0 0.59832,-2.19772 3.01584,-1.79718z" fill="#563741" stroke="none" stroke-width="0.5"/><path d="M251.79203,159.9595c0.67874,0.59854 1.11585,1.50351 1.28725,2.43978c1.7495,1.35625 3.27314,2.92026 1.66289,5.66676c-1.72346,2.93957 -7.40497,3.70431 -9.90424,1.13451c-1.682,-1.72948 -0.51805,-7.29045 2.32569,-9.32475c0.41399,-0.63042 1.26867,-1.40221 2.88656,-1.04838c0.95131,0.20805 1.46841,0.65259 1.74187,1.13208z" fill="#563741" stroke="none" stroke-width="0.5"/><path d="M201.68082,176.594l0.24614,-5.25788l51.7309,1.94537l-0.24614,5.25788z" fill="#a06778" stroke="none" stroke-width="0"/><path d="M201.70649,176.03452c-0.58598,-0.22696 -0.36192,-8.2497 -0.06213,-15.77152c0.25829,-6.48038 0.33331,-12.59795 2.80195,-12.93251c2.72932,-0.3699 47.04584,1.64751 48.52707,2.19739c3.39289,1.25957 1.45467,27.10416 -1.33458,28.50854c-2.00537,1.00968 -47.40735,-1.02397 -49.93229,-2.00189z" fill="none" stroke="#000000" stroke-width="5"/></g></g><path d="M165.25,100.5l50.5,5.5" fill="none" stroke="#000000" stroke-width="5" stroke-linecap="round"/><g><path d="M331.32653,213.03709c-7.08815,-6.13819 -26.85711,-54.07371 -26.85711,-54.07371c0,0 12.48731,0.18079 17.09119,-2.09134c4.80536,-2.37157 11.16245,-11.85251 11.16245,-11.85251c0,0 20.62667,45.64217 22.46735,57.86726c1.08676,7.21789 -16.77574,16.28851 -23.86386,10.15032z" fill="#343545" stroke="none" stroke-width="0" stroke-linecap="butt"/><path d="M290.10326,143.56258c-4.80345,-10.36922 0.76962,-22.80188 12.44778,-27.76911c11.67817,-4.96722 25.03916,-0.58804 29.84262,9.78119c4.80346,10.36923 -0.76962,22.80188 -12.44778,27.76911c-11.67817,4.96722 -25.03916,0.58804 -29.84262,-9.78119z" fill="#343545" stroke="none" stroke-width="0" stroke-linecap="butt"/><path d="M333.82621,211.02088l-18.32826,-42.30048" fill="none" stroke="#485e84" stroke-width="10" stroke-linecap="round"/><path d="M331.55791,211.97546c-7.08815,-6.13819 -26.85711,-54.07372 -26.85711,-54.07372c0,0 12.48731,0.18079 17.09121,-2.09135c4.80536,-2.37157 11.16245,-11.8525 11.16245,-11.8525c0,0 20.62667,45.64217 22.46735,57.86726c1.08676,7.21789 -16.77574,16.28851 -23.86386,10.15032z" fill="none" stroke="#000000" stroke-width="5" stroke-linecap="butt"/><path d="M292.44459,152.51971l-1.08969,-28.11126l23.61537,-10.68674c0,0 4.82769,13.58341 4.35442,20.03439c-0.51235,6.98386 -11.97591,22.05616 -11.97591,22.05616z" fill="#485f85" stroke="none" stroke-width="0" stroke-linecap="butt"/><path d="M289.92542,143.95927c-4.80346,-10.36923 0.76962,-22.80188 12.44778,-27.76911c11.67817,-4.96722 25.03916,-0.58802 29.84262,9.78121c4.80346,10.36923 -0.76963,22.80187 -12.44778,27.76911c-11.67817,4.96722 -25.03916,0.58802 -29.8426,-9.7812z" fill="none" stroke="#000000" stroke-width="5" stroke-linecap="butt"/><path d="M312.0705,167.67657c-4.10118,0.12264 -5.97051,-9.06542 -5.97051,-9.06542c0,0 10.52685,-3.5044 15.13419,-5.51971c4.80896,-2.10351 13.14059,-6.84808 13.14059,-6.84808c0,0 3.30838,8.23429 1.07223,11.4902c-1.32026,1.92234 -19.27531,9.82037 -23.37649,9.94301z" fill="#485f85" stroke="#000101" stroke-width="5" stroke-linecap="butt"/><path d="M310.79588,154.66713l-14.04011,-30.30845" fill="none" stroke="#000000" stroke-width="2.5" stroke-linecap="round"/><path d="M291.58403,128.8059l9.46,21.98249" fill="none" stroke="#000000" stroke-width="2.5" stroke-linecap="round"/><path d="M302.01759,116.98358l16.34725,36.06949" fill="none" stroke="#000000" stroke-width="2.5" stroke-linecap="round"/><path d="M311.25761,112.73234l14.44705,34.3092" fill="none" stroke="#000000" stroke-width="2.5" stroke-linecap="round"/><path d="M330.34523,138.32536l-10.57824,-24.39644" fill="none" stroke="#000000" stroke-width="2.5" stroke-linecap="round"/><path d="M332.86897,135.96764l-35.89327,14.6248" fill="none" stroke="#000000" stroke-width="2.5" stroke-linecap="round"/><path d="M332.94423,125.98262l-42.36107,17.05477" fill="none" stroke="#000000" stroke-width="2.5" stroke-linecap="round"/><path d="M326.67591,118.6958l-37.70571,15.3957" fill="none" stroke="#000000" stroke-width="2.5" stroke-linecap="round"/></g><path d="M292.14749,93.57427l-51.44088,13.38872" fill="none" stroke="#000000" stroke-width="5" stroke-linecap="round"/></g></g></svg>