<svg version="1.1" xmlns="http://www.w3.org/2000/svg" xmlns:xlink="http://www.w3.org/1999/xlink" width="313.8062" height="304.64294" viewBox="0,0,313.8062,304.64294"><g transform="translate(-45.40688,-28.63303)"><g data-paper-data="{&quot;isPaintingLayer&quot;:true}" fill-rule="nonzero" stroke-linejoin="miter" stroke-miterlimit="10" stroke-dasharray="" stroke-dashoffset="0" style="mix-blend-mode: normal"><g stroke-linecap="round"><path d="M223.92355,280.77763c0,0 -8.21835,46.28166 -14.5,50c-4.81539,2.85041 -35.33865,0.62525 -38,0.5c-4.28889,-0.20184 12.96934,-20.59166 15.5,-29c2.53066,-8.40834 0,-22.5 0,-22.5z" fill="#c41414" stroke="none" stroke-width="0"/><path d="M217.04855,302.22237l-6.75,23.75l-2.75,3l-12.25,1l-23,-1.25c0,0 11.34523,-14.01854 14.16092,-19.04985c1.84736,-3.301 2.83908,-8.20015 2.83908,-8.20015z" fill="#5b5a5a" stroke="#5b5a5a" stroke-width="0.5"/><path d="M223.42355,282.23473c0,0 -8.10245,44.29607 -14.29551,47.85488c-4.74748,2.72812 -34.84028,0.59843 -37.4641,0.47855c-4.22841,-0.19318 12.78644,-19.70823 15.28141,-27.75583c2.49497,-8.0476 0,-21.5347 0,-21.5347z" fill="none" stroke="#000000" stroke-width="5"/></g><g stroke-linecap="butt"><path d="M355.60308,213.94996c-0.63365,0.68096 -31.06821,11.61776 -59.63696,21.81539c-24.61322,8.78571 -47.78368,17.18543 -49.99663,16.09878c-2.44667,-1.20141 -11.82208,-31.78732 -10.31039,-33.47577c3.46264,-3.86754 101.97191,-38.33644 108.35482,-38.52577c4.58906,-0.13612 14.31952,31.15318 11.58917,34.08737z" fill="#c41414" stroke="none" stroke-width="0"/><path d="M358.9377,212.26719l-22.98734,7.49188l-13.53929,-32.51414l22.98734,-7.49189z" fill="#ef99b4" stroke="none" stroke-width="NaN"/><path d="M336.82001,219.05604l-14.73643,6.31928l-13.21076,-32.07924l14.73643,-6.31928z" fill="#d8d8d8" stroke="none" stroke-width="NaN"/><path d="M356.71308,213.81618c-0.63365,0.68096 -31.06821,11.61776 -59.63696,21.81539c-24.61322,8.78571 -47.78368,17.18543 -49.99663,16.09878c-2.44667,-1.20141 -11.82208,-31.78732 -10.31039,-33.47577c3.46264,-3.86754 101.97191,-38.33644 108.35482,-38.52577c4.58906,-0.13612 14.31952,31.15318 11.58917,34.08737z" fill="none" stroke="#000000" stroke-width="5"/></g><g stroke="#000000" stroke-width="5"><path d="M103.37223,227.42834l24.60271,53.11267l-11.60234,5.86393l-25.4952,-52.66161z" fill="#825800" stroke-linecap="round"/><path d="M90.87739,233.74332c0,0 -13.70798,9.23883 -19.12662,10.99232c-4.77012,1.54363 -12.58566,-1.68742 -12.58566,-1.68742c0,0 9.08063,-8.18556 13.68199,-11.10906c3.90716,-2.48243 12.18567,-5.32609 12.18567,-5.32609l14.05426,-7.66339c0,0 8.95462,-5.50281 13.98227,-7.39918c5.16359,-1.94764 16.60233,-4.13694 16.60233,-4.13694c0,0 -3.38282,7.84072 -7.41559,11.04527c-4.33865,3.44764 -17.76581,8.96466 -17.76581,8.96466z" fill="#00a5a5" stroke-linecap="round"/><path d="M79.44819,227.90049l-31.36917,-48.98009l6.22736,-27.03588l20.50686,11.14751l32.43197,50.70361z" fill="#00ffff" stroke-linecap="round"/><path d="M131.25203,302.97471c-5.5726,2.81644 -12.31154,0.70423 -15.05186,-4.71775c-2.74032,-5.42198 -0.44432,-12.10054 5.12828,-14.91698c5.5726,-2.81644 12.31154,-0.70423 15.05186,4.71775c2.74032,5.42198 0.44432,12.10054 -5.12828,14.91698z" fill="#00a5a5" stroke-linecap="butt"/></g><g stroke-linecap="butt"><path d="M91.56649,247.52276c0.4162,-0.83186 26.5383,-19.89785 51.07831,-37.72909c21.14229,-15.36239 41.00893,-29.94806 43.43835,-29.5287c2.686,0.46366 20.29644,27.17075 19.32151,29.21663c-2.23316,4.68623 -87.04622,65.50504 -93.11739,67.48446c-4.36494,1.42313 -22.51417,-25.85888 -20.72078,-29.44328z" fill="#c41414" stroke="none" stroke-width="0"/><path d="M89.71098,249.82805l19.10998,-14.15428l21.08762,28.16991l-19.10998,14.15427z" fill="#ef99b4" stroke="none" stroke-width="NaN"/><path d="M108.15103,237.3331l12.36002,-10.214l21.71112,27.05972l-12.36002,10.214z" fill="#d8d8d8" stroke="none" stroke-width="NaN"/><path d="M90.53911,247.96376c0.4162,-0.83186 26.5383,-19.89785 51.07831,-37.72909c21.14229,-15.36239 41.00893,-29.94806 43.43835,-29.5287c2.686,0.46366 20.29644,27.17075 19.32151,29.21663c-2.23316,4.68623 -87.04622,65.50504 -93.11739,67.48446c-4.36494,1.42313 -22.51417,-25.85888 -20.72078,-29.44328z" fill="none" stroke="#000000" stroke-width="5"/></g><path d="M186.85168,286.71288c-1.21302,-0.74289 -3.74793,-32.98455 -5.95169,-63.23876c-1.89864,-26.06532 -4.01621,-50.62314 0.61674,-52.67021c5.12223,-2.26326 91.25955,-6.83133 94.317,-5.04898c7.00337,4.08264 12.8255,108.29402 7.97031,114.72347c-3.4907,4.62253 -91.72557,9.43548 -96.95237,6.23448z" fill="#c41414" stroke="#000000" stroke-width="5" stroke-linecap="butt"/><g><g stroke-linecap="round"><path d="M261.09314,169.73085c0,0 -6.26773,29.35609 -4.80629,53.46166c1.46144,24.10557 11.67504,59.83472 11.67504,59.83472l-57.99915,2.02462c0,0 4.39365,-40.40999 2.79009,-60.83967c-1.60356,-20.42968 -11.51542,-50.32291 -11.51542,-50.32291z" fill="#f7f6f6" stroke="none" stroke-width="0"/><path d="M212.31813,282.88339l5.27043,-53.99512l-11.15524,-52.35275l49.87977,-3.46535l-3.48316,50.86372l11.39782,55.84434z" fill="none" stroke="#c6c7c7" stroke-width="5"/><path d="M261.16244,170.72845c0,0 -6.26773,29.35609 -4.80629,53.46166c1.46144,24.10557 11.67504,59.83472 11.67504,59.83472l-57.99915,2.02462c0,0 4.39365,-40.40999 2.79009,-60.83967c-1.60356,-20.42968 -11.51542,-50.32291 -11.51542,-50.32291z" fill="none" stroke="#000000" stroke-width="5"/></g><path d="M225.88381,204.00352c-0.27751,-3.99443 2.73566,-7.45753 6.73009,-7.73504c3.99443,-0.27751 7.45753,2.73566 7.73504,6.73009c0.27751,3.99443 -2.73566,7.45753 -6.73009,7.73504c-3.99443,0.27751 -7.45753,-2.73566 -7.73504,-6.73009z" fill="#ffd901" stroke="none" stroke-width="NaN" stroke-linecap="butt"/><path d="M227.16599,222.45903c-0.27751,-3.99443 2.73565,-7.45753 6.73009,-7.73504c3.99444,-0.27751 7.45753,2.73566 7.73504,6.73009c0.27751,3.99443 -2.73565,7.45753 -6.73009,7.73504c-3.99444,0.27751 -7.45753,-2.73566 -7.73504,-6.73009z" fill="#ffd901" stroke="none" stroke-width="NaN" stroke-linecap="butt"/><path d="M228.41352,240.41575c-0.27751,-3.99443 2.73565,-7.45753 6.73009,-7.73504c3.99444,-0.27751 7.45753,2.73566 7.73504,6.73009c0.27751,3.99444 -2.73565,7.45753 -6.73009,7.73504c-3.99444,0.27751 -7.45753,-2.73565 -7.73504,-6.73009z" fill="#ffd901" stroke="none" stroke-width="NaN" stroke-linecap="butt"/></g><g stroke-linecap="round"><path d="M282.92355,284.02763c0,0 15.90382,46.40099 10.5,46.49834c-7.36964,0.13277 -27.15314,-0.72421 -33,-0.56705c-7.9925,0.21483 9.73791,-9.4587 9.5,-19.84686c-0.23791,-10.38815 -10.5,-23.81622 -10.5,-23.81622z" fill="#c41414" stroke="none" stroke-width="0"/><path d="M285.79855,300.72237c0,0 2.7734,7.21957 3.63711,11.31281c1.02515,4.85834 3.36289,17.43719 3.36289,17.43719l-31.25,-1.25l9.75,-15.25c0,0 -0.03933,-5.56974 -0.26544,-7.69517c-0.1799,-1.69107 -0.48456,-4.55483 -0.48456,-4.55483z" fill="#5a5b5a" stroke="#5a5b5a" stroke-width="0.5"/><path d="M282.92355,284.27763c0,0 15.90382,46.40099 10.5,46.49834c-7.36964,0.13277 -27.15314,-0.72421 -33,-0.56705c-7.9925,0.21483 9.73791,-9.4587 9.5,-19.84686c-0.23791,-10.38815 -10.5,-23.81622 -10.5,-23.81622z" fill="none" stroke="#000000" stroke-width="5"/></g><g><path d="M174.50283,175.01875c-1.34161,-0.88218 -0.33538,-33.20824 0.81555,-63.52084c0.99158,-26.11562 1.5372,-50.75994 7.2676,-52.24207c6.33556,-1.63866 108.71923,4.07119 112.11195,6.20527c7.77133,4.88829 1.71624,109.09035 -4.82089,114.89891c-4.69994,4.17613 -109.59338,-1.54004 -115.37421,-5.34127z" fill="#ffbbce" stroke="#000000" stroke-width="5" stroke-linecap="butt"/><g stroke="#000000" stroke-width="5" stroke-linecap="butt"><path d="M177.5299,121.96423c-0.47647,-0.21763 -0.26589,-7.92912 0.0046,-15.1592c0.23304,-6.22904 0.31556,-12.10919 2.32732,-12.43293c2.22421,-0.35793 38.31111,1.54217 39.5156,2.0694c2.75896,1.20768 1.08991,26.05069 -1.18674,27.403c-1.63683,0.97226 -38.60775,-0.94252 -40.66078,-1.88026z" fill="#ffffff"/><path d="M197.51924,120.43586c-0.22578,-0.19999 0.30009,-6.89991 0.82958,-13.17991c0.45618,-5.4105 0.81825,-10.52107 1.83938,-10.75704c1.12897,-0.2609 19.02537,2.20736 19.59739,2.69299c1.31026,1.11241 -0.87804,22.67415 -2.08743,23.79841c-0.86951,0.80829 -19.20605,-1.69271 -20.17892,-2.55446z" fill="#000000"/></g><g stroke="#000000" stroke-width="5" stroke-linecap="butt"><path d="M253.23794,124.23078c-0.47212,-0.22691 -0.11079,-7.93281 0.30105,-15.15622c0.35482,-6.22329 0.55232,-12.10069 2.57002,-12.38504c2.2308,-0.31437 38.27363,2.29108 39.46757,2.84178c2.73482,1.2614 0.58025,26.06703 -1.72242,27.37456c-1.65553,0.94007 -38.58192,-1.69737 -40.61622,-2.67507z" fill="#ffffff"/><path d="M273.25334,123.09362c-0.22184,-0.20437 0.43497,-6.89272 1.08717,-13.16117c0.5619,-5.40054 1.02385,-10.50304 2.0494,-10.71901c1.13387,-0.23877 18.97857,2.579 19.54098,3.07574c1.28825,1.13781 -1.32129,22.65264 -2.55244,23.75303c-0.88514,0.79113 -19.16928,-2.06798 -20.12511,-2.94859z" fill="#000000"/></g><g stroke="#000000" stroke-width="5"><path d="M195.91502,31.29002l-0.98165,11.46893l7.99297,0.33537l2.00173,-11.92657l19.50382,0.31789l1.47423,12.57285l28.99547,0.71614l0.46113,-10.99033l21.52302,-0.09782l0.41223,14.02961l7.49341,0.31441l2.06461,-13.42525l19.44094,1.81658l-1.65238,27.45487l-6.72485,5.22268l-120.41503,-4.55189l-5.39036,-2.72837l2.2777,-30.43127z" fill="#fee70a" stroke-linecap="round"/><path d="M198.67485,60.93177c-4.9662,-0.20837 -8.85602,-3.62037 -8.68816,-7.62091c0.16785,-4.00054 4.32981,-7.07471 9.29601,-6.86634c4.9662,0.20837 8.85602,3.62037 8.68816,7.62091c-0.16785,4.00054 -4.32981,7.07471 -9.29601,6.86634z" fill="#7e93ff" stroke-linecap="butt"/><path d="M240.596,63.69156c-6.06979,-0.25467 -10.8308,-4.26336 -10.634,-8.95366c0.19679,-4.69029 5.27687,-8.28607 11.34666,-8.0314c6.06979,0.25467 10.8308,4.26336 10.634,8.95366c-0.19679,4.69029 -5.27687,8.28607 -11.34666,8.0314z" fill="#0026ff" stroke-linecap="butt"/><path d="M280.31106,65.35791c-6.20775,-0.26046 -11.09465,-3.93836 -10.91522,-8.2148c0.17943,-4.27644 5.35725,-7.53204 11.565,-7.27158c6.20775,0.26046 11.09465,3.93836 10.91522,8.2148c-0.17943,4.27644 -5.35725,7.53204 -11.565,7.27158z" fill="#b6ff00" stroke-linecap="butt"/></g><g stroke-linecap="butt"><path d="M211.19843,167.96563c-0.5489,-0.2372 -0.33902,-8.62201 -0.0582,-16.48329c0.24195,-6.77284 0.31222,-13.1665 2.62464,-13.51616c2.55661,-0.38659 44.06878,1.72186 45.45628,2.29656c3.17819,1.31641 1.36262,28.32738 -1.25013,29.79514c-1.87847,1.05525 -44.40742,-1.07018 -46.77258,-2.09224z" fill="#fea3c1" stroke="none" stroke-width="0"/><path d="M213.94816,150.15047l0.44017,-10.49077l45.95956,1.92835l-0.44017,10.49077z" fill="#ffc7d9" stroke="none" stroke-width="0"/><path d="M216.27978,149.26206c0.40503,-0.00785 0.69593,0.06314 0.69593,0.06314l3.88231,1.53057c0.12413,1.45025 0.44081,2.89681 0.37242,4.35075c-0.19436,4.13198 -3.35359,10.56577 -8.65855,5.48047c-1.80459,-1.72986 0.38861,-7.52097 0.88288,-9.54664c0,0 0.56046,-2.2969 2.825,-1.87829z" fill="#563741" stroke="none" stroke-width="0.5"/><path d="M258.5722,152.18522c0.63579,0.62555 1.04524,1.57136 1.20579,2.54989c1.63879,1.41746 3.06602,3.05205 1.55766,5.9225c-1.6144,3.07223 -6.93638,3.87149 -9.2775,1.18571c-1.57556,-1.80753 -0.48527,-7.61947 2.17852,-9.74558c0.38779,-0.65887 1.18839,-1.46549 2.7039,-1.09569c0.89111,0.21744 1.37549,0.68204 1.63164,1.18317z" fill="#563741" stroke="none" stroke-width="0.5"/><path d="M211.63202,169.57044l0.23056,-5.49517l48.45737,2.03316l-0.23056,5.49517z" fill="#a06778" stroke="none" stroke-width="0"/><path d="M211.65607,168.98571c-0.5489,-0.2372 -0.33902,-8.62201 -0.0582,-16.48329c0.24195,-6.77284 0.31222,-13.1665 2.62464,-13.51616c2.55661,-0.38659 44.06878,1.72186 45.45628,2.29656c3.17819,1.31641 1.36262,28.32738 -1.25013,29.79514c-1.87847,1.05525 -44.40742,-1.07018 -46.77258,-2.09224z" fill="none" stroke="#000000" stroke-width="5"/></g></g><path d="M174.25,88l50.5,5.5" fill="none" stroke="#000000" stroke-width="5" stroke-linecap="round"/><g><path d="M329.17609,215.12687c-4.85946,-8.16317 -10.69047,-61.96329 -10.69047,-61.96329c0,0 11.22548,3.67338 15.95023,2.67245c4.9315,-1.04473 13.0451,-8.81504 13.0451,-8.81504c0,0 7.17984,51.73044 5.77774,64.55621c-0.82783,7.57254 -19.22314,11.71284 -24.08259,3.54968z" fill="#343545" stroke="none" stroke-width="0" stroke-linecap="butt"/><path d="M309.37828,133.63775c-1.73709,-11.7852 6.40851,-22.7472 18.19372,-24.4843c11.7852,-1.73709 22.7472,6.40851 24.4843,18.19372c1.7371,11.78521 -6.40851,22.7472 -18.19372,24.4843c-11.7852,1.73709 -22.7472,-6.40851 -24.4843,-18.19372z" fill="#343545" stroke="none" stroke-width="0" stroke-linecap="butt"/><path d="M331.9375,213.79535l-5.94273,-47.72262" fill="none" stroke="#485e84" stroke-width="10" stroke-linecap="round"/><path d="M329.65098,214.12247c-4.85946,-8.16317 -10.69046,-61.9633 -10.69046,-61.9633c0,0 11.22548,3.67338 15.95024,2.67245c4.9315,-1.04473 13.04509,-8.81503 13.04509,-8.81503c0,0 7.17984,51.73044 5.77774,64.55621c-0.82783,7.57254 -19.22314,11.71284 -24.08259,3.54968z" fill="none" stroke="#000000" stroke-width="5" stroke-linecap="butt"/><path d="M309.24697,143.31254l6.06081,-28.6138l23.99273,-4.15936c0,0 0.95353,15.0288 -1.09016,21.39286c-2.2125,6.88977 -16.33622,18.86308 -16.33622,18.86308z" fill="#485f85" stroke="none" stroke-width="0" stroke-linecap="butt"/><path d="M309.11837,133.98752c-1.7371,-11.78521 6.40851,-22.7472 18.19372,-24.4843c11.7852,-1.73709 22.74719,6.40852 24.48429,18.19373c1.7371,11.78521 -6.40852,22.74719 -18.19372,24.4843c-11.7852,1.73709 -22.74719,-6.40852 -24.48428,-18.19372z" fill="none" stroke="#000000" stroke-width="5" stroke-linecap="butt"/><path d="M323.1628,164.06328c-3.73237,-1.02314 -3.11718,-10.79853 -3.11718,-10.79853c0,0 10.37948,-0.58587 15.04298,-1.3272c4.86758,-0.77378 13.57647,-3.22231 13.57647,-3.22231c0,0 0.92266,9.21723 -1.91154,11.87086c-1.67336,1.56674 -19.85837,4.50032 -23.59074,3.47718z" fill="#485f85" stroke="#000101" stroke-width="5" stroke-linecap="butt"/><path d="M320.19496,116.15864l5.07739,34.44726" fill="none" stroke="#000000" stroke-width="2.5" stroke-linecap="round"/><path d="M314.41263,119.19121l3.02986,24.78214" fill="none" stroke="#000000" stroke-width="2.5" stroke-linecap="round"/><path d="M332.5084,151.09668l-5.71612,-40.89389" fill="none" stroke="#000000" stroke-width="2.5" stroke-linecap="round"/><path d="M340.6396,147.09497l-4.44214,-38.58994" fill="none" stroke="#000000" stroke-width="2.5" stroke-linecap="round"/><path d="M343.578,112.08917l3.43425,27.52572" fill="none" stroke="#000000" stroke-width="2.5" stroke-linecap="round"/><path d="M313.81961,142.63855l36.06133,-4.69236" fill="none" stroke="#000000" stroke-width="2.5" stroke-linecap="round"/><path d="M309.94303,133.24304l42.50796,-5.33111" fill="none" stroke="#000000" stroke-width="2.5" stroke-linecap="round"/><path d="M310.72895,123.78322l37.89038,-4.96196" fill="none" stroke="#000000" stroke-width="2.5" stroke-linecap="round"/></g><path d="M302.71753,85.11824l-50.73621,9.86537" fill="none" stroke="#000000" stroke-width="5" stroke-linecap="round"/></g></g></svg>