<svg version="1.1" xmlns="http://www.w3.org/2000/svg" xmlns:xlink="http://www.w3.org/1999/xlink" width="367.04239" height="258.85316" viewBox="0,0,367.04239,258.85316"><g transform="translate(2.72584,-74.64381)"><g data-paper-data="{&quot;isPaintingLayer&quot;:true}" fill-rule="nonzero" stroke-linejoin="miter" stroke-miterlimit="10" stroke-dasharray="" stroke-dashoffset="0" style="mix-blend-mode: normal"><g stroke-linecap="butt"><path d="M360.48572,223.37081c-0.724,0.5863 -35.73561,10.30418 -68.60156,19.36813c-28.31545,7.80899 -54.96972,15.26952 -57.53602,14.38192c-2.83735,-0.98134 -13.9936,-26.75214 -12.26708,-28.20499c3.95473,-3.32785 117.28898,-33.99373 124.65481,-34.24913c5.29573,-0.18361 16.86951,26.17778 13.74987,28.70407z" fill="#c41414" stroke="none" stroke-width="0"/><path d="M364.31655,221.89565l-26.4528,6.68875l-15.98374,-27.3423l26.4528,-6.68876z" fill="#ef99b4" stroke="none" stroke-width="NaN"/><path d="M338.85992,227.97589l-16.94146,5.57259l-15.59977,-26.97877l16.94146,-5.57259z" fill="#d8d8d8" stroke="none" stroke-width="NaN"/><path d="M361.76555,223.24096c-0.724,0.5863 -35.73561,10.30418 -68.60156,19.36813c-28.31545,7.80899 -54.96972,15.26952 -57.53602,14.38192c-2.83735,-0.98134 -13.9936,-26.75214 -12.26708,-28.20499c3.95473,-3.32785 117.28898,-33.99373 124.65481,-34.24913c5.29573,-0.18361 16.86951,26.17778 13.74987,28.70407z" fill="none" stroke="#000000" stroke-width="5"/></g><g stroke-linecap="round"><path d="M203.07587,288.63818c0,0 -9.48735,39.21 -16.73895,42.36019c-5.55894,2.41487 -40.79533,0.52971 -43.86761,0.4236c-4.95115,-0.171 14.97195,-17.44533 17.89337,-24.56891c2.92142,-7.12357 0,-19.06209 0,-19.06209z" fill="#c41414" stroke="none" stroke-width="0"/><path d="M195.1393,306.80625l-7.79227,20.12109l-3.17463,2.54162l-14.14154,0.84721l-26.55145,-1.059c0,0 13.09705,-11.87656 16.34752,-16.13911c2.13261,-2.79662 3.27746,-6.94719 3.27746,-6.94719z" fill="#5b5a5a" stroke="#5b5a5a" stroke-width="0.5"/><path d="M202.49866,289.87265c0,0 -9.35356,37.5278 -16.50289,40.54283c-5.48055,2.31128 -40.22,0.50699 -43.24897,0.40543c-4.88132,-0.16366 14.76081,-16.69689 17.64102,-23.51484c2.88022,-6.81796 0,-18.24428 0,-18.24428z" fill="none" stroke="#000000" stroke-width="5"/></g><g stroke="#000000" stroke-width="5"><path d="M63.9101,243.44046l28.40164,44.99725l-13.39386,4.96795l-29.43194,-44.61512z" fill="#825800" stroke-linecap="round"/><path d="M49.48592,248.79054c0,0 -15.82464,7.82717 -22.07999,9.31273c-5.50667,1.30777 -14.52902,-1.42958 -14.52902,-1.42958c0,0 10.48278,-6.93483 15.79464,-9.41163c4.51047,-2.10312 14.06727,-4.51228 14.06727,-4.51228l16.22439,-6.49245c0,0 10.33731,-4.662 16.14129,-6.26861c5.96091,-1.65005 19.16592,-3.50483 19.16592,-3.50483c0,0 -3.90517,6.64269 -8.56064,9.3576c-5.00859,2.92086 -20.50905,7.59489 -20.50905,7.59489z" fill="#00a5a5" stroke-linecap="round"/><path d="M36.29192,243.84047l-36.21292,-41.49611l7.18893,-22.9049l23.67335,9.44421l37.43983,42.95629z" fill="#00ffff" stroke-linecap="round"/><path d="M96.09485,307.44364c-6.43308,2.3861 -14.21257,0.59663 -17.37604,-3.9969c-3.16345,-4.59352 -0.51293,-10.25162 5.92014,-12.63772c6.43308,-2.3861 14.21257,-0.59663 17.37604,3.9969c3.16345,4.59352 0.51293,10.25162 -5.92014,12.63772z" fill="#00a5a5" stroke-linecap="butt"/></g><g stroke-linecap="butt"><path d="M50.28142,260.46454c0.48047,-0.70476 30.63611,-16.85753 58.96537,-31.96423c24.40689,-13.01508 47.34116,-25.37211 50.14571,-25.01683c3.10075,0.39282 23.43043,23.01917 22.30496,24.75244c-2.57798,3.97019 -100.48711,55.49612 -107.49574,57.17309c-5.03893,1.20568 -25.9906,-21.90774 -23.9203,-24.94446z" fill="#c41414" stroke="none" stroke-width="0"/><path d="M48.13941,262.41758l22.06077,-11.99156l24.34378,23.86565l-22.06077,11.99155z" fill="#ef99b4" stroke="none" stroke-width="NaN"/><path d="M69.4268,251.83181l14.26854,-8.65334l25.06356,22.9251l-14.26854,8.65334z" fill="#d8d8d8" stroke="none" stroke-width="NaN"/><path d="M49.09541,260.83815c0.48047,-0.70476 30.63611,-16.85753 58.96537,-31.96423c24.40689,-13.01508 47.34116,-25.37211 50.14571,-25.01683c3.10075,0.39282 23.43043,23.01917 22.30496,24.75244c-2.57798,3.97019 -100.48711,55.49612 -107.49574,57.17309c-5.03893,1.20568 -25.9906,-21.90774 -23.9203,-24.94446z" fill="none" stroke="#000000" stroke-width="5"/></g><path d="M160.2797,293.66655c-1.40033,-0.62938 -4.32665,-27.94464 -6.8707,-53.57611c-2.19181,-22.08264 -4.63635,-42.88812 0.71197,-44.6224c5.91316,-1.91744 105.35103,-5.78753 108.88059,-4.27752c8.08477,3.45883 14.80589,91.74711 9.20101,97.19416c-4.0297,3.91622 -105.889,7.99377 -111.92288,5.28188z" fill="#c41414" stroke="#000000" stroke-width="5" stroke-linecap="butt"/><g><g stroke-linecap="round"><path d="M245.98486,194.55893c0,0 -7.23554,24.87059 -5.54844,45.29292c1.68711,20.42233 13.4778,50.69221 13.4778,50.69221l-66.95485,1.71526c0,0 5.07208,-34.23549 3.22091,-51.5436c-1.85117,-17.30811 -13.29353,-42.63376 -13.29353,-42.63376z" fill="#f7f6f6" stroke="none" stroke-width="0"/><path d="M189.67845,290.42219l6.08424,-45.74487l-12.87773,-44.35345l57.58176,-2.93586l-4.02099,43.09194l13.15777,47.31154z" fill="none" stroke="#c6c7c7" stroke-width="5"/><path d="M246.06486,195.4041c0,0 -7.23554,24.87059 -5.54844,45.29292c1.68711,20.42233 13.4778,50.69221 13.4778,50.69221l-66.95485,1.71526c0,0 5.07208,-34.23549 3.22091,-51.5436c-1.85117,-17.30811 -13.29353,-42.63376 -13.29353,-42.63376z" fill="none" stroke="#000000" stroke-width="5"/></g><path d="M205.33882,223.59486c-0.32036,-3.38409 3.15808,-6.31805 7.76929,-6.55316c4.61121,-0.23511 8.60905,2.31766 8.92942,5.70175c0.32036,3.38409 -3.15808,6.31805 -7.76929,6.55316c-4.61121,0.23511 -8.60905,-2.31766 -8.92942,-5.70175z" fill="#ffd901" stroke="none" stroke-width="NaN" stroke-linecap="butt"/><path d="M206.81898,239.23045c-0.32036,-3.38409 3.15807,-6.31805 7.76929,-6.55316c4.61122,-0.23511 8.60905,2.31766 8.92942,5.70175c0.32036,3.38409 -3.15807,6.31805 -7.76929,6.55316c-4.61122,0.23511 -8.60905,-2.31766 -8.92942,-5.70175z" fill="#ffd901" stroke="none" stroke-width="NaN" stroke-linecap="butt"/><path d="M208.25914,254.44345c-0.32036,-3.38409 3.15807,-6.31805 7.76929,-6.55316c4.61122,-0.23511 8.60905,2.31766 8.92942,5.70175c0.32036,3.3841 -3.15807,6.31805 -7.76929,6.55316c-4.61122,0.23511 -8.60905,-2.31765 -8.92942,-5.70175z" fill="#ffd901" stroke="none" stroke-width="NaN" stroke-linecap="butt"/></g><g stroke-linecap="round"><path d="M271.18611,291.3916c0,0 18.35955,39.31109 12.12132,39.39357c-8.50759,0.11249 -31.34589,-0.61356 -38.09556,-0.4804c-9.22663,0.182 11.24155,-8.01345 10.9669,-16.81433c-0.27464,-8.80088 -12.12132,-20.17719 -12.12132,-20.17719z" fill="#c41414" stroke="none" stroke-width="0"/><path d="M274.50505,305.53545c0,0 3.20165,6.11645 4.19872,9.58426c1.18344,4.116 3.88216,14.77286 3.88216,14.77286l-36.07535,-1.059l11.25551,-12.91986c0,0 -0.04541,-4.7187 -0.30642,-6.51938c-0.20768,-1.43268 -0.55938,-3.85887 -0.55938,-3.85887z" fill="#5a5b5a" stroke="#5a5b5a" stroke-width="0.5"/><path d="M271.18611,291.6034c0,0 18.35955,39.31109 12.12132,39.39357c-8.50759,0.11249 -31.34589,-0.61356 -38.09556,-0.4804c-9.22663,0.182 11.24155,-8.01345 10.9669,-16.81433c-0.27464,-8.80088 -12.12132,-20.17719 -12.12132,-20.17719z" fill="none" stroke="#000000" stroke-width="5"/></g><g><path d="M146.02405,199.03886c-1.54877,-0.74739 -0.38717,-28.13415 0.94148,-53.81509c1.1447,-22.12525 1.77457,-43.00402 8.3898,-44.25968c7.31384,-1.38828 125.50668,3.44913 129.42327,5.25713c8.97131,4.14138 1.98125,92.42176 -5.56528,97.34279c-5.42566,3.53803 -126.5158,-1.30473 -133.18925,-4.52515z" fill="#ffbbce" stroke="#000000" stroke-width="5" stroke-linecap="butt"/><g stroke="#000000" stroke-width="5" stroke-linecap="butt"><path d="M149.51854,154.09087c-0.55004,-0.18437 -0.30694,-6.71758 0.00531,-12.84293c0.26902,-5.27727 0.36429,-10.25895 2.68668,-10.53323c2.56766,-0.30324 44.22677,1.30654 45.61724,1.7532c3.18497,1.02315 1.25821,22.07024 -1.36999,23.21593c-1.88958,0.82371 -44.56921,-0.79851 -46.93925,-1.59297z" fill="#ffffff"/><path d="M172.59444,152.79602c-0.26064,-0.16943 0.34642,-5.84563 0.95767,-11.16607c0.52662,-4.5838 0.9446,-8.91349 2.1234,-9.1134c1.3033,-0.22103 21.9631,1.87008 22.62344,2.28151c1.51257,0.94243 -1.01362,19.20963 -2.40976,20.16211c-1.00377,0.68479 -22.17167,-1.43407 -23.29476,-2.16414z" fill="#000000"/></g><g stroke="#000000" stroke-width="5" stroke-linecap="butt"><path d="M236.91673,156.0111c-0.54502,-0.19224 -0.12789,-6.72071 0.34754,-12.84041c0.40961,-5.2724 0.6376,-10.25175 2.96686,-10.49265c2.57526,-0.26634 44.1835,1.94101 45.56179,2.40757c3.15711,1.06866 0.66985,22.08409 -1.98838,23.19183c-1.91116,0.79643 -44.53939,-1.43801 -46.88781,-2.26633z" fill="#ffffff"/><path d="M260.02272,155.04769c-0.2561,-0.17314 0.50213,-5.83954 1.25504,-11.15019c0.64866,-4.57536 1.18195,-8.89821 2.36585,-9.08119c1.30895,-0.20229 21.90907,2.18493 22.55833,2.60577c1.48717,0.96396 -1.52531,19.1914 -2.94657,20.12366c-1.02182,0.67025 -22.12923,-1.752 -23.23265,-2.49806z" fill="#000000"/></g><g stroke="#000000" stroke-width="5"><path d="M170.74252,77.27134l-1.13323,9.71652l9.22717,0.28413l2.31082,-10.10423l22.51543,0.26931l1.70187,10.65177l33.47269,0.60672l0.53233,-9.31105l24.84641,-0.08288l0.47588,11.88594l8.65048,0.26637l2.3834,-11.37393l22.44284,1.53902l-1.90753,23.25987l-7.76325,4.42468l-139.00843,-3.85638l-6.22269,-2.31148l2.6294,-25.78149z" fill="#fee70a" stroke-linecap="round"/><path d="M173.9285,102.38394c-5.73304,-0.17653 -10.22349,-3.06719 -10.02971,-6.45647c0.19377,-3.38927 4.99838,-5.99372 10.73142,-5.81719c5.73304,0.17653 10.22349,3.06719 10.02971,6.45647c-0.19377,3.38927 -4.99838,5.99372 -10.73142,5.81719z" fill="#7e93ff" stroke-linecap="butt"/><path d="M222.32273,104.72204c-7.00703,-0.21575 -12.50319,-3.61193 -12.27601,-7.58558c0.22717,-3.97363 6.09168,-7.01999 13.09871,-6.80423c7.00703,0.21575 12.50319,3.61193 12.27601,7.58558c-0.22717,3.97363 -6.09168,7.01999 -13.09871,6.80423z" fill="#0026ff" stroke-linecap="butt"/><path d="M268.17024,106.13378c-7.16629,-0.22066 -12.80779,-3.3366 -12.60065,-6.95961c0.20713,-3.62302 6.18447,-6.38117 13.35076,-6.16051c7.16629,0.22066 12.80779,3.3366 12.60065,6.95961c-0.20713,3.62302 -6.18447,6.38117 -13.35076,6.16051z" fill="#b6ff00" stroke-linecap="butt"/></g><g stroke-linecap="butt"><path d="M188.38586,193.06343c-0.63366,-0.20096 -0.39137,-7.3046 -0.06718,-13.96471c0.2793,-5.73798 0.36043,-11.15471 3.02992,-11.45094c2.95138,-0.32752 50.87349,1.45877 52.47523,1.94565c3.66894,1.11527 1.57302,23.99906 -1.44316,25.24256c-2.16853,0.89401 -51.26441,-0.90666 -53.99478,-1.77255z" fill="#fea3c1" stroke="none" stroke-width="0"/><path d="M191.56017,177.97036l0.50814,-8.88782l53.05622,1.6337l-0.50814,8.88782z" fill="#ffc7d9" stroke="none" stroke-width="0"/><path d="M194.25182,177.21769c0.46757,-0.00665 0.80339,0.05349 0.80339,0.05349l4.48178,1.29671c0.1433,1.22866 0.50888,2.45419 0.42993,3.68597c-0.22437,3.50062 -3.87142,8.95136 -9.99553,4.64307c-2.08324,-1.46554 0.44861,-6.37179 1.0192,-8.08795c0,0 0.647,-1.94595 3.26121,-1.59129z" fill="#563741" stroke="none" stroke-width="0.5"/><path d="M243.07465,179.69421c0.73396,0.52997 1.20664,1.33127 1.39198,2.16027c1.89184,1.20088 3.53944,2.58571 1.79818,5.01757c-1.86368,2.60281 -8.00744,3.27994 -10.71005,1.00454c-1.81885,-1.53135 -0.5602,-6.45524 2.51491,-8.25649c0.44767,-0.5582 1.37189,-1.24157 3.12141,-0.92828c1.02871,0.18422 1.58788,0.57783 1.88359,1.00239z" fill="#563741" stroke="none" stroke-width="0.5"/><path d="M188.8864,194.42303l0.26617,-4.65553l55.93972,1.72251l-0.26617,4.65553z" fill="#a06778" stroke="none" stroke-width="0"/><path d="M188.91416,193.92765c-0.63366,-0.20096 -0.39137,-7.3046 -0.06718,-13.96471c0.2793,-5.73798 0.36043,-11.15471 3.02992,-11.45094c2.95138,-0.32752 50.87349,1.45877 52.47523,1.94565c3.66894,1.11527 1.57302,23.99906 -1.44316,25.24256c-2.16853,0.89401 -51.26441,-0.90666 -53.99478,-1.77255z" fill="none" stroke="#000000" stroke-width="5"/></g></g><path d="M145.2033,124.11286l58.25136,6.34421" fill="none" stroke="#000000" stroke-width="5" stroke-linecap="round"/><g><path d="M342.2967,225.32029c-8.75707,-1.61646 -43.47425,-31.90729 -43.47425,-31.90729c0,0 11.87572,-6.04843 15.47289,-10.23518c3.75459,-4.36996 6.60265,-15.45846 6.60265,-15.45846c0,0 34.76268,27.94626 40.58788,37.26063c3.4393,5.49937 -10.4321,21.95676 -19.18914,20.34029z" fill="#343545" stroke="none" stroke-width="0" stroke-linecap="butt"/><path d="M280.085,187.66028c-8.00862,-6.2907 -6.88837,-19.45951 2.50214,-29.41337c9.39052,-9.95385 23.49531,-12.92343 31.50395,-6.63273c8.00864,6.2907 6.88837,19.45951 -2.50214,29.41337c-9.39052,9.95385 -23.49531,12.92343 -31.50395,6.63273z" fill="#343545" stroke="none" stroke-width="0" stroke-linecap="butt"/><path d="M312.51667,196.10086l31.47172,26.29151" fill="none" stroke="#485e84" stroke-width="10" stroke-linecap="round"/><path d="M342.16103,224.31719c-8.75707,-1.61646 -43.47425,-31.90731 -43.47425,-31.90731c0,0 11.87572,-6.04843 15.47291,-10.23519c3.75459,-4.36996 6.60265,-15.45844 6.60265,-15.45844c0,0 34.76268,27.94626 40.58788,37.26063c3.4393,5.49937 -10.4321,21.95676 -19.18914,20.34029z" fill="none" stroke="#000000" stroke-width="5" stroke-linecap="butt"/><path d="M285.29231,193.99192l-10.42113,-22.97856l18.77485,-20.66573c0,0 9.1052,8.96785 10.81224,14.60009c1.84806,6.09749 -3.96397,24.39931 -3.96397,24.39931z" fill="#485f85" stroke="none" stroke-width="0" stroke-linecap="butt"/><path d="M280.04925,188.08046c-8.00864,-6.2907 -6.88837,-19.45951 2.50214,-29.41337c9.39052,-9.95385 23.49531,-12.92341 31.50395,-6.63271c8.00864,6.2907 6.88836,19.45951 -2.50214,29.41337c-9.39052,9.95385 -23.49531,12.92341 -31.50393,6.63271z" fill="none" stroke="#000000" stroke-width="5" stroke-linecap="butt"/><path d="M308.92499,196.92919c-3.83952,2.13876 -8.67738,-4.62043 -8.67738,-4.62043c0,0 8.78978,-8.15835 12.47602,-12.13194c3.84753,-4.14747 10.14597,-12.25355 10.14597,-12.25355c0,0 5.88087,5.24676 4.85263,9.08105c-0.60709,2.26383 -14.95773,17.78611 -18.79724,19.92487z" fill="#485f85" stroke="#000101" stroke-width="5" stroke-linecap="butt"/><path d="M279.96479,168.29031l23.40859,18.38724" fill="none" stroke="#000000" stroke-width="2.5" stroke-linecap="round"/><path d="M276.55687,174.57878l16.2938,13.69517" fill="none" stroke="#000000" stroke-width="2.5" stroke-linecap="round"/><path d="M309.99586,181.56929l-27.51595,-22.06182" fill="none" stroke="#000000" stroke-width="2.5" stroke-linecap="round"/><path d="M314.93269,172.8956l-25.13002,-21.53247" fill="none" stroke="#000000" stroke-width="2.5" stroke-linecap="round"/><path d="M316.41204,163.29918l-18.15821,-15.15964" fill="none" stroke="#000000" stroke-width="2.5" stroke-linecap="round"/><path d="M288.93582,190.12984l29.07659,-30.05627" fill="none" stroke="#000000" stroke-width="2.5" stroke-linecap="round"/><path d="M314.7483,151.68215l-34.38466,35.30046" fill="none" stroke="#000000" stroke-width="2.5" stroke-linecap="round"/><path d="M306.38326,148.69765l-30.53398,31.60109" fill="none" stroke="#000000" stroke-width="2.5" stroke-linecap="round"/></g><path d="M291.44282,120.35171l-57.7829,11.97938" fill="none" stroke="#000000" stroke-width="5" stroke-linecap="round"/></g></g></svg>