<svg version="1.1" xmlns="http://www.w3.org/2000/svg" xmlns:xlink="http://www.w3.org/1999/xlink" width="368.8687" height="274.5552" viewBox="0,0,368.8687,274.5552"><g transform="translate(-44.43887,-58.90664)"><g data-paper-data="{&quot;isPaintingLayer&quot;:true}" fill-rule="nonzero" stroke-linejoin="miter" stroke-miterlimit="10" stroke-dasharray="" stroke-dashoffset="0" style="mix-blend-mode: normal"><g stroke-linecap="round"><path d="M318.60503,290.22069c0,0 18.31502,40.43843 12.09192,40.52328c-8.48696,0.11571 -31.26985,-0.63115 -38.00316,-0.49418c-9.20425,0.18723 11.21429,-8.24325 10.94031,-17.29653c-0.27398,-9.05326 -12.09192,-20.75582 -12.09192,-20.75582z" fill="#c41414" stroke="none" stroke-width="0"/><path d="M321.9159,304.77015c0,0 3.19388,6.29185 4.18854,9.85911c1.18058,4.23404 3.87274,15.1965 3.87274,15.1965l-35.98784,-1.08937l11.22821,-13.29037c0,0 -0.04529,-4.85402 -0.30568,-6.70634c-0.20718,-1.47377 -0.55803,-3.96953 -0.55803,-3.96953z" fill="#5a5b5a" stroke="#5a5b5a" stroke-width="0.5"/><path d="M318.60503,290.43856c0,0 18.31502,40.43843 12.09192,40.52328c-8.48696,0.11571 -31.26985,-0.63115 -38.00316,-0.49418c-9.20425,0.18723 11.21429,-8.24325 10.94031,-17.29653c-0.27398,-9.05326 -12.09192,-20.75582 -12.09192,-20.75582z" fill="none" stroke="#000000" stroke-width="5"/></g><g stroke="#000000" stroke-width="5"><path d="M132.51133,243.36939l49.14912,34.9121l-9.86691,8.52069l-49.90811,-34.25666z" fill="#825800" stroke-linecap="round"/><path d="M121.88541,252.54551c0,0 -10.66256,11.93474 -15.69492,15.11789c-4.43009,2.80218 -14.16898,2.73756 -14.16898,2.73756c0,0 6.1738,-9.57543 9.82942,-13.43794c3.10411,-3.27977 10.72157,-8.27606 10.72157,-8.27606l11.71083,-10.7742c0,0 7.19447,-7.36596 11.74771,-10.53717c4.67636,-3.25696 15.95093,-8.75422 15.95093,-8.75422c0,0 -0.23666,7.43987 -3.16395,11.34426c-3.14933,4.20054 -15.11467,13.03552 -15.11467,13.03552z" fill="#00a5a5" stroke-linecap="round"/><path d="M107.16216,251.54747l-54.59655,-29.36674l-4.99115,-23.88187l26.70313,2.32742l56.47388,30.41348z" fill="#00ffff" stroke-linecap="round"/><path d="M194.82114,295.34617c-4.73908,4.09248 -12.84629,4.58134 -18.10799,1.09191c-5.2617,-3.48943 -5.68539,-9.63579 -0.94631,-13.72826c4.73908,-4.09248 12.84629,-4.58134 18.10799,-1.09191c5.2617,3.48943 5.68539,9.63579 0.94631,13.72826z" fill="#00a5a5" stroke-linecap="butt"/></g><g stroke-linecap="butt"><path d="M133.21736,259.11286c0.25734,-0.7869 24.787,-21.9945 47.85123,-41.84963c19.87084,-17.10606 38.50479,-33.3077 41.34031,-33.41585c3.13499,-0.11957 29.67152,19.21944 29.09328,21.14543c-1.32449,4.41163 -81.24134,72.34622 -87.56213,75.19054c-4.54441,2.04496 -31.83159,-17.6798 -30.72269,-21.07048z" fill="#c41414" stroke="none" stroke-width="0"/><path d="M131.71534,261.42785l17.89285,-15.69011l30.81299,19.91763l-17.89285,15.6901z" fill="#ef99b4" stroke="none" stroke-width="NaN"/><path d="M149.27493,247.27673l11.30507,-11.04873l31.23289,18.85443l-11.30507,11.04873z" fill="#d8d8d8" stroke="none" stroke-width="NaN"/><path d="M132.17453,259.68433c0.25734,-0.7869 24.787,-21.9945 47.85123,-41.84963c19.87084,-17.10606 38.50479,-33.3077 41.34031,-33.41585c3.13499,-0.11957 29.67152,19.21944 29.09328,21.14543c-1.32449,4.41163 -81.24134,72.34622 -87.56213,75.19054c-4.54441,2.04496 -31.83159,-17.6798 -30.72269,-21.07048z" fill="none" stroke="#000000" stroke-width="5"/></g><g stroke-linecap="butt"><path d="M408.59203,202.6019c-0.38276,0.79614 -27.99708,22.06277 -53.94759,41.97209c-22.35749,17.15275 -43.34975,33.40062 -46.15548,33.4798c-3.10206,0.08754 -26.00421,-19.83343 -25.11812,-21.78258c2.02963,-4.46471 91.80507,-72.57389 98.48867,-75.3934c4.80525,-2.02712 28.38185,18.29359 26.73252,21.72409z" fill="#c41414" stroke="none" stroke-width="0"/><path d="M411.41225,199.89409l-21.1831,15.46345l-28.13204,-19.68124l21.1831,-15.46345z" fill="#ef99b4" stroke="none" stroke-width="NaN"/><path d="M390.85265,214.44539l-12.93686,11.0954l-27.59953,-19.47971l12.93686,-11.0954z" fill="#d8d8d8" stroke="none" stroke-width="NaN"/><path d="M409.71157,202.03295c-0.38276,0.79614 -27.99708,22.06277 -53.94759,41.97209c-22.35749,17.15275 -43.34975,33.40062 -46.15548,33.4798c-3.10206,0.08754 -26.00421,-19.83343 -25.11812,-21.78258c2.02963,-4.46471 91.80507,-72.57389 98.48867,-75.3934c4.80525,-2.02712 28.38185,18.29359 26.73252,21.72409z" fill="none" stroke="#000000" stroke-width="5"/></g><g stroke-linecap="round"><path d="M250.65998,287.38831c0,0 -9.46434,40.33444 -16.69836,43.57497c-5.54546,2.48413 -40.69637,0.5449 -43.76121,0.43575c-4.93914,-0.17591 14.93563,-17.94562 17.84997,-25.27348c2.91434,-7.32787 0,-19.60873 0,-19.60873z" fill="#c41414" stroke="none" stroke-width="0"/><path d="M242.74266,306.0774l-7.77337,20.69811l-3.16693,2.6145l-14.10724,0.8715l-26.48705,-1.08937c0,0 13.06529,-12.21715 16.30787,-16.60193c2.12744,-2.87682 3.26952,-7.14643 3.26952,-7.14643z" fill="#5b5a5a" stroke="#5b5a5a" stroke-width="0.5"/><path d="M250.08417,288.65818c0,0 -9.33087,38.604 -16.46286,41.70549c-5.46724,2.37755 -40.12245,0.52153 -43.14406,0.41706c-4.86949,-0.16836 14.72501,-17.17571 17.59823,-24.18919c2.87324,-7.01348 0,-18.76748 0,-18.76748z" fill="none" stroke="#000000" stroke-width="5"/></g><path d="M208.23638,286.12771c-1.25455,-0.79709 1.367,-28.91249 4.02611,-55.27217c2.29094,-22.71001 4.075,-44.14908 9.70106,-45.31436c6.2202,-1.28834 105.09961,5.91159 108.27714,7.84302c7.27838,4.42413 -3.89541,94.99202 -10.52329,99.90553c-4.7652,3.53263 -106.07527,-3.72744 -111.48102,-7.16203z" fill="#c41414" stroke="#000000" stroke-width="5" stroke-linecap="butt"/><g><path d="M210.32554,186.65464c-1.53926,-0.77539 -0.17085,-28.94214 1.35114,-55.35349c1.31127,-22.75452 2.09943,-44.22901 8.70813,-45.49254c7.30662,-1.39697 125.17386,4.08157 129.06705,5.95805c8.91771,4.29821 1.26892,95.07909 -6.29687,100.10907c-5.43949,3.61637 -126.19694,-1.88 -132.82945,-5.22109z" fill="#ffbbce" stroke="#000000" stroke-width="5" stroke-linecap="butt"/><g stroke="#000000" stroke-width="5" stroke-linecap="butt"><path d="M214.15558,140.43326c-0.54729,-0.19199 -0.25477,-6.91141 0.10361,-13.21101c0.30877,-5.42737 0.44193,-10.55143 2.76076,-10.82369c2.5637,-0.30102 44.10879,1.53201 45.49245,1.9974c3.16936,1.06602 1.08619,22.70816 -1.54436,23.87549c-1.89126,0.83927 -44.45429,-1.01088 -46.81247,-1.83818z" fill="#ffffff"/><path d="M237.18507,139.19942c-0.25871,-0.1754 0.39033,-6.0117 1.04082,-11.48203c0.56043,-4.71294 1.01053,-9.16494 2.18798,-9.36557c1.3018,-0.22183 21.89516,2.01706 22.55075,2.44309c1.50167,0.97589 -1.1582,19.75589 -2.55821,20.72973c-1.00656,0.70015 -22.10658,-1.56943 -23.22134,-2.32521z" fill="#000000"/></g><g stroke="#000000" stroke-width="5" stroke-linecap="butt"><path d="M301.3257,142.7801c-0.54222,-0.20007 -0.07613,-6.91387 0.44498,-13.20695c0.44896,-5.42176 0.71452,-10.54287 3.03994,-10.78077c2.57101,-0.26302 44.06077,2.18449 45.43214,2.67028c3.14122,1.11272 0.49915,22.71988 -2.16106,23.84807c-1.9126,0.81113 -44.41965,-1.66859 -46.75598,-2.53064z" fill="#ffffff"/><path d="M324.38266,141.88731c-0.25414,-0.1792 0.54561,-6.00478 1.33733,-11.46444c0.6821,-4.70374 1.24718,-9.14822 2.42959,-9.3314c1.3073,-0.20252 21.83885,2.34071 22.4833,2.77636c1.47617,0.99791 -1.6685,19.73496 -3.09342,20.6879c-1.02445,0.68511 -22.06179,-1.8963 -23.15681,-2.66842z" fill="#000000"/></g><g stroke="#000000" stroke-width="5"><path d="M235.91581,61.50223l-1.20484,9.99019l9.20246,0.3315l2.38252,-10.38401l22.4584,0.37277l1.61618,10.9643l33.38632,0.76641l0.60231,-9.57565l24.78639,0.02038l0.38372,12.22863l8.62732,0.31078l2.46466,-11.68978l22.37626,1.67853l-2.08092,23.91841l-7.77816,4.51849l-138.63954,-4.5579l-6.1898,-2.40419l2.82034,-26.50923z" fill="#fee70a" stroke-linecap="round"/><path d="M238.90176,87.34814c-5.71769,-0.20596 -10.17505,-3.19857 -9.9558,-6.68416c0.21925,-3.48558 5.03206,-6.14425 10.74975,-5.9383c5.71769,0.20596 10.17505,3.19857 9.9558,6.68416c-0.21925,3.48558 -5.03206,6.14425 -10.74975,5.9383z" fill="#7e93ff" stroke-linecap="butt"/><path d="M287.15996,89.959c-6.98827,-0.25174 -12.44502,-3.76862 -12.18798,-7.85517c0.25704,-4.08655 6.13054,-7.1953 13.11881,-6.94356c6.98827,0.25174 12.44502,3.76862 12.18798,7.85517c-0.25704,4.08655 -6.13054,7.1953 -13.11881,6.94356z" fill="#0026ff" stroke-linecap="butt"/><path d="M332.88471,91.60611c-7.1471,-0.25746 -12.75098,-3.48668 -12.51661,-7.21265c0.23436,-3.72597 6.21822,-6.53777 13.36532,-6.28031c7.1471,0.25746 12.75098,3.48668 12.51661,7.21265c-0.23436,3.72597 -6.21822,6.53777 -13.36532,6.28031z" fill="#b6ff00" stroke-linecap="butt"/></g><g stroke-linecap="butt"><path d="M252.62967,180.68806c-0.63056,-0.20942 -0.3345,-7.51562 0.03988,-14.36524c0.32254,-5.90125 0.44495,-11.47288 3.11017,-11.76626c2.94668,-0.32436 50.73811,1.71686 52.33222,2.22452c3.65145,1.16283 1.38547,24.6936 -1.63289,25.9599c-2.17007,0.91042 -51.13232,-1.1506 -53.84939,-2.05291z" fill="#fea3c1" stroke="none" stroke-width="0"/><path d="M255.91177,165.1759l0.57493,-9.14039l52.91418,1.9061l-0.57493,9.14039z" fill="#ffc7d9" stroke="none" stroke-width="0"/><path d="M258.60261,164.41311c0.46648,-0.00486 0.80103,0.05844 0.80103,0.05844l4.46091,1.35293c0.13355,1.26447 0.48885,2.52668 0.40066,3.79344c-0.25062,3.6 -3.93049,9.19146 -10.00666,4.73366c-2.06693,-1.51641 0.4963,-6.55251 1.07863,-8.31543c0,0 0.66032,-1.99896 3.26544,-1.62304z" fill="#563741" stroke="none" stroke-width="0.5"/><path d="M307.28729,167.16817c0.7281,0.54828 1.1935,1.37454 1.37204,2.22811c1.87802,1.24334 3.51101,2.67487 1.75539,5.16902c-1.87906,2.66948 -8.013,3.3399 -10.69159,0.9878c-1.80268,-1.58296 -0.50942,-6.64264 2.57198,-8.48245c0.45085,-0.5723 1.37804,-1.27131 3.1209,-0.94161c1.02478,0.19386 1.57957,0.60114 1.87132,1.03912z" fill="#563741" stroke="none" stroke-width="0.5"/><path d="M253.11857,182.08876l0.30115,-4.78783l55.78996,2.00969l-0.30115,4.78783z" fill="#a06778" stroke="none" stroke-width="0"/><path d="M253.15007,181.57929c-0.63056,-0.20942 -0.3345,-7.51562 0.03988,-14.36524c0.32254,-5.90125 0.44495,-11.47288 3.11017,-11.76626c2.94668,-0.32436 50.73811,1.71686 52.33222,2.22452c3.65145,1.16283 1.38547,24.6936 -1.63289,25.9599c-2.17007,0.91042 -51.13232,-1.1506 -53.84939,-2.05291z" fill="none" stroke="#000000" stroke-width="5"/></g></g><g><g stroke-linecap="round"><path d="M312.77382,194.90502c0,0 -12.15357,24.49033 -14.6076,45.4548c-2.45403,20.96447 3.07361,53.07836 3.07361,53.07836l-66.39922,-5.75395c0,0 11.90779,-34.2595 13.57195,-52.07425c1.66416,-17.81475 -4.51691,-44.85992 -4.51691,-44.85992z" fill="#f7f6f6" stroke="none" stroke-width="0"/><path d="M237.89354,286.11988l15.22735,-45.85455l-3.7599,-46.56279l57.39847,3.46246l-12.65689,43.38681l3.43964,49.60339z" fill="none" stroke="#c6c7c7" stroke-width="5"/><path d="M312.68231,195.77377c0,0 -12.15357,24.49033 -14.6076,45.4548c-2.45403,20.96447 3.07361,53.07836 3.07361,53.07836l-66.39922,-5.75395c0,0 11.90779,-34.2595 13.57195,-52.07425c1.66416,-17.81475 -4.51691,-44.85992 -4.51691,-44.85992z" fill="none" stroke="#000000" stroke-width="5"/></g><path d="M266.81961,219.8908c0.36639,-3.4785 4.38966,-6.07361 8.98621,-5.79633c4.59654,0.27727 8.02575,3.32195 7.65935,6.80045c-0.36639,3.4785 -4.38966,6.07361 -8.98621,5.79633c-4.59654,-0.27727 -8.02575,-3.32195 -7.65935,-6.80045z" fill="#ffd901" stroke="none" stroke-width="NaN" stroke-linecap="butt"/><path d="M265.12673,235.96256c0.36639,-3.4785 4.38965,-6.07361 8.98621,-5.79633c4.59655,0.27727 8.02575,3.32195 7.65935,6.80045c-0.36639,3.4785 -4.38965,6.07361 -8.98621,5.79633c-4.59655,-0.27727 -8.02575,-3.32195 -7.65935,-6.80045z" fill="#ffd901" stroke="none" stroke-width="NaN" stroke-linecap="butt"/><path d="M263.47962,251.59994c0.36639,-3.4785 4.38965,-6.07361 8.98621,-5.79633c4.59655,0.27727 8.02575,3.32195 7.65935,6.80045c-0.36639,3.47851 -4.38965,6.07361 -8.98621,5.79633c-4.59655,-0.27727 -8.02575,-3.32194 -7.65935,-6.80045z" fill="#ffd901" stroke="none" stroke-width="NaN" stroke-linecap="butt"/></g><path d="M269.8859,120.70399l-61.61118,-7.40774" fill="none" stroke="#000000" stroke-width="5" stroke-linecap="round"/><g><path d="M388.43231,229.79991c-8.68583,-3.4218 -39.78064,-40.38042 -39.78064,-40.38042c0,0 12.93156,-3.43126 17.17786,-6.77698c4.4321,-3.49213 8.88125,-13.75544 8.88125,-13.75544c0,0 31.46899,34.67163 36.09456,45.01806c2.73101,6.1087 -13.68718,19.31658 -22.37302,15.89478z" fill="#343545" stroke="none" stroke-width="0" stroke-linecap="butt"/><path d="M330.38747,179.85088c-7.27046,-7.84311 -4.28874,-20.50684 6.65987,-28.2852c10.9486,-7.77837 25.71807,-7.72588 32.98853,0.11724c7.27046,7.84311 4.28874,20.50684 -6.65987,28.2852c-10.9486,7.77837 -25.71807,7.72588 -32.98853,-0.11724z" fill="#343545" stroke="none" stroke-width="0" stroke-linecap="butt"/><path d="M390.56337,227.28714l-28.35126,-32.35989" fill="none" stroke="#485e84" stroke-width="10" stroke-linecap="round"/><path d="M388.43452,228.78887c-8.68583,-3.4218 -39.78063,-40.38043 -39.78063,-40.38043c0,0 12.93156,-3.43126 17.17787,-6.77699c4.4321,-3.49213 8.88124,-13.75542 8.88124,-13.75542c0,0 31.46899,34.67163 36.09456,45.01806c2.73101,6.1087 -13.68718,19.31658 -22.37302,15.89478z" fill="none" stroke="#000000" stroke-width="5" stroke-linecap="butt"/><path d="M334.80137,187.14598l-7.39182,-24.69543l21.9969,-16.30053c0,0 8.01202,10.69563 8.96159,16.57079c1.028,6.3605 -7.44631,23.06701 -7.44631,23.06701z" fill="#485f85" stroke="none" stroke-width="0" stroke-linecap="butt"/><path d="M330.29234,180.25496c-7.27046,-7.84311 -4.28874,-20.50684 6.65987,-28.2852c10.9486,-7.77837 25.71806,-7.72588 32.98853,0.11724c7.27046,7.84311 4.28873,20.50683 -6.65987,28.2852c-10.9486,7.77837 -25.71805,7.72587 -32.98852,-0.11724z" fill="none" stroke="#000000" stroke-width="5" stroke-linecap="butt"/><path d="M358.4411,194.98457c-4.2065,1.28885 -8.18463,-6.34749 -8.18463,-6.34749c0,0 10.08613,-6.14579 14.39324,-9.26403c4.49558,-3.2547 12.03902,-9.87232 12.03902,-9.87232c0,0 5.25107,6.37385 3.66843,9.9137c-0.93443,2.08997 -17.70957,14.2813 -21.91607,15.57016z" fill="#485f85" stroke="#000101" stroke-width="5" stroke-linecap="butt"/><path d="M332.97403,160.85269l21.251,22.92483" fill="none" stroke="#000000" stroke-width="2.5" stroke-linecap="round"/><path d="M328.62641,166.29681l14.66661,16.83524" fill="none" stroke="#000000" stroke-width="2.5" stroke-linecap="round"/><path d="M336.76192,152.7779l24.91708,27.3864" fill="none" stroke="#000000" stroke-width="2.5" stroke-linecap="round"/><path d="M367.91612,172.70483l-22.56298,-26.36699" fill="none" stroke="#000000" stroke-width="2.5" stroke-linecap="round"/><path d="M354.40454,144.95456l16.35915,18.66111" fill="none" stroke="#000000" stroke-width="2.5" stroke-linecap="round"/><path d="M339.04942,184.128l33.79405,-23.33582" fill="none" stroke="#000000" stroke-width="2.5" stroke-linecap="round"/><path d="M330.76582,179.24561l39.92936,-27.35814" fill="none" stroke="#000000" stroke-width="2.5" stroke-linecap="round"/><path d="M362.59964,147.20795l-35.49327,24.54302" fill="none" stroke="#000000" stroke-width="2.5" stroke-linecap="round"/></g><path d="M366.13779,105.55365l-67.64828,13.38872" fill="none" stroke="#000000" stroke-width="5" stroke-linecap="round"/></g></g></svg>