<svg version="1.1" xmlns="http://www.w3.org/2000/svg" xmlns:xlink="http://www.w3.org/1999/xlink" width="343.68081" height="297.95486" viewBox="0,0,343.68081,297.95486"><g transform="translate(-44.52518,-35.40011)"><g data-paper-data="{&quot;isPaintingLayer&quot;:true}" fill-rule="nonzero" stroke-linejoin="miter" stroke-miterlimit="10" stroke-dasharray="" stroke-dashoffset="0" style="mix-blend-mode: normal"><g stroke-linecap="round"><path d="M301.40329,286.65968c0,0 17.1526,43.8669 11.32447,43.95894c-7.94831,0.12552 -29.28522,-0.68466 -35.59118,-0.53608c-8.62008,0.2031 10.50254,-8.94213 10.24595,-18.76297c-0.25659,-9.82082 -11.32447,-22.51555 -11.32447,-22.51555z" fill="#c41414" stroke="none" stroke-width="0"/><path d="M304.50403,302.44268c0,0 2.99117,6.82529 3.9227,10.69499c1.10565,4.59301 3.62695,16.4849 3.62695,16.4849l-33.70377,-1.18173l10.51558,-14.41716c0,0 -0.04242,-5.26556 -0.28628,-7.27492c-0.19403,-1.59872 -0.52261,-4.30608 -0.52261,-4.30608z" fill="#5a5b5a" stroke="#5a5b5a" stroke-width="0.5"/><path d="M301.40329,286.89603c0,0 17.1526,43.8669 11.32447,43.95894c-7.94831,0.12552 -29.28522,-0.68466 -35.59118,-0.53608c-8.62008,0.2031 10.50254,-8.94213 10.24595,-18.76297c-0.25659,-9.82082 -11.32447,-22.51555 -11.32447,-22.51555z" fill="none" stroke="#000000" stroke-width="5"/></g><g stroke="#000000" stroke-width="5"><path d="M127.12057,235.83621l46.02973,37.87203l-9.24068,9.2431l-46.74055,-37.16103z" fill="#825800" stroke-linecap="round"/><path d="M117.16905,245.79031c0,0 -9.98583,12.9466 -14.6988,16.39962c-4.14892,3.03976 -13.2697,2.96966 -13.2697,2.96966c0,0 5.78196,-10.38726 9.20557,-14.57724c2.9071,-3.55784 10.04109,-8.97773 10.04109,-8.97773l10.96757,-11.68766c0,0 6.73785,-7.99046 11.00211,-11.43054c4.37956,-3.53309 14.93856,-9.49642 14.93856,-9.49642c0,0 -0.22164,8.07064 -2.96314,12.30605c-2.94945,4.55667 -14.15537,14.1407 -14.15537,14.1407z" fill="#00a5a5" stroke-linecap="round"/><path d="M103.38026,244.70765l-51.13142,-31.85653l-4.67437,-25.90663l25.00834,2.52474l52.8896,32.99201z" fill="#00ffff" stroke-linecap="round"/><path d="M185.47571,292.21971c-4.4383,4.43945 -12.03096,4.96976 -16.95871,1.18449c-4.92775,-3.78527 -5.32455,-10.45274 -0.88625,-14.89218c4.4383,-4.43945 12.03096,-4.96976 16.95871,-1.18449c4.92775,3.78527 5.32455,10.45274 0.88625,14.89218z" fill="#00a5a5" stroke-linecap="butt"/></g><g stroke-linecap="butt"><path d="M127.78179,252.91445c0.24101,-0.85362 23.21382,-23.85925 44.81421,-45.39774c18.60968,-18.55635 36.06097,-36.13161 38.71653,-36.24893c2.93602,-0.12971 27.78833,20.84891 27.24679,22.93819c-1.24043,4.78566 -76.08512,78.47991 -82.00475,81.56538c-4.25599,2.21834 -29.81131,-19.17874 -28.77279,-22.85689z" fill="#c41414" stroke="none" stroke-width="0"/><path d="M126.3751,255.42572l16.75723,-17.02036l28.85735,21.6063l-16.75723,17.02035z" fill="#ef99b4" stroke="none" stroke-width="NaN"/><path d="M142.82022,240.07483l10.58756,-11.98547l29.2506,20.45295l-10.58756,11.98547z" fill="#d8d8d8" stroke="none" stroke-width="NaN"/><path d="M126.80515,253.53438c0.24101,-0.85362 23.21382,-23.85925 44.81421,-45.39774c18.60968,-18.55635 36.06097,-36.13161 38.71653,-36.24893c2.93602,-0.12971 27.78833,20.84891 27.24679,22.93819c-1.24043,4.78566 -76.08512,78.47991 -82.00475,81.56538c-4.25599,2.21834 -29.81131,-19.17874 -28.77279,-22.85689z" fill="none" stroke="#000000" stroke-width="5"/></g><g stroke-linecap="butt"><path d="M383.85984,210.59313c-0.50289,0.7609 -29.88062,17.24208 -57.47379,32.64956c-23.77272,13.27422 -46.12099,25.88925 -48.70862,25.3531c-2.86092,-0.59277 -20.05756,-26.81197 -18.87313,-28.68613c2.71301,-4.29294 98.02487,-56.78052 104.69103,-58.29743c4.79271,-1.0906 22.53145,25.70223 20.3645,28.98089z" fill="#c41414" stroke="none" stroke-width="0"/><path d="M386.96242,208.34081l-22.37354,11.73976l-22.03757,-27.12072l22.37354,-11.73977z" fill="#ef99b4" stroke="none" stroke-width="NaN"/><path d="M365.33464,219.24969l-13.97909,8.92372l-21.58779,-26.78897l13.97909,-8.92372z" fill="#d8d8d8" stroke="none" stroke-width="NaN"/><path d="M384.9949,210.23638c-0.50289,0.7609 -29.88062,17.24208 -57.47379,32.64956c-23.77272,13.27422 -46.12099,25.88925 -48.70862,25.3531c-2.86092,-0.59277 -20.05756,-26.81197 -18.87313,-28.68613c2.71301,-4.29294 98.02487,-56.78052 104.69103,-58.29743c4.79271,-1.0906 22.53145,25.70223 20.3645,28.98089z" fill="none" stroke="#000000" stroke-width="5"/></g><g stroke-linecap="round"><path d="M237.77057,283.58717c0,0 -8.86366,43.75409 -15.63855,47.26936c-5.1935,2.69474 -38.11346,0.5911 -40.98378,0.47269c-4.62566,-0.19082 13.9877,-19.46709 16.71707,-27.41623c2.72937,-7.94914 0,-21.27121 0,-21.27121z" fill="#c41414" stroke="none" stroke-width="0"/><path d="M230.35575,303.86076l-7.28001,22.45295l-2.96593,2.83616l-13.21188,0.94539l-24.80597,-1.18173c0,0 12.23606,-13.25295 15.27284,-18.00948c1.99242,-3.12072 3.06201,-7.75232 3.06201,-7.75232z" fill="#5b5a5a" stroke="#5b5a5a" stroke-width="0.5"/><path d="M237.23131,284.9647c0,0 -8.73866,41.87694 -15.418,45.24139c-5.12025,2.57913 -37.57596,0.56575 -40.4058,0.45242c-4.56043,-0.18263 13.79044,-18.63191 16.48131,-26.24001c2.69088,-7.6081 0,-20.35863 0,-20.35863z" fill="none" stroke="#000000" stroke-width="5"/></g><path d="M198.03951,282.21969c-1.17493,-0.86467 1.28024,-31.36376 3.77058,-59.95828c2.14554,-24.63542 3.81637,-47.89215 9.08535,-49.15622c5.82542,-1.39757 98.42916,6.41279 101.40502,8.50797c6.81644,4.79922 -3.64818,103.04568 -9.8554,108.37577c-4.46276,3.83213 -99.3429,-4.04346 -104.40555,-7.76924z" fill="#c41414" stroke="#000000" stroke-width="5" stroke-linecap="butt"/><g><path d="M200.46434,173.77066c-1.44157,-0.84113 -0.16001,-31.39593 1.26539,-60.0465c1.22805,-24.6837 1.96618,-47.97886 8.15544,-49.34951c6.84288,-1.51541 117.22934,4.42762 120.87544,6.46319c8.35172,4.66262 1.18838,103.14013 -5.89722,108.59657c-5.09426,3.92297 -118.18749,-2.03939 -124.39904,-5.66375z" fill="#ffbbce" stroke="#000000" stroke-width="5" stroke-linecap="butt"/><g stroke="#000000" stroke-width="5" stroke-linecap="butt"><path d="M204.0513,123.63051c-0.51255,-0.20827 -0.2386,-7.49738 0.09703,-14.33107c0.28917,-5.88752 0.41388,-11.44601 2.58554,-11.74135c2.40099,-0.32654 41.3093,1.6619 42.60514,2.16674c2.96821,1.1564 1.01725,24.63341 -1.44634,25.89971c-1.77123,0.91043 -41.63287,-1.09658 -43.84138,-1.99403z" fill="#ffffff"/><path d="M225.61915,122.29206c-0.24229,-0.19027 0.36556,-6.52139 0.97476,-12.45551c0.52486,-5.11251 0.94639,-9.94197 2.04911,-10.15961c1.21918,-0.24064 20.50552,2.18807 21.1195,2.65022c1.40636,1.05863 -1.08469,21.43084 -2.39585,22.48725c-0.94268,0.75951 -20.70352,-1.70249 -21.74753,-2.52235z" fill="#000000"/></g><g stroke="#000000" stroke-width="5" stroke-linecap="butt"><path d="M285.68891,126.17632c-0.50781,-0.21703 -0.0713,-7.50005 0.41674,-14.32667c0.42047,-5.88143 0.66917,-11.43672 2.847,-11.69479c2.40783,-0.28532 41.26433,2.3697 42.54866,2.89667c2.94185,1.20706 0.46747,24.64613 -2.0239,25.86997c-1.79121,0.8799 -41.60043,-1.81006 -43.78848,-2.74519z" fill="#ffffff"/><path d="M307.2825,125.20784c-0.23801,-0.19439 0.51098,-6.51388 1.25245,-12.43642c0.63881,-5.10253 1.16802,-9.92383 2.27539,-10.12254c1.22433,-0.21969 20.45278,2.53916 21.05633,3.01175c1.38248,1.08252 -1.5626,21.40814 -2.89709,22.44187c-0.95943,0.7432 -20.66157,-2.05707 -21.6871,-2.89466z" fill="#000000"/></g><g stroke="#000000" stroke-width="5"><path d="M224.43045,38.00751l-1.12837,10.83718l8.6184,0.3596l2.23131,-11.26439l21.03301,0.40437l1.5136,11.89388l31.26736,0.83139l0.56408,-10.3875l23.21325,0.02211l0.35937,13.2654l8.07976,0.33713l2.30823,-12.68087l20.95609,1.82084l-1.94885,25.94627l-7.2845,4.90158l-129.84038,-4.94433l-5.79695,-2.60802l2.64134,-28.75675z" fill="#fee70a" stroke-linecap="round"/><path d="M227.22689,66.0447c-5.3548,-0.22342 -9.52926,-3.46975 -9.32393,-7.25086c0.20533,-3.7811 4.71269,-6.66518 10.06749,-6.44176c5.3548,0.22342 9.52926,3.46975 9.32393,7.25086c-0.20533,3.7811 -4.71269,6.66518 -10.06749,6.44176z" fill="#7e93ff" stroke-linecap="butt"/><path d="M272.42224,68.87692c-6.54474,-0.27308 -11.65516,-4.08813 -11.41443,-8.52115c0.24073,-4.43302 5.74145,-7.80533 12.28619,-7.53225c6.54474,0.27308 11.65516,4.08813 11.41443,8.52115c-0.24073,4.43302 -5.74145,7.80533 -12.28619,7.53225z" fill="#0026ff" stroke-linecap="butt"/><path d="M315.24494,70.66368c-6.69349,-0.27929 -11.9417,-3.78229 -11.72221,-7.82416c0.21949,-4.04187 5.82356,-7.09206 12.51705,-6.81277c6.69349,0.27929 11.9417,3.78229 11.72221,7.82416c-0.21949,4.04187 -5.82356,7.09206 -12.51705,6.81277z" fill="#b6ff00" stroke-linecap="butt"/></g><g stroke-linecap="butt"><path d="M240.08352,167.29821c-0.59054,-0.22717 -0.31327,-8.15281 0.03735,-15.58316c0.30207,-6.40157 0.41671,-12.44558 2.91277,-12.76383c2.75966,-0.35186 47.51787,1.86242 49.0108,2.41312c3.4197,1.26142 1.29754,26.78718 -1.52925,28.16084c-2.03234,0.98761 -47.88706,-1.24815 -50.43168,-2.22696z" fill="#fea3c1" stroke="none" stroke-width="0"/><path d="M243.15731,150.47089l0.53844,-9.91533l49.55583,2.0677l-0.53844,9.91533z" fill="#ffc7d9" stroke="none" stroke-width="0"/><path d="M245.67737,149.64343c0.43687,-0.00527 0.75019,0.0634 0.75019,0.0634l4.17779,1.46763c0.12507,1.37168 0.45782,2.7409 0.37523,4.11506c-0.23471,3.90522 -3.68103,9.97073 -9.37156,5.13499c-1.93575,-1.64497 0.4648,-7.10805 1.01017,-9.02043c0,0 0.61841,-2.16844 3.05819,-1.76065z" fill="#563741" stroke="none" stroke-width="0.5"/><path d="M291.27213,152.63207c0.68189,0.59476 1.11775,1.49108 1.28496,2.41701c1.75883,1.34875 3.28817,2.90165 1.64398,5.60726c-1.7598,2.89581 -7.50443,3.62307 -10.01302,1.07155c-1.68827,-1.71717 -0.47709,-7.20582 2.40874,-9.20161c0.42224,-0.62082 1.29058,-1.3791 2.92282,-1.02144c0.95974,0.2103 1.47932,0.65211 1.75255,1.12722z" fill="#563741" stroke="none" stroke-width="0.5"/><path d="M240.54139,168.81767l0.28204,-5.19375l52.24909,2.18008l-0.28204,5.19375z" fill="#a06778" stroke="none" stroke-width="0"/><path d="M240.57089,168.265c-0.59054,-0.22717 -0.31327,-8.15281 0.03735,-15.58316c0.30207,-6.40157 0.41671,-12.44558 2.91277,-12.76383c2.75966,-0.35186 47.51787,1.86242 49.0108,2.41312c3.4197,1.26142 1.29754,26.78718 -1.52925,28.16084c-2.03234,0.98761 -47.88706,-1.24815 -50.43168,-2.22696z" fill="none" stroke="#000000" stroke-width="5"/></g></g><g><g stroke-linecap="round"><path d="M295.94218,183.26292c0,0 -11.38221,26.56668 -13.68049,49.30857c-2.29828,22.74189 2.87853,57.57848 2.87853,57.57848l-62.185,-6.24178c0,0 11.15203,-37.1641 12.71057,-56.48923c1.55854,-19.32513 -4.23023,-48.66326 -4.23023,-48.66326z" fill="#f7f6f6" stroke="none" stroke-width="0"/><path d="M225.81439,282.2112l14.2609,-49.74221l-3.52127,-50.5105l53.75551,3.75602l-11.85358,47.06525l3.22133,53.80889z" fill="none" stroke="#c6c7c7" stroke-width="5"/><path d="M295.85648,184.20532c0,0 -11.38221,26.56668 -13.68049,49.30857c-2.29828,22.74189 2.87853,57.57848 2.87853,57.57848l-62.185,-6.24178c0,0 11.15203,-37.1641 12.71057,-56.48923c1.55854,-19.32513 -4.23023,-48.66326 -4.23023,-48.66326z" fill="none" stroke="#000000" stroke-width="5"/></g><path d="M252.90459,210.36705c0.34314,-3.77342 4.11106,-6.58855 8.41587,-6.28776c4.30481,0.30078 7.51637,3.60359 7.17323,7.37701c-0.34314,3.77342 -4.11106,6.58855 -8.41587,6.28776c-4.30481,-0.30078 -7.51637,-3.60359 -7.17323,-7.37701z" fill="#ffd901" stroke="none" stroke-width="NaN" stroke-linecap="butt"/><path d="M251.31915,227.80141c0.34314,-3.77342 4.11105,-6.58855 8.41587,-6.28776c4.30482,0.30078 7.51637,3.60359 7.17323,7.37701c-0.34314,3.77342 -4.11105,6.58855 -8.41587,6.28776c-4.30482,-0.30078 -7.51637,-3.60359 -7.17323,-7.37701z" fill="#ffd901" stroke="none" stroke-width="NaN" stroke-linecap="butt"/><path d="M249.77658,244.76457c0.34314,-3.77342 4.11105,-6.58855 8.41587,-6.28776c4.30482,0.30078 7.51637,3.60359 7.17323,7.37701c-0.34314,3.77343 -4.11105,6.58855 -8.41587,6.28776c-4.30482,-0.30078 -7.51637,-3.60358 -7.17323,-7.37701z" fill="#ffd901" stroke="none" stroke-width="NaN" stroke-linecap="butt"/></g><path d="M254.83973,98.9742l-57.70085,-8.03579" fill="none" stroke="#000000" stroke-width="5" stroke-linecap="round"/><g><path d="M359.55251,221.63351c-7.03758,-6.009 -26.28394,-53.424 -26.28394,-53.424c0,0 12.5299,0.00848 17.17846,-2.31501c4.85197,-2.42517 11.3493,-11.94406 11.3493,-11.94406c0,0 20.13554,45.1218 21.83143,57.25806c1.00128,7.16544 -17.03765,16.43402 -24.07524,10.42502z" fill="#343545" stroke="none" stroke-width="0" stroke-linecap="butt"/><path d="M319.04155,153.08593c-4.69229,-10.24939 1.05474,-22.69388 12.83635,-27.79553c11.78161,-5.10165 25.13635,-0.92858 29.82864,9.32081c4.69229,10.24939 -1.05474,22.69388 -12.83635,27.79553c-11.78161,5.10165 -25.13635,0.92858 -29.82864,-9.32081z" fill="#343545" stroke="none" stroke-width="0" stroke-linecap="butt"/><path d="M362.08613,219.59347l-17.87025,-41.82902" fill="none" stroke="#485e84" stroke-width="10" stroke-linecap="round"/><path d="M359.79788,220.57422c-7.03758,-6.009 -26.28393,-53.42401 -26.28393,-53.42401c0,0 12.5299,0.00848 17.17847,-2.31502c4.85197,-2.42517 11.34928,-11.94405 11.34928,-11.94405c0,0 20.13554,45.1218 21.83143,57.25806c1.00128,7.16544 -17.03765,16.43402 -24.07524,10.42502z" fill="none" stroke="#000000" stroke-width="5" stroke-linecap="butt"/><path d="M321.28038,161.96435l-0.7455,-27.95014l23.8325,-10.95525c0,0 4.67681,13.44655 4.12198,19.87046c-0.60067,6.95458 -12.29203,22.10582 -12.29203,22.10582z" fill="#485f85" stroke="none" stroke-width="0" stroke-linecap="butt"/><path d="M318.85818,153.48301c-4.69229,-10.24939 1.05474,-22.69388 12.83635,-27.79553c11.78161,-5.10165 25.13634,-0.92858 29.82864,9.32082c4.69229,10.24939 -1.05474,22.69387 -12.83635,27.79553c-11.78161,5.10165 -25.13633,0.92858 -29.82863,-9.32081z" fill="none" stroke="#000000" stroke-width="5" stroke-linecap="butt"/><path d="M340.78906,176.77309c-4.11742,0.17829 -5.8797,-8.93636 -5.8797,-8.93636c0,0 10.60803,-3.63063 15.25687,-5.69869c4.85227,-2.15856 13.27256,-6.99279 13.27256,-6.99279c0,0 3.21828,8.14606 0.93379,11.41574c-1.34881,1.93046 -19.46611,10.03382 -23.58353,10.21211z" fill="#485f85" stroke="#000101" stroke-width="5" stroke-linecap="butt"/><path d="M339.67095,163.84879l-13.71521,-29.95819" fill="none" stroke="#000000" stroke-width="2.5" stroke-linecap="round"/><path d="M320.71036,138.38566l9.22176,21.73838" fill="none" stroke="#000000" stroke-width="2.5" stroke-linecap="round"/><path d="M331.32778,126.48164l15.95929,35.65761" fill="none" stroke="#000000" stroke-width="2.5" stroke-linecap="round"/><path d="M354.7277,156.05824l-14.07406,-33.93255" fill="none" stroke="#000000" stroke-width="2.5" stroke-linecap="round"/><path d="M349.17875,123.19928l10.3141,24.12442" fill="none" stroke="#000000" stroke-width="2.5" stroke-linecap="round"/><path d="M362.05486,144.94362l-36.20323,15.04131" fill="none" stroke="#000000" stroke-width="2.5" stroke-linecap="round"/><path d="M319.52968,152.55689l42.72434,-17.54741" fill="none" stroke="#000000" stroke-width="2.5" stroke-linecap="round"/><path d="M356.05345,127.84656l-38.03173,15.83309" fill="none" stroke="#000000" stroke-width="2.5" stroke-linecap="round"/></g><path d="M343.58837,90.05092l-60.60158,10.57004" fill="none" stroke="#000000" stroke-width="5" stroke-linecap="round"/></g></g></svg>