<svg version="1.1" xmlns="http://www.w3.org/2000/svg" xmlns:xlink="http://www.w3.org/1999/xlink" width="323.88467" height="314.88264" viewBox="0,0,323.88467,314.88264"><g transform="translate(-44.59103,-18.39333)"><g data-paper-data="{&quot;isPaintingLayer&quot;:true}" fill-rule="nonzero" stroke-linejoin="miter" stroke-miterlimit="10" stroke-dasharray="" stroke-dashoffset="0" style="mix-blend-mode: normal"><g stroke-linecap="round"><path d="M282.92355,284.02763c0,0 15.90382,46.40099 10.5,46.49834c-7.36964,0.13277 -27.15314,-0.72421 -33,-0.56705c-7.9925,0.21483 9.73791,-9.4587 9.5,-19.84686c-0.23791,-10.38815 -10.5,-23.81622 -10.5,-23.81622z" fill="#c41414" stroke="none" stroke-width="0"/><path d="M285.79855,300.72237c0,0 2.7734,7.21957 3.63711,11.31281c1.02515,4.85834 3.36289,17.43719 3.36289,17.43719l-31.25,-1.25l9.75,-15.25c0,0 -0.03933,-5.56974 -0.26544,-7.69517c-0.1799,-1.69107 -0.48456,-4.55483 -0.48456,-4.55483z" fill="#5a5b5a" stroke="#5a5b5a" stroke-width="0.5"/><path d="M282.92355,284.27763c0,0 15.90382,46.40099 10.5,46.49834c-7.36964,0.13277 -27.15314,-0.72421 -33,-0.56705c-7.9925,0.21483 9.73791,-9.4587 9.5,-19.84686c-0.23791,-10.38815 -10.5,-23.81622 -10.5,-23.81622z" fill="none" stroke="#000000" stroke-width="5"/></g><g stroke="#000000" stroke-width="5"><path d="M121.3293,230.26821l42.67858,40.05981l-8.56792,9.77705l-43.33765,-39.30773z" fill="#825800" stroke-linecap="round"/><path d="M112.10229,240.79733c0,0 -9.25882,13.69449 -13.62867,17.34699c-3.84686,3.21536 -12.30361,3.14121 -12.30361,3.14121c0,0 5.36101,-10.98731 8.53537,-15.41933c2.69545,-3.76337 9.31006,-9.49635 9.31006,-9.49635l10.16909,-12.36283c0,0 6.24731,-8.45205 10.20111,-12.09086c4.06071,-3.73719 13.85097,-10.04501 13.85097,-10.04501c0,0 -0.2055,8.53686 -2.74741,13.01694c-2.73472,4.8199 -13.1248,14.95757 -13.1248,14.95757z" fill="#00a5a5" stroke-linecap="round"/><path d="M99.31738,239.65213l-47.40885,-33.69681l-4.33406,-27.40319l23.18763,2.67059l49.03903,34.89788z" fill="#00ffff" stroke-linecap="round"/><path d="M175.43596,289.90885c-4.11517,4.69591 -11.15506,5.25685 -15.72405,1.25291c-4.56899,-4.00394 -4.9369,-11.05657 -0.82173,-15.75247c4.11517,-4.69591 11.15506,-5.25685 15.72405,-1.25291c4.56899,4.00394 4.9369,11.05657 0.82173,15.75247z" fill="#00a5a5" stroke-linecap="butt"/></g><g stroke-linecap="butt"><path d="M121.94238,248.33301c0.22346,-0.90293 21.52376,-25.23754 41.55156,-48.02026c17.25482,-19.62831 33.43559,-38.21885 35.89781,-38.34294c2.72227,-0.1372 25.76523,22.0533 25.26312,24.26327c-1.15012,5.06212 -70.54582,83.01351 -76.03448,86.27722c-3.94614,2.34649 -27.64093,-20.28665 -26.67802,-24.17728z" fill="#c41414" stroke="none" stroke-width="0"/><path d="M120.63811,250.98935l15.53724,-18.00359l26.75642,22.85444l-15.53724,18.00358z" fill="#ef99b4" stroke="none" stroke-width="NaN"/><path d="M135.88596,234.75168l9.81674,-12.67784l27.12104,21.63447l-9.81674,12.67784z" fill="#d8d8d8" stroke="none" stroke-width="NaN"/><path d="M121.03685,248.98876c0.22346,-0.90293 21.52376,-25.23754 41.55156,-48.02026c17.25482,-19.62831 33.43559,-38.21885 35.89781,-38.34294c2.72227,-0.1372 25.76523,22.0533 25.26312,24.26327c-1.15012,5.06212 -70.54582,83.01351 -76.03448,86.27722c-3.94614,2.34649 -27.64093,-20.28665 -26.67802,-24.17728z" fill="none" stroke="#000000" stroke-width="5"/></g><g stroke-linecap="butt"><path d="M363.08572,210.97127c-0.46628,0.80486 -27.70519,18.23811 -53.28947,34.53565c-22.04197,14.04104 -42.7632,27.38481 -45.16244,26.81769c-2.65263,-0.62701 -18.59729,-28.36083 -17.49909,-30.34326c2.51549,-4.54093 90.88827,-60.0606 97.06911,-61.66513c4.44378,-1.1536 20.89107,27.18699 18.88188,30.65505z" fill="#c41414" stroke="none" stroke-width="0"/><path d="M365.96242,208.58884l-20.74466,12.41794l-20.43315,-28.68742l20.74466,-12.41795z" fill="#ef99b4" stroke="none" stroke-width="NaN"/><path d="M345.90923,220.1279l-12.96136,9.43922l-20.01611,-28.3365l12.96136,-9.43922z" fill="#d8d8d8" stroke="none" stroke-width="NaN"/><path d="M364.13815,210.59391c-0.46628,0.80486 -27.70519,18.23811 -53.28947,34.53565c-22.04197,14.04104 -42.7632,27.38481 -45.16244,26.81769c-2.65263,-0.62701 -18.59729,-28.36083 -17.49909,-30.34326c2.51549,-4.54093 90.88827,-60.0606 97.06911,-61.66513c4.44378,-1.1536 20.89107,27.18699 18.88188,30.65505z" fill="none" stroke="#000000" stroke-width="5"/></g><g stroke-linecap="round"><path d="M223.92355,280.77763c0,0 -8.21835,46.28166 -14.5,50c-4.81539,2.85041 -35.33865,0.62525 -38,0.5c-4.28889,-0.20184 12.96934,-20.59166 15.5,-29c2.53066,-8.40834 0,-22.5 0,-22.5z" fill="#c41414" stroke="none" stroke-width="0"/><path d="M217.04855,302.22237l-6.75,23.75l-2.75,3l-12.25,1l-23,-1.25c0,0 11.34523,-14.01854 14.16092,-19.04985c1.84736,-3.301 2.83908,-8.20015 2.83908,-8.20015z" fill="#5b5a5a" stroke="#5b5a5a" stroke-width="0.5"/><path d="M223.42355,282.23473c0,0 -8.10245,44.29607 -14.29551,47.85488c-4.74748,2.72812 -34.84028,0.59843 -37.4641,0.47855c-4.22841,-0.19318 12.78644,-19.70823 15.28141,-27.75583c2.49497,-8.0476 0,-21.5347 0,-21.5347z" fill="none" stroke="#000000" stroke-width="5"/></g><path d="M187.08506,279.33115c-1.08939,-0.91462 1.18703,-33.17557 3.49607,-63.42193c1.98934,-26.05855 3.53852,-50.65877 8.4239,-51.99586c5.40131,-1.4783 91.26313,6.78324 94.02233,8.99946c6.32018,5.07646 -3.38258,108.99838 -9.13789,114.63638c-4.13785,4.0535 -92.11034,-4.27704 -96.80441,-8.21805z" fill="#c41414" stroke="#000000" stroke-width="5" stroke-linecap="butt"/><g><path d="M189.33336,164.61728c-1.33662,-0.88972 -0.14836,-33.2096 1.17326,-63.51524c1.13864,-26.10962 1.82303,-50.75048 7.56169,-52.20031c6.34469,-1.60295 108.69458,4.68339 112.07523,6.83655c7.74368,4.93197 1.10186,109.09829 -5.46788,114.86994c-4.72338,4.14959 -109.58297,-2.1572 -115.3423,-5.99093z" fill="#ffbbce" stroke="#000000" stroke-width="5" stroke-linecap="butt"/><g stroke="#000000" stroke-width="5" stroke-linecap="butt"><path d="M192.65917,111.58065c-0.47523,-0.2203 -0.22123,-7.93049 0.08997,-15.15894c0.26812,-6.22763 0.38375,-12.10722 2.3973,-12.41962c2.22619,-0.3454 38.30182,1.7579 39.50332,2.29191c2.75211,1.2232 0.94319,26.05642 -1.34104,27.39588c-1.64228,0.96302 -38.60183,-1.15993 -40.64955,-2.10922z" fill="#ffffff"/><path d="M212.6568,110.16488c-0.22465,-0.20126 0.33895,-6.89811 0.90379,-13.17503c0.48665,-5.40785 0.87749,-10.51629 1.89993,-10.74651c1.13042,-0.25454 19.01264,2.31447 19.58192,2.80332c1.30397,1.11978 -1.00572,22.66885 -2.22142,23.78628c-0.87405,0.80338 -19.19622,-1.80084 -20.16422,-2.66806z" fill="#000000"/></g><g stroke="#000000" stroke-width="5" stroke-linecap="butt"><path d="M268.35324,114.27352c-0.47084,-0.22957 -0.06611,-7.93331 0.3864,-15.15429c0.38986,-6.22119 0.62045,-12.09739 2.63973,-12.37037c2.23253,-0.3018 38.26012,2.50659 39.45095,3.064c2.72767,1.27679 0.43344,26.06988 -1.87655,27.36442c-1.6608,0.93073 -38.57175,-1.91462 -40.60051,-2.90377z" fill="#ffffff"/><path d="M288.37473,113.2491c-0.22068,-0.20562 0.47378,-6.89017 1.16127,-13.15484c0.5923,-5.39729 1.08298,-10.49711 2.10973,-10.7073c1.13519,-0.23238 18.96374,2.68584 19.52335,3.18573c1.28183,1.14505 -1.44884,22.64484 -2.68617,23.73828c-0.88958,0.78613 -19.15733,-2.1759 -20.10819,-3.06188z" fill="#000000"/></g><g stroke="#000000" stroke-width="5"><path d="M211.55464,21.01141l-1.04622,11.46322l7.99095,0.38037l2.06886,-11.91511l19.50172,0.42773l1.4034,12.58096l28.99097,0.87942l0.52301,-10.98756l21.52323,0.02339l0.33321,14.03171l7.49152,0.3566l2.14018,-13.41341l19.4304,1.92603l-1.80697,27.44512l-6.75416,5.18473l-120.38749,-5.22995l-5.37491,-2.75868l2.44904,-30.41796z" fill="#fee70a" stroke-linecap="round"/><path d="M214.14749,50.66824c-4.96495,-0.23633 -8.83549,-3.67019 -8.64511,-7.66972c0.19038,-3.99953 4.36959,-7.05021 9.33454,-6.81388c4.96495,0.23633 8.83549,3.67019 8.64511,7.66972c-0.19038,3.99953 -4.36959,7.05021 -9.33454,6.81388z" fill="#7e93ff" stroke-linecap="butt"/><path d="M256.05244,53.66407c-6.06826,-0.28885 -10.80662,-4.32429 -10.58341,-9.0134c0.2232,-4.68911 5.32345,-8.25623 11.39171,-7.96737c6.06826,0.28885 10.80662,4.32429 10.58341,9.0134c-0.2232,4.68911 -5.32345,8.25623 -11.39171,7.96737z" fill="#0026ff" stroke-linecap="butt"/><path d="M295.75748,55.55405c-6.20618,-0.29542 -11.0723,-4.00078 -10.86879,-8.27614c0.20351,-4.27536 5.39958,-7.50175 11.60576,-7.20633c6.20618,0.29542 11.0723,4.00078 10.86879,8.27614c-0.20351,4.27536 -5.39958,7.50175 -11.60576,7.20633z" fill="#b6ff00" stroke-linecap="butt"/></g><g stroke-linecap="butt"><path d="M226.0681,157.77093c-0.54755,-0.24029 -0.29046,-8.62378 0.03463,-16.48336c0.28008,-6.77137 0.38637,-13.16453 2.70071,-13.50117c2.55875,-0.37219 44.05838,1.97001 45.44262,2.55252c3.17073,1.33429 1.20307,28.33461 -1.41791,29.78762c-1.88438,1.04466 -44.40069,-1.32025 -46.76005,-2.35561z" fill="#fea3c1" stroke="none" stroke-width="0"/><path d="M228.91811,139.97153l0.49924,-10.48812l45.94797,2.18715l-0.49924,10.48812z" fill="#ffc7d9" stroke="none" stroke-width="0"/><path d="M231.2547,139.09627c0.40506,-0.00557 0.69557,0.06706 0.69557,0.06706l3.87363,1.55241c0.11596,1.45092 0.42449,2.89924 0.34791,4.35278c-0.21762,4.13082 -3.41304,10.54672 -8.68927,5.43163c-1.79482,-1.74 0.43096,-7.51866 0.93663,-9.54152c0,0 0.57339,-2.29371 2.83554,-1.86236z" fill="#563741" stroke="none" stroke-width="0.5"/><path d="M273.52998,142.25756c0.63225,0.62912 1.03637,1.57722 1.19141,2.55664c1.63078,1.42666 3.04878,3.06927 1.52429,5.93118c-1.63168,3.06309 -6.95808,3.83237 -9.28403,1.13345c-1.56536,-1.81637 -0.44236,-7.62208 2.23337,-9.73316c0.3915,-0.65668 1.19662,-1.45877 2.71003,-1.08045c0.88987,0.22245 1.37162,0.68978 1.62496,1.19234z" fill="#563741" stroke="none" stroke-width="0.5"/><path d="M226.49264,159.37816l0.26151,-5.49378l48.44515,2.30602l-0.26151,5.49378z" fill="#a06778" stroke="none" stroke-width="0"/><path d="M226.51999,158.79357c-0.54755,-0.24029 -0.29046,-8.62378 0.03463,-16.48336c0.28008,-6.77137 0.38637,-13.16453 2.70071,-13.50117c2.55875,-0.37219 44.05838,1.97001 45.44262,2.55252c3.17073,1.33429 1.20307,28.33461 -1.41791,29.78762c-1.88438,1.04466 -44.40069,-1.32025 -46.76005,-2.35561z" fill="none" stroke="#000000" stroke-width="5"/></g></g><g><g stroke-linecap="round"><path d="M277.86003,174.65788c0,0 -10.55354,28.10137 -12.6845,52.15701c-2.13096,24.05563 2.66896,60.90465 2.66896,60.90465l-57.65769,-6.60235c0,0 10.34012,-39.31098 11.78519,-59.75248c1.44507,-20.4415 -3.92225,-51.47442 -3.92225,-51.47442z" fill="#f7f6f6" stroke="none" stroke-width="0"/><path d="M212.83782,279.32217l13.22265,-52.6157l-3.26491,-53.42837l49.8419,3.973l-10.99059,49.7841l2.9868,56.9173z" fill="none" stroke="#c6c7c7" stroke-width="5"/><path d="M277.78057,175.65472c0,0 -10.55354,28.10137 -12.6845,52.15701c-2.13096,24.05563 2.66896,60.90465 2.66896,60.90465l-57.65769,-6.60235c0,0 10.34012,-39.31098 11.78519,-59.75248c1.44507,-20.4415 -3.92225,-51.47442 -3.92225,-51.47442z" fill="none" stroke="#000000" stroke-width="5"/></g><path d="M237.95575,203.32775c0.31816,-3.9914 3.81176,-6.96915 7.80316,-6.65099c3.9914,0.31816 6.96915,3.81176 6.65099,7.80316c-0.31816,3.9914 -3.81176,6.96915 -7.80316,6.65099c-3.9914,-0.31816 -6.96915,-3.81176 -6.65099,-7.80316z" fill="#ffd901" stroke="none" stroke-width="NaN" stroke-linecap="butt"/><path d="M236.48574,221.76925c0.31816,-3.9914 3.81175,-6.96915 7.80316,-6.65099c3.99141,0.31816 6.96915,3.81176 6.65099,7.80316c-0.31816,3.9914 -3.81175,6.96915 -7.80316,6.65099c-3.99141,-0.31816 -6.96915,-3.81176 -6.65099,-7.80316z" fill="#ffd901" stroke="none" stroke-width="NaN" stroke-linecap="butt"/><path d="M235.05547,239.71234c0.31816,-3.9914 3.81175,-6.96915 7.80316,-6.65099c3.99141,0.31816 6.96915,3.81176 6.65099,7.80316c-0.31816,3.99141 -3.81175,6.96915 -7.80316,6.65099c-3.99141,-0.31816 -6.96915,-3.81175 -6.65099,-7.80316z" fill="#ffd901" stroke="none" stroke-width="NaN" stroke-linecap="butt"/></g><path d="M239.75,85.5l-53.5,-8.5" fill="none" stroke="#000000" stroke-width="5" stroke-linecap="round"/><g><path d="M335.6328,214.38584c-4.29592,-8.47329 -6.47294,-62.54468 -6.47294,-62.54468c0,0 10.95118,4.42458 15.73283,3.74567c4.99089,-0.70862 13.61171,-7.91207 13.61171,-7.91207c0,0 3.66281,52.09772 1.396,64.79921c-1.33836,7.49916 -19.97167,10.38517 -24.2676,1.91188z" fill="#343545" stroke="none" stroke-width="0" stroke-linecap="butt"/><path d="M321.3947,131.74379c-0.93561,-11.87574 7.93312,-22.2614 19.80886,-23.19701c11.87574,-0.93561 22.2614,7.93312 23.19701,19.80886c0.93561,11.87574 -7.93312,22.2614 -19.80886,23.19701c-11.87574,0.93561 -22.2614,-7.93312 -23.19701,-19.80886z" fill="#343545" stroke="none" stroke-width="0" stroke-linecap="butt"/><path d="M335.77824,165.22886l2.69974,48.01537" fill="none" stroke="#485e84" stroke-width="10" stroke-linecap="round"/><path d="M336.17457,213.41587c-4.29592,-8.47329 -6.47293,-62.54469 -6.47293,-62.54469c0,0 10.95118,4.42458 15.73284,3.74567c4.99089,-0.70862 13.61169,-7.91207 13.61169,-7.91207c0,0 3.66281,52.09772 1.396,64.79921c-1.33836,7.49916 -19.97167,10.38517 -24.2676,1.91188z" fill="none" stroke="#000000" stroke-width="5" stroke-linecap="butt"/><path d="M320.60901,141.38752l7.9832,-28.13808l24.2192,-2.52625c0,0 -0.06565,15.05888 -2.5353,21.27005c-2.67366,6.72426 -17.57523,17.71437 -17.57523,17.71437z" fill="#485f85" stroke="none" stroke-width="0" stroke-linecap="butt"/><path d="M321.11172,132.07518c-0.93561,-11.87574 7.93312,-22.2614 19.80886,-23.19701c11.87574,-0.93561 22.26139,7.93312 23.19701,19.80887c0.93561,11.87574 -7.93312,22.26139 -19.80886,23.19701c-11.87574,0.93561 -22.26138,-7.93312 -23.197,-19.80886z" fill="none" stroke="#000000" stroke-width="5" stroke-linecap="butt"/><path d="M333.08874,163.03238c-3.65458,-1.27336 -2.37931,-10.98472 -2.37931,-10.98472c0,0 10.39533,0.11785 15.09831,-0.30621c4.90878,-0.44262 13.7634,-2.29621 13.7634,-2.29621c0,0 0.29682,9.25853 -2.71045,11.7143c-1.77554,1.44991 -20.11738,3.1462 -23.77196,1.87284z" fill="#485f85" stroke="#000101" stroke-width="5" stroke-linecap="butt"/><path d="M336.10411,149.7486l-2.73472,-34.71188" fill="none" stroke="#000000" stroke-width="2.5" stroke-linecap="round"/><path d="M327.3951,117.67104l1.34592,24.93037" fill="none" stroke="#000000" stroke-width="2.5" stroke-linecap="round"/><path d="M340.35462,109.54095l2.93575,41.18696" fill="none" stroke="#000000" stroke-width="2.5" stroke-linecap="round"/><path d="M351.67373,147.28561l-1.8206,-38.80208" fill="none" stroke="#000000" stroke-width="2.5" stroke-linecap="round"/><path d="M358.53794,140.25391l-1.56372,-27.69502" fill="none" stroke="#000000" stroke-width="2.5" stroke-linecap="round"/><path d="M325.21678,141.02451l36.2962,-2.24135" fill="none" stroke="#000000" stroke-width="2.5" stroke-linecap="round"/><path d="M321.98487,131.38821l42.77128,-2.4424" fill="none" stroke="#000000" stroke-width="2.5" stroke-linecap="round"/><path d="M323.40913,122.00326l38.13931,-2.38656" fill="none" stroke="#000000" stroke-width="2.5" stroke-linecap="round"/></g><path d="M328.79031,65.38749l-62.71559,19.73075" fill="none" stroke="#000000" stroke-width="5" stroke-linecap="round"/></g></g></svg>