<svg version="1.1" xmlns="http://www.w3.org/2000/svg" xmlns:xlink="http://www.w3.org/1999/xlink" width="331.05255" height="315.36001" viewBox="0,0,331.05255,315.36001"><g transform="translate(-30.3592,-17.91597)"><g data-paper-data="{&quot;isPaintingLayer&quot;:true}" fill-rule="nonzero" stroke-linejoin="miter" stroke-miterlimit="10" stroke-dasharray="" stroke-dashoffset="0" style="mix-blend-mode: normal"><g stroke-linecap="butt"><path d="M351.38923,149.95378c-0.1794,0.91271 -20.27435,26.2518 -39.17356,49.97911c-16.28249,20.4421 -31.54253,39.79557 -33.99584,40.03894c-2.71242,0.26907 -26.80455,-20.77767 -26.41021,-23.00939c0.90324,-5.11194 66.43643,-86.33744 71.76034,-89.86354c3.82768,-2.53512 28.59235,18.92212 27.81927,22.85488z" fill="#c41414" stroke="none" stroke-width="0"/><path d="M353.33555,146.76579l-15.58307,18.4855l-28.6469,-20.48992l15.58307,-18.48551z" fill="#ef99b4" stroke="none" stroke-width="NaN"/><path d="M338.12079,164.19541l-9.19027,13.13905l-28.13845,-20.29358l9.19027,-13.13905z" fill="#d8d8d8" stroke="none" stroke-width="NaN"/><path d="M352.2619,149.25488c-0.1794,0.91271 -20.27435,26.2518 -39.17356,49.9791c-16.28249,20.4421 -31.54252,39.79558 -33.99583,40.03895c-2.71242,0.26907 -26.80455,-20.77767 -26.41021,-23.00939c0.90324,-5.11194 66.43642,-86.33745 71.76033,-89.86354c3.82768,-2.53512 28.59236,18.92212 27.81928,22.85488z" fill="none" stroke="#000000" stroke-width="5"/></g><g stroke="#000000" stroke-width="5"><path d="M114.14682,246.50301l47.99473,33.50755l-7.07323,10.90731l-48.53882,-32.66853z" fill="#825800" stroke-linecap="round"/><path d="M106.52949,258.24933c0,0 -7.19372,14.88339 -10.99304,19.12621c-3.34461,3.73503 -11.72416,4.87751 -11.72416,4.87751c0,0 3.72563,-11.64393 6.22979,-16.48629c2.12637,-4.11181 7.848,-10.73623 7.848,-10.73623l8.286,-13.69644c0,0 4.96722,-9.26244 8.35678,-13.43189c3.48121,-4.28219 12.26286,-11.93206 12.26286,-11.93206c0,0 1.02402,8.47772 -0.84737,13.27671c-2.01333,5.163 -10.83793,16.68918 -10.83793,16.68918z" fill="#00a5a5" stroke-linecap="round"/><path d="M93.71276,258.95417l-51.76102,-26.53056l-8.22889,-26.49536l23.33068,-0.69093l53.54694,27.48479z" fill="#00ffff" stroke-linecap="round"/><path d="M176.26611,297.7449c-3.39727,5.23877 -10.28337,6.80604 -15.38055,3.5006c-5.09718,-3.30544 -6.47525,-10.2319 -3.07799,-15.47068c3.39727,-5.23877 10.28337,-6.80604 15.38056,-3.5006c5.09718,3.30544 6.47525,10.2319 3.07798,15.47067z" fill="#00a5a5" stroke-linecap="butt"/></g><g stroke-linecap="butt"><path d="M117.35078,264.29197c0.09132,-0.92568 17.67164,-28.06989 34.21581,-53.49539c14.25352,-21.90517 27.59333,-42.62893 30.01214,-43.10574c2.67426,-0.52717 28.66824,18.11981 28.48908,20.37901c-0.41037,5.17488 -57.87771,92.29369 -62.84011,96.31262c-3.56778,2.88946 -30.27045,-16.10184 -29.87691,-20.09049z" fill="#c41414" stroke="none" stroke-width="0"/><path d="M116.44197,267.10824l12.78737,-20.05039l29.76431,18.77012l-12.78737,20.05038z" fill="#ef99b4" stroke="none" stroke-width="NaN"/><path d="M129.19685,248.84703l7.89201,-13.95751l29.94974,17.51041l-7.89201,13.95752z" fill="#d8d8d8" stroke="none" stroke-width="NaN"/><path d="M116.54894,265.0711c0.09132,-0.92568 17.67164,-28.06989 34.2158,-53.49538c14.25352,-21.90517 27.59334,-42.62894 30.01215,-43.10575c2.67426,-0.52717 28.66824,18.11982 28.48908,20.37902c-0.41037,5.17488 -57.87772,92.29369 -62.84012,96.31262c-3.56778,2.88946 -30.27045,-16.10185 -29.87691,-20.0905z" fill="none" stroke="#000000" stroke-width="5"/></g><g stroke-linecap="round"><path d="M223.92355,280.77763c0,0 -8.21835,46.28166 -14.5,50c-4.81539,2.85041 -35.33865,0.62525 -38,0.5c-4.28889,-0.20184 12.96934,-20.59166 15.5,-29c2.53066,-8.40834 0,-22.5 0,-22.5z" fill="#c41414" stroke="none" stroke-width="0"/><path d="M217.04855,302.22237l-6.75,23.75l-2.75,3l-12.25,1l-23,-1.25c0,0 11.34523,-14.01854 14.16092,-19.04985c1.84736,-3.301 2.83908,-8.20015 2.83908,-8.20015z" fill="#5b5a5a" stroke="#5b5a5a" stroke-width="0.5"/><path d="M223.42355,282.23473c0,0 -8.10245,44.29607 -14.29551,47.85488c-4.74748,2.72812 -34.84028,0.59843 -37.4641,0.47855c-4.22841,-0.19318 12.78644,-19.70823 15.28141,-27.75583c2.49497,-8.0476 0,-21.5347 0,-21.5347z" fill="none" stroke="#000000" stroke-width="5"/></g><g stroke-linecap="round"><path d="M282.92355,284.02763c0,0 15.90382,46.40099 10.5,46.49834c-7.36964,0.13277 -27.15314,-0.72421 -33,-0.56705c-7.9925,0.21483 9.73791,-9.4587 9.5,-19.84686c-0.23791,-10.38815 -10.5,-23.81622 -10.5,-23.81622z" fill="#c41414" stroke="none" stroke-width="0"/><path d="M285.79855,300.72237c0,0 2.7734,7.21957 3.63711,11.31281c1.02515,4.85834 3.36289,17.43719 3.36289,17.43719l-31.25,-1.25l9.75,-15.25c0,0 -0.03933,-5.56974 -0.26544,-7.69517c-0.1799,-1.69107 -0.48456,-4.55483 -0.48456,-4.55483z" fill="#5a5b5a" stroke="#5a5b5a" stroke-width="0.5"/><path d="M282.92355,284.27763c0,0 15.90382,46.40099 10.5,46.49834c-7.36964,0.13277 -27.15314,-0.72421 -33,-0.56705c-7.9925,0.21483 9.73791,-9.4587 9.5,-19.84686c-0.23791,-10.38815 -10.5,-23.81622 -10.5,-23.81622z" fill="none" stroke="#000000" stroke-width="5"/></g><path d="M186.27338,285.60226c-1.20957,-0.74849 -3.59508,-33.00155 -5.65866,-63.26566c-1.77786,-26.07384 -3.78165,-50.6412 0.86074,-52.66678c5.13266,-2.23951 91.29022,-6.40849 94.33938,-4.61199c6.98438,4.11505 12.32368,108.35227 7.43876,114.75916c-3.51207,4.60631 -91.7683,9.01045 -96.98022,5.78527z" fill="#c41414" stroke="#000000" stroke-width="5" stroke-linecap="butt"/><g><g stroke-linecap="round"><path d="M261.05598,168.96542c0,0 -6.40366,29.32673 -5.0539,53.43882c1.34976,24.11208 11.39773,59.88816 11.39773,59.88816l-58.00791,1.75591c0,0 4.5808,-40.38921 3.07191,-60.82609c-1.50889,-20.43688 -11.28217,-50.37571 -11.28217,-50.37571z" fill="#f7f6f6" stroke="none" stroke-width="0"/><path d="M211.7573,281.89079l5.52051,-53.97012l-10.91259,-52.40387l49.89529,-3.23424l-3.71876,50.84704l11.13899,55.89654z" fill="none" stroke="#c6c7c7" stroke-width="5"/><path d="M261.12066,169.96332c0,0 -6.40366,29.32673 -5.0539,53.43882c1.34976,24.11208 11.39773,59.88816 11.39773,59.88816l-58.00791,1.75591c0,0 4.5808,-40.38921 3.07191,-60.82609c-1.50889,-20.43688 -11.28217,-50.37571 -11.28217,-50.37571z" fill="none" stroke="#000000" stroke-width="5"/></g><path d="M225.68826,203.07461c-0.259,-3.99568 2.77017,-7.44478 6.76585,-7.70378c3.99568,-0.259 7.44478,2.77018 7.70378,6.76585c0.259,3.99568 -2.77017,7.44478 -6.76585,7.70378c-3.99568,0.259 -7.44478,-2.77017 -7.70378,-6.76585z" fill="#ffd901" stroke="none" stroke-width="NaN" stroke-linecap="butt"/><path d="M226.88493,221.53586c-0.259,-3.99568 2.77017,-7.44478 6.76585,-7.70378c3.99569,-0.25901 7.44478,2.77017 7.70378,6.76585c0.259,3.99568 -2.77016,7.44478 -6.76585,7.70378c-3.99569,0.25901 -7.44478,-2.77017 -7.70378,-6.76585z" fill="#ffd901" stroke="none" stroke-width="NaN" stroke-linecap="butt"/><path d="M228.04926,239.49817c-0.259,-3.99568 2.77016,-7.44478 6.76585,-7.70379c3.99569,-0.25901 7.44479,2.77018 7.70379,6.76586c0.25901,3.99569 -2.77017,7.44477 -6.76585,7.70378c-3.99569,0.25901 -7.44478,-2.77016 -7.70378,-6.76585z" fill="#ffd901" stroke="none" stroke-width="NaN" stroke-linecap="butt"/></g><g><path d="M172.55771,177.09903c-1.45726,-0.67421 -5.23974,-32.79398 -8.58154,-62.94378c-2.8791,-25.97536 -5.98182,-50.42968 -0.5334,-52.74246c6.0238,-2.55703 108.12697,-12.04181 111.79784,-10.43259c8.40846,3.68603 17.82053,107.63866 12.21368,114.34958c-4.03111,4.82489 -108.61743,14.67436 -114.89658,11.76926z" fill="#ffbbce" stroke="#000000" stroke-width="5" stroke-linecap="butt"/><g stroke="#000000" stroke-width="5" stroke-linecap="butt"><path d="M167.71028,124.17977c-0.5034,-0.14481 -1.43486,-7.80274 -2.23592,-14.9934c-0.69015,-6.19507 -1.4776,-12.02284 0.46422,-12.64035c2.14688,-0.68273 38.11829,-4.13701 39.38747,-3.79358c2.90715,0.78665 4.92813,25.60351 2.87635,27.27745c-1.47516,1.2035 -38.32305,4.7739 -40.49213,4.1499z" fill="#ffffff"/><path d="M187.25421,119.71384c-0.25287,-0.16442 -0.72298,-6.86848 -1.12747,-13.15777c-0.34848,-5.4185 -0.74571,-10.52646 0.22933,-10.91076c1.07801,-0.4249 19.14267,-0.62876 19.78019,-0.233c1.46028,0.90654 2.48275,22.55491 1.4528,23.84557c-0.7405,0.92793 -19.2453,1.16446 -20.33485,0.45596z" fill="#000000"/></g><g stroke="#000000" stroke-width="5" stroke-linecap="butt"><path d="M242.92187,115.23207c-0.50047,-0.15464 -1.28201,-7.82932 -1.94228,-15.03427c-0.56886,-6.20738 -1.24219,-12.04943 0.71133,-12.62887c2.15984,-0.64062 38.19192,-3.39077 39.45414,-3.02258c2.89121,0.84336 4.42649,25.695 2.34235,27.32849c-1.49842,1.17442 -38.40907,4.02354 -40.56554,3.35723z" fill="#ffffff"/><path d="M262.54939,111.1492c-0.2496,-0.16934 -0.58853,-6.88132 -0.86994,-13.17732c-0.24245,-5.42428 -0.53971,-10.53902 0.44267,-10.90419c1.08612,-0.40372 19.15131,-0.25428 19.78096,0.15387c1.44227,0.93492 2.0412,22.59916 0.9862,23.86942c-0.75849,0.91326 -19.2644,0.78788 -20.33989,0.05821z" fill="#000000"/></g><g stroke="#000000" stroke-width="5"><path d="M172.49219,31.78411l0.7242,11.48806l7.95475,-0.84965l0.21705,-12.09144l19.33661,-2.56819l3.31626,12.21689l28.78287,-3.57714l-1.16826,-10.93778l21.2722,-3.27777l2.48122,13.81461l7.45758,-0.79654l0.05774,-13.58296l19.49592,-1.07667l2.42349,27.39756l-5.87911,6.15923l-119.76536,13.29499l-5.73441,-1.90172l-2.24493,-30.43371z" fill="#fee70a" stroke-linecap="round"/><path d="M179.60264,60.69244c-4.94245,0.5279 -9.29384,-2.27173 -9.71909,-6.25315c-0.42525,-3.98141 3.23665,-7.63694 8.1791,-8.16484c4.94245,-0.5279 9.29384,2.27173 9.71909,6.25314c0.42525,3.98141 -3.23665,7.63695 -8.1791,8.16485z" fill="#7e93ff" stroke-linecap="butt"/><path d="M221.4713,57.22613c-6.04077,0.64522 -11.34196,-2.61579 -11.84054,-7.28366c-0.49857,-4.66787 3.99426,-8.97498 10.03503,-9.62019c6.04077,-0.64522 11.34196,2.61579 11.84054,7.28366c0.49857,4.66787 -3.99426,8.97498 -10.03503,9.62019z" fill="#0026ff" stroke-linecap="butt"/><path d="M260.99648,53.00445c-6.17807,0.65988 -11.55489,-2.25536 -12.00947,-6.51135c-0.45459,-4.25599 4.18521,-8.2411 10.36328,-8.90098c6.17807,-0.65988 11.55488,2.25536 12.00947,6.51135c0.45459,4.25599 -4.1852,8.2411 -10.36327,8.90098z" fill="#b6ff00" stroke-linecap="butt"/></g><g stroke-linecap="butt"><path d="M207.80789,164.69989c-0.57793,-0.15347 -1.6096,-8.47722 -2.49373,-16.29367c-0.76171,-6.73422 -1.63716,-13.06805 0.59818,-13.75564c2.4714,-0.76021 43.83929,-4.81024 45.29649,-4.44692c3.33784,0.83223 5.53434,27.81489 3.1672,29.65268c-1.70188,1.32129 -44.0779,5.50482 -46.56814,4.84355z" fill="#fea3c1" stroke="none" stroke-width="0"/><path d="M207.8944,146.67398l-1.11516,-10.44062l45.73983,-4.88547l1.11516,10.44061z" fill="#ffc7d9" stroke="none" stroke-width="0"/><path d="M210.06912,145.45073c0.39942,-0.06762 0.69762,-0.04041 0.69762,-0.04041l4.06589,0.93998c0.33711,1.41598 0.8641,2.79984 1.01135,4.24792c0.41847,4.11533 -1.75518,10.94539 -7.75346,6.69999c-2.04044,-1.44415 -0.72724,-7.49581 -0.53778,-9.57229c0,0 0.21484,-2.35451 2.51638,-2.27519z" fill="#563741" stroke="none" stroke-width="0.5"/><path d="M252.3291,142.09112c0.72126,0.52471 1.266,1.39962 1.56941,2.34368c1.83029,1.15968 3.48343,2.56538 2.41588,5.62724c-1.14261,3.2771 -6.28802,4.85416 -9.00037,2.54388c-1.8254,-1.55481 -1.60607,-7.46408 0.71423,-9.96054c0.28616,-0.70895 0.95874,-1.62503 2.51226,-1.48328c0.91346,0.08335 1.46119,0.47126 1.78859,0.92902z" fill="#563741" stroke="none" stroke-width="0.5"/><path d="M208.4739,166.223l-0.58413,-5.4689l48.22569,-5.15099l0.58413,5.46889z" fill="#a06778" stroke="none" stroke-width="0"/><path d="M208.41127,165.64113c-0.57793,-0.15347 -1.60959,-8.47722 -2.49372,-16.29367c-0.76171,-6.73422 -1.63716,-13.06805 0.59817,-13.75564c2.4714,-0.76021 43.83929,-4.81024 45.29649,-4.44692c3.33784,0.83223 5.53433,27.81489 3.1672,29.65268c-1.70188,1.32129 -44.07791,5.50482 -46.56814,4.84355z" fill="none" stroke="#000000" stroke-width="5"/></g></g><g><path d="M351.64063,158.10569c-9.23271,2.238 -62.362,-8.04461 -62.362,-8.04461c0,0 6.81835,-9.64444 7.25423,-14.45434c0.45496,-5.02038 -4.57923,-15.06354 -4.57923,-15.06354c0,0 51.54902,8.38376 63.39201,13.50331c6.99229,3.02266 5.52771,21.82119 -3.705,24.05919z" fill="#343545" stroke="none" stroke-width="0" stroke-linecap="butt"/><path d="M267.93602,153.00977c-11.77375,-1.81311 -19.84845,-12.82743 -18.03535,-24.60118c1.81311,-11.77375 12.82743,-19.84846 24.60118,-18.03536c11.77375,1.8131 19.84846,12.82743 18.03536,24.60118c-1.81311,11.77375 -12.82743,19.84846 -24.60118,18.03536z" fill="#343545" stroke="none" stroke-width="0" stroke-linecap="butt"/><path d="M303.82741,146.68967l47.35461,8.38485" fill="none" stroke="#485e84" stroke-width="10" stroke-linecap="round"/><path d="M350.82079,157.35589c-9.23271,2.238 -62.36201,-8.04462 -62.36201,-8.04462c0,0 6.81835,-9.64445 7.25424,-14.45435c0.45496,-5.02038 -4.57923,-15.06352 -4.57923,-15.06352c0,0 51.54903,8.38376 63.39202,13.5033c6.99229,3.02266 5.5277,21.82118 -3.70501,24.05919z" fill="none" stroke="#000000" stroke-width="5" stroke-linecap="butt"/><path d="M277.14247,155.98637l-25.557,-14.22403l3.09592,-24.15299c0,0 14.64239,3.51774 20.12157,7.34614c5.93178,4.14463 13.21116,21.16961 13.21116,21.16961z" fill="#485f85" stroke="none" stroke-width="0" stroke-linecap="butt"/><path d="M268.19367,153.36121c-11.77375,-1.8131 -19.84846,-12.82743 -18.03536,-24.60118c1.81311,-11.77375 12.82744,-19.84845 24.60119,-18.03535c11.77375,1.8131 19.84845,12.82744 18.03535,24.60119c-1.81311,11.77375 -12.82742,19.84844 -24.60118,18.03534z" fill="none" stroke="#000000" stroke-width="5" stroke-linecap="butt"/><path d="M301.07263,148.8037c-2.07762,3.2651 -11.2376,-0.20353 -11.2376,-0.20353c0,0 2.49894,-10.09119 3.16484,-14.76606c0.69504,-4.87945 0.92172,-13.92315 0.92172,-13.92315c0,0 9.07981,1.83459 10.78037,5.32495c1.00403,2.06076 -1.55171,20.30271 -3.62933,23.56781z" fill="#485f85" stroke="#000101" stroke-width="5" stroke-linecap="butt"/><path d="M288.83456,142.82199l-34.41377,-5.29956" fill="none" stroke="#000000" stroke-width="2.5" stroke-linecap="round"/><path d="M280.18912,148.34955l-24.57448,-4.40789" fill="none" stroke="#000000" stroke-width="2.5" stroke-linecap="round"/><path d="M291.43597,136.05192l-40.76235,-6.589" fill="none" stroke="#000000" stroke-width="2.5" stroke-linecap="round"/><path d="M290.00822,127.10252l-38.18528,-7.12743" fill="none" stroke="#000000" stroke-width="2.5" stroke-linecap="round"/><path d="M284.73832,118.80853l-27.3154,-4.82999" fill="none" stroke="#000000" stroke-width="2.5" stroke-linecap="round"/><path d="M283.9891,115.57547l-6.14315,35.84271" fill="none" stroke="#000000" stroke-width="2.5" stroke-linecap="round"/><path d="M267.72528,152.35378l7.43257,-42.19128" fill="none" stroke="#000000" stroke-width="2.5" stroke-linecap="round"/><path d="M265.3417,111.14501l-6.42454,37.66998" fill="none" stroke="#000000" stroke-width="2.5" stroke-linecap="round"/></g><path d="M207.75,90l-40,-19" fill="none" stroke="#000000" stroke-width="5" stroke-linecap="round"/><path d="M254.09533,63.27348l-17.61674,28.89145" fill="none" stroke="#000000" stroke-width="5" stroke-linecap="round"/></g></g></svg>