<svg version="1.1" xmlns="http://www.w3.org/2000/svg" xmlns:xlink="http://www.w3.org/1999/xlink" width="282.71595" height="350.24452" viewBox="0,0,282.71595,350.24452"><g transform="translate(-52.59585,18.13098)"><g data-paper-data="{&quot;isPaintingLayer&quot;:true}" fill-rule="nonzero" stroke-linejoin="miter" stroke-miterlimit="10" stroke-dasharray="" stroke-dashoffset="0" style="mix-blend-mode: normal"><g stroke-linecap="butt"><path d="M332.00338,140.08819c-0.16619,0.97713 -18.7818,28.10481 -36.28969,53.50693c-15.08381,21.88502 -29.22044,42.60458 -31.49315,42.86513c-2.51274,0.28806 -24.83126,-22.24428 -24.46595,-24.63353c0.83675,-5.47277 61.54554,-92.43165 66.47751,-96.20664c3.5459,-2.71406 26.48745,20.25776 25.77128,24.46811z" fill="#c41414" stroke="none" stroke-width="0"/><path d="M333.80641,136.67517l-14.43588,19.79032l-26.53798,-21.93622l14.43588,-19.79033z" fill="#ef99b4" stroke="none" stroke-width="NaN"/><path d="M319.71173,155.33507l-8.5137,14.06648l-26.06696,-21.72602l8.5137,-14.06648z" fill="#d8d8d8" stroke="none" stroke-width="NaN"/><path d="M332.8118,139.33996c-0.16619,0.97713 -18.7818,28.10481 -36.28969,53.50692c-15.08381,21.88502 -29.22043,42.60459 -31.49314,42.86514c-2.51274,0.28806 -24.83126,-22.24428 -24.46595,-24.63353c0.83675,-5.47277 61.54553,-92.43166 66.4775,-96.20664c3.5459,-2.71406 26.48746,20.25776 25.77129,24.46811z" fill="none" stroke="#000000" stroke-width="5"/></g><g stroke="#000000" stroke-width="5"><path d="M123.38498,235.87708l40.37882,37.27031l-5.95084,12.13215l-40.83658,-36.33707z" fill="#825800" stroke-linecap="round"/><path d="M116.97638,248.94246c0,0 -6.05221,16.55473 -9.24864,21.274c-2.81388,4.15446 -9.86374,5.42523 -9.86374,5.42523c0,0 3.13444,-12.9515 5.24124,-18.33763c1.78895,-4.57355 6.60267,-11.94187 6.60267,-11.94187l6.97116,-15.2345c0,0 4.17901,-10.30258 7.03071,-14.94023c2.9288,-4.76306 10.31696,-13.27198 10.31696,-13.27198c0,0 0.86152,9.42973 -0.71291,14.76763c-1.69384,5.74279 -9.11815,18.5633 -9.11815,18.5633z" fill="#00a5a5" stroke-linecap="round"/><path d="M106.19345,249.72645l-43.54746,-29.50983l-6.92311,-29.47068l19.62852,-0.76852l45.04999,30.57122z" fill="#00ffff" stroke-linecap="round"/><path d="M175.64704,292.87322c-2.85818,5.82706 -8.65158,7.57033 -12.93994,3.8937c-4.28835,-3.67663 -5.44775,-11.3809 -2.58957,-17.20797c2.85818,-5.82706 8.65158,-7.57033 12.93994,-3.8937c4.28835,3.67663 5.44775,11.3809 2.58956,17.20796z" fill="#00a5a5" stroke-linecap="butt"/></g><g stroke-linecap="butt"><path d="M126.08053,255.66367c0.07684,-1.02963 14.86747,-31.22202 28.78637,-59.5027c11.99175,-24.36503 23.21476,-47.41598 25.24976,-47.94633c2.24991,-0.58637 24.1191,20.15458 23.96837,22.66749c-0.34525,5.75599 -48.69356,102.65789 -52.86851,107.12813c-3.00164,3.21394 -25.46707,-17.91001 -25.13597,-22.34657z" fill="#c41414" stroke="none" stroke-width="0"/><path d="M125.31592,258.79619l10.75824,-22.30197l25.04125,20.87793l-10.75824,22.30195z" fill="#ef99b4" stroke="none" stroke-width="NaN"/><path d="M136.04684,238.48432l6.63969,-15.52488l25.19725,19.47676l-6.63969,15.52489z" fill="#d8d8d8" stroke="none" stroke-width="NaN"/><path d="M125.40592,256.53029c0.07684,-1.02963 14.86747,-31.22202 28.78636,-59.50269c11.99175,-24.36503 23.21477,-47.41599 25.24977,-47.94635c2.24991,-0.58637 24.1191,20.1546 23.96837,22.6675c-0.34525,5.75599 -48.69357,102.65789 -52.86852,107.12813c-3.00164,3.21394 -25.46707,-17.91002 -25.13597,-22.34658z" fill="none" stroke="#000000" stroke-width="5"/></g><g stroke-linecap="round"><path d="M215.7421,274.00059c0,0 -6.91425,51.47889 -12.19911,55.61479c-4.05127,3.1705 -29.73104,0.69546 -31.97008,0.55614c-3.60832,-0.22451 10.91134,-22.90402 13.04043,-32.25658c2.12909,-9.35256 0,-25.02665 0,-25.02665z" fill="#c41414" stroke="none" stroke-width="0"/><path d="M209.95804,297.85349l-5.67889,26.41703l-2.31362,3.33689l-10.30614,1.1123l-19.35031,-1.39037c0,0 9.54494,-15.59276 11.91384,-21.18907c1.55422,-3.67168 2.38857,-9.121 2.38857,-9.121z" fill="#5b5a5a" stroke="#5b5a5a" stroke-width="0.5"/><path d="M215.32144,275.62132c0,0 -6.81674,49.27033 -12.02707,53.22878c-3.99414,3.03448 -29.31175,0.66563 -31.51921,0.53229c-3.55743,-0.21488 10.75746,-21.92138 12.85653,-30.87269c2.09906,-8.95131 0,-23.95296 0,-23.95296z" fill="none" stroke="#000000" stroke-width="5"/></g><g stroke-linecap="round"><path d="M265.37985,277.61556c0,0 13.38017,51.61163 8.83383,51.71991c-6.20021,0.14768 -22.84442,-0.80554 -27.76349,-0.63073c-6.72424,0.23895 8.19268,-10.52087 7.99252,-22.07558c-0.20016,-11.5547 -8.83383,-26.49068 -8.83383,-26.49068z" fill="#c41414" stroke="none" stroke-width="0"/><path d="M267.79865,296.18505c0,0 2.33331,8.0303 3.05996,12.5832c0.86248,5.40391 2.82925,19.39531 2.82925,19.39531l-26.29119,-1.39037l8.20285,-16.96252c0,0 -0.03309,-6.1952 -0.22332,-8.5593c-0.15135,-1.88097 -0.40767,-5.06632 -0.40767,-5.06632z" fill="#5a5b5a" stroke="#5a5b5a" stroke-width="0.5"/><path d="M265.37985,277.89363c0,0 13.38017,51.61163 8.83383,51.71991c-6.20021,0.14768 -22.84442,-0.80554 -27.76349,-0.63073c-6.72424,0.23895 8.19268,-10.52087 7.99252,-22.07558c-0.20016,-11.5547 -8.83383,-26.49068 -8.83383,-26.49068z" fill="none" stroke="#000000" stroke-width="5"/></g><path d="M184.06634,279.36701c-1.01763,-0.83254 -3.02461,-36.70749 -4.76073,-70.37013c-1.49575,-29.00183 -3.18156,-56.328 0.72415,-58.58103c4.3182,-2.491 76.8041,-7.12814 79.36941,-5.1299c5.87608,4.57715 10.36813,120.51978 6.25837,127.64613c-2.95477,5.12358 -77.2063,10.02228 -81.59118,6.43493z" fill="#c41414" stroke="#000000" stroke-width="5" stroke-linecap="butt"/><g><g stroke-linecap="round"><path d="M246.98228,149.63234c0,0 -5.38752,32.61999 -4.25193,59.43978c1.13557,26.81976 9.58911,66.61335 9.58911,66.61335l-48.80309,1.95309c0,0 3.8539,-44.92475 2.58445,-67.65661c-1.26946,-22.73186 -9.49189,-56.03269 -9.49189,-56.03269z" fill="#f7f6f6" stroke="none" stroke-width="0"/><path d="M205.50641,275.23876l4.6445,-60.03074l-9.18095,-58.28861l41.9778,-3.59743l-3.12865,56.55695l9.37143,62.17349z" fill="none" stroke="#c6c7c7" stroke-width="5"/><path d="M247.0367,150.7423c0,0 -5.38752,32.61999 -4.25193,59.43978c1.13557,26.81976 9.58911,66.61335 9.58911,66.61335l-48.80309,1.95309c0,0 3.8539,-44.92475 2.58445,-67.65661c-1.26946,-22.73186 -9.49189,-56.03269 -9.49189,-56.03269z" fill="none" stroke="#000000" stroke-width="5"/></g><path d="M217.22679,187.57185c-0.2179,-4.44438 2.3306,-8.2808 5.69222,-8.56888c3.36164,-0.28808 6.26343,3.08126 6.48133,7.52562c0.2179,4.44438 -2.3306,8.2808 -5.69222,8.56888c-3.36164,0.28808 -6.26343,-3.08125 -6.48133,-7.52562z" fill="#ffd901" stroke="none" stroke-width="NaN" stroke-linecap="butt"/><path d="M218.23356,208.10623c-0.2179,-4.44438 2.3306,-8.2808 5.69222,-8.56888c3.36165,-0.28809 6.26343,3.08125 6.48133,7.52562c0.2179,4.44438 -2.33059,8.2808 -5.69222,8.56888c-3.36165,0.28809 -6.26343,-3.08125 -6.48133,-7.52562z" fill="#ffd901" stroke="none" stroke-width="NaN" stroke-linecap="butt"/><path d="M219.21314,228.08562c-0.2179,-4.44438 2.33059,-8.2808 5.69222,-8.56889c3.36165,-0.28809 6.26344,3.08126 6.48134,7.52563c0.21791,4.44439 -2.3306,8.28079 -5.69222,8.56888c-3.36165,0.28809 -6.26343,-3.08123 -6.48133,-7.52562z" fill="#ffd901" stroke="none" stroke-width="NaN" stroke-linecap="butt"/></g><g><path d="M172.5271,158.67932c-1.22602,-0.74992 -4.40829,-36.4766 -7.2198,-70.01211c-2.42224,-28.89228 -5.03261,-56.09273 -0.44876,-58.66522c5.06793,-2.84417 90.96915,-13.39405 94.05751,-11.60412c7.07419,4.09995 14.99273,119.72603 10.27559,127.19056c-3.39144,5.36671 -91.38178,16.32223 -96.66454,13.09089z" fill="#ffbbce" stroke="#000000" stroke-width="5" stroke-linecap="butt"/><g stroke="#000000" stroke-width="5" stroke-linecap="butt"><path d="M168.44887,99.81746c-0.42352,-0.16107 -1.20718,-8.67895 -1.88112,-16.67709c-0.58063,-6.89075 -1.24313,-13.37295 0.39056,-14.05981c1.80621,-0.7594 32.0696,-4.60157 33.13738,-4.21958c2.44583,0.87499 4.14612,28.47868 2.41993,30.34059c-1.24107,1.33865 -32.24187,5.30999 -34.06675,4.61591z" fill="#ffffff"/><path d="M184.89153,94.85002c-0.21274,-0.18289 -0.60826,-7.63978 -0.94856,-14.63533c-0.29318,-6.02697 -0.62738,-11.70854 0.19294,-12.136c0.90695,-0.47261 16.10507,-0.69937 16.64142,-0.25917c1.22857,1.00834 2.08878,25.08773 1.22226,26.52333c-0.623,1.03213 -16.19141,1.29522 -17.10807,0.50716z" fill="#000000"/></g><g stroke="#000000" stroke-width="5" stroke-linecap="butt"><path d="M231.72573,89.86497c-0.42106,-0.17201 -1.07857,-8.70852 -1.63407,-16.72256c-0.47859,-6.90444 -1.04507,-13.40253 0.59845,-14.04704c1.81711,-0.71256 32.13154,-3.77154 33.19348,-3.362c2.43243,0.93807 3.72408,28.58045 1.97066,30.39737c-1.26065,1.30631 -32.31424,4.47537 -34.12851,3.73423z" fill="#ffffff"/><path d="M248.23871,85.3236c-0.21,-0.18835 -0.49514,-7.65406 -0.7319,-14.65707c-0.20397,-6.03341 -0.45407,-11.72251 0.37242,-12.12868c0.91377,-0.44906 16.11234,-0.28284 16.64207,0.17115c1.2134,1.03991 1.7173,25.13695 0.82971,26.54986c-0.63813,1.01581 -16.20748,0.87635 -17.11231,0.06475z" fill="#000000"/></g><g stroke="#000000" stroke-width="5"><path d="M172.47199,-2.95385l0.60929,12.77813l6.69247,-0.94506l0.18261,-13.44926l16.26823,-2.85659l2.79002,13.58879l24.21554,-3.97884l-0.98288,-12.16604l17.89668,-3.64585l2.0875,15.36594l6.2742,-0.88598l0.04858,-15.10827l16.40227,-1.19758l2.03892,30.47419l-4.9462,6.85088l-100.76073,14.78796l-4.82447,-2.11527l-1.8887,-33.85129z" fill="#fee70a" stroke-linecap="round"/><path d="M178.45413,29.20077c-4.15818,0.58718 -7.81907,-2.52683 -8.17684,-6.95535c-0.35777,-4.4285 2.72306,-8.49454 6.88122,-9.08171c4.15818,-0.58718 7.81907,2.52683 8.17684,6.95534c0.35777,4.4285 -2.72306,8.49455 -6.88122,9.08172z" fill="#7e93ff" stroke-linecap="butt"/><path d="M213.67898,25.3452c-5.0822,0.71767 -9.54219,-2.90953 -9.96166,-8.10158c-0.41946,-5.19206 3.36044,-9.98284 8.44264,-10.7005c5.0822,-0.71767 9.54219,2.90953 9.96166,8.10158c0.41946,5.19206 -3.36044,9.98284 -8.44264,10.7005z" fill="#0026ff" stroke-linecap="butt"/><path d="M246.93222,20.64944c-5.19772,0.73398 -9.72134,-2.50863 -10.10378,-7.24255c-0.38245,-4.73392 3.52109,-9.16655 8.71881,-9.90052c5.19772,-0.73398 9.72133,2.50863 10.10378,7.24255c0.38245,4.73392 -3.52109,9.16655 -8.7188,9.90052z" fill="#b6ff00" stroke-linecap="butt"/></g><g stroke-linecap="butt"><path d="M202.18371,144.88782c-0.48622,-0.1707 -1.35419,-9.42917 -2.09802,-18.12338c-0.64084,-7.49044 -1.37737,-14.53554 0.50326,-15.30034c2.07923,-0.84558 36.88278,-5.35041 38.10874,-4.94629c2.80819,0.92568 4.65614,30.93839 2.66462,32.98255c-1.43182,1.46966 -37.08353,6.12299 -39.1786,5.38746z" fill="#fea3c1" stroke="none" stroke-width="0"/><path d="M202.25649,124.83767l-0.9382,-11.61306l38.48174,-5.43409l0.9382,11.61305z" fill="#ffc7d9" stroke="none" stroke-width="0"/><path d="M204.08612,123.47706c0.33605,-0.07521 0.58692,-0.04495 0.58692,-0.04495l3.42071,1.04554c0.28362,1.57499 0.72699,3.11425 0.85087,4.72494c0.35207,4.57746 -1.47667,12.17451 -6.52313,7.45238c-1.71666,-1.60633 -0.61184,-8.33756 -0.45244,-10.64722c0,0 0.18074,-2.61892 2.11707,-2.53069z" fill="#563741" stroke="none" stroke-width="0.5"/><path d="M239.6402,119.74018c0.60681,0.58364 1.06511,1.55679 1.32037,2.60686c1.53986,1.28991 2.93067,2.85346 2.03253,6.25915c-0.9613,3.64511 -5.29022,5.39927 -7.57217,2.82954c-1.53574,-1.72941 -1.35121,-8.30227 0.60089,-11.07906c0.24075,-0.78856 0.8066,-1.80751 2.11361,-1.64985c0.76851,0.09271 1.22933,0.52418 1.50477,1.03335z" fill="#563741" stroke="none" stroke-width="0.5"/><path d="M202.74403,146.58196l-0.49144,-6.08304l40.57314,-5.72943l0.49144,6.08303z" fill="#a06778" stroke="none" stroke-width="0"/><path d="M202.69135,145.93475c-0.48622,-0.1707 -1.35418,-9.42917 -2.09801,-18.12338c-0.64084,-7.49044 -1.37737,-14.53554 0.50325,-15.30034c2.07923,-0.84558 36.88278,-5.35041 38.10874,-4.94629c2.80819,0.92568 4.65614,30.93839 2.66462,32.98255c-1.43182,1.46966 -37.08354,6.12299 -39.1786,5.38746z" fill="none" stroke="#000000" stroke-width="5"/></g></g><g><path d="M322.31257,147.16449c-8.05923,0.39615 -49.29776,-22.40674 -49.29776,-22.40674c0,0 7.72459,-8.94719 9.14866,-14.06039c1.48639,-5.33694 -0.4093,-17.31876 -0.4093,-17.31876c0,0 40.36532,20.39948 48.93051,28.54447c5.05702,4.80893 -0.31289,24.84529 -8.37212,25.24144z" fill="#343545" stroke="none" stroke-width="0" stroke-linecap="butt"/><path d="M254.87839,123.26419c-9.24197,-4.54905 -13.41276,-18.2503 -9.31574,-30.60259c4.09704,-12.3523 14.91044,-18.6781 24.15241,-14.12906c9.24198,4.54904 13.41277,18.2503 9.31575,30.6026c-4.09704,12.3523 -14.91044,18.6781 -24.15241,14.12906z" fill="#343545" stroke="none" stroke-width="0" stroke-linecap="butt"/><path d="M285.68003,124.30158l36.92932,19.47956" fill="none" stroke="#485e84" stroke-width="10" stroke-linecap="round"/><path d="M321.80736,146.17245c-8.05923,0.39615 -49.29776,-22.40675 -49.29776,-22.40675c0,0 7.7246,-8.9472 9.14867,-14.06039c1.48639,-5.33694 -0.4093,-17.31874 -0.4093,-17.31874c0,0 40.36533,20.39948 48.93052,28.54446c5.05702,4.80893 -0.31289,24.84528 -8.37213,25.24144z" fill="none" stroke="#000000" stroke-width="5" stroke-linecap="butt"/><path d="M261.75931,128.50947l-17.77898,-21.01636l7.89402,-25.47677c0,0 11.21359,7.02505 14.85244,12.37427c3.93944,5.79108 6.12537,25.82695 6.12537,25.82695z" fill="#485f85" stroke="none" stroke-width="0" stroke-linecap="butt"/><path d="M255.01148,123.70137c-9.24198,-4.54904 -13.41277,-18.2503 -9.31575,-30.6026c4.09704,-12.3523 14.91045,-18.67809 24.15242,-14.12905c9.24198,4.54904 13.41276,18.25031 9.31574,30.6026c-4.09704,12.3523 -14.91043,18.67808 -24.15241,14.12904z" fill="none" stroke="#000000" stroke-width="5" stroke-linecap="butt"/><path d="M282.95454,125.98604c-2.42615,3.07972 -9.15986,-2.6882 -9.15986,-2.6882c0,0 4.28557,-10.37955 5.86808,-15.296c1.65177,-5.1316 3.8437,-14.87575 3.8437,-14.87575c0,0 7.03054,3.98072 7.64921,8.13407c0.36527,2.4522 -5.77497,21.6462 -8.20114,24.72591z" fill="#485f85" stroke="#000101" stroke-width="5" stroke-linecap="butt"/><path d="M247.24341,103.52411l27.01357,13.2965" fill="none" stroke="#000000" stroke-width="2.5" stroke-linecap="round"/><path d="M246.79728,110.73803l19.15177,10.17014" fill="none" stroke="#000000" stroke-width="2.5" stroke-linecap="round"/><path d="M245.96191,93.97313l31.92782,16.08707" fill="none" stroke="#000000" stroke-width="2.5" stroke-linecap="round"/><path d="M249.00812,83.95062l29.69743,16.10423" fill="none" stroke="#000000" stroke-width="2.5" stroke-linecap="round"/><path d="M254.92548,78.68637l21.30328,11.22917" fill="none" stroke="#000000" stroke-width="2.5" stroke-linecap="round"/><path d="M276.33228,86.24975l-12.98332,37.46705" fill="none" stroke="#000000" stroke-width="2.5" stroke-linecap="round"/><path d="M254.85129,122.5075l15.44786,-44.05913" fill="none" stroke="#000000" stroke-width="2.5" stroke-linecap="round"/><path d="M262.04054,77.35676l-13.61917,39.38412" fill="none" stroke="#000000" stroke-width="2.5" stroke-linecap="round"/></g><path d="M168.4823,40.66582l33.65271,21.13362" fill="none" stroke="#000000" stroke-width="5" stroke-linecap="round"/><path d="M241.41128,32.26802l-13.38872,30.30079" fill="none" stroke="#000000" stroke-width="5" stroke-linecap="round"/></g></g></svg>