<svg version="1.1" xmlns="http://www.w3.org/2000/svg" xmlns:xlink="http://www.w3.org/1999/xlink" width="310.10492" height="337.28048" viewBox="0,0,310.10492,337.28048"><g transform="translate(-49.49162,3.10661)"><g data-paper-data="{&quot;isPaintingLayer&quot;:true}" fill-rule="nonzero" stroke-linejoin="miter" stroke-miterlimit="10" stroke-dasharray="" stroke-dashoffset="0" style="mix-blend-mode: normal"><g stroke-linecap="butt"><path d="M355.00338,146.08819c-0.16619,0.97713 -18.7818,28.10481 -36.28969,53.50693c-15.08381,21.88502 -29.22044,42.60458 -31.49315,42.86513c-2.51274,0.28806 -24.83126,-22.24428 -24.46595,-24.63353c0.83675,-5.47277 61.54554,-92.43165 66.47751,-96.20664c3.5459,-2.71406 26.48745,20.25776 25.77128,24.46811z" fill="#c41414" stroke="none" stroke-width="0"/><path d="M356.80641,142.67517l-14.43588,19.79032l-26.53798,-21.93622l14.43588,-19.79033z" fill="#ef99b4" stroke="none" stroke-width="NaN"/><path d="M342.71173,161.33507l-8.5137,14.06648l-26.06696,-21.72602l8.5137,-14.06648z" fill="#d8d8d8" stroke="none" stroke-width="NaN"/><path d="M355.8118,145.33996c-0.16619,0.97713 -18.7818,28.10481 -36.28969,53.50692c-15.08381,21.88502 -29.22043,42.60459 -31.49314,42.86514c-2.51274,0.28806 -24.83126,-22.24428 -24.46595,-24.63353c0.83675,-5.47277 61.54553,-92.43166 66.4775,-96.20664c3.5459,-2.71406 26.48746,20.25776 25.77129,24.46811z" fill="none" stroke="#000000" stroke-width="5"/></g><g stroke="#000000" stroke-width="5"><path d="M127.2262,241.45244l44.46147,35.87271l-6.55252,11.67721l-44.96551,-34.97447z" fill="#825800" stroke-linecap="round"/><path d="M120.16964,254.02788c0,0 -6.66414,15.93395 -10.18376,20.47625c-3.09839,3.99867 -10.86105,5.22179 -10.86105,5.22179c0,0 3.45136,-12.46583 5.77117,-17.64999c1.96983,-4.40205 7.27025,-11.49406 7.27025,-11.49406l7.676,-14.66322c0,0 4.60154,-9.91624 7.74157,-14.37999c3.22493,-4.58445 11.3601,-12.7743 11.3601,-12.7743c0,0 0.94863,9.07613 -0.78499,14.21386c-1.86511,5.52744 -10.04007,17.8672 -10.04007,17.8672z" fill="#00a5a5" stroke-linecap="round"/><path d="M108.29645,254.78247l-47.95049,-28.40324l-7.6231,-28.36556l21.61313,-0.7397l49.60494,29.42483z" fill="#00ffff" stroke-linecap="round"/><path d="M184.77241,296.31128c-3.14717,5.60855 -9.52633,7.28645 -14.24827,3.74769c-4.72194,-3.53876 -5.99856,-10.95413 -2.8514,-16.56269c3.14717,-5.60855 9.52633,-7.28645 14.24828,-3.74769c4.72194,3.53876 5.99856,10.95413 2.85139,16.56268z" fill="#00a5a5" stroke-linecap="butt"/></g><g stroke-linecap="butt"><path d="M130.19429,260.49705c0.0846,-0.99102 16.3707,-30.05123 31.69692,-57.27141c13.20421,-23.45137 25.56197,-45.63793 27.80272,-46.1484c2.47739,-0.56438 26.55775,19.39881 26.39178,21.81748c-0.38016,5.54015 -53.61689,98.80833 -58.21397,103.11094c-3.30513,3.09342 -28.04201,-17.2384 -27.67744,-21.5086z" fill="#c41414" stroke="none" stroke-width="0"/><path d="M129.35238,263.51211l11.84599,-21.46567l27.57313,20.09503l-11.84599,21.46565z" fill="#ef99b4" stroke="none" stroke-width="NaN"/><path d="M141.16828,243.96191l7.31102,-14.94271l27.74491,18.7464l-7.31102,14.94272z" fill="#d8d8d8" stroke="none" stroke-width="NaN"/><path d="M129.45148,261.33117c0.0846,-0.99102 16.3707,-30.05123 31.69691,-57.2714c13.20421,-23.45137 25.56198,-45.63794 27.80273,-46.14841c2.47739,-0.56438 26.55775,19.39882 26.39178,21.81749c-0.38016,5.54015 -53.6169,98.80833 -58.21398,103.11094c-3.30513,3.09342 -28.04201,-17.23841 -27.67744,-21.50861z" fill="none" stroke="#000000" stroke-width="5"/></g><g stroke-linecap="round"><path d="M228.92142,278.14636c0,0 -7.61333,49.54849 -13.43254,53.5293c-4.46089,3.05161 -32.7371,0.66938 -35.20253,0.53529c-3.97315,-0.21609 12.01457,-22.04514 14.35893,-31.04699c2.34436,-9.00185 0,-24.08818 0,-24.08818z" fill="#c41414" stroke="none" stroke-width="0"/><path d="M222.55254,301.1048l-6.25308,25.42642l-2.54755,3.21176l-11.34818,1.07059l-21.30679,-1.33823c0,0 10.51002,-15.00805 13.11843,-20.3945c1.71136,-3.534 2.63007,-8.77897 2.63007,-8.77897z" fill="#5b5a5a" stroke="#5b5a5a" stroke-width="0.5"/><path d="M228.45823,279.70631c0,0 -7.50597,47.42275 -13.24311,51.23276c-4.39798,2.92069 -32.27542,0.64067 -34.70608,0.51233c-3.91712,-0.20682 11.84513,-21.09935 14.15643,-29.715c2.3113,-8.61565 0,-23.05475 0,-23.05475z" fill="none" stroke="#000000" stroke-width="5"/></g><g stroke-linecap="round"><path d="M283.57798,281.62577c0,0 14.73302,49.67625 9.72701,49.78047c-6.8271,0.14214 -25.15419,-0.77533 -30.57062,-0.60708c-7.40411,0.22999 9.02103,-10.12635 8.80063,-21.24777c-0.2204,-11.12141 -9.72701,-25.49731 -9.72701,-25.49731z" fill="#c41414" stroke="none" stroke-width="0"/><path d="M286.24133,299.49892c0,0 2.56923,7.72917 3.36935,12.11134c0.94968,5.20127 3.11532,18.66801 3.11532,18.66801l-28.94945,-1.33823l9.03223,-16.32644c0,0 -0.03643,-5.96289 -0.2459,-8.23834c-0.16666,-1.81044 -0.44889,-4.87634 -0.44889,-4.87634z" fill="#5a5b5a" stroke="#5a5b5a" stroke-width="0.5"/><path d="M283.57798,281.8934c0,0 14.73302,49.67625 9.72701,49.78047c-6.8271,0.14214 -25.15419,-0.77533 -30.57062,-0.60708c-7.40411,0.22999 9.02103,-10.12635 8.80063,-21.24777c-0.2204,-11.12141 -9.72701,-25.49731 -9.72701,-25.49731z" fill="none" stroke="#000000" stroke-width="5"/></g><path d="M194.04297,283.31154c-1.12052,-0.80132 -3.33042,-35.331 -5.24208,-67.73133c-1.64698,-27.91429 -3.50325,-54.21576 0.79737,-56.38431c4.75481,-2.39759 84.56965,-6.86084 87.39434,-4.93753c6.47021,4.40551 11.41644,116.00042 6.89114,122.85954c-3.25352,4.93145 -85.01253,9.64646 -89.84076,6.19363z" fill="#c41414" stroke="#000000" stroke-width="5" stroke-linecap="butt"/><g><g stroke-linecap="round"><path d="M263.32025,158.44178c0,0 -5.93224,31.39678 -4.68184,57.21085c1.25039,25.81405 10.55866,64.11542 10.55866,64.11542l-53.7375,1.87985c0,0 4.24357,-43.24012 2.84576,-65.11956c-1.39781,-21.87944 -10.4516,-53.93153 -10.4516,-53.93153z" fill="#f7f6f6" stroke="none" stroke-width="0"/><path d="M217.65082,279.3381l5.1141,-57.77965l-10.10923,-56.10285l46.22212,-3.46253l-3.44499,54.43613l10.31896,59.84205z" fill="none" stroke="#c6c7c7" stroke-width="5"/><path d="M263.38017,159.51012c0,0 -5.93224,31.39678 -4.68184,57.21085c1.25039,25.81405 10.55866,64.11542 10.55866,64.11542l-53.7375,1.87985c0,0 4.24357,-43.24012 2.84576,-65.11956c-1.39781,-21.87944 -10.4516,-53.93153 -10.4516,-53.93153z" fill="none" stroke="#000000" stroke-width="5"/></g><path d="M230.55622,194.9586c-0.23993,-4.27772 2.56624,-7.97028 6.26776,-8.24756c3.70153,-0.27728 6.89671,2.96572 7.13665,7.24342c0.23993,4.27772 -2.56624,7.97028 -6.26776,8.24756c-3.70153,0.27728 -6.89671,-2.96571 -7.13665,-7.24342z" fill="#ffd901" stroke="none" stroke-width="NaN" stroke-linecap="butt"/><path d="M231.66479,214.72296c-0.23993,-4.27772 2.56624,-7.97028 6.26776,-8.24756c3.70154,-0.27729 6.89671,2.96571 7.13665,7.24342c0.23993,4.27772 -2.56623,7.97028 -6.26776,8.24756c-3.70154,0.27729 -6.89671,-2.96571 -7.13665,-7.24342z" fill="#ffd901" stroke="none" stroke-width="NaN" stroke-linecap="butt"/><path d="M232.74341,233.95315c-0.23993,-4.27772 2.56623,-7.97028 6.26776,-8.24757c3.70154,-0.27729 6.89672,2.96572 7.13666,7.24343c0.23994,4.27773 -2.56624,7.97027 -6.26776,8.24756c-3.70154,0.27729 -6.89671,-2.96569 -7.13665,-7.24342z" fill="#ffd901" stroke="none" stroke-width="NaN" stroke-linecap="butt"/></g><g><path d="M181.33702,167.14951c-1.34998,-0.7218 -4.854,-35.10877 -7.94979,-67.38673c-2.66715,-27.80885 -5.54145,-53.98931 -0.49413,-56.46534c5.58034,-2.73752 100.16692,-12.89179 103.56754,-11.16898c7.78945,3.94621 16.50862,115.23644 11.31454,122.42105c-3.73435,5.16546 -100.62127,15.71016 -106.43816,12.6z" fill="#ffbbce" stroke="#000000" stroke-width="5" stroke-linecap="butt"/><g stroke="#000000" stroke-width="5" stroke-linecap="butt"><path d="M176.84644,110.4949c-0.46634,-0.15503 -1.32923,-8.3535 -2.07132,-16.05172c-0.63934,-6.63235 -1.36882,-12.87148 0.43005,-13.53258c1.98883,-0.73092 35.31211,-4.42902 36.48786,-4.06135c2.69313,0.84218 4.56533,27.41076 2.6646,29.20285c-1.36656,1.28845 -35.5018,5.11087 -37.51119,4.44282z" fill="#ffffff"/><path d="M194.95159,105.71374c-0.23425,-0.17603 -0.66976,-7.3533 -1.04447,-14.08652c-0.32283,-5.80097 -0.69081,-11.26948 0.21245,-11.68091c0.99865,-0.45489 17.73343,-0.67314 18.32402,-0.24945c1.35278,0.97053 2.29998,24.14697 1.34585,25.52873c-0.68599,0.99343 -17.82851,1.24665 -18.83785,0.48814z" fill="#000000"/></g><g stroke="#000000" stroke-width="5" stroke-linecap="butt"><path d="M246.52113,100.91562c-0.46363,-0.16556 -1.18763,-8.38196 -1.79929,-16.09548c-0.52698,-6.64553 -1.15074,-12.89995 0.65896,-13.52029c2.00084,-0.68584 35.38032,-3.63011 36.54962,-3.23593c2.67837,0.90289 4.10062,27.50871 2.16991,29.2575c-1.38811,1.25732 -35.58148,4.30755 -37.5792,3.5942z" fill="#ffffff"/><path d="M264.70372,96.54455c-0.23123,-0.18129 -0.5452,-7.36704 -0.8059,-14.10745c-0.2246,-5.80716 -0.49998,-11.28293 0.41008,-11.67387c1.00616,-0.43222 17.74144,-0.27223 18.32473,0.16473c1.33609,1.00091 1.89093,24.19434 0.9136,25.55427c-0.70265,0.97772 -17.8462,0.84349 -18.84251,0.06232z" fill="#000000"/></g><g stroke="#000000" stroke-width="5"><path d="M181.27632,11.5774l0.67089,12.29896l7.36914,-0.90962l0.20107,-12.94493l17.91309,-2.74947l3.07212,13.07923l26.66394,-3.82964l-1.08226,-11.70983l19.70619,-3.50913l2.29856,14.78973l6.90857,-0.85276l0.05349,-14.54173l18.06068,-1.15267l2.24508,29.33144l-5.4463,6.59398l-110.94851,14.23343l-5.31226,-2.03595l-2.07966,-32.5819z" fill="#fee70a" stroke-linecap="round"/><path d="M187.86331,42.52626c-4.5786,0.56516 -8.60965,-2.43208 -9.00359,-6.69453c-0.39394,-4.26244 2.99838,-8.176 7.57697,-8.74116c4.5786,-0.56516 8.60965,2.43208 9.00359,6.69452c0.39394,4.26244 -2.99838,8.17601 -7.57697,8.74117z" fill="#7e93ff" stroke-linecap="butt"/><path d="M226.6497,38.81526c-5.59606,0.69076 -10.50699,-2.80043 -10.96887,-7.79778c-0.46187,-4.99736 3.70021,-9.60849 9.29627,-10.29924c5.59606,-0.69076 10.50699,2.80043 10.96887,7.79778c0.46187,4.99736 -3.70021,9.60849 -9.29627,10.29924z" fill="#0026ff" stroke-linecap="butt"/><path d="M263.26513,34.2956c-5.72325,0.70646 -10.70425,-2.41456 -11.12536,-6.97096c-0.42112,-4.5564 3.8771,-8.82281 9.60036,-9.52926c5.72325,-0.70646 10.70424,2.41456 11.12536,6.97096c0.42112,4.5564 -3.8771,8.82281 -9.60035,9.52926z" fill="#b6ff00" stroke-linecap="butt"/></g><g stroke-linecap="butt"><path d="M213.99216,153.87517c-0.53538,-0.1643 -1.49111,-9.07559 -2.31015,-17.44377c-0.70563,-7.20956 -1.51664,-13.99047 0.55414,-14.72659c2.28946,-0.81387 40.61194,-5.14978 41.96187,-4.76081c3.09212,0.89097 5.12691,29.77823 2.93404,31.74574c-1.57659,1.41455 -40.83299,5.89338 -43.1399,5.18544z" fill="#fea3c1" stroke="none" stroke-width="0"/><path d="M214.0723,134.57688l-1.03306,-11.17758l42.37257,-5.23032l1.03306,11.17757z" fill="#ffc7d9" stroke="none" stroke-width="0"/><path d="M216.08692,133.26728c0.37002,-0.07239 0.64626,-0.04326 0.64626,-0.04326l3.76657,1.00633c0.31229,1.51593 0.80049,2.99747 0.9369,4.54776c0.38766,4.40581 -1.62597,11.71798 -7.18267,7.17292c-1.89023,-1.54609 -0.6737,-8.02491 -0.49819,-10.24796c0,0 0.19902,-2.52071 2.33113,-2.43579z" fill="#563741" stroke="none" stroke-width="0.5"/><path d="M255.23582,129.67054c0.66816,0.56175 1.1728,1.49841 1.45387,2.50911c1.69555,1.24154 3.22699,2.74646 2.23803,6.02444c-1.05849,3.50842 -5.82511,5.1968 -8.33778,2.72344c-1.69102,-1.66456 -1.48783,-7.99094 0.66165,-10.66361c0.26509,-0.75899 0.88816,-1.73973 2.32731,-1.58798c0.84621,0.08923 1.35362,0.50452 1.65692,0.9946z" fill="#563741" stroke="none" stroke-width="0.5"/><path d="M214.60914,155.50579l-0.54113,-5.85493l44.67543,-5.51458l0.54113,5.85492z" fill="#a06778" stroke="none" stroke-width="0"/><path d="M214.55112,154.88285c-0.53538,-0.1643 -1.4911,-9.07559 -2.31014,-17.44377c-0.70563,-7.20956 -1.51664,-13.99047 0.55413,-14.72659c2.28946,-0.81387 40.61194,-5.14978 41.96187,-4.76081c3.09212,0.89097 5.12691,29.77823 2.93404,31.74574c-1.57659,1.41455 -40.833,5.89338 -43.1399,5.18544z" fill="none" stroke="#000000" stroke-width="5"/></g></g><g><path d="M346.26708,156.06647c-8.87409,0.38129 -54.28218,-21.56651 -54.28218,-21.56651c0,0 8.50562,-8.61168 10.07367,-13.53314c1.63667,-5.13681 -0.45068,-16.66933 -0.45068,-16.66933c0,0 44.4466,19.63452 53.8778,27.47408c5.56833,4.6286 -0.34453,23.91362 -9.21861,24.29491z" fill="#343545" stroke="none" stroke-width="0" stroke-linecap="butt"/><path d="M272.01473,133.06241c-10.17641,-4.37847 -14.76891,-17.56593 -10.25764,-29.45503c4.51128,-11.8891 16.41801,-17.97769 26.59443,-13.59924c10.17642,4.37846 14.76892,17.56593 10.25765,29.45504c-4.51128,11.8891 -16.41801,17.97769 -26.59443,13.59924z" fill="#343545" stroke="none" stroke-width="0" stroke-linecap="butt"/><path d="M305.93067,134.06089l40.6632,18.7491" fill="none" stroke="#485e84" stroke-width="10" stroke-linecap="round"/><path d="M345.71079,155.11163c-8.87409,0.38129 -54.28218,-21.56652 -54.28218,-21.56652c0,0 8.50563,-8.61169 10.07368,-13.53314c1.63667,-5.13681 -0.45068,-16.66931 -0.45068,-16.66931c0,0 44.44661,19.63452 53.87781,27.47407c5.56833,4.6286 -0.34453,23.91361 -9.21862,24.29491z" fill="none" stroke="#000000" stroke-width="5" stroke-linecap="butt"/><path d="M279.59137,138.11099l-19.57658,-20.22827l8.69217,-24.52142c0,0 12.34739,6.76162 16.35416,11.91025c4.33775,5.57392 6.7447,24.85847 6.7447,24.85847z" fill="#485f85" stroke="none" stroke-width="0" stroke-linecap="butt"/><path d="M272.16127,133.48319c-10.17642,-4.37846 -14.76892,-17.56593 -10.25765,-29.45504c4.51128,-11.8891 16.41802,-17.97768 26.59444,-13.59923c10.17642,4.37846 14.76891,17.56594 10.25764,29.45504c-4.51128,11.8891 -16.418,17.97767 -26.59443,13.59922z" fill="none" stroke="#000000" stroke-width="5" stroke-linecap="butt"/><path d="M302.92961,135.68219c-2.67146,2.96423 -10.086,-2.5874 -10.086,-2.5874c0,0 4.71887,-9.99033 6.4614,-14.72242c1.81878,-4.93917 4.23233,-14.31793 4.23233,-14.31793c0,0 7.74138,3.83145 8.42261,7.82905c0.4022,2.36025 -6.35887,20.83449 -9.03034,23.79872z" fill="#485f85" stroke="#000101" stroke-width="5" stroke-linecap="butt"/><path d="M293.35266,126.86045l-29.74488,-12.7979" fill="none" stroke="#000000" stroke-width="2.5" stroke-linecap="round"/><path d="M284.20472,130.79473l-21.08817,-9.78877" fill="none" stroke="#000000" stroke-width="2.5" stroke-linecap="round"/><path d="M262.19671,104.86973l35.156,15.48382" fill="none" stroke="#000000" stroke-width="2.5" stroke-linecap="round"/><path d="M298.25101,110.72339l-32.70009,-15.50034" fill="none" stroke="#000000" stroke-width="2.5" stroke-linecap="round"/><path d="M295.5238,100.96429l-23.45723,-10.80809" fill="none" stroke="#000000" stroke-width="2.5" stroke-linecap="round"/><path d="M295.63778,97.43595l-14.29604,36.06208" fill="none" stroke="#000000" stroke-width="2.5" stroke-linecap="round"/><path d="M271.98489,132.33408l17.00978,-42.40696" fill="none" stroke="#000000" stroke-width="2.5" stroke-linecap="round"/><path d="M264.90485,126.78371l14.99618,-37.90726" fill="none" stroke="#000000" stroke-width="2.5" stroke-linecap="round"/></g><path d="M176.88324,53.56138l37.05529,20.34113" fill="none" stroke="#000000" stroke-width="5" stroke-linecap="round"/><path d="M260.43736,43.54273l-19.73075,31.71013" fill="none" stroke="#000000" stroke-width="5" stroke-linecap="round"/></g></g></svg>